<svg xmlns="http://www.w3.org/2000/svg" width="257" height="136" fill="none"><path fill="#fff" fill-opacity=".2" d="M26.777 109.705h7.878c2.55 14.589 15.278 25.725 30.592 25.725 15.308 0 28.037-11.136 30.587-25.725h60.581c2.549 14.589 15.276 25.725 30.587 25.725s28.042-11.136 30.592-25.725h28.761c5.794 0 10.506-4.712 10.506-10.506V70.293c0-14.762-12.013-26.776-26.776-26.776h-31.948C178.43 24.696 169.133 0 140.315 0H75.784C61.13 0 47.654 7.361 39.731 19.692L24.44 43.515l-19.085.002A5.353 5.353 0 0 0 0 48.872v34.057c0 14.765 12.014 26.776 26.776 26.776m38.47 15.015c-11.21 0-20.329-9.102-20.368-20.301.002-.024.015-.045.015-.069s-.013-.045-.015-.069c.04-11.201 9.16-20.303 20.368-20.303 11.233 0 20.37 9.14 20.37 20.372s-9.137 20.37-20.37 20.37m121.756 0c-11.233 0-20.37-9.139-20.37-20.37 0-11.233 9.136-20.371 20.37-20.371 11.221 0 20.352 9.12 20.371 20.337 0 .014-.006.023-.006.036 0 .011.006.022.006.035-.019 11.213-9.15 20.333-20.371 20.333m-3.176-81.204h-68.102V10.711h24.591c21.619 0 28.706 18.654 43.511 32.805M48.751 25.483c5.941-9.25 16.044-14.772 27.038-14.772h29.228v32.805H37.168zM10.714 54.228h219.374c8.858 0 16.066 7.205 16.066 16.066l.204 28.7h-28.762c-2.549-14.593-15.276-25.728-30.591-25.728-15.309 0-28.038 11.135-30.587 25.728H95.837C93.287 84.401 80.56 73.266 65.25 73.266c-15.314 0-28.042 11.135-30.592 25.728h-7.876c-8.859 0-16.067-7.205-16.067-16.067z"/></svg>