<svg xmlns="http://www.w3.org/2000/svg" width="28" height="28" fill="none"><path fill="#fff" fill-rule="evenodd" d="M7.875 18.667a1.458 1.458 0 1 0 0-2.917 1.458 1.458 0 0 0 0 2.917M20.125 18.667a1.458 1.458 0 1 0 0-2.917 1.458 1.458 0 0 0 0 2.917" clip-rule="evenodd"/><path stroke="#fff" stroke-linejoin="round" stroke-width="2.5" d="M4.084 21.583a1.75 1.75 0 0 1-1.75-1.75v-5.419a3.5 3.5 0 0 1 1.935-3.131l.398-.199 1.348-5.78A2.33 2.33 0 0 1 8.287 3.5h11.485c1.093 0 2.039.758 2.277 1.825l1.286 5.76.397.198a3.5 3.5 0 0 1 1.935 3.13v5.42a1.75 1.75 0 0 1-1.75 1.75h-1.165v.584a2.334 2.334 0 0 1-4.668 0v-.584H9.917v.584a2.333 2.333 0 1 1-4.666 0v-.584z"/><path stroke="#fff" stroke-linejoin="round" stroke-width="2.5" d="M8.166 12.833h11.667l-.963-4.336a1.17 1.17 0 0 0-1.14-.914H10.27c-.547 0-1.02.38-1.139.914z"/></svg>