<svg xmlns="http://www.w3.org/2000/svg" width="175" height="1236" fill="none"><rect width="453" height="171" x="3.5" y="1235.5" fill="#4117FF" fill-opacity=".3" rx="85.5" transform="rotate(-90 3.5 1235.5)"/><rect width="417" height="171" x="174.5" y="287.5" fill="#FF428F" fill-opacity=".3" rx="85.5" transform="rotate(90 174.5 287.5)"/><rect width="430" height="171" x="3.5" y="960.5" fill="#FF428F" fill-opacity=".3" rx="85.5" transform="rotate(-90 3.5 960.5)"/><rect width="453" height="171" x="174.5" y=".5" fill="#FFE417" fill-opacity=".3" rx="85.5" transform="rotate(90 174.5 .5)"/><circle cx="87.5" cy="87.5" r="87" fill="url(#a)" fill-opacity=".2"/><circle cx="87.501" cy="87.5" r="75.734" fill="url(#b)" fill-opacity=".8"/><path fill="#fff" d="M79.952 74.652h5.91c3.49 0 5.736 1.79 5.736 4.844v.04c0 3.25-2.504 4.965-5.933 4.965h-1.882v3.929h-3.83zm5.635 6.854c1.359 0 2.187-.707 2.187-1.79v-.053c0-1.185-.828-1.813-2.207-1.813h-1.784v3.656zM92.758 81.585v-.039c0-3.958 3.192-7.169 7.445-7.169s7.41 3.172 7.41 7.13v.039c0 3.96-3.192 7.172-7.449 7.172s-7.406-3.162-7.406-7.133m10.955 0v-.039c0-1.99-1.437-3.722-3.549-3.722s-3.487 1.692-3.487 3.683v.039c0 1.99 1.438 3.722 3.526 3.722s3.51-1.676 3.51-3.683M109.611 74.652h6.526c2.105 0 3.562.55 4.489 1.496.808.789 1.221 1.852 1.221 3.21v.04c0 2.108-1.123 3.506-2.836 4.236l3.275 4.805h-4.398l-2.779-4.173h-1.674v4.173h-3.824zm6.359 6.619c1.309 0 2.049-.632 2.049-1.637v-.043c0-1.083-.789-1.636-2.069-1.636h-2.501v3.316zM127.157 78h-4.139v-3.348h12.115V78h-4.155v10.44h-3.821zM52.269 92.312a4.34 4.34 0 0 1-7.412 3.069 4.34 4.34 0 0 1-1.271-3.07H39.87a8.055 8.055 0 0 0 8.057 8.056 8.06 8.06 0 0 0 8.058-8.056zM79.66 92.312a4.344 4.344 0 1 1-8.685 0h-3.71a8.052 8.052 0 0 0 11.137 7.44 8.05 8.05 0 0 0 4.972-7.44zM135.112 89.762H39.87V91h95.242zM63.674 94.623l-2.05 2.045-2.05-2.046h-3.346l5.396 5.395 5.396-5.394z"/><path fill="#fff" fill-opacity=".9" d="M56.944 364.784h5.088c2.896 0 4.56 1.44 4.56 3.984 0 2.672-1.664 4.208-4.56 4.208h-1.76V376h-3.328zm3.328 2.56v3.072h1.6c.992 0 1.568-.544 1.568-1.552 0-.976-.576-1.52-1.568-1.52zm10.858-.048v1.376c.608-.96 1.552-1.504 2.736-1.504v2.912c-1.664-.208-2.736.496-2.736 1.76V376h-3.232v-8.704zm8.053-.112c2.928 0 4.832 1.76 4.832 4.464 0 2.688-1.904 4.464-4.832 4.464s-4.848-1.776-4.848-4.464c0-2.704 1.92-4.464 4.848-4.464m0 2.56c-.96 0-1.584.784-1.584 1.936 0 1.168.624 1.936 1.584 1.936.944 0 1.568-.768 1.568-1.936 0-1.152-.624-1.936-1.568-1.936m15.081-5.616V376h-3.231v-.992c-.576.704-1.392 1.104-2.385 1.104-2.431 0-4.031-1.776-4.031-4.512 0-2.672 1.567-4.416 3.951-4.416 1.025 0 1.873.4 2.465 1.12v-4.176zm-4.8 9.504c.945 0 1.569-.784 1.569-1.952 0-1.152-.624-1.936-1.569-1.936-.96 0-1.584.784-1.584 1.936 0 1.168.624 1.952 1.585 1.952m15.576-6.336V376h-3.232v-1.296c-.592.928-1.504 1.44-2.672 1.44-1.824 0-3.072-1.296-3.072-3.328v-5.52h3.232v4.608c0 .848.464 1.392 1.168 1.392.832-.016 1.344-.704 1.344-1.696v-4.304zm5.84-.112c1.824 0 3.28.832 4.016 2.272l-2.48 1.216c-.304-.544-.784-.864-1.392-.864-.864 0-1.44.752-1.44 1.856 0 1.136.576 1.888 1.44 1.888.624 0 1.104-.304 1.376-.96l2.512 1.264c-.672 1.44-2.144 2.256-4.064 2.256-2.736 0-4.528-1.76-4.528-4.432 0-2.704 1.808-4.496 4.56-4.496m10.472 6.176.576 2.224c-.608.352-1.536.56-2.416.56-1.856.016-3.104-1.056-3.104-2.864v-3.472h-1.2v-2.064h1.2v-2.416h3.216v2.416h2.144v2.064h-2.144v2.976c0 .56.288.832.736.832.256 0 .608-.112.992-.256M81.28 875.712l-4.521-.247-.769 1.753-3.418-.186 5.387-10.939 3.419.186 4.007 11.451-3.547-.193zm-.746-2.477-1.143-3.731-1.573 3.583zm6.278-6.66 5.08.277c2.892.158 4.475 1.686 4.337 4.226-.146 2.668-1.89 4.112-4.782 3.954l-1.758-.096-.164 3.02-3.324-.181zm3.184 2.738-.168 3.067 1.598.087c.99.054 1.595-.458 1.65-1.464.053-.975-.492-1.549-1.483-1.603zm7.722-2.143 5.08.277c2.892.157 4.475 1.686 4.336 4.226-.145 2.668-1.89 4.111-4.782 3.953l-1.757-.095-.165 3.019-3.323-.181zm3.183 2.737-.167 3.067 1.598.087c.99.054 1.595-.457 1.65-1.464.053-.974-.493-1.549-1.483-1.603z"/><circle cx="87.4" cy="617.308" r="86.9" fill="url(#c)" fill-opacity=".2" transform="rotate(90 87.4 617.308)"/><circle cx="87.4" cy="617.307" r="72.416" fill="url(#d)" fill-opacity=".8" transform="rotate(90 87.4 617.307)"/><path fill="#fff" d="M49.645 621.175a3.495 3.495 0 1 1-6.986 0h-2.988a6.485 6.485 0 0 0 11.012 4.487 6.49 6.49 0 0 0 1.95-4.487zM71.683 621.175a3.494 3.494 0 1 1-6.989 0h-2.982a6.479 6.479 0 1 0 12.96 0zM134.823 619.16H39.671v.92h95.152zM58.82 623.037l-1.647 1.647-1.651-1.647h-2.69l4.34 4.341 4.342-4.341zM61.513 616.261l1.644-1.967a5.5 5.5 0 0 0 3.46 1.282c.793 0 1.218-.274 1.218-.73v-.032c0-.442-.351-.702-1.798-1.022-2.269-.516-4.021-1.159-4.021-3.354v-.028c0-1.984 1.57-3.414 4.13-3.414a6.73 6.73 0 0 1 4.39 1.405l-1.479 2.09a5.37 5.37 0 0 0-2.989-1.054c-.702 0-1.053.306-1.053.703v.028c0 .488.351.702 1.844 1.036 2.458.534 3.979 1.327 3.979 3.326v.028c0 2.177-1.721 3.473-4.313 3.473a7.45 7.45 0 0 1-5.012-1.77M71.898 612.539v-.028a5.48 5.48 0 0 1 5.62-5.549c2.18 0 3.581.913 4.526 2.223l-2.227 1.725c-.607-.762-1.31-1.251-2.331-1.251-1.493 0-2.547 1.265-2.547 2.81v.032c0 1.598 1.054 2.848 2.547 2.848 1.113 0 1.756-.516 2.409-1.296l2.223 1.584a5.62 5.62 0 0 1-10.22-3.098M82.722 612.539v-.028c0-3.066 2.458-5.549 5.763-5.549s5.728 2.458 5.728 5.517v.032c0 3.062-2.458 5.545-5.76 5.545-3.3 0-5.731-2.448-5.731-5.517m8.492 0v-.028c0-1.542-1.113-2.884-2.743-2.884s-2.697 1.314-2.697 2.852v.032c0 1.538 1.113 2.88 2.729 2.88 1.615 0 2.71-1.307 2.71-2.852M95.76 607.179h2.956v8.078h5.167v2.589h-8.124zM105.153 607.179h2.958v8.078h5.166v2.589h-8.124zM114.548 607.179h8.58v2.515h-5.654v1.616h5.12v2.332h-5.12v1.706h5.732v2.512h-8.658zM127.794 613.852l-4.053-6.673h3.368l2.195 3.885 2.21-3.885h3.308l-4.053 6.628v4.039h-2.975z"/><circle cx="87.5" cy="1147.5" r="87" fill="url(#e)" fill-opacity=".2" transform="rotate(90 87.5 1147.5)"/><circle cx="87.5" cy="1147.5" r="72.6" fill="url(#f)" fill-opacity=".8" transform="rotate(90 87.5 1147.5)"/><path fill="#fff" d="M58.015 1155.08c.026.84-.117 1.68-.42 2.47-.304.78-.763 1.5-1.349 2.11a6.4 6.4 0 0 1-2.063 1.41 6.26 6.26 0 0 1-4.903 0 6.4 6.4 0 0 1-2.063-1.41 6.4 6.4 0 0 1-1.348-2.11 6.3 6.3 0 0 1-.42-2.47h-5.376c.07 3.05 1.33 5.94 3.509 8.07a11.66 11.66 0 0 0 8.15 3.32c3.046 0 5.97-1.19 8.15-3.32a11.66 11.66 0 0 0 3.509-8.07zM97.657 1155.08a6.28 6.28 0 0 1-6.286 6.29 6.28 6.28 0 0 1-4.445-1.84 6.3 6.3 0 0 1-1.841-4.45h-5.364c0 3.09 1.228 6.06 3.414 8.24a11.644 11.644 0 0 0 16.484 0 11.64 11.64 0 0 0 3.414-8.24zM135.335 1151.46H40.073v1.65h95.262zM74.516 1158.43l-2.963 2.96-2.969-2.96h-4.84l7.81 7.81 7.808-7.81zM93.777 1138.25v-.05c0-5.56 4.366-9.93 10.285-9.93 2.843-.1 5.615.9 7.746 2.79l-3.109 3.72a6.8 6.8 0 0 0-4.612-1.8c-2.754 0-4.883 2.32-4.883 5.24v.06a5 5 0 0 0 .326 2.03c.248.65.626 1.24 1.112 1.74a5 5 0 0 0 3.742 1.51c1.076.05 2.14-.22 3.058-.79v-2.3h-3.79v-3.87h8.787v8.59a12.92 12.92 0 0 1-8.295 2.94c-5.92 0-10.367-4.09-10.367-9.88M114.765 1138.25v-.05c0-5.48 4.422-9.93 10.31-9.93s10.241 4.39 10.241 9.87v.06c0 5.48-4.422 9.93-10.31 9.93s-10.241-4.39-10.241-9.88m15.162 0v-.05a4.95 4.95 0 0 0-.317-1.94 4.9 4.9 0 0 0-1.049-1.67 4.9 4.9 0 0 0-1.615-1.13 4.75 4.75 0 0 0-1.928-.41c-2.893 0-4.833 2.34-4.833 5.09v.06c0 2.76 1.99 5.16 4.884 5.16 2.893 0 4.864-2.35 4.864-5.11z"/><defs><radialGradient id="a" cx="0" cy="0" r="1" gradientTransform="rotate(90 0 87.5)scale(87)" gradientUnits="userSpaceOnUse"><stop stop-color="#FFE417" stop-opacity="0"/><stop offset="1" stop-color="#FFE417"/></radialGradient><radialGradient id="b" cx="0" cy="0" r="1" gradientTransform="rotate(90 0 87.5)scale(75.7338)" gradientUnits="userSpaceOnUse"><stop stop-color="#FFE417" stop-opacity=".57"/><stop offset="1" stop-color="#FFE417"/></radialGradient><radialGradient id="c" cx="0" cy="0" r="1" gradientTransform="rotate(90 -264.954 352.354)scale(86.8995)" gradientUnits="userSpaceOnUse"><stop stop-color="#FF428F" stop-opacity="0"/><stop offset="1" stop-color="#FF428F"/></radialGradient><radialGradient id="d" cx="0" cy="0" r="1" gradientTransform="rotate(90 -264.954 352.353)scale(72.4163)" gradientUnits="userSpaceOnUse"><stop stop-color="#FF428F" stop-opacity=".56"/><stop offset="1" stop-color="#FF428F"/></radialGradient><radialGradient id="e" cx="0" cy="0" r="1" gradientTransform="rotate(90 -530 617.5)scale(87)" gradientUnits="userSpaceOnUse"><stop stop-color="#4117FF" stop-opacity="0"/><stop offset="1" stop-color="#4117FF"/></radialGradient><radialGradient id="f" cx="0" cy="0" r="1" gradientTransform="rotate(90 -530 617.5)scale(72.6)" gradientUnits="userSpaceOnUse"><stop stop-color="#4117FF" stop-opacity=".56"/><stop offset="1" stop-color="#4117FF"/></radialGradient></defs></svg>