<svg xmlns="http://www.w3.org/2000/svg" width="1235" height="174" fill="none"><rect width="453" height="171" x="1235" y="171" fill="#4117FF" fill-opacity=".3" rx="85.5" transform="rotate(-180 1235 171)"/><rect width="417" height="171" x="287" fill="#FF428F" fill-opacity=".3" rx="85.5"/><rect width="430" height="171" x="960" y="171" fill="#FF428F" fill-opacity=".3" rx="85.5" transform="rotate(-180 960 171)"/><rect width="453" height="171" fill="#FFE417" fill-opacity=".3" rx="85.5"/><circle cx="87" cy="87" r="87" fill="url(#a)" fill-opacity=".2"/><circle cx="87.001" cy="87" r="75.734" fill="url(#b)" fill-opacity=".8"/><path fill="#fff" d="M79.452 74.152h5.91c3.49 0 5.736 1.79 5.736 4.844v.04c0 3.25-2.504 4.966-5.933 4.966h-1.882v3.928h-3.831zm5.635 6.854c1.359 0 2.187-.707 2.187-1.79v-.053c0-1.185-.828-1.813-2.207-1.813h-1.784v3.656zM92.258 81.085v-.039c0-3.958 3.192-7.169 7.445-7.169s7.41 3.172 7.41 7.13v.04c0 3.96-3.192 7.171-7.449 7.171s-7.406-3.162-7.406-7.133m10.955 0v-.039c0-1.99-1.437-3.722-3.549-3.722s-3.487 1.692-3.487 3.683v.04c0 1.99 1.438 3.721 3.526 3.721s3.51-1.676 3.51-3.683M109.111 74.152h6.526c2.105 0 3.562.55 4.489 1.496.808.789 1.221 1.853 1.221 3.211v.04c0 2.107-1.123 3.505-2.836 4.235l3.275 4.805h-4.398l-2.779-4.173h-1.674v4.173h-3.824zm6.359 6.619c1.309 0 2.049-.632 2.049-1.637v-.043c0-1.083-.789-1.636-2.069-1.636h-2.501v3.316zM126.657 77.5h-4.139v-3.348h12.115V77.5h-4.155v10.438h-3.821zM51.769 91.812a4.34 4.34 0 0 1-7.412 3.069 4.34 4.34 0 0 1-1.271-3.07H39.37a8.055 8.055 0 0 0 8.057 8.057 8.06 8.06 0 0 0 8.058-8.056zM79.16 91.812a4.344 4.344 0 0 1-7.456 3.148 4.34 4.34 0 0 1-1.23-3.148h-3.71a8.05 8.05 0 0 0 8.055 8.052 8.056 8.056 0 0 0 8.055-8.053zM134.612 89.262H39.37V90.5h95.242zM63.174 94.123l-2.05 2.045-2.05-2.046h-3.346l5.396 5.395 5.396-5.394z"/><path fill="#fff" fill-opacity=".9" d="M336.944 79.784h5.088c2.896 0 4.56 1.44 4.56 3.984 0 2.672-1.664 4.208-4.56 4.208h-1.76V91h-3.328zm3.328 2.56v3.072h1.6c.992 0 1.568-.544 1.568-1.552 0-.976-.576-1.52-1.568-1.52zm10.858-.048v1.376c.608-.96 1.552-1.504 2.736-1.504v2.912c-1.664-.208-2.736.496-2.736 1.76V91h-3.232v-8.704zm8.053-.112c2.928 0 4.832 1.76 4.832 4.464 0 2.688-1.904 4.464-4.832 4.464s-4.848-1.776-4.848-4.464c0-2.704 1.92-4.464 4.848-4.464m0 2.56c-.96 0-1.584.784-1.584 1.936 0 1.168.624 1.936 1.584 1.936.944 0 1.568-.768 1.568-1.936 0-1.152-.624-1.936-1.568-1.936m15.082-5.616V91h-3.232v-.992c-.576.704-1.392 1.104-2.384 1.104-2.432 0-4.032-1.776-4.032-4.512 0-2.672 1.568-4.416 3.952-4.416 1.024 0 1.872.4 2.464 1.12v-4.176zm-4.8 9.504c.944 0 1.568-.784 1.568-1.952 0-1.152-.624-1.936-1.568-1.936-.96 0-1.584.784-1.584 1.936 0 1.168.624 1.952 1.584 1.952m15.575-6.336V91h-3.232v-1.296c-.592.928-1.504 1.44-2.672 1.44-1.824 0-3.072-1.296-3.072-3.328v-5.52h3.232v4.608c0 .848.464 1.392 1.168 1.392.832-.016 1.344-.704 1.344-1.696v-4.304zm5.84-.112c1.824 0 3.28.832 4.016 2.272l-2.48 1.216c-.304-.544-.784-.864-1.392-.864-.864 0-1.44.752-1.44 1.856 0 1.136.576 1.888 1.44 1.888.624 0 1.104-.304 1.376-.96l2.512 1.264c-.672 1.44-2.144 2.256-4.064 2.256-2.736 0-4.528-1.76-4.528-4.432 0-2.704 1.808-4.496 4.56-4.496m10.472 6.176.576 2.224c-.608.352-1.536.56-2.416.56-1.856.016-3.104-1.056-3.104-2.864v-3.472h-1.2v-2.064h1.2v-2.416h3.216v2.416h2.144v2.064h-2.144v2.976c0 .56.288.832.736.832.256 0 .608-.112.992-.256M862.496 88.208h-4.528L857.296 90h-3.424l4.784-11.216h3.424L866.704 90h-3.552zm-.88-2.432-1.344-3.664-1.376 3.664zm5.906-6.992h5.088c2.896 0 4.56 1.44 4.56 3.984 0 2.672-1.664 4.208-4.56 4.208h-1.76V90h-3.328zm3.328 2.56v3.072h1.6c.992 0 1.568-.544 1.568-1.552 0-.976-.576-1.52-1.568-1.52zm7.594-2.56h5.088c2.896 0 4.56 1.44 4.56 3.984 0 2.672-1.664 4.208-4.56 4.208h-1.76V90h-3.328zm3.328 2.56v3.072h1.6c.992 0 1.568-.544 1.568-1.552 0-.976-.576-1.52-1.568-1.52z"/><circle cx="616.808" cy="87.1" r="86.9" fill="url(#c)" fill-opacity=".2"/><circle cx="616.807" cy="87.1" r="72.416" fill="url(#d)" fill-opacity=".8"/><path fill="#fff" d="M579.205 91.12a3.49 3.49 0 0 1-2.13 3.33 3.492 3.492 0 0 1-4.855-3.33h-2.989a6.482 6.482 0 0 0 12.963 0zM601.243 91.12a3.496 3.496 0 1 1-6.989 0h-2.981a6.48 6.48 0 1 0 12.959 0zM664.383 89.106h-95.152v.92h95.152zM588.38 92.982l-1.647 1.647-1.651-1.647h-2.69l4.341 4.341 4.341-4.34zM591.074 86.207l1.643-1.967a5.5 5.5 0 0 0 3.46 1.282c.793 0 1.218-.274 1.218-.73v-.032c0-.443-.351-.703-1.798-1.023-2.269-.516-4.021-1.158-4.021-3.353v-.029c0-1.984 1.57-3.413 4.13-3.413a6.73 6.73 0 0 1 4.39 1.405l-1.478 2.09a5.37 5.37 0 0 0-2.989-1.054c-.703 0-1.054.305-1.054.702v.028c0 .488.351.703 1.844 1.036 2.458.534 3.979 1.328 3.979 3.326v.028c0 2.178-1.721 3.474-4.313 3.474a7.45 7.45 0 0 1-5.011-1.77M601.458 82.485v-.028a5.49 5.49 0 0 1 1.629-3.97 5.47 5.47 0 0 1 3.99-1.58c2.181 0 3.583.914 4.527 2.224l-2.226 1.724c-.608-.762-1.31-1.25-2.332-1.25-1.493 0-2.546 1.264-2.546 2.81v.031c0 1.598 1.053 2.848 2.546 2.848 1.113 0 1.756-.516 2.409-1.296l2.223 1.584a5.618 5.618 0 0 1-10.22-3.097M612.282 82.484v-.028c0-3.066 2.458-5.549 5.763-5.549s5.728 2.459 5.728 5.517v.032c0 3.063-2.458 5.546-5.759 5.546s-5.732-2.448-5.732-5.518m8.492 0v-.028c0-1.542-1.113-2.883-2.743-2.883s-2.697 1.313-2.697 2.852v.031c0 1.538 1.113 2.88 2.729 2.88 1.615 0 2.711-1.306 2.711-2.852M625.319 77.125h2.958v8.078h5.166v2.588h-8.124zM634.714 77.125h2.957v8.078h5.166v2.588h-8.123zM644.109 77.125h8.58v2.514h-5.655v1.616h5.121v2.332h-5.121v1.707h5.732v2.51h-8.657zM657.355 83.798l-4.053-6.673h3.368l2.195 3.884 2.209-3.884h3.308l-4.053 6.627v4.039h-2.974z"/><circle cx="1147" cy="87" r="87" fill="url(#e)" fill-opacity=".2"/><circle cx="1147" cy="87" r="72.6" fill="url(#f)" fill-opacity=".8"/><path fill="#fff" d="M1117.31 94.378c.03.842-.11 1.68-.42 2.466-.3.785-.76 1.502-1.35 2.107a6.2 6.2 0 0 1-2.06 1.414c-.78.329-1.61.498-2.45.498s-1.68-.169-2.45-.498a6.3 6.3 0 0 1-2.07-1.414 6.3 6.3 0 0 1-1.34-2.107 6.1 6.1 0 0 1-.42-2.466h-5.38a11.65 11.65 0 0 0 3.51 8.07 11.657 11.657 0 0 0 16.3 0 11.65 11.65 0 0 0 3.51-8.07zM1156.95 94.378a6.28 6.28 0 0 1-1.84 4.445 6.27 6.27 0 0 1-4.44 1.841 6.28 6.28 0 0 1-6.29-6.286h-5.36c0 3.091 1.23 6.056 3.41 8.242a11.66 11.66 0 0 0 16.49 0 11.68 11.68 0 0 0 3.41-8.242zM1194.63 90.751h-95.26v1.656h95.26zM1133.81 97.725l-2.96 2.963-2.97-2.963h-4.84l7.81 7.809 7.81-7.809zM1153.07 77.547v-.05c0-5.566 4.37-9.932 10.29-9.932 2.84-.095 5.61.902 7.74 2.786l-3.1 3.728a6.78 6.78 0 0 0-4.62-1.8c-2.75 0-4.88 2.318-4.88 5.236v.057c-.03.694.08 1.387.33 2.036.24.65.62 1.24 1.11 1.737.49.496 1.07.886 1.71 1.147.65.261 1.34.386 2.03.368a5.4 5.4 0 0 0 3.06-.79v-2.305h-3.79v-3.873h8.79v8.592a12.92 12.92 0 0 1-8.3 2.944c-5.92-.007-10.37-4.094-10.37-9.881M1174.06 77.547v-.05c0-5.484 4.42-9.932 10.31-9.932s10.24 4.391 10.24 9.875v.056c0 5.484-4.42 9.925-10.31 9.925s-10.24-4.39-10.24-9.874m15.16 0v-.05a5 5 0 0 0-.31-1.946 5 5 0 0 0-1.05-1.669 5 5 0 0 0-3.54-1.54c-2.9 0-4.84 2.343-4.84 5.098v.056c0 2.755 1.99 5.156 4.89 5.156 2.89 0 4.86-2.344 4.86-5.105z"/><defs><radialGradient id="a" cx="0" cy="0" r="1" gradientTransform="rotate(90 0 87)scale(87)" gradientUnits="userSpaceOnUse"><stop stop-color="#FFE417" stop-opacity="0"/><stop offset="1" stop-color="#FFE417"/></radialGradient><radialGradient id="b" cx="0" cy="0" r="1" gradientTransform="rotate(90 0 87)scale(75.7338)" gradientUnits="userSpaceOnUse"><stop stop-color="#FFE417" stop-opacity=".57"/><stop offset="1" stop-color="#FFE417"/></radialGradient><radialGradient id="c" cx="0" cy="0" r="1" gradientTransform="rotate(90 264.854 351.954)scale(86.8995)" gradientUnits="userSpaceOnUse"><stop stop-color="#FF428F" stop-opacity="0"/><stop offset="1" stop-color="#FF428F"/></radialGradient><radialGradient id="d" cx="0" cy="0" r="1" gradientTransform="rotate(90 264.853 351.954)scale(72.4163)" gradientUnits="userSpaceOnUse"><stop stop-color="#FF428F" stop-opacity=".56"/><stop offset="1" stop-color="#FF428F"/></radialGradient><radialGradient id="e" cx="0" cy="0" r="1" gradientTransform="matrix(0 87 -87 0 1147 87)" gradientUnits="userSpaceOnUse"><stop stop-color="#4117FF" stop-opacity="0"/><stop offset="1" stop-color="#4117FF"/></radialGradient><radialGradient id="f" cx="0" cy="0" r="1" gradientTransform="rotate(90 530 617)scale(72.6)" gradientUnits="userSpaceOnUse"><stop stop-color="#4117FF" stop-opacity=".56"/><stop offset="1" stop-color="#4117FF"/></radialGradient></defs></svg>