<svg xmlns="http://www.w3.org/2000/svg" width="31" height="31" fill="none"><path stroke="#fff" stroke-linecap="round" stroke-linejoin="round" stroke-width="2.5" d="M9.042 18.083c1.937 0 8.073.969 8.073 3.23 0 2.26-3.298 1.768-4.844 1.937-1.339 0-4.521 0-4.521 1.937 0 2.583 13.269 3.23 15.823 3.23"/><path stroke="#fff" stroke-linecap="round" stroke-linejoin="round" stroke-width="2.5" d="M20.022 9.687c0-2.755-2.758-7.104-6.585-7.104S6.674 7.75 5.52 12.572c-1.154 4.822-.99 10.678-.99 10.678M16.791 15.5c0-1.615.904-4.521 3.875-4.521 2.583 0 4.004 2.61 4.52 4.844.517 2.233.647 5.49.647 5.49"/></svg>