<svg xmlns="http://www.w3.org/2000/svg" width="88" height="87" fill="none"><g clip-path="url(#a)"><path fill="#FFB923" fill-opacity=".85" stroke="#fff" stroke-width=".412" d="M44.066 9.3q1.285 0 2.566.097l.642-8.512a43 43 0 0 0-3.208-.121z"/><path fill="#FFEFCC" fill-opacity=".85" stroke="#fff" stroke-width=".412" d="M46.632 9.397c18.508 1.402 32.49 17.4 31.44 35.977-1.049 18.577-16.742 32.892-35.29 32.19-18.547-.701-33.12-16.16-32.77-34.763S25.505 9.3 44.066 9.3V.764C20.865.764 1.936 19.386 1.498 42.64s17.779 42.578 40.964 43.454c23.184.877 42.8-17.017 44.112-40.237 1.311-23.221-16.165-43.22-39.3-44.972z"/><g stroke="#333" stroke-linecap="round" stroke-linejoin="round" stroke-width="2.046" clip-path="url(#b)"><path d="M37.074 44.962a4.107 4.107 0 1 0 0-8.214 4.107 4.107 0 0 0 0 8.214M49.88 44.963a4.349 4.349 0 1 0 0-8.698 4.349 4.349 0 0 0 0 8.697"/><path d="M41.18 27.567h4.349l4.35 13.047M37.344 40.614l9.965-7.846M47.31 31.916h4.094l.892-2.416M35.867 32.386h3.383M39.249 32.399l1.581 5.035"/></g><path fill="#fff" d="M34.886 61.497h-2.533v-5.654h-1.331v-1.997h3.864zm2.298-2.15c.666 0 1.124.459 1.124 1.113 0 .666-.458 1.125-1.124 1.125-.655 0-1.113-.459-1.113-1.125 0-.654.458-1.113 1.113-1.113m4.973-5.61c1.572 0 2.762.83 2.762 2.074 0 .884-.633 1.735-1.485 2.587l-1.157 1.156h2.75v1.943h-5.97v-1.582l2.653-2.762c.305-.327.556-.71.556-.971 0-.262-.174-.404-.502-.404-.578 0-1.331.382-2.074.982l-.938-1.822c1.091-.754 2.205-1.201 3.405-1.201m5.647.066c1.353 0 2.227.916 2.227 2.335 0 1.43-.874 2.358-2.227 2.358-1.354 0-2.238-.928-2.238-2.358 0-1.419.884-2.335 2.238-2.335m-.48 7.694 5.315-7.65h2.281l-5.315 7.65zm.48-6.407c-.426 0-.699.415-.699 1.048 0 .644.273 1.059.699 1.059s.698-.415.698-1.059c0-.633-.272-1.048-.698-1.048m6.647 1.769c1.353 0 2.227.916 2.227 2.335 0 1.43-.874 2.358-2.227 2.358-1.354 0-2.238-.928-2.238-2.358 0-1.419.884-2.335 2.238-2.335m0 1.288c-.426 0-.699.414-.699 1.047 0 .644.273 1.059.699 1.059s.699-.415.699-1.059c0-.633-.273-1.047-.699-1.047"/></g><defs><clipPath id="a"><path fill="#fff" d="M.73.11h86.668v86.669H.73z"/></clipPath><clipPath id="b"><path fill="#fff" d="M32 24.668h23.194v23.194H32z"/></clipPath></defs></svg>