<svg width="87" height="87" viewBox="0 0 87 87" fill="none" xmlns="http://www.w3.org/2000/svg">
<path d="M43.3379 9.87785C59.4503 9.87785 73.2896 21.3273 76.3088 37.1551L84.5515 35.5826C80.7775 15.7979 63.4784 1.48608 43.3379 1.48608V9.87785Z" fill="#FFB923" fill-opacity="0.85" stroke="white" stroke-width="0.341084"/>
<path d="M76.3087 37.1551C78.9609 51.0588 72.6068 65.1323 60.424 72.3375C48.2413 79.5427 32.8481 78.3312 21.9425 69.3088C11.0368 60.2864 6.96238 45.3922 11.7568 32.0745C16.5512 18.7568 29.1841 9.87785 43.3379 9.87785V1.48608C25.6456 1.48608 9.85458 12.5848 3.86155 29.2319C-2.13148 45.879 2.96151 64.4967 16.5936 75.7747C30.2257 87.0528 49.4671 88.5672 64.6956 79.5606C79.924 70.5541 87.8666 52.9623 84.5515 35.5826L76.3087 37.1551Z" fill="#FFEFCC" fill-opacity="0.85" stroke="white" stroke-width="0.341084"/>
<path d="M35.1257 53.737C36.0644 53.737 37.1013 53.9989 37.7671 54.4137L36.8066 56.1819C36.3919 55.8435 35.8789 55.6798 35.2786 55.6798C34.2962 55.6798 33.7942 56.1055 33.7942 56.9568C34.1216 56.6403 34.6346 56.3892 35.3768 56.3892C36.8721 56.3892 37.8544 57.4152 37.8544 58.9105C37.8544 60.5587 36.6538 61.6065 34.8529 61.6065C32.6918 61.6065 31.382 60.1002 31.382 57.7536C31.382 55.3196 32.8555 53.737 35.1257 53.737ZM34.7765 58.2229C34.2744 58.2229 34.0125 58.4521 34.0125 58.9105C34.0125 59.369 34.2635 59.5982 34.7656 59.5982C35.2567 59.5982 35.5078 59.369 35.5078 58.8996C35.5078 58.4521 35.2676 58.2229 34.7765 58.2229ZM44.146 55.7889H41.1227V56.5966H41.461C43.3056 56.5966 44.5062 57.4916 44.5062 58.8887C44.5062 60.5368 43.2292 61.6065 41.2646 61.6065C40.184 61.6065 38.9507 61.2026 38.1102 60.5914L39.1144 58.6704C39.6601 59.3799 40.2823 59.7401 40.959 59.7401C41.5047 59.7401 41.7776 59.5108 41.7776 59.0633C41.7776 58.6486 41.5047 58.4412 40.959 58.4412H38.8088V53.8461H44.146V55.7889ZM47.2603 53.8025C48.6137 53.8025 49.4869 54.7193 49.4869 56.1382C49.4869 57.568 48.6137 58.4958 47.2603 58.4958C45.9069 58.4958 45.0228 57.568 45.0228 56.1382C45.0228 54.7193 45.9069 53.8025 47.2603 53.8025ZM46.7801 61.4973L52.0955 53.8461H54.3767L49.0612 61.4973H46.7801ZM47.2603 55.0904C46.8346 55.0904 46.5618 55.5052 46.5618 56.1382C46.5618 56.7822 46.8346 57.1969 47.2603 57.1969C47.686 57.1969 47.9589 56.7822 47.9589 56.1382C47.9589 55.5052 47.686 55.0904 47.2603 55.0904ZM53.9074 56.8586C55.2608 56.8586 56.1339 57.7754 56.1339 59.1943C56.1339 60.6241 55.2608 61.5519 53.9074 61.5519C52.5539 61.5519 51.6698 60.6241 51.6698 59.1943C51.6698 57.7754 52.5539 56.8586 53.9074 56.8586ZM53.9074 58.1465C53.4817 58.1465 53.2088 58.5613 53.2088 59.1943C53.2088 59.8383 53.4817 60.253 53.9074 60.253C54.333 60.253 54.6059 59.8383 54.6059 59.1943C54.6059 58.5613 54.333 58.1465 53.9074 58.1465Z" fill="white"/>
<path fill-rule="evenodd" clip-rule="evenodd" d="M38.5244 40.8125C39.1916 40.8125 39.7324 40.2716 39.7324 39.6045C39.7324 38.9373 39.1916 38.3965 38.5244 38.3965C37.8573 38.3965 37.3164 38.9373 37.3164 39.6045C37.3164 40.2716 37.8573 40.8125 38.5244 40.8125Z" fill="#333333"/>
<path fill-rule="evenodd" clip-rule="evenodd" d="M48.6709 40.8125C49.3381 40.8125 49.8789 40.2716 49.8789 39.6045C49.8789 38.9373 49.3381 38.3965 48.6709 38.3965C48.0037 38.3965 47.4629 38.9373 47.4629 39.6045C47.4629 40.2716 48.0037 40.8125 48.6709 40.8125Z" fill="#333333"/>
<path d="M35.3822 43.2285C34.5816 43.2285 33.9326 42.5795 33.9326 41.7789V37.2898C33.9326 36.1913 34.5535 35.1871 35.5362 34.6962L35.8657 34.5316L36.9819 29.7433C37.1858 28.8683 37.9658 28.2493 38.8642 28.2493H48.3776C49.2827 28.2493 50.0667 28.8774 50.2639 29.7608L51.3294 34.5316L51.6581 34.696C52.6403 35.1871 53.2607 36.1909 53.2607 37.2891V41.7789C53.2607 42.5795 52.6117 43.2285 51.8111 43.2285H50.8462V43.7117C50.8462 44.7792 49.9801 45.6445 48.9126 45.6445C47.8452 45.6445 46.9791 44.7792 46.9791 43.7117V43.2285H40.2142V43.7119C40.2142 44.7793 39.349 45.6445 38.2816 45.6445C37.2142 45.6445 36.3489 44.7793 36.3489 43.7119V43.2285H35.3822Z" stroke="#333333" stroke-width="2.0465" stroke-linejoin="round"/>
<path d="M38.7656 35.9802H48.4297L47.6314 32.3881C47.5332 31.946 47.141 31.6313 46.6881 31.6313H40.5072C40.0543 31.6313 39.6621 31.946 39.5639 32.3881L38.7656 35.9802Z" stroke="#333333" stroke-width="2.0465" stroke-linejoin="round"/>
</svg>
