<svg xmlns="http://www.w3.org/2000/svg" width="86" height="87" fill="none"><g clip-path="url(#a)"><path fill="#FFB923" fill-opacity=".85" stroke="#fff" stroke-width=".829" d="M43.366 9.3c1.626 0 3.25.119 4.858.356l1.215-8.447a42 42 0 0 0-6.073-.445z"/><path fill="#FFEFCC" fill-opacity=".85" stroke="#fff" stroke-width=".829" d="M48.224 9.656C66.19 12.302 78.864 28.868 76.9 47.137S59.039 78.825 40.93 77.5C22.82 76.172 8.999 60.576 9.655 42.21 10.31 23.845 25.21 9.3 43.365 9.3V.764C20.672.764 2.048 18.946 1.228 41.902c-.82 22.957 16.459 42.452 39.095 44.11S82.83 70.897 85.285 48.061C87.74 25.224 71.897 4.517 49.438 1.209z"/><path fill="#fff" d="M34.525 54.498c1.572 0 2.762.83 2.762 2.074 0 .884-.633 1.735-1.484 2.586l-1.157 1.157h2.75v1.943h-5.97v-1.583l2.652-2.761c.306-.327.557-.71.557-.971 0-.262-.175-.404-.502-.404-.579 0-1.332.382-2.074.982l-.939-1.823c1.092-.753 2.205-1.2 3.405-1.2m4.578 5.61c.665 0 1.124.458 1.124 1.113 0 .666-.459 1.124-1.124 1.124-.655 0-1.114-.458-1.114-1.124 0-.655.459-1.113 1.114-1.113m5.518-2.478.328.077c.96.229 1.67.971 1.67 2.117 0 1.495-1.2 2.543-3.056 2.543-1.146 0-2.347-.404-3.09-1.015l1.005-1.92c.579.709 1.212 1.069 1.877 1.069.524 0 .786-.218.786-.666 0-.447-.262-.666-.786-.666H41.97v-1.32l1.452-1.387h-2.543V54.63h5.392v1.419zm4.718-3.067c1.353 0 2.226.917 2.226 2.336 0 1.43-.873 2.358-2.226 2.358-1.354 0-2.238-.928-2.238-2.358 0-1.419.884-2.336 2.238-2.336m-.48 7.695 5.315-7.651h2.281l-5.315 7.651zm.48-6.407c-.426 0-.699.415-.699 1.048 0 .644.273 1.059.699 1.059s.698-.415.698-1.06c0-.632-.273-1.047-.698-1.047m6.647 1.768c1.353 0 2.226.917 2.226 2.336 0 1.43-.873 2.358-2.226 2.358-1.354 0-2.238-.928-2.238-2.358 0-1.419.884-2.336 2.238-2.336m0 1.288c-.426 0-.699.415-.699 1.048 0 .644.273 1.059.699 1.059s.698-.415.698-1.059c0-.633-.273-1.048-.698-1.048"/><path stroke="#333" stroke-width="2.046" d="M51.522 27.226H36.4a1.08 1.08 0 0 0-1.08 1.08v11.881c0 .597.484 1.08 1.08 1.08h15.122a1.08 1.08 0 0 0 1.08-1.08v-11.88a1.08 1.08 0 0 0-1.08-1.08Z"/><path fill="#333" d="M38.56 39.647a1.08 1.08 0 1 0 0-2.16 1.08 1.08 0 0 0 0 2.16M49.361 39.647a1.08 1.08 0 1 0 0-2.16 1.08 1.08 0 0 0 0 2.16"/><path stroke="#333" stroke-linecap="round" stroke-linejoin="round" stroke-width="2.046" d="M49.36 30.466h-10.8v5.4h10.8zM48.281 41.267l4.32 4.86M40.18 41.267l-4.86 4.86"/></g><defs><clipPath id="a"><path fill="#fff" d="M.729.11h85.27v86.669H.73z"/></clipPath></defs></svg>