<svg xmlns="http://www.w3.org/2000/svg" width="86" height="87" fill="none"><g clip-path="url(#a)"><path fill="#FFB923" fill-opacity=".85" stroke="#fff" stroke-width=".688" d="M43.231 9.3c4.933 0 9.805 1.11 14.269 3.25l3.567-7.724A41.24 41.24 0 0 0 43.23.764z"/><path fill="#FFEFCC" fill-opacity=".85" stroke="#fff" stroke-width=".688" d="M57.499 12.55c15.458 7.411 22.97 25.485 17.436 41.954S52.593 80.564 35.92 76.766 8.047 56.999 9.922 39.697 26.146 9.3 43.23 9.3V.764C21.875.764 3.938 17.133 1.595 38.76-.75 60.388 13.25 80.35 34.092 85.096c20.84 4.746 41.85-7.242 48.768-27.828S80.389 14.09 61.066 4.826z"/><path stroke="#333" stroke-linecap="round" stroke-linejoin="round" stroke-width="2.046" d="M34.933 28.017c0-.542.432-.982.966-.982h17.395c.534 0 .967.44.967.982v15.716a.974.974 0 0 1-.967.983H35.9a.974.974 0 0 1-.966-.983z" clip-rule="evenodd"/><path stroke="#333" stroke-linecap="round" stroke-linejoin="round" stroke-width="2.046" d="M40.733 44.716h-3.866v1.964h3.866zM52.329 44.716h-3.866v1.964h3.865zM43.148 32.929h2.899M37.833 41.769h.966M42.182 41.769h4.832M34.933 37.349H54.26M34.933 29.982H54.26M50.396 41.769h.966M34.933 28.017v3.93M54.262 28.017v3.93M34.933 35.384v3.93M54.262 35.384v3.93"/><path fill="#fff" d="m37.636 56.299-2.63 5.96h-2.674l2.52-5.71h-1.309v1.07h-2.226v-3.012h6.32zm1.061 3.809c.666 0 1.125.458 1.125 1.113 0 .666-.459 1.124-1.125 1.124-.654 0-1.113-.458-1.113-1.124 0-.655.459-1.113 1.113-1.113m5.345-5.577c2.248 0 3.503 1.386 3.503 3.896s-1.255 3.907-3.503 3.907c-2.27 0-3.515-1.397-3.515-3.907s1.245-3.896 3.515-3.896m0 1.833c-.688 0-.917.513-.917 2.063s.23 2.074.917 2.074c.677 0 .906-.524.906-2.074s-.23-2.063-.906-2.063m6.395-1.8c1.353 0 2.226.916 2.226 2.335 0 1.43-.873 2.358-2.226 2.358-1.354 0-2.238-.928-2.238-2.358 0-1.419.884-2.336 2.238-2.336m-.48 7.694 5.315-7.651h2.281l-5.315 7.651zm.48-6.407c-.426 0-.699.415-.699 1.048 0 .644.273 1.059.699 1.059s.698-.415.698-1.06c0-.632-.273-1.047-.698-1.047m6.647 1.768c1.353 0 2.226.917 2.226 2.336 0 1.43-.873 2.358-2.226 2.358-1.354 0-2.238-.928-2.238-2.358 0-1.419.884-2.336 2.238-2.336m0 1.288c-.426 0-.699.415-.699 1.048 0 .644.273 1.059.699 1.059s.698-.415.698-1.059c0-.633-.273-1.048-.698-1.048"/></g><defs><clipPath id="a"><path fill="#fff" d="M.593.11h85.27v86.669H.594z"/></clipPath></defs></svg>