<svg xmlns="http://www.w3.org/2000/svg" width="88" height="87" fill="none"><path fill="#FFB923" fill-opacity=".85" stroke="#fff" stroke-width=".341" d="M44.197 9.877c16.113 0 29.952 11.45 32.971 27.278l8.243-1.573C81.637 15.797 64.338 1.486 44.197 1.486z"/><path fill="#FFEFCC" fill-opacity=".85" stroke="#fff" stroke-width=".341" d="M77.167 37.155a33.57 33.57 0 0 1-15.885 35.182 33.56 33.56 0 0 1-38.481-3.029 33.568 33.568 0 0 1 21.395-59.43V1.485a41.96 41.96 0 0 0-26.744 74.289 41.955 41.955 0 0 0 48.102 3.785c15.228-9.006 23.171-26.598 19.856-43.978z"/><path stroke="#333" stroke-miterlimit="2" stroke-width="2.046" d="M46.013 32.115a2.416 2.416 0 1 0 0-4.832 2.416 2.416 0 0 0 0 4.832Z"/><path stroke="#333" stroke-linecap="round" stroke-linejoin="round" stroke-miterlimit="2" stroke-width="2.046" d="m43.78 34.488-2.117 3.909 3.532 2.909c.15.116.256.275.32.454l1.463 4.851"/><path stroke="#333" stroke-linecap="round" stroke-linejoin="round" stroke-miterlimit="2" stroke-width="2.046" d="m41.664 38.397-2.653 3.691a.97.97 0 0 1-1.179.348l-3.9-1.623M52.294 36.947H48.91c-.174 0-.347-.044-.502-.13l-1.551-.875a19 19 0 0 0-6.267-2.31l-1.556-.276a.98.98 0 0 0-.638.107l-3.015 1.55"/><path fill="#fff" d="M34.525 53.737c1.572 0 2.762.83 2.762 2.074 0 .884-.633 1.735-1.484 2.587l-1.157 1.156h2.75v1.943h-5.97v-1.582l2.652-2.762c.306-.327.557-.71.557-.971 0-.262-.175-.404-.502-.404-.579 0-1.332.382-2.074.982l-.939-1.822c1.092-.754 2.205-1.201 3.405-1.201m6.662 0c1.572 0 2.762.83 2.762 2.074 0 .884-.633 1.735-1.485 2.587l-1.157 1.156h2.75v1.943h-5.97v-1.582l2.653-2.762c.305-.327.556-.71.556-.971 0-.262-.174-.404-.502-.404-.578 0-1.331.382-2.073.982l-.94-1.822c1.092-.754 2.206-1.201 3.406-1.201m5.647.066c1.353 0 2.227.916 2.227 2.335 0 1.43-.874 2.358-2.227 2.358-1.354 0-2.238-.928-2.238-2.358 0-1.419.885-2.335 2.238-2.335m-.48 7.694 5.315-7.65h2.281l-5.315 7.65zm.48-6.407c-.426 0-.699.415-.699 1.048 0 .644.273 1.059.699 1.059s.698-.415.698-1.059c0-.633-.272-1.048-.698-1.048m6.647 1.769c1.353 0 2.227.916 2.227 2.335 0 1.43-.874 2.358-2.227 2.358s-2.238-.928-2.238-2.358c0-1.419.885-2.335 2.238-2.335m0 1.288c-.426 0-.699.414-.699 1.047 0 .644.273 1.059.699 1.059s.698-.415.698-1.059c0-.633-.272-1.047-.698-1.047"/></svg>