<svg xmlns="http://www.w3.org/2000/svg" width="58" height="58" fill="none"><path stroke="#FF8A00" stroke-linecap="round" stroke-linejoin="round" stroke-width="5" d="M22.958 36.25v3.625a8.458 8.458 0 0 1-16.917 0V22.96M35.042 36.25v3.625a8.458 8.458 0 1 0 16.917 0V22.96"/><path stroke="#FF8A00" stroke-width="5" d="M38.666 9.667H19.333c-7.341 0-13.292 5.95-13.292 13.291s5.95 13.292 13.292 13.292h19.333c7.34 0 13.292-5.951 13.292-13.292 0-7.34-5.951-13.291-13.292-13.291Z"/><path stroke="#FF8A00" stroke-linecap="round" stroke-linejoin="round" stroke-width="5" d="M25.375 22.959h-9.667M20.542 18.125v9.667"/><path fill="#FF8A00" d="M43.5 20.542a2.417 2.417 0 1 0-4.833 0 2.417 2.417 0 0 0 4.833 0M38.666 26.583a2.417 2.417 0 1 0-4.833 0 2.417 2.417 0 0 0 4.833 0"/></svg>