<svg xmlns="http://www.w3.org/2000/svg" width="410" height="226" fill="none"><path stroke="#4B3300" stroke-width=".724" d="M96.358 211.937V.139"/><path stroke="#000" stroke-opacity=".45" stroke-width=".676" d="M96.359 176.638h-2.895m2.895-70.6h-2.895m2.895-70.6h-2.895"/><path fill="#4B3300" d="M6.762 175.644q0 1.73-1.51 2.18l1.83 2.54h-1.5l-1.67-2.35h-1.55v2.35h-1.18v-6.99h2.6q1.6 0 2.29.54t.69 1.73m-2.93 1.3q1 0 1.36-.31t.36-.99q0-.69-.37-.94-.37-.26-1.32-.26h-1.5v2.5zm9.416 1.25h-4.17q.04.58.53.94.49.35 1.12.35 1 0 1.52-.63l.64.7q-.86.89-2.24.89-1.12 0-1.91-.74-.78-.75-.78-2 0-1.26.8-2a2.68 2.68 0 0 1 1.88-.74q1.09 0 1.85.66.76.65.76 1.8zm-4.17-.88h3.05q0-.67-.42-1.03t-1.04-.36q-.61 0-1.1.38-.49.37-.49 1.01m9.191 1.46q0 .76-.55 1.22-.55.45-1.41.45-.58 0-1.21-.21a3.6 3.6 0 0 1-1.1-.59l.54-.87q.93.7 1.8.7.381 0 .6-.17.22-.18.22-.45 0-.4-1.06-.72a1 1 0 0 0-.12-.04q-1.66-.45-1.66-1.5 0-.74.57-1.18.58-.45 1.5-.45.921 0 1.74.54l-.42.83a2.5 2.5 0 0 0-1.41-.43q-.4 0-.65.15a.46.46 0 0 0-.25.43q0 .26.26.38.18.09.5.17.33.08.58.16t.48.18q.24.1.51.28.54.36.54 1.12m2.649-2.83v2.7q0 .38.2.61.2.22.56.22t.69-.35l.46.79q-.59.53-1.31.53-.71 0-1.22-.49-.5-.5-.5-1.34v-2.67h-.67v-.9h.67v-1.67h1.12v1.67h1.4v.9zm6.784 3.02q.48.48 1.21.48.729 0 1.2-.48.48-.49.48-1.26t-.48-1.25q-.471-.49-1.2-.49-.73 0-1.21.49-.47.48-.47 1.25t.47 1.26m3.21.69q-.8.79-2 .79t-2-.79a2.66 2.66 0 0 1-.8-1.95q0-1.15.8-1.94.8-.8 2-.8t2 .8q.8.79.8 1.94t-.8 1.95m3.375-5.05v.44h1.4v.9h-1.4v4.42h-1.12v-4.42h-.67v-.9h.67v-.41q0-.84.5-1.33.51-.5 1.22-.5.72 0 1.31.53l-.46.79q-.33-.35-.69-.35t-.56.23q-.2.219-.2.6m7.491-.31q-.51 0-.84.21t-.33.64q0 .42.33.65.33.219 1.4.48 1.08.26 1.62.73.55.47.55 1.39 0 .91-.69 1.48t-1.81.57q-1.64 0-2.91-1.13l.74-.89q1.06.92 2.2.92.57 0 .9-.24a.77.77 0 0 0 .34-.65.72.72 0 0 0-.32-.63q-.309-.23-1.08-.41-.77-.19-1.17-.34a2.8 2.8 0 0 1-.71-.41q-.62-.471-.62-1.44 0-.97.7-1.49.71-.53 1.75-.53.67 0 1.33.22t1.14.62l-.63.89q-.309-.28-.84-.46a3.3 3.3 0 0 0-1.05-.18m6.39 6.15q-1.11 0-1.91-.75-.8-.76-.8-1.98 0-1.221.83-1.98.84-.77 2.04-.77t2.03.83l-.66.81q-.69-.6-1.39-.6t-1.22.47q-.51.459-.51 1.2 0 .73.51 1.24t1.25.51q.75 0 1.41-.68l.66.72q-.97.98-2.24.98m4.534-1.48q.48.48 1.21.48.729 0 1.2-.48.48-.49.48-1.26t-.48-1.25q-.471-.49-1.2-.49-.73 0-1.21.49-.47.48-.47 1.25t.47 1.26m3.21.69q-.8.79-2 .79t-2-.79a2.66 2.66 0 0 1-.8-1.95q0-1.15.8-1.94.8-.8 2-.8t2 .8q.8.79.8 1.94t-.8 1.95m3.375-3.71v2.7q0 .38.2.61.2.22.56.22t.69-.35l.46.79q-.59.53-1.31.53-.71 0-1.22-.49-.5-.5-.5-1.34v-2.67h-.67v-.9h.67v-1.67h1.12v1.67h1.4v.9zm3.92 4.42h-1.12v-7.42h1.12zm5.934 0h-1.02v-.71q-.66.79-1.77.79-.831 0-1.38-.47-.54-.47-.54-1.25 0-.79.58-1.18t1.57-.39h1.45v-.2q0-1.06-1.18-1.06-.74 0-1.54.54l-.5-.7a3.44 3.44 0 0 1 2.2-.77q.939 0 1.53.48.6.47.6 1.49zm-1.12-1.98v-.45h-1.26q-1.21 0-1.21.76 0 .39.3.6.3.2.83.2.54 0 .94-.3t.4-.81m3.799-.9v2.88H70.7v-5.32h1.12v.97a2 2 0 0 1 1.77-1.05q.9 0 1.45.55.56.549.56 1.59v3.26h-1.12v-2.92q0-1.47-1.22-1.47-.58 0-1.01.39-.43.38-.43 1.12m7.515 2.96q-1.01 0-1.76-.76t-.75-2 .77-1.98a2.55 2.55 0 0 1 1.83-.74q1.07 0 1.72.9v-2.92h1.12v7.42h-1.12v-.8q-.62.88-1.81.88m-1.39-2.71q0 .76.49 1.24t1.15.48 1.12-.48q.46-.49.46-1.25t-.46-1.27a1.46 1.46 0 0 0-1.13-.51q-.67 0-1.15.51t-.48 1.28M2.8 108.174l-.7 1.59H.84l3.08-6.99h1.26l3.08 6.99H7l-.7-1.59zm3.02-1.09-1.27-2.88-1.27 2.88zm5.612 2.76q-1.11 0-1.91-.75-.8-.759-.8-1.98 0-1.22.83-1.98.84-.77 2.04-.77t2.03.83l-.66.81q-.69-.6-1.39-.6t-1.22.47q-.51.46-.51 1.2 0 .73.51 1.24t1.25.51q.75 0 1.41-.68l.66.72q-.97.98-2.24.98m5.762 0q-1.11 0-1.91-.75-.8-.759-.8-1.98 0-1.22.83-1.98.84-.77 2.04-.77t2.03.83l-.66.81q-.69-.6-1.39-.6t-1.22.47q-.51.46-.51 1.2 0 .73.51 1.24t1.25.51q.75 0 1.41-.68l.66.72q-.97.98-2.24.98m8.351-2.25h-4.17q.04.58.53.94.49.35 1.12.35 1 0 1.52-.63l.64.7q-.86.89-2.24.89-1.12 0-1.91-.74-.78-.75-.78-2 0-1.26.8-2a2.68 2.68 0 0 1 1.88-.74q1.09 0 1.85.66.76.651.76 1.8zm-4.17-.88h3.05q0-.67-.42-1.03t-1.04-.36q-.61 0-1.1.38-.49.37-.49 1.01m9.192 1.46q0 .76-.55 1.22-.55.45-1.41.45-.58 0-1.21-.21a3.6 3.6 0 0 1-1.1-.59l.54-.87q.93.7 1.8.7.38 0 .6-.17.22-.18.22-.45 0-.399-1.06-.72a1 1 0 0 0-.12-.04q-1.66-.45-1.66-1.5 0-.74.57-1.18.58-.45 1.5-.45t1.74.54l-.42.83a2.5 2.5 0 0 0-1.41-.43q-.4 0-.65.15a.46.46 0 0 0-.25.43q0 .26.26.38.18.09.5.17a9 9 0 0 1 .58.16q.25.081.48.18.24.1.51.28.54.36.54 1.12m5.059 0q0 .76-.55 1.22-.55.45-1.41.45-.58 0-1.21-.21a3.6 3.6 0 0 1-1.1-.59l.54-.87q.93.7 1.8.7.38 0 .6-.17.22-.18.22-.45 0-.399-1.06-.72a1 1 0 0 0-.12-.04q-1.66-.45-1.66-1.5 0-.74.57-1.18.579-.45 1.5-.45.92 0 1.74.54l-.42.83a2.5 2.5 0 0 0-1.41-.43q-.4 0-.65.15a.46.46 0 0 0-.25.43q0 .26.26.38.18.09.5.17a9 9 0 0 1 .58.16q.249.081.48.18.24.1.51.28.54.36.54 1.12m2.388 1.59h-1.12v-5.32h1.12zm-1.05-6.38a.68.68 0 0 1-.21-.5q0-.29.21-.5t.5-.21.5.21.21.5-.21.5a.68.68 0 0 1-.5.21.68.68 0 0 1-.5-.21m5.524.98a2.53 2.53 0 0 1 1.83.74q.76.74.76 1.97t-.76 2q-.75.77-1.76.77-.999 0-1.8-.88v.8h-1.12v-7.42h1.12v3.03q.66-1.01 1.73-1.01m-1.75 2.75q0 .76.46 1.25.46.48 1.12.48t1.15-.48.49-1.24q0-.77-.48-1.27-.48-.51-1.15-.51t-1.13.51q-.46.501-.46 1.26m6.74 2.65h-1.12v-7.42h1.12zm6.573-2.17h-4.17q.04.58.53.94.49.35 1.12.35 1 0 1.52-.63l.64.7q-.86.89-2.24.89-1.12 0-1.91-.74-.78-.75-.78-2 0-1.26.8-2a2.68 2.68 0 0 1 1.88-.74q1.09 0 1.85.66.76.651.76 1.8zm-4.17-.88h3.05q0-.67-.42-1.03t-1.04-.36q-.61 0-1.1.38-.49.37-.49 1.01m13.886-1.67q0 1.73-1.51 2.18l1.83 2.54h-1.5l-1.67-2.35h-1.55v2.35h-1.18v-6.99h2.6q1.6 0 2.29.54t.69 1.73m-2.93 1.3q1 0 1.36-.31.36-.309.36-.99 0-.69-.37-.94-.37-.26-1.32-.26h-1.5v2.5zm8.097.98v-2.88h1.12v5.32h-1.12v-.97q-.27.49-.75.77-.47.28-1.02.28-.9 0-1.46-.55-.55-.549-.55-1.59v-3.26h1.12v2.92q0 1.47 1.22 1.47.58 0 1.01-.38.43-.39.43-1.13m5.535-1.83q-.83 0-1.25.54t-.42 1.45v2.28h-1.12v-5.32h1.12v1.07q.27-.5.73-.82a1.8 1.8 0 0 1 .99-.33l.01 1.13zm5.446 4.27h-1.02v-.71q-.66.79-1.77.79-.83 0-1.38-.47-.54-.47-.54-1.25 0-.79.58-1.18t1.57-.39h1.45v-.2q0-1.06-1.18-1.06-.74 0-1.54.54l-.5-.7a3.45 3.45 0 0 1 2.2-.77q.94 0 1.53.48.6.47.6 1.49zm-1.12-1.98v-.45h-1.26q-1.21 0-1.21.76 0 .39.3.6.3.2.83.2.54 0 .94-.3t.4-.81m3.8 1.98h-1.12v-7.42h1.12zM19.597 34.445q0 1.73-1.51 2.18l1.83 2.54h-1.5l-1.67-2.35h-1.55v2.35h-1.18v-6.99h2.6q1.6 0 2.29.54t.69 1.73m-2.93 1.3q1 0 1.36-.31.36-.309.36-.99 0-.69-.37-.94-.37-.26-1.32-.26h-1.5v2.5zm9.415 1.25h-4.17q.04.58.53.94.49.35 1.12.35 1 0 1.52-.63l.64.7q-.86.89-2.24.89-1.12 0-1.91-.74-.78-.75-.78-2 0-1.26.8-2a2.68 2.68 0 0 1 1.88-.74q1.09 0 1.85.66.76.651.76 1.8zm-4.17-.88h3.05q0-.67-.42-1.03t-1.04-.36a1.75 1.75 0 0 0-1.1.38q-.49.37-.49 1.01m6.522.17v2.88h-1.12v-5.32h1.12v.97q.24-.49.72-.77.49-.28 1.05-.28 1.26 0 1.71 1.04.79-1.04 1.97-1.04.9 0 1.45.55.56.55.56 1.59v3.26h-1.12v-2.92q0-1.47-1.22-1.47-.57 0-1 .37-.42.36-.44 1.06v2.96h-1.12v-2.92q0-.759-.27-1.11-.27-.36-.85-.36t-1.01.39q-.43.38-.43 1.12m10.257 1.48q.48.48 1.21.48.729 0 1.2-.48.48-.489.48-1.26 0-.77-.48-1.25-.47-.49-1.2-.49t-1.21.49q-.47.48-.47 1.25 0 .771.47 1.26m3.21.69q-.8.79-2 .79t-2-.79a2.65 2.65 0 0 1-.8-1.95q0-1.15.8-1.94.8-.8 2-.8t2 .8q.8.79.8 1.94t-.8 1.95m3.375-3.71v2.7q0 .38.2.61.2.22.56.22t.69-.35l.46.79q-.59.53-1.31.53a1.7 1.7 0 0 1-1.22-.49q-.5-.5-.5-1.34v-2.67h-.67v-.9h.67v-1.67h1.12v1.67h1.4v.9zm7.75 2.25h-4.17q.04.58.53.94.49.35 1.12.35 1 0 1.52-.63l.64.7q-.86.89-2.24.89-1.12 0-1.91-.74-.78-.75-.78-2 0-1.26.8-2a2.68 2.68 0 0 1 1.88-.74q1.09 0 1.85.66.76.651.76 1.8zm-4.17-.88h3.05q0-.67-.42-1.03t-1.04-.36a1.75 1.75 0 0 0-1.1.38q-.49.37-.49 1.01m13.886-1.67q0 1.73-1.51 2.18l1.83 2.54h-1.5l-1.67-2.35h-1.55v2.35h-1.18v-6.99h2.6q1.6 0 2.29.54t.69 1.73m-2.93 1.3q1 0 1.36-.31.36-.309.36-.99 0-.69-.37-.94-.37-.26-1.32-.26h-1.5v2.5zm8.097.98v-2.88h1.12v5.32h-1.12v-.97q-.27.49-.75.77-.47.28-1.02.28-.9 0-1.46-.55-.55-.549-.55-1.59v-3.26h1.12v2.92q0 1.47 1.22 1.47.58 0 1.01-.38.43-.39.43-1.13m5.535-1.83q-.83 0-1.25.54t-.42 1.45v2.28h-1.12v-5.32h1.12v1.07q.27-.5.73-.82.47-.32.99-.33l.01 1.13zm5.446 4.27h-1.02v-.71q-.66.79-1.77.79-.831 0-1.38-.47-.54-.47-.54-1.25 0-.79.58-1.18t1.57-.39h1.45v-.2q0-1.06-1.18-1.06-.74 0-1.54.54l-.5-.7a3.44 3.44 0 0 1 2.2-.77q.939 0 1.53.48.6.47.6 1.49zm-1.12-1.98v-.45h-1.26q-1.21 0-1.21.76 0 .39.3.6.3.2.83.2.54 0 .94-.3t.4-.81m3.799 1.98h-1.12v-7.42h1.12z"/><path stroke="#4B3300" stroke-width=".724" d="M96.359 211.937h296.654"/><path stroke="#4B3300" stroke-width=".676" d="M96.359 211.937v2.889m59.331-2.889v2.889m59.33-2.889v2.889m59.331-2.889v2.889m59.331-2.889v2.889m59.331-2.889v2.889"/><path fill="#F07A2E" fill-opacity=".85" d="M96.358 197.817h41.951v-42.359H96.358zM96.358 127.218H148.2v-42.36H96.358zM96.358 56.619h47.132v-42.36H96.358z"/><path fill="#FBE44B" fill-opacity=".85" d="M138.309 197.817h32.961v-42.359h-32.961zM148.2 127.218h69.123v-42.36H148.2zM143.49 56.619h102.581v-42.36H143.49z"/><path fill="#fff" d="M171.271 197.817h38.955v-42.359h-38.955zM217.323 127.218h51.843v-42.36h-51.843zM246.07 56.619h36.042v-42.36H246.07z"/><path fill="#F6B83E" fill-opacity=".85" d="M210.224 197.817h182.787v-42.359H210.224zM269.164 127.218H393.01v-42.36H269.164zM282.114 56.619h110.898v-42.36H282.114z"/><path fill="#4B3300" d="M92.858 217.618c1.488 0 2.312 1.008 2.312 2.816s-.824 2.816-2.312 2.816-2.312-1.008-2.312-2.816.824-2.816 2.312-2.816m0 .544c-1.088 0-1.664.752-1.664 2.272 0 1.512.576 2.272 1.664 2.272s1.664-.76 1.664-2.272c0-1.52-.576-2.272-1.664-2.272m4.501-.536c.896 0 1.432.616 1.432 1.656 0 1.048-.536 1.656-1.432 1.656s-1.424-.608-1.424-1.656c0-1.04.528-1.656 1.424-1.656m-.456 5.608 4.192-5.6h.616l-4.184 5.6zm.456-5.208c-.632 0-.984.456-.984 1.256s.352 1.248.984 1.248.984-.448.984-1.248-.352-1.256-.984-1.256m3.992 1.912c.896 0 1.432.608 1.432 1.648 0 1.048-.536 1.656-1.432 1.656s-1.424-.608-1.424-1.656c0-1.04.528-1.648 1.424-1.648m0 .4c-.632 0-.984.448-.984 1.248 0 .808.352 1.256.984 1.256s.984-.448.984-1.256c0-.8-.352-1.248-.984-1.248M151.777 217.61c1.032 0 1.704.536 1.704 1.376 0 .536-.4 1.184-.992 1.816l-1.72 1.824h3.032v.608h-3.848v-.528l2.096-2.28c.472-.472.768-.992.768-1.352 0-.544-.416-.872-1.12-.872-.512 0-1.08.264-1.528.696l-.28-.512c.544-.488 1.224-.776 1.888-.776m5.176.008c1.488 0 2.312 1.008 2.312 2.816s-.824 2.816-2.312 2.816-2.312-1.008-2.312-2.816.824-2.816 2.312-2.816m0 .544c-1.088 0-1.664.752-1.664 2.272 0 1.512.576 2.272 1.664 2.272s1.664-.76 1.664-2.272c0-1.52-.576-2.272-1.664-2.272m4.501-.536c.896 0 1.432.616 1.432 1.656 0 1.048-.536 1.656-1.432 1.656s-1.424-.608-1.424-1.656c0-1.04.528-1.656 1.424-1.656m-.456 5.608 4.192-5.6h.616l-4.184 5.6zm.456-5.208c-.632 0-.984.456-.984 1.256s.352 1.248.984 1.248.984-.448.984-1.248-.352-1.256-.984-1.256m3.992 1.912c.896 0 1.432.608 1.432 1.648 0 1.048-.536 1.656-1.432 1.656s-1.424-.608-1.424-1.656c0-1.04.528-1.648 1.424-1.648m0 .4c-.632 0-.984.448-.984 1.248 0 .808.352 1.256.984 1.256s.984-.448.984-1.256c0-.8-.352-1.248-.984-1.248M209.951 221.146h2v-1.48h.6v1.48h.848v.616h-.848v1.472h-.6v-1.472h-2.688v-.528l2.008-3.6h.632zm6.417-3.528c1.488 0 2.312 1.008 2.312 2.816s-.824 2.816-2.312 2.816-2.312-1.008-2.312-2.816.824-2.816 2.312-2.816m0 .544c-1.088 0-1.664.752-1.664 2.272 0 1.512.576 2.272 1.664 2.272s1.664-.76 1.664-2.272c0-1.52-.576-2.272-1.664-2.272m4.501-.536c.896 0 1.432.616 1.432 1.656 0 1.048-.536 1.656-1.432 1.656s-1.424-.608-1.424-1.656c0-1.04.528-1.656 1.424-1.656m-.456 5.608 4.192-5.6h.616l-4.184 5.6zm.456-5.208c-.632 0-.984.456-.984 1.256s.352 1.248.984 1.248.984-.448.984-1.248-.352-1.256-.984-1.256m3.992 1.912c.896 0 1.432.608 1.432 1.648 0 1.048-.536 1.656-1.432 1.656s-1.424-.608-1.424-1.656c0-1.04.528-1.648 1.424-1.648m0 .4c-.632 0-.984.448-.984 1.248 0 .808.352 1.256.984 1.256s.984-.448.984-1.256c0-.8-.352-1.248-.984-1.248M271.19 217.61c.512 0 1.128.16 1.584.4l-.256.512a2.7 2.7 0 0 0-1.288-.344c-1.2 0-1.8.984-1.712 2.496.248-.656.848-1.024 1.672-1.024 1.096 0 1.776.68 1.776 1.76 0 1.144-.744 1.856-1.896 1.856-1.36 0-2.184-.984-2.184-2.712 0-1.776.88-2.944 2.304-2.944m-.112 2.584c-.888 0-1.416.592-1.408 1.256-.008.536.408 1.224 1.36 1.224.792 0 1.336-.48 1.336-1.272 0-.744-.496-1.208-1.288-1.208m4.948-2.576c1.488 0 2.312 1.008 2.312 2.816s-.824 2.816-2.312 2.816-2.312-1.008-2.312-2.816.824-2.816 2.312-2.816m0 .544c-1.088 0-1.664.752-1.664 2.272 0 1.512.576 2.272 1.664 2.272s1.664-.76 1.664-2.272c0-1.52-.576-2.272-1.664-2.272m4.501-.536c.896 0 1.432.616 1.432 1.656 0 1.048-.536 1.656-1.432 1.656s-1.424-.608-1.424-1.656c0-1.04.528-1.656 1.424-1.656m-.456 5.608 4.192-5.6h.616l-4.184 5.6zm.456-5.208c-.632 0-.984.456-.984 1.256s.352 1.248.984 1.248.984-.448.984-1.248-.352-1.256-.984-1.256m3.992 1.912c.896 0 1.432.608 1.432 1.648 0 1.048-.536 1.656-1.432 1.656s-1.424-.608-1.424-1.656c0-1.04.528-1.648 1.424-1.648m0 .4c-.632 0-.984.448-.984 1.248 0 .808.352 1.256.984 1.256s.984-.448.984-1.256c0-.8-.352-1.248-.984-1.248M330.372 217.61c1.112 0 1.8.528 1.8 1.408 0 .576-.344 1-.912 1.224.728.216 1.176.72 1.176 1.424 0 1-.792 1.6-2.056 1.6-1.28 0-2.072-.6-2.072-1.584 0-.712.464-1.224 1.208-1.44-.584-.232-.936-.664-.936-1.24 0-.872.696-1.392 1.792-1.392m.008.496c-.784 0-1.248.352-1.248.952s.464.952 1.248.952c.776 0 1.24-.352 1.24-.952s-.464-.952-1.24-.952m-.008 2.44c-.912 0-1.456.4-1.456 1.064 0 .704.544 1.112 1.464 1.112.904 0 1.456-.408 1.456-1.112 0-.664-.544-1.064-1.464-1.064m5.21-2.928c1.488 0 2.312 1.008 2.312 2.816s-.824 2.816-2.312 2.816-2.312-1.008-2.312-2.816.824-2.816 2.312-2.816m0 .544c-1.088 0-1.664.752-1.664 2.272 0 1.512.576 2.272 1.664 2.272s1.664-.76 1.664-2.272c0-1.52-.576-2.272-1.664-2.272m4.501-.536c.896 0 1.432.616 1.432 1.656 0 1.048-.536 1.656-1.432 1.656s-1.424-.608-1.424-1.656c0-1.04.528-1.656 1.424-1.656m-.456 5.608 4.192-5.6h.616l-4.184 5.6zm.456-5.208c-.632 0-.984.456-.984 1.256s.352 1.248.984 1.248.984-.448.984-1.248-.352-1.256-.984-1.256m3.992 1.912c.896 0 1.432.608 1.432 1.648 0 1.048-.536 1.656-1.432 1.656s-1.424-.608-1.424-1.656c0-1.04.528-1.648 1.424-1.648m0 .4c-.632 0-.984.448-.984 1.248 0 .808.352 1.256.984 1.256s.984-.448.984-1.256c0-.8-.352-1.248-.984-1.248M389.26 223.234h-.632v-4.992h-1.136v-.608h1.768zm3.8-5.616c1.488 0 2.312 1.008 2.312 2.816s-.824 2.816-2.312 2.816-2.312-1.008-2.312-2.816.824-2.816 2.312-2.816m0 .544c-1.088 0-1.664.752-1.664 2.272 0 1.512.576 2.272 1.664 2.272s1.664-.76 1.664-2.272c0-1.52-.576-2.272-1.664-2.272m5.469-.544c1.488 0 2.312 1.008 2.312 2.816s-.824 2.816-2.312 2.816-2.312-1.008-2.312-2.816.824-2.816 2.312-2.816m0 .544c-1.088 0-1.664.752-1.664 2.272 0 1.512.576 2.272 1.664 2.272s1.664-.76 1.664-2.272c0-1.52-.576-2.272-1.664-2.272m4.501-.536c.896 0 1.432.616 1.432 1.656 0 1.048-.536 1.656-1.432 1.656s-1.424-.608-1.424-1.656c0-1.04.528-1.656 1.424-1.656m-.456 5.608 4.192-5.6h.616l-4.184 5.6zm.456-5.208c-.632 0-.984.456-.984 1.256s.352 1.248.984 1.248.984-.448.984-1.248-.352-1.256-.984-1.256m3.992 1.912c.896 0 1.432.608 1.432 1.648 0 1.048-.536 1.656-1.432 1.656s-1.424-.608-1.424-1.656c0-1.04.528-1.648 1.424-1.648m0 .4c-.632 0-.984.448-.984 1.248 0 .808.352 1.256.984 1.256s.984-.448.984-1.256c0-.8-.352-1.248-.984-1.248"/></svg>