<svg xmlns="http://www.w3.org/2000/svg" width="50" height="50" fill="none"><g clip-path="url(#a)"><path fill="#FF8A00" stroke="#FF8A00" stroke-width=".909" d="M47.387 10.866 26.29-.138a2.8 2.8 0 0 0-2.573-.008L2.627 10.687a2.8 2.8 0 0 0-1.521 2.489v22.402a2.8 2.8 0 0 0 1.55 2.505L23.75 48.598c.786.392 1.71.392 2.496 0L47.34 38.083a2.8 2.8 0 0 0 1.55-2.503V13.348c0-1.045-.58-2-1.503-2.482ZM24.813 21.349l-6.915-3.403 16.945-9.073 6.757 3.525zM7.39 12.775l17.601-9.04 5.523 2.88-17.069 9.14zM5.14 34.814V16.165l6.572 3.234v7.932a2.017 2.017 0 0 0 4.034 0v-5.946l7.235 3.558v18.766zm39.716 0-17.84 8.895V24.745l17.84-9.512z"/></g><defs><clipPath id="a"><path fill="#fff" d="M0 0h50v50H0z"/></clipPath></defs></svg>