<svg xmlns="http://www.w3.org/2000/svg" width="420" height="388" fill="none"><path fill="#D9D9D9" d="M0 0h326v301H0z"/><path fill="#F07A2E" d="M0 0h326v183H0z"/><path fill="#fff" d="M92.698 106.172c-2.87 0-5.138 2.156-5.138 4.928 0 2.758 2.268 4.956 5.138 4.956 2.856 0 5.124-2.198 5.124-4.956s-2.268-4.928-5.124-4.928m0 1.064c2.184 0 3.976 1.708 3.976 3.864s-1.792 3.878-3.976 3.878-4.004-1.722-4.004-3.878 1.82-3.864 4.004-3.864m10.969 1.344c-1.344.014-2.338.546-2.856 1.666v-1.624h-1.092V116h1.092v-3.962c.126-1.4 1.022-2.352 2.478-2.366 1.302 0 2.086.77 2.086 2.072V116h1.092v-4.55c0-1.778-1.036-2.87-2.8-2.87m8.151.014c-2.128 0-3.654 1.526-3.654 3.724s1.512 3.724 3.654 3.724c1.274 0 2.296-.476 2.954-1.274l-.63-.672c-.518.616-1.316.952-2.282.952-1.526 0-2.618-1.12-2.618-2.73s1.092-2.716 2.618-2.716c.896 0 1.638.322 2.198.854l.602-.77c-.672-.7-1.652-1.106-2.842-1.092m7.492 0c-2.142 0-3.654 1.526-3.654 3.724s1.498 3.724 3.668 3.724c1.232 0 2.268-.448 2.968-1.232l-.602-.644c-.574.602-1.372.924-2.282.924-1.428 0-2.478-.91-2.674-2.352h6.02c.112-2.506-1.064-4.158-3.444-4.144m-2.576 3.248c.168-1.4 1.176-2.31 2.576-2.31 1.442 0 2.394.896 2.464 2.31zm14.733-3.248c-2.184 0-3.738 1.512-3.738 3.71 0 2.212 1.554 3.738 3.738 3.738s3.738-1.526 3.738-3.738c0-2.198-1.554-3.71-3.738-3.71m0 .994c1.54 0 2.646 1.12 2.646 2.73 0 1.624-1.106 2.744-2.646 2.744s-2.646-1.12-2.646-2.744c0-1.61 1.106-2.73 2.646-2.73m6.75-.966h-1.092V116h1.092v-3.92c.126-1.456 1.092-2.422 2.646-2.394v-1.106c-1.246.014-2.156.602-2.646 1.68zm14.301-1.344V106.2H145v1.078h3.192V116h1.12v-8.722zm8.845 8.722 2.73-7.378h-1.134l-2.156 6.244-2.17-6.244h-1.148l-2.142 6.244-2.184-6.244h-1.148l2.758 7.378h1.134l2.156-5.992 2.17 5.992zm4.554-10.248c-.406 0-.714.322-.714.756s.308.756.714.756.714-.322.714-.756-.308-.756-.714-.756m.546 10.248v-7.378h-1.078V116zm5.566-7.406c-2.128 0-3.654 1.526-3.654 3.724s1.512 3.724 3.654 3.724c1.274 0 2.296-.476 2.954-1.274l-.63-.672c-.518.616-1.316.952-2.282.952-1.526 0-2.618-1.12-2.618-2.73s1.092-2.716 2.618-2.716c.896 0 1.638.322 2.198.854l.602-.77c-.672-.7-1.652-1.106-2.842-1.092m7.492 0c-2.142 0-3.654 1.526-3.654 3.724s1.498 3.724 3.668 3.724c1.232 0 2.268-.448 2.968-1.232l-.602-.644c-.574.602-1.372.924-2.282.924-1.428 0-2.478-.91-2.674-2.352h6.02c.112-2.506-1.064-4.158-3.444-4.144m-2.576 3.248c.168-1.4 1.176-2.31 2.576-2.31 1.442 0 2.394.896 2.464 2.31zM193.26 116h1.064l-.014-4.872c-.014-1.582-1.022-2.548-2.842-2.548-1.26 0-2.058.364-3.01.994l.462.798c.77-.532 1.526-.84 2.338-.84 1.302 0 1.974.644 1.974 1.722v.434h-2.422c-1.736.014-2.758.826-2.758 2.114 0 1.274.98 2.254 2.506 2.254 1.176 0 2.114-.392 2.702-1.19zm-2.492-.896c-1.036 0-1.694-.532-1.694-1.344s.644-1.19 1.876-1.19h2.296v.882c-.28 1.022-1.232 1.652-2.478 1.652m19.481.896 3.29-9.8h-1.162l-2.66 8.498-2.688-8.498-1.12.014-2.66 8.484-2.688-8.498h-1.204l3.276 9.8h1.148l2.674-8.26 2.646 8.26zm6.815-7.406c-2.142 0-3.654 1.526-3.654 3.724s1.498 3.724 3.668 3.724c1.232 0 2.268-.448 2.968-1.232l-.602-.644c-.574.602-1.372.924-2.282.924-1.428 0-2.478-.91-2.674-2.352h6.02c.112-2.506-1.064-4.158-3.444-4.144m-2.576 3.248c.168-1.4 1.176-2.31 2.576-2.31 1.442 0 2.394.896 2.464 2.31zm10.807-3.248c-2.142 0-3.654 1.526-3.654 3.724s1.498 3.724 3.668 3.724c1.232 0 2.268-.448 2.968-1.232l-.602-.644c-.574.602-1.372.924-2.282.924-1.428 0-2.478-.91-2.674-2.352h6.02c.112-2.506-1.064-4.158-3.444-4.144m-2.576 3.248c.168-1.4 1.176-2.31 2.576-2.31 1.442 0 2.394.896 2.464 2.31zm10.61.434 2.52 3.724h1.302l-3.052-4.522 2.758-2.856h-1.288l-3.794 3.78v-6.79h-1.092V116h1.092v-2.114z"/><path fill="#FFB923" d="M139.608 62.404c-7.488 0-12.348 5.22-12.348 13.248 0 7.74 4.32 12.708 11.448 12.708 5.94 0 9.9-3.456 9.9-8.892 0-4.932-3.24-8.316-8.172-8.316-2.448 0-4.14.828-5.22 1.872 0-2.808 1.656-4.212 4.896-4.212 1.98 0 3.672.54 5.04 1.656l3.168-5.832c-2.196-1.368-5.616-2.232-8.712-2.232M138.456 77.2c1.62 0 2.412.756 2.412 2.232 0 1.548-.828 2.304-2.448 2.304q-2.484 0-2.484-2.268c0-1.512.864-2.268 2.52-2.268M162.16 88V62.764h-12.744v6.588h4.392V88zm11.108-25.38c-4.464 0-7.38 3.024-7.38 7.704 0 4.716 2.916 7.776 7.38 7.776s7.344-3.06 7.344-7.776c0-4.68-2.88-7.704-7.344-7.704M171.684 88h7.524l17.532-25.236h-7.524zm1.584-21.132c1.404 0 2.304 1.368 2.304 3.456 0 2.124-.9 3.492-2.304 3.492s-2.304-1.368-2.304-3.492c0-2.088.9-3.456 2.304-3.456m21.924 5.832c-4.464 0-7.38 3.024-7.38 7.704 0 4.716 2.916 7.776 7.38 7.776s7.344-3.06 7.344-7.776c0-4.68-2.88-7.704-7.344-7.704m0 4.248c1.404 0 2.304 1.368 2.304 3.456 0 2.124-.9 3.492-2.304 3.492s-2.304-1.368-2.304-3.492c0-2.088.9-3.456 2.304-3.456"/><path fill="#F6B83E" d="M0 183h154v118H0z"/><path fill="#333" d="m21.24 250.96 2.17-2.41v-.54h-4.03v.76h3.03l-2.05 2.27v.51h.86c1.09 0 1.74.45 1.74 1.33 0 .85-.64 1.44-1.73 1.44-.65 0-1.31-.25-1.81-.66l-.35.67c.58.42 1.41.71 2.22.71 1.5 0 2.45-.9 2.45-2.19 0-1.12-.85-1.8-2.11-1.86zm8.868-1.25c-1.56 0-2.67 1.08-2.67 2.65 0 1.58 1.11 2.67 2.67 2.67s2.67-1.09 2.67-2.67c0-1.57-1.11-2.65-2.67-2.65m0 .71c1.1 0 1.89.8 1.89 1.95 0 1.16-.79 1.96-1.89 1.96s-1.89-.8-1.89-1.96c0-1.15.79-1.95 1.89-1.95m4.821-.69h-.78V255h.78v-2.8c.09-1.04.78-1.73 1.89-1.71v-.79c-.89.01-1.54.43-1.89 1.2zM47.804 255v-7h-.98l-2.55 5.04-2.56-5.04h-.99v7h.76v-5.77l2.54 5.03h.48l2.55-5.03.01 5.77zm4.159-5.29c-1.56 0-2.67 1.08-2.67 2.65 0 1.58 1.11 2.67 2.67 2.67s2.67-1.09 2.67-2.67c0-1.57-1.11-2.65-2.67-2.65m0 .71c1.1 0 1.89.8 1.89 1.95 0 1.16-.79 1.96-1.89 1.96s-1.89-.8-1.89-1.96c0-1.15.79-1.95 1.89-1.95m4.822-.69h-.78V255h.78v-2.8c.09-1.04.78-1.73 1.89-1.71v-.79c-.89.01-1.54.43-1.89 1.2zm5.02-.02c-1.53 0-2.61 1.09-2.61 2.66s1.07 2.66 2.62 2.66c.88 0 1.62-.32 2.12-.88l-.43-.46c-.41.43-.98.66-1.63.66-1.02 0-1.77-.65-1.91-1.68h4.3c.08-1.79-.76-2.97-2.46-2.96m-1.84 2.32c.12-1 .84-1.65 1.84-1.65 1.03 0 1.71.64 1.76 1.65zm12.913-3.26V248h-5.37v.77h2.28V255h.8v-6.23zm1.427-1.09c-.29 0-.51.23-.51.54s.22.54.51.54.51-.23.51-.54-.22-.54-.51-.54m.39 7.32v-5.27h-.77V255zm8.646-5.3c-1.01.01-1.75.45-2.08 1.38-.22-.87-.9-1.38-1.89-1.38-.95.01-1.66.4-2.01 1.22v-1.19h-.77V255h.77v-2.59c0-1.13.65-1.91 1.73-1.94.92 0 1.46.55 1.46 1.49V255h.79v-2.59c0-1.13.63-1.91 1.72-1.94.91 0 1.46.55 1.46 1.49V255h.78v-3.25c0-1.27-.73-2.05-1.96-2.05m5.77.01c-1.53 0-2.61 1.09-2.61 2.66s1.07 2.66 2.62 2.66c.88 0 1.62-.32 2.12-.88l-.43-.46c-.41.43-.98.66-1.63.66-1.02 0-1.77-.65-1.91-1.68h4.3c.08-1.79-.76-2.97-2.46-2.96m-1.84 2.32c.12-1 .84-1.65 1.84-1.65 1.03 0 1.71.64 1.76 1.65zm7.038-2.33c-.96 0-1.83.42-1.83 1.43-.01 1.87 2.94 1.22 2.91 2.49-.01.52-.51.75-1.13.75s-1.3-.25-1.75-.67l-.3.59c.5.48 1.27.74 2.02.74 1.01 0 1.93-.46 1.93-1.5 0-1.89-2.94-1.29-2.94-2.46 0-.49.45-.7 1.04-.7.49 0 1.02.17 1.43.43l.3-.62c-.44-.3-1.05-.48-1.68-.48m9.145 5.3h.76l-.01-3.48c-.01-1.13-.73-1.82-2.03-1.82-.9 0-1.47.26-2.15.71l.33.57c.55-.38 1.09-.6 1.67-.6.93 0 1.41.46 1.41 1.23v.31h-1.73c-1.24.01-1.97.59-1.97 1.51 0 .91.7 1.61 1.79 1.61.84 0 1.51-.28 1.93-.85zm-1.78-.64c-.74 0-1.21-.38-1.21-.96s.46-.85 1.34-.85h1.64v.63c-.2.73-.88 1.18-1.77 1.18m13.916.64 2.35-7h-.83l-1.9 6.07-1.92-6.07-.8.01-1.9 6.06-1.92-6.07h-.86l2.34 7h.82l1.91-5.9 1.89 5.9zm4.868-5.29c-1.53 0-2.61 1.09-2.61 2.66s1.07 2.66 2.62 2.66c.88 0 1.62-.32 2.12-.88l-.43-.46c-.41.43-.98.66-1.63.66-1.02 0-1.77-.65-1.91-1.68h4.3c.08-1.79-.76-2.97-2.46-2.96m-1.84 2.32c.12-1 .84-1.65 1.84-1.65 1.03 0 1.71.64 1.76 1.65zm7.719-2.32c-1.53 0-2.61 1.09-2.61 2.66s1.07 2.66 2.62 2.66c.88 0 1.62-.32 2.12-.88l-.43-.46c-.41.43-.98.66-1.63.66-1.02 0-1.77-.65-1.91-1.68h4.3c.08-1.79-.76-2.97-2.46-2.96m-1.84 2.32c.12-1 .84-1.65 1.84-1.65 1.03 0 1.71.64 1.76 1.65zm7.579.31 1.8 2.66h.93l-2.18-3.23 1.97-2.04h-.92l-2.71 2.7v-4.85h-.78V255h.78v-1.51z"/><path fill="#F07A2E" d="m64.714 230.368 2.718-2.61v-2.34H58.54v3.024h4.194l-2.394 2.286v2.178h2.286c.864 0 1.296.36 1.296 1.098s-.432 1.098-1.296 1.098c-1.098 0-2.142-.594-3.096-1.764l-1.656 3.168c1.224 1.008 3.204 1.674 5.094 1.674 3.06 0 5.04-1.728 5.04-4.194 0-1.89-1.17-3.114-2.754-3.492zM74.762 238v-12.618h-6.373v3.294h2.197V238zm5.554-12.69c-2.232 0-3.69 1.512-3.69 3.852 0 2.358 1.458 3.888 3.69 3.888s3.672-1.53 3.672-3.888c0-2.34-1.44-3.852-3.672-3.852M79.524 238h3.762l8.766-12.618H88.29zm.792-10.566c.702 0 1.152.684 1.152 1.728 0 1.062-.45 1.746-1.152 1.746s-1.152-.684-1.152-1.746c0-1.044.45-1.728 1.152-1.728m10.962 2.916c-2.232 0-3.69 1.512-3.69 3.852 0 2.358 1.458 3.888 3.69 3.888s3.672-1.53 3.672-3.888c0-2.34-1.44-3.852-3.672-3.852m0 2.124c.702 0 1.152.684 1.152 1.728 0 1.062-.45 1.746-1.152 1.746s-1.152-.684-1.152-1.746c0-1.044.45-1.728 1.152-1.728"/><path fill="#FCE866" d="M154 183h72v118h-72z"/><path fill="#4B3300" d="M87.86 351.24h3.07v.76h-3.87v-7h.8zm6.336-4.53c1.7-.01 2.54 1.17 2.46 2.96h-4.3c.14 1.03.89 1.68 1.91 1.68.65 0 1.22-.23 1.63-.66l.43.46c-.5.56-1.24.88-2.12.88-1.55 0-2.62-1.09-2.62-2.66s1.08-2.66 2.61-2.66m-1.84 2.32h3.6c-.05-1.01-.73-1.65-1.76-1.65-1 0-1.72.65-1.84 1.65m7.039-2.33c.63 0 1.24.18 1.68.48l-.3.62c-.41-.26-.94-.43-1.43-.43-.59 0-1.04.21-1.04.7 0 1.17 2.94.57 2.94 2.46 0 1.04-.92 1.5-1.93 1.5-.75 0-1.52-.26-2.02-.74l.3-.59c.45.42 1.13.67 1.75.67s1.12-.23 1.13-.75c.03-1.27-2.92-.62-2.91-2.49 0-1.01.87-1.43 1.83-1.43m4.531 0c.63 0 1.24.18 1.68.48l-.3.62c-.41-.26-.94-.43-1.43-.43-.59 0-1.04.21-1.04.7 0 1.17 2.94.57 2.94 2.46 0 1.04-.92 1.5-1.93 1.5-.75 0-1.52-.26-2.02-.74l.3-.59c.45.42 1.13.67 1.75.67s1.12-.23 1.13-.75c.03-1.27-2.92-.62-2.91-2.49 0-1.01.87-1.43 1.83-1.43m10.406-.93h-2.29V352h-.8v-6.23h-2.28V345h5.37zm3.35.93c1.26 0 2 .78 2 2.05V352h-.78v-3.04c0-.93-.56-1.48-1.49-1.48-1.12.01-1.78.8-1.78 1.93V352h-.78v-7.42h.78v3.33c.36-.82 1.08-1.2 2.05-1.21m7.011 5.3v-.81c-.42.57-1.09.85-1.93.85-1.09 0-1.79-.7-1.79-1.61 0-.92.73-1.5 1.97-1.51h1.73v-.31c0-.77-.48-1.23-1.41-1.23-.58 0-1.12.22-1.67.6l-.33-.57c.68-.45 1.25-.71 2.15-.71 1.3 0 2.02.69 2.03 1.82l.01 3.48zm-1.78-.64c.89 0 1.57-.45 1.77-1.18v-.63h-1.64c-.88 0-1.34.27-1.34.85s.47.96 1.21.96m7.101-4.66c1.26 0 2 .78 2 2.05V352h-.78v-3.04c0-.93-.56-1.48-1.49-1.48-1.04.01-1.68.69-1.77 1.69V352h-.78v-5.27h.78v1.16c.37-.8 1.08-1.18 2.04-1.19m9.607-1.72c2.04 0 3.66 1.55 3.66 3.52s-1.62 3.54-3.66 3.54c-2.05 0-3.67-1.57-3.67-3.54 0-1.98 1.62-3.52 3.67-3.52m0 .76c-1.56 0-2.86 1.22-2.86 2.76s1.3 2.77 2.86 2.77 2.84-1.23 2.84-2.77-1.28-2.76-2.84-2.76m7.835.96c1.26 0 2 .78 2 2.05V352h-.78v-3.04c0-.93-.56-1.48-1.49-1.48-1.04.01-1.68.69-1.77 1.69V352h-.78v-5.27h.78v1.16c.37-.8 1.08-1.18 2.04-1.19m5.822.01c.85-.01 1.55.28 2.03.78l-.43.55c-.4-.38-.93-.61-1.57-.61-1.09 0-1.87.79-1.87 1.94s.78 1.95 1.87 1.95c.69 0 1.26-.24 1.63-.68l.45.48c-.47.57-1.2.91-2.11.91-1.53 0-2.61-1.09-2.61-2.66s1.09-2.66 2.61-2.66m5.352 0c1.7-.01 2.54 1.17 2.46 2.96h-4.3c.14 1.03.89 1.68 1.91 1.68.65 0 1.22-.23 1.63-.66l.43.46c-.5.56-1.24.88-2.12.88-1.55 0-2.62-1.09-2.62-2.66s1.08-2.66 2.61-2.66m-1.84 2.32h3.6c-.05-1.01-.73-1.65-1.76-1.65-1 0-1.72.65-1.84 1.65m8.493-4.03h2.63c1.73 0 2.73.86 2.73 2.35 0 1.55-1 2.44-2.73 2.44h-1.83V352h-.8zm.8.77v3.25h1.8c1.26 0 1.99-.56 1.99-1.65 0-1.06-.73-1.6-1.99-1.6zm7.859.94c1.7-.01 2.54 1.17 2.46 2.96h-4.3c.14 1.03.89 1.68 1.91 1.68.65 0 1.22-.23 1.63-.66l.43.46c-.5.56-1.24.88-2.12.88-1.55 0-2.62-1.09-2.62-2.66s1.08-2.66 2.61-2.66m-1.84 2.32h3.6c-.05-1.01-.73-1.65-1.76-1.65-1 0-1.72.65-1.84 1.65m6.419-2.3v1.17c.35-.77 1-1.19 1.89-1.2v.79c-1.11-.02-1.8.67-1.89 1.71v2.8h-.78v-5.27zm12.575 5.27h-.82l-1.89-5.9-1.91 5.9h-.82l-2.34-7h.86l1.92 6.07 1.9-6.06.8-.01 1.92 6.07 1.9-6.07h.83zm4.868-5.29c1.7-.01 2.54 1.17 2.46 2.96h-4.3c.14 1.03.89 1.68 1.91 1.68.65 0 1.22-.23 1.63-.66l.43.46c-.5.56-1.24.88-2.12.88-1.55 0-2.62-1.09-2.62-2.66s1.08-2.66 2.61-2.66m-1.84 2.32h3.6c-.05-1.01-.73-1.65-1.76-1.65-1 0-1.72.65-1.84 1.65m7.719-2.32c1.7-.01 2.54 1.17 2.46 2.96h-4.3c.14 1.03.89 1.68 1.91 1.68.65 0 1.22-.23 1.63-.66l.43.46c-.5.56-1.24.88-2.12.88-1.55 0-2.62-1.09-2.62-2.66s1.08-2.66 2.61-2.66m-1.84 2.32h3.6c-.05-1.01-.73-1.65-1.76-1.65-1 0-1.72.65-1.84 1.65m7.578.31-1.11 1.15V352h-.78v-7.42h.78v4.85l2.71-2.7h.92l-1.97 2.04 2.18 3.23h-.93zm3.843 1.72c.26 0 .48.19.48.51 0 .16-.06.29-.15.43l-.47.72h-.44l.33-.73c-.15-.09-.22-.25-.22-.43 0-.29.2-.5.47-.5M87.06 361h2.95c1.41 0 2.26.65 2.26 1.75 0 .82-.47 1.41-1.29 1.58 1.01.15 1.6.81 1.6 1.77 0 1.19-.94 1.9-2.52 1.9h-3zm.8.77v2.25h2.11c.94 0 1.49-.41 1.49-1.14 0-.71-.55-1.11-1.49-1.11zm0 3.01v2.46h2.11c1.14 0 1.8-.45 1.8-1.25 0-.76-.66-1.21-1.8-1.21zm10.818-2.05V368h-.78v-1.19c-.35.82-1.05 1.21-2 1.22-1.23 0-1.97-.78-1.97-2.05v-3.25h.78v3.04c0 .93.55 1.48 1.46 1.48 1.09-.02 1.73-.81 1.73-1.93v-2.59zm4.405 4.28.22.63c-.37.25-.77.39-1.19.4-.77 0-1.34-.46-1.34-1.5v-3.01h-.76v-.63h.76v-1.39h.77v1.39l1.67-.01v.64h-1.67v2.87c0 .64.25.88.7.88q.405 0 .84-.27m11.33.99h-.74l-.01-5.77-2.55 5.03h-.48l-2.54-5.03V368h-.76v-7h.99l2.56 5.04 2.55-5.04h.98zm4.159-5.29c1.56 0 2.67 1.08 2.67 2.65 0 1.58-1.11 2.67-2.67 2.67s-2.67-1.09-2.67-2.67c0-1.57 1.11-2.65 2.67-2.65m0 .71c-1.1 0-1.89.8-1.89 1.95 0 1.16.79 1.96 1.89 1.96s1.89-.8 1.89-1.96c0-1.15-.79-1.95-1.89-1.95m4.822-.69v1.17c.35-.77 1-1.19 1.89-1.2v.79c-1.11-.02-1.8.67-1.89 1.71v2.8h-.78v-5.27zm5.021-.02c1.7-.01 2.54 1.17 2.46 2.96h-4.3c.14 1.03.89 1.68 1.91 1.68.65 0 1.22-.23 1.63-.66l.43.46c-.5.56-1.24.88-2.12.88-1.55 0-2.62-1.09-2.62-2.66s1.08-2.66 2.61-2.66m-1.84 2.32h3.6c-.05-1.01-.73-1.65-1.76-1.65-1 0-1.72.65-1.84 1.65m12.913-3.26h-2.29V368h-.8v-6.23h-2.28V361h5.37zm3.35.93c1.26 0 2 .78 2 2.05V368h-.78v-3.04c0-.93-.56-1.48-1.49-1.48-1.12.01-1.78.8-1.78 1.93V368h-.78v-7.42h.78v3.33c.36-.82 1.08-1.2 2.05-1.21m7.011 5.3v-.81c-.42.57-1.09.85-1.93.85-1.09 0-1.79-.7-1.79-1.61 0-.92.73-1.5 1.97-1.51h1.73v-.31c0-.77-.48-1.23-1.41-1.23-.58 0-1.12.22-1.67.6l-.33-.57c.68-.45 1.25-.71 2.15-.71 1.3 0 2.02.69 2.03 1.82l.01 3.48zm-1.78-.64c.89 0 1.57-.45 1.77-1.18v-.63h-1.64c-.88 0-1.34.27-1.34.85s.47.96 1.21.96m7.101-4.66c1.26 0 2 .78 2 2.05V368h-.78v-3.04c0-.93-.56-1.48-1.49-1.48-1.04.01-1.68.69-1.77 1.69V368h-.78v-5.27h.78v1.16c.37-.8 1.08-1.18 2.04-1.19m11.017-.93h-2.29V368h-.8v-6.23h-2.28V361h5.37zm6.318 6.23h-.81l-1.55-4.28-1.54 4.28h-.81l-1.97-5.27h.82l1.56 4.46 1.53-4.46h.82l1.55 4.46 1.54-4.46h.81zm3.253-7.32c.29 0 .51.23.51.54s-.22.54-.51.54-.51-.23-.51-.54.22-.54.51-.54m.39 7.32h-.77v-5.27h.77zm3.976-5.29c.85-.01 1.55.28 2.03.78l-.43.55c-.4-.38-.93-.61-1.57-.61-1.09 0-1.87.79-1.87 1.94s.78 1.95 1.87 1.95c.69 0 1.26-.24 1.63-.68l.45.48c-.47.57-1.2.91-2.11.91-1.53 0-2.61-1.09-2.61-2.66s1.09-2.66 2.61-2.66m5.351 0c1.7-.01 2.54 1.17 2.46 2.96h-4.3c.14 1.03.89 1.68 1.91 1.68.65 0 1.22-.23 1.63-.66l.43.46c-.5.56-1.24.88-2.12.88-1.55 0-2.62-1.09-2.62-2.66s1.08-2.66 2.61-2.66m-1.84 2.32h3.6c-.05-1.01-.73-1.65-1.76-1.65-1 0-1.72.65-1.84 1.65m11.653 2.97v-.81c-.42.57-1.09.85-1.93.85-1.09 0-1.79-.7-1.79-1.61 0-.92.73-1.5 1.97-1.51h1.73v-.31c0-.77-.48-1.23-1.41-1.23-.58 0-1.12.22-1.67.6l-.33-.57c.68-.45 1.25-.71 2.15-.71 1.3 0 2.02.69 2.03 1.82l.01 3.48zm-1.78-.64c.89 0 1.57-.45 1.77-1.18v-.63h-1.64c-.88 0-1.34.27-1.34.85s.47.96 1.21.96M94.14 384h-.74l-.01-5.77-2.55 5.03h-.48l-2.54-5.03V384h-.76v-7h.99l2.56 5.04 2.55-5.04h.98zm4.159-5.29c1.56 0 2.67 1.08 2.67 2.65 0 1.58-1.11 2.67-2.67 2.67s-2.67-1.09-2.67-2.67c0-1.57 1.11-2.65 2.67-2.65m0 .71c-1.1 0-1.89.8-1.89 1.95 0 1.16.79 1.96 1.89 1.96s1.89-.8 1.89-1.96c0-1.15-.79-1.95-1.89-1.95m6.862-.72c1.26 0 2 .78 2 2.05V384h-.78v-3.04c0-.93-.56-1.48-1.49-1.48-1.04.01-1.68.69-1.77 1.69V384h-.78v-5.27h.78v1.16c.37-.8 1.08-1.18 2.04-1.19m6.242 4.31.22.63c-.37.25-.77.39-1.19.4-.77 0-1.34-.46-1.34-1.5v-3.01h-.76v-.63h.76v-1.39h.77v1.39l1.67-.01v.64h-1.67v2.87c0 .64.25.88.7.88q.405 0 .84-.27m4.277-4.31c1.26 0 2 .78 2 2.05V384h-.78v-3.04c0-.93-.56-1.48-1.49-1.48-1.12.01-1.78.8-1.78 1.93V384h-.78v-7.42h.78v3.33c.36-.82 1.08-1.2 2.05-1.21M252.07 344.98c2.04 0 3.66 1.55 3.66 3.52s-1.62 3.54-3.66 3.54c-2.05 0-3.67-1.57-3.67-3.54 0-1.98 1.62-3.52 3.67-3.52m0 .76c-1.56 0-2.86 1.22-2.86 2.76s1.3 2.77 2.86 2.77 2.84-1.23 2.84-2.77-1.28-2.76-2.84-2.76m7.835.96c1.26 0 2 .78 2 2.05V352h-.78v-3.04c0-.93-.56-1.48-1.49-1.48-1.04.01-1.68.69-1.77 1.69V352h-.78v-5.27h.78v1.16c.37-.8 1.08-1.18 2.04-1.19m5.822.01c.85-.01 1.55.28 2.03.78l-.43.55c-.4-.38-.93-.61-1.57-.61-1.09 0-1.87.79-1.87 1.94s.78 1.95 1.87 1.95c.69 0 1.26-.24 1.63-.68l.45.48c-.47.57-1.2.91-2.11.91-1.53 0-2.61-1.09-2.61-2.66s1.09-2.66 2.61-2.66m5.352 0c1.7-.01 2.54 1.17 2.46 2.96h-4.3c.14 1.03.89 1.68 1.91 1.68.65 0 1.22-.23 1.63-.66l.43.46c-.5.56-1.24.88-2.12.88-1.55 0-2.62-1.09-2.62-2.66s1.08-2.66 2.61-2.66m-1.84 2.32h3.6c-.05-1.01-.73-1.65-1.76-1.65-1 0-1.72.65-1.84 1.65m10.523-2.32c1.56 0 2.67 1.08 2.67 2.65 0 1.58-1.11 2.67-2.67 2.67s-2.67-1.09-2.67-2.67c0-1.57 1.11-2.65 2.67-2.65m0 .71c-1.1 0-1.89.8-1.89 1.95 0 1.16.79 1.96 1.89 1.96s1.89-.8 1.89-1.96c0-1.15-.79-1.95-1.89-1.95m4.822-.69v1.17c.35-.77 1-1.19 1.89-1.2v.79c-1.11-.02-1.8.67-1.89 1.71v2.8h-.78v-5.27zm10.214-.96h-2.29V352h-.8v-6.23h-2.28V345h5.37zm6.318 6.23h-.81l-1.55-4.28-1.54 4.28h-.81l-1.97-5.27h.82l1.56 4.46 1.53-4.46h.82l1.55 4.46 1.54-4.46h.81zm3.253-7.32c.29 0 .51.23.51.54s-.22.54-.51.54-.51-.23-.51-.54.22-.54.51-.54m.39 7.32h-.77v-5.27h.77zm3.976-5.29c.85-.01 1.55.28 2.03.78l-.43.55c-.4-.38-.93-.61-1.57-.61-1.09 0-1.87.79-1.87 1.94s.78 1.95 1.87 1.95c.69 0 1.26-.24 1.63-.68l.45.48c-.47.57-1.2.91-2.11.91-1.53 0-2.61-1.09-2.61-2.66s1.09-2.66 2.61-2.66m5.352 0c1.7-.01 2.54 1.17 2.46 2.96h-4.3c.14 1.03.89 1.68 1.91 1.68.65 0 1.22-.23 1.63-.66l.43.46c-.5.56-1.24.88-2.12.88-1.55 0-2.62-1.09-2.62-2.66s1.08-2.66 2.61-2.66m-1.84 2.32h3.6c-.05-1.01-.73-1.65-1.76-1.65-1 0-1.72.65-1.84 1.65M323.9 352v-.81c-.42.57-1.09.85-1.93.85-1.09 0-1.79-.7-1.79-1.61 0-.92.73-1.5 1.97-1.51h1.73v-.31c0-.77-.48-1.23-1.41-1.23-.58 0-1.12.22-1.67.6l-.33-.57c.68-.45 1.25-.71 2.15-.71 1.3 0 2.02.69 2.03 1.82l.01 3.48zm-1.78-.64c.89 0 1.57-.45 1.77-1.18v-.63h-1.64c-.88 0-1.34.27-1.34.85s.47.96 1.21.96m14.215.64h-.74l-.01-5.77-2.55 5.03h-.48l-2.54-5.03V352h-.76v-7h.99l2.56 5.04 2.55-5.04h.98zm4.159-5.29c1.56 0 2.67 1.08 2.67 2.65 0 1.58-1.11 2.67-2.67 2.67s-2.67-1.09-2.67-2.67c0-1.57 1.11-2.65 2.67-2.65m0 .71c-1.1 0-1.89.8-1.89 1.95 0 1.16.79 1.96 1.89 1.96s1.89-.8 1.89-1.96c0-1.15-.79-1.95-1.89-1.95m6.862-.72c1.26 0 2 .78 2 2.05V352h-.78v-3.04c0-.93-.56-1.48-1.49-1.48-1.04.01-1.68.69-1.77 1.69V352h-.78v-5.27h.78v1.16c.37-.8 1.08-1.18 2.04-1.19m6.242 4.31.22.63c-.37.25-.77.39-1.19.4-.77 0-1.34-.46-1.34-1.5v-3.01h-.76v-.63h.76v-1.39h.77v1.39l1.67-.01v.64h-1.67v2.87c0 .64.25.88.7.88q.405 0 .84-.27m4.277-4.31c1.26 0 2 .78 2 2.05V352h-.78v-3.04c0-.93-.56-1.48-1.49-1.48-1.12.01-1.78.8-1.78 1.93V352h-.78v-7.42h.78v3.33c.36-.82 1.08-1.2 2.05-1.21M348.86 275.24h3.07v.76h-3.87v-7h.8zm6.336-4.53c1.7-.01 2.54 1.17 2.46 2.96h-4.3c.14 1.03.89 1.68 1.91 1.68.65 0 1.22-.23 1.63-.66l.43.46c-.5.56-1.24.88-2.12.88-1.55 0-2.62-1.09-2.62-2.66s1.08-2.66 2.61-2.66m-1.84 2.32h3.6c-.05-1.01-.73-1.65-1.76-1.65-1 0-1.72.65-1.84 1.65m7.039-2.33c.63 0 1.24.18 1.68.48l-.3.62c-.41-.26-.94-.43-1.43-.43-.59 0-1.04.21-1.04.7 0 1.17 2.94.57 2.94 2.46 0 1.04-.92 1.5-1.93 1.5-.75 0-1.52-.26-2.02-.74l.3-.59c.45.42 1.13.67 1.75.67s1.12-.23 1.13-.75c.03-1.27-2.92-.62-2.91-2.49 0-1.01.87-1.43 1.83-1.43m4.531 0c.63 0 1.24.18 1.68.48l-.3.62c-.41-.26-.94-.43-1.43-.43-.59 0-1.04.21-1.04.7 0 1.17 2.94.57 2.94 2.46 0 1.04-.92 1.5-1.93 1.5-.75 0-1.52-.26-2.02-.74l.3-.59c.45.42 1.13.67 1.75.67s1.12-.23 1.13-.75c.03-1.27-2.92-.62-2.91-2.49 0-1.01.87-1.43 1.83-1.43m10.406-.93h-2.29V276h-.8v-6.23h-2.28V269h5.37zm3.35.93c1.26 0 2 .78 2 2.05V276h-.78v-3.04c0-.93-.56-1.48-1.49-1.48-1.12.01-1.78.8-1.78 1.93V276h-.78v-7.42h.78v3.33c.36-.82 1.08-1.2 2.05-1.21m7.011 5.3v-.81c-.42.57-1.09.85-1.93.85-1.09 0-1.79-.7-1.79-1.61 0-.92.73-1.5 1.97-1.51h1.73v-.31c0-.77-.48-1.23-1.41-1.23-.58 0-1.12.22-1.67.6l-.33-.57c.68-.45 1.25-.71 2.15-.71 1.3 0 2.02.69 2.03 1.82l.01 3.48zm-1.78-.64c.89 0 1.57-.45 1.77-1.18v-.63h-1.64c-.88 0-1.34.27-1.34.85s.47.96 1.21.96m7.101-4.66c1.26 0 2 .78 2 2.05V276h-.78v-3.04c0-.93-.56-1.48-1.49-1.48-1.04.01-1.68.69-1.77 1.69V276h-.78v-5.27h.78v1.16c.37-.8 1.08-1.18 2.04-1.19m-39.944 14.28c2.04 0 3.66 1.55 3.66 3.52s-1.62 3.54-3.66 3.54c-2.05 0-3.67-1.57-3.67-3.54 0-1.98 1.62-3.52 3.67-3.52m0 .76c-1.56 0-2.86 1.22-2.86 2.76s1.3 2.77 2.86 2.77 2.84-1.23 2.84-2.77-1.28-2.76-2.84-2.76m7.835.96c1.26 0 2 .78 2 2.05V292h-.78v-3.04c0-.93-.56-1.48-1.49-1.48-1.04.01-1.68.69-1.77 1.69V292h-.78v-5.27h.78v1.16c.37-.8 1.08-1.18 2.04-1.19m5.822.01c.85-.01 1.55.28 2.03.78l-.43.55c-.4-.38-.93-.61-1.57-.61-1.09 0-1.87.79-1.87 1.94s.78 1.95 1.87 1.95c.69 0 1.26-.24 1.63-.68l.45.48c-.47.57-1.2.91-2.11.91-1.53 0-2.61-1.09-2.61-2.66s1.09-2.66 2.61-2.66m5.352 0c1.7-.01 2.54 1.17 2.46 2.96h-4.3c.14 1.03.89 1.68 1.91 1.68.65 0 1.22-.23 1.63-.66l.43.46c-.5.56-1.24.88-2.12.88-1.55 0-2.62-1.09-2.62-2.66s1.08-2.66 2.61-2.66m-1.84 2.32h3.6c-.05-1.01-.73-1.65-1.76-1.65-1 0-1.72.65-1.84 1.65m11.653 2.97v-.81c-.42.57-1.09.85-1.93.85-1.09 0-1.79-.7-1.79-1.61 0-.92.73-1.5 1.97-1.51h1.73v-.31c0-.77-.48-1.23-1.41-1.23-.58 0-1.12.22-1.67.6l-.33-.57c.68-.45 1.25-.71 2.15-.71 1.3 0 2.02.69 2.03 1.82l.01 3.48zm-1.78-.64c.89 0 1.57-.45 1.77-1.18v-.63h-1.64c-.88 0-1.34.27-1.34.85s.47.96 1.21.96m14.216.64h-.74l-.01-5.77-2.55 5.03h-.48l-2.54-5.03V292h-.76v-7h.99l2.56 5.04 2.55-5.04h.98zm4.158-5.29c1.56 0 2.67 1.08 2.67 2.65 0 1.58-1.11 2.67-2.67 2.67s-2.67-1.09-2.67-2.67c0-1.57 1.11-2.65 2.67-2.65m0 .71c-1.1 0-1.89.8-1.89 1.95 0 1.16.79 1.96 1.89 1.96s1.89-.8 1.89-1.96c0-1.15-.79-1.95-1.89-1.95m6.862-.72c1.26 0 2 .78 2 2.05V292h-.78v-3.04c0-.93-.56-1.48-1.49-1.48-1.04.01-1.68.69-1.77 1.69V292h-.78v-5.27h.78v1.16c.37-.8 1.08-1.18 2.04-1.19m6.243 4.31.22.63c-.37.25-.77.39-1.19.4-.77 0-1.34-.46-1.34-1.5v-3.01h-.76v-.63h.76v-1.39h.77v1.39l1.67-.01v.64h-1.67v2.87c0 .64.25.88.7.88q.405 0 .84-.27m4.276-4.31c1.26 0 2 .78 2 2.05V292h-.78v-3.04c0-.93-.56-1.48-1.49-1.48-1.12.01-1.78.8-1.78 1.93V292h-.78v-7.42h.78v3.33c.36-.82 1.08-1.2 2.05-1.21"/><path fill="#F07A2E" d="m90.68 330.582 3.438-7.2H90.14l-3.69 7.452v2.736h5.94V336h3.87v-2.43h1.602v-2.988H96.26v-2.412h-3.87v2.412zm11.413-7.272c-2.232 0-3.69 1.512-3.69 3.852 0 2.358 1.458 3.888 3.69 3.888s3.672-1.53 3.672-3.888c0-2.34-1.44-3.852-3.672-3.852m-.792 12.69h3.762l8.766-12.618h-3.762zm.792-10.566c.702 0 1.152.684 1.152 1.728 0 1.062-.45 1.746-1.152 1.746s-1.152-.684-1.152-1.746c0-1.044.45-1.728 1.152-1.728m10.962 2.916c-2.232 0-3.69 1.512-3.69 3.852 0 2.358 1.458 3.888 3.69 3.888s3.672-1.53 3.672-3.888c0-2.34-1.44-3.852-3.672-3.852m0 2.124c.702 0 1.152.684 1.152 1.728 0 1.062-.45 1.746-1.152 1.746s-1.152-.684-1.152-1.746c0-1.044.45-1.728 1.152-1.728M254.714 328.368l2.718-2.61v-2.34h-8.892v3.024h4.194l-2.394 2.286v2.178h2.286c.864 0 1.296.36 1.296 1.098s-.432 1.098-1.296 1.098c-1.098 0-2.142-.594-3.096-1.764l-1.656 3.168c1.224 1.008 3.204 1.674 5.094 1.674 3.06 0 5.04-1.728 5.04-4.194 0-1.89-1.17-3.114-2.754-3.492zm7.78-5.058c-2.232 0-3.69 1.512-3.69 3.852 0 2.358 1.458 3.888 3.69 3.888s3.672-1.53 3.672-3.888c0-2.34-1.44-3.852-3.672-3.852m-.792 12.69h3.762l8.766-12.618h-3.762zm.792-10.566c.702 0 1.152.684 1.152 1.728 0 1.062-.45 1.746-1.152 1.746s-1.152-.684-1.152-1.746c0-1.044.45-1.728 1.152-1.728m10.962 2.916c-2.232 0-3.69 1.512-3.69 3.852 0 2.358 1.458 3.888 3.69 3.888s3.672-1.53 3.672-3.888c0-2.34-1.44-3.852-3.672-3.852m0 2.124c.702 0 1.152.684 1.152 1.728 0 1.062-.45 1.746-1.152 1.746s-1.152-.684-1.152-1.746c0-1.044.45-1.728 1.152-1.728M353.408 260v-12.618h-6.372v3.294h2.196V260zm5.554-12.69c-2.232 0-3.69 1.512-3.69 3.852 0 2.358 1.458 3.888 3.69 3.888s3.672-1.53 3.672-3.888c0-2.34-1.44-3.852-3.672-3.852M358.17 260h3.762l8.766-12.618h-3.762zm.792-10.566c.702 0 1.152.684 1.152 1.728 0 1.062-.45 1.746-1.152 1.746s-1.152-.684-1.152-1.746c0-1.044.45-1.728 1.152-1.728m10.962 2.916c-2.232 0-3.69 1.512-3.69 3.852 0 2.358 1.458 3.888 3.69 3.888s3.672-1.53 3.672-3.888c0-2.34-1.44-3.852-3.672-3.852m0 2.124c.702 0 1.152.684 1.152 1.728 0 1.062-.45 1.746-1.152 1.746s-1.152-.684-1.152-1.746c0-1.044.45-1.728 1.152-1.728"/><path fill="#F5F5F5" d="M226 183h60v118h-60z"/><path stroke="#F07A2E" d="m184.5 280-59 44.5M254 283.5l5.5 31M307.5 255.5H340"/></svg>