<svg xmlns="http://www.w3.org/2000/svg" width="156.036" height="157.077" viewBox="0 0 117.027 117.808"><path fill="#1a1936" d="M64.97 2.138c3.99 1.83 6.83 4.89 9.47 8.3 3.87.84 7.34 2.17 9.85 5.39 5.12 6.11 3.77 15.5-2.53 20.25-.87.28-1.74.53-2.64.74l-1.01-.28c-.4-3.47.64-8.83-2.03-11.51-2.4-2.68-5.58-2.32-8.86-2.4-6.69.14-13.38-.09-20.07.08-2.73.03-5.04 1.31-6.38 3.7-1.37 2.67-.75 5.99-.79 8.88q-.915.345-1.83.66c-6.77-8.18-6.41-20.62.65-28.5 6.36-7.35 17.43-9.54 26.17-5.31"/><path fill="#f6bbbb" d="M47.15 22.708c6.69-.17 13.38.06 20.07-.08 3.28.08 6.46-.28 8.86 2.4 2.67 2.68 1.63 8.04 2.03 11.51-2.84-3.07-5.34-5.66-9.95-4.99-4.4.7-6.45 3.61-8.07 7.45-.77 0-1.54.01-2.31.01-1.4-2.91-2.64-5.52-5.84-6.8-5.71-2.68-13.45 2.18-12.69 8.69-.06 5.66 5.39 9.9 10.88 8.78 4.43-.75 6.14-3.95 7.82-7.69 3.55.72 3.3 4.24 6.06 6.14 4.13 3 10.27 1.95 13.11-2.33 2-2.76 1.23-5.62 1.27-8.79l.73-.19c.9-.21 1.77-.46 2.64-.74 1.19 1.37 3.28 2.91 3.34 4.85.01 3.54-1.2 7.18-2.57 10.41-.53 1.56-3.22 1.57-4.54 2.15-.06 3.74.12 7.52-.27 11.23-.33 2.86-2.75 5.42-3.51 8.17-.43 2.68-.22 5.49-.21 8.19l3.34.03c-.85 4.13-1.77 7.88-5.21 10.67-4.52 3.98-11.32 3.33-16.94 3.19-5.2-.06-10-3.13-12.17-7.86-.76-1.91-1.12-4-1.55-6 1.02-.02 2.03-.03 3.05-.04-.03-2.65.29-5.53-.35-8.12-1.11-2.4-3.17-4.58-3.86-7.11-.7-3.72-.4-7.68-.43-11.46-1.41-.62-2.76-1.17-4.04-2.04-1.74-3.41-3.11-7.67-3.06-11.5.3-3.32 2.81-3.67 5.37-4.89q.915-.315 1.83-.66c.04-2.89-.58-6.21.79-8.88 1.34-2.39 3.65-3.67 6.38-3.7"/><path fill="#2e2d40" d="M51.94 32.208c3.2 1.28 4.44 3.89 5.84 6.8.77 0 1.54-.01 2.31-.01 1.62-3.84 3.67-6.75 8.07-7.45 4.61-.67 7.11 1.92 9.95 4.99l1.01.28-.73.19c-.04 3.17.73 6.03-1.27 8.79-2.84 4.28-8.98 5.33-13.11 2.33-2.76-1.9-2.51-5.42-6.06-6.14-1.68 3.74-3.39 6.94-7.82 7.69-5.49 1.12-10.94-3.12-10.88-8.78-.76-6.51 6.98-11.37 12.69-8.69"/><path fill="#f6bbbb" d="M45.71 35.468c2.14-.9 5.21-.79 6.81 1.13 2.5 2.44 2.13 6.82-.73 8.83-2.97 2.1-7.29 1.01-8.73-2.37-1.44-2.88.01-6.06 2.65-7.59M66.73 35.498c4.06-1.84 8.75.73 8.47 5.39.03 4.8-5.68 7.27-9.38 4.37-3.34-2.83-2.85-7.57.91-9.76"/><path fill="#dda8a8" d="M44.6 73.438c9.42 2.03 19.7 2.26 29.05-.25-3.1 2.85-6.09 4.48-10.4 4.62-6.37.19-14.03.99-18.65-4.37"/><path fill="#ea6a6d" d="M41.47 81.108c.43 2 .79 4.09 1.55 6 2.17 4.73 6.97 7.8 12.17 7.86 5.62.14 12.42.79 16.94-3.19 3.44-2.79 4.36-6.54 5.21-10.67 5.79.11 11.34-.42 16.85 1.76 12.27 4.67 20.86 17.34 22.68 30.08.76 2.48-1.42 3.21-2.79 4.86-33.28-.15-66.58-.02-99.86-.07-3.57-.07-7.25.28-10.8-.19-1.21-.73-2.33-1.69-3.42-2.58 1.69-13.26 9.25-25.97 21.73-31.56 6.51-2.98 12.79-2.12 19.74-2.3"/></svg>