<svg xmlns="http://www.w3.org/2000/svg" width="363" height="188" fill="none"><path fill="#FBE44B" stroke="#fff" stroke-width=".534" d="m198.374 84.382 82.822-8.768C276.716 33.194 240.98 1 198.374 1z"/><path fill="#EEE" fill-opacity=".85" stroke="#fff" stroke-width=".534" d="m198.374 84.382 83.197 3.8a83.5 83.5 0 0 0-.375-12.568z" opacity=".4"/><path fill="#A7D5FF" fill-opacity=".85" stroke="#fff" stroke-width=".534" d="m198.374 84.382 76.78 32.302a83.5 83.5 0 0 0 6.417-28.501z" opacity=".4"/><path fill="#F07A2E" stroke="#fff" stroke-width=".588" d="m199.332 86.042-28.153 87.688c45.39 14.639 94.412-7.943 112.885-52.002z"/><path fill="#E8684A" fill-opacity=".85" stroke="#fff" stroke-width=".534" d="m198.375 84.382-36.203 75.092a83 83 0 0 0 10.691 4.282z" opacity=".4"/><path fill="#94DB89" fill-opacity=".85" stroke="#fff" stroke-width=".534" d="m198.375 84.382-56.097 61.63a83.3 83.3 0 0 0 19.894 13.462z" opacity=".4"/><path fill="#F6B83E" stroke="#fff" stroke-width=".534" d="m198.375 84.382-81.878 15.253a83.4 83.4 0 0 0 25.782 46.377z"/><path fill="#00C1CD" fill-opacity=".85" stroke="#fff" stroke-width=".534" d="m198.375 84.382-83.271-1.442a83.5 83.5 0 0 0 1.393 16.695z" opacity=".4"/><path fill="#B298DD" fill-opacity=".85" stroke="#fff" stroke-width=".534" d="m198.376 84.382-76.881-32.06a83.5 83.5 0 0 0-6.39 30.618z" opacity=".4"/><path fill="#B73E2E" fill-opacity=".85" stroke="#fff" stroke-width=".534" d="m198.375 84.382-74.248-37.773a84 84 0 0 0-2.633 5.713z" opacity=".4"/><path fill="#A6A6A6" fill-opacity=".85" stroke="#fff" stroke-width=".534" d="m198.376 84.382-71.995-41.918a84 84 0 0 0-2.253 4.145z" opacity=".4"/><path fill="#6153BA" fill-opacity=".85" stroke="#fff" stroke-width=".534" d="m198.375 84.382-65.531-51.459a83 83 0 0 0-6.463 9.541z" opacity=".4"/><path fill="#85FFCF" fill-opacity=".85" stroke="#fff" stroke-width=".534" d="m198.375 84.382-35.494-75.43a83.3 83.3 0 0 0-30.038 23.97z" opacity=".4"/><path fill="#FFD6B9" fill-opacity=".85" stroke="#fff" stroke-width=".534" d="M198.376 84.382V1a83.2 83.2 0 0 0-35.494 7.951z" opacity=".4"/><path stroke="#4B3300" d="m218.924 154.474 37.018 24.049h24.551"/><path fill="#4B3300" d="M287.333 168.507c-.15.12-.22.29-.22.49q0 .3.27.48c.18.12.61.27 1.27.43s1.18.41 1.55.73c.36.33.55.81.55 1.43 0 .63-.24 1.14-.71 1.53s-1.09.58-1.85.58c-1.11 0-2.11-.41-2.99-1.23l.93-1.14c.75.66 1.45.99 2.09.99.28 0 .51-.06.67-.18s.25-.29.25-.5-.09-.38-.26-.5c-.18-.12-.52-.25-1.03-.38-.82-.19-1.41-.44-1.79-.75s-.56-.8-.56-1.46.23-1.18.71-1.54 1.07-.54 1.79-.54c.46 0 .93.08 1.4.24.46.16.87.39 1.22.68l-.79 1.14c-.61-.46-1.24-.69-1.88-.69-.26 0-.47.07-.62.19m6.097 2.69v2.9h-1.5v-7.42h1.5v2.64c.45-.46.96-.69 1.52-.69s1.04.2 1.43.6c.38.4.58.94.58 1.6v3.27h-1.5v-2.94c0-.82-.31-1.24-.91-1.24-.3 0-.57.11-.79.33s-.33.53-.33.95m6.456 1.29c.25.28.57.41.96.41s.71-.13.96-.41.38-.64.38-1.08-.13-.8-.38-1.08a1.23 1.23 0 0 0-.96-.42q-.585 0-.96.42c-.25.28-.37.64-.37 1.08s.12.8.37 1.08m3 .89c-.54.54-1.22.8-2.04.8s-1.49-.26-2.03-.8c-.54-.53-.81-1.19-.81-1.97s.27-1.43.81-1.97 1.21-.81 2.03-.81q1.23 0 2.04.81c.54.54.81 1.19.81 1.97s-.27 1.44-.81 1.97m6.725-3.96c.49.52.74 1.18.74 1.97 0 .8-.25 1.46-.74 1.99-.49.54-1.06.8-1.72.8s-1.18-.26-1.58-.79v2.65h-1.5v-7.32h1.5v.6c.46-.46 1-.69 1.63-.69.62 0 1.18.27 1.67.79m-2.96 3.07c.24.28.54.41.89.41.34 0 .65-.13.91-.41s.39-.63.39-1.07c0-.43-.13-.79-.38-1.09-.26-.29-.56-.44-.91-.44-.36 0-.66.15-.9.44s-.36.65-.36 1.09.12.79.36 1.07m9.62-3.07c.49.52.74 1.18.74 1.97 0 .8-.25 1.46-.74 1.99-.49.54-1.06.8-1.72.8s-1.18-.26-1.58-.79v2.65h-1.5v-7.32h1.5v.6c.46-.46 1-.69 1.63-.69.62 0 1.18.27 1.67.79m-2.96 3.07c.24.28.54.41.89.41.34 0 .65-.13.91-.41s.39-.63.39-1.07c0-.43-.13-.79-.38-1.09-.26-.29-.56-.44-.91-.44-.36 0-.66.15-.9.44s-.36.65-.36 1.09.12.79.36 1.07m6.32 1.61h-1.5v-5.38h1.5zm-1.63-6.69c0-.24.08-.45.25-.62a.86.86 0 0 1 .63-.26c.24 0 .45.09.62.26s.26.38.26.62c0 .25-.09.46-.26.63s-.38.25-.62.25a.85.85 0 0 1-.88-.88m4.55 3.69v3h-1.5v-5.38h1.5v.6q.675-.69 1.53-.69c.56 0 1.04.2 1.42.6s.58.94.58 1.6v3.27h-1.5v-3.04c0-.82-.31-1.24-.91-1.24-.3 0-.57.11-.79.33s-.33.53-.33.95m8.297-.82c-.24-.24-.54-.37-.89-.37-.36 0-.66.13-.92.37-.26.25-.38.59-.38 1.01 0 .43.12.78.37 1.04s.56.39.92.39q.54 0 .9-.39c.24-.26.36-.6.36-1.03q0-.645-.36-1.02m.57 2.91c-.48.53-1.07.79-1.77.79s-1.3-.23-1.78-.71-.72-1.11-.72-1.91.24-1.45.74-1.96 1.07-.77 1.71-.77 1.17.27 1.59.79v-.71h1.5v4.69c0 .48-.09.91-.25 1.28-.17.38-.39.67-.67.88-.56.44-1.21.66-1.96.66-.4 0-.81-.06-1.23-.19s-.78-.32-1.09-.56l.58-1.13c.49.38 1.01.56 1.56.56s.99-.13 1.31-.41c.32-.27.48-.7.48-1.3M3.682 129.191l1.78-4.45h1.69l-2.81 6.99h-1.32l-2.81-6.99h1.69zm5.655 2.54h-1.5v-5.38h1.5zm-1.63-6.69c0-.24.08-.45.25-.62a.86.86 0 0 1 .63-.26c.24 0 .45.09.62.26s.26.38.26.62c0 .25-.09.46-.26.63s-.38.25-.62.25a.85.85 0 0 1-.88-.88m6.51 6.29c-.39.32-.88.48-1.48.48-.4 0-.82-.07-1.25-.21-.44-.14-.83-.36-1.17-.64l.66-.94c.56.44 1.15.65 1.79.65.19 0 .34-.03.46-.11.11-.08.17-.18.17-.31 0-.12-.08-.24-.24-.35-.16-.1-.38-.2-.68-.3-.3-.09-.52-.17-.68-.24a3 3 0 0 1-.53-.29c-.41-.25-.61-.62-.61-1.12s.2-.9.6-1.22c.4-.31.91-.47 1.55-.47.63 0 1.26.22 1.9.64l-.56 1c-.47-.32-.94-.48-1.4-.48s-.69.13-.69.38c0 .14.07.25.22.33.14.08.39.18.73.28.34.11.58.19.72.25s.32.14.52.26c.37.23.56.61.56 1.14s-.2.95-.59 1.27m3.235.4h-1.5v-5.38h1.5zm-1.63-6.69c0-.24.08-.45.25-.62a.86.86 0 0 1 .63-.26c.24 0 .45.09.62.26s.26.38.26.62c0 .25-.09.46-.26.63s-.38.25-.62.25a.85.85 0 0 1-.88-.88m4.84 2.39v2.41c0 .21.05.37.16.49.1.12.23.17.38.17.28 0 .51-.12.71-.38l.56 1.05c-.47.43-.96.64-1.48.64s-.95-.17-1.31-.51-.53-.8-.53-1.39v-2.48h-.63v-1.08h.63v-1.61h1.51v1.61h1.3v1.08zm4.114 4.3h-1.5v-5.38h1.5zm-1.63-6.69c0-.24.08-.45.25-.62a.86.86 0 0 1 .63-.26c.24 0 .45.09.62.26s.26.38.26.62c0 .25-.09.46-.26.63s-.38.25-.62.25a.85.85 0 0 1-.88-.88m4.55 3.69v3h-1.5v-5.38h1.5v.6q.675-.69 1.53-.69c.56 0 1.04.2 1.42.6s.58.94.58 1.6v3.27h-1.5v-3.04c0-.82-.31-1.24-.91-1.24-.3 0-.57.11-.79.33s-.33.53-.33.95m8.297-.82c-.24-.24-.54-.37-.89-.37-.36 0-.66.13-.92.37-.26.25-.38.59-.38 1.01 0 .43.12.78.37 1.04s.56.39.92.39q.54 0 .9-.39c.24-.26.36-.6.36-1.03q0-.645-.36-1.02m.57 2.91c-.48.53-1.07.79-1.77.79s-1.3-.23-1.78-.71-.72-1.11-.72-1.91.24-1.45.74-1.96 1.07-.77 1.71-.77 1.17.27 1.59.79v-.71h1.5v4.69c0 .48-.09.91-.25 1.28-.17.38-.39.67-.67.88-.56.44-1.21.66-1.96.66-.4 0-.81-.06-1.23-.19s-.78-.32-1.09-.56l.58-1.13c.49.38 1.01.56 1.56.56s.99-.13 1.31-.41c.32-.27.48-.7.48-1.3m10.277-6.08v1.37H43.6v1.51h3.08v1.37H43.6v2.74h-1.56v-6.99zm4.003 2.93c-.45 0-.78.16-1 .48s-.33.73-.33 1.25v2.33h-1.5v-5.38h1.5v.71c.19-.22.43-.4.72-.56.29-.15.59-.23.89-.24l.01 1.41zm2.781 4.06h-1.5v-5.38h1.5zm-1.63-6.69c0-.24.08-.45.25-.62a.86.86 0 0 1 .63-.26c.24 0 .45.09.62.26s.26.38.26.62c0 .25-.09.46-.26.63s-.38.25-.62.25a.85.85 0 0 1-.88-.88m7.71 5.91c-.61.58-1.32.86-2.14.86s-1.49-.25-2.02-.75c-.54-.5-.8-1.18-.8-2.03 0-.84.27-1.52.81-2.02s1.19-.75 1.93-.75 1.36.23 1.88.67c.52.45.78 1.06.78 1.84v.8h-3.92c.04.3.2.54.46.72.26.19.55.28.88.28.52 0 .96-.17 1.3-.53zm-1.44-3.19c-.21-.17-.46-.26-.76-.26q-.45 0-.81.27c-.25.18-.39.43-.43.73h2.36c-.04-.32-.16-.56-.36-.74m4.462.97v3h-1.5v-5.38h1.5v.6q.675-.69 1.53-.69c.56 0 1.04.2 1.42.6s.58.94.58 1.6v3.27h-1.5v-3.04c0-.82-.31-1.24-.91-1.24-.3 0-.57.11-.79.33s-.33.53-.33.95m5.336 2.27q-.75-.81-.75-2.01c0-.8.24-1.45.73-1.96.48-.51 1.05-.77 1.71-.77.65 0 1.18.23 1.6.69v-2.64h1.5v7.42h-1.5v-.71c-.42.53-.95.79-1.59.79s-1.2-.27-1.7-.81m1.15-.88c.26.28.56.41.91.41.34 0 .64-.13.88-.41s.37-.63.37-1.07-.13-.8-.37-1.09-.54-.44-.89-.44c-.36 0-.66.15-.91.44-.26.3-.38.66-.38 1.09 0 .44.13.79.39 1.07m8.52 1.21c-.39.32-.88.48-1.48.48-.4 0-.82-.07-1.25-.21-.44-.14-.83-.36-1.17-.64l.66-.94c.56.44 1.15.65 1.79.65.19 0 .34-.03.46-.11.11-.08.17-.18.17-.31 0-.12-.08-.24-.24-.35-.16-.1-.38-.2-.68-.3-.3-.09-.52-.17-.68-.24a3 3 0 0 1-.53-.29c-.41-.25-.61-.62-.61-1.12s.2-.9.6-1.22c.4-.31.91-.47 1.55-.47.63 0 1.26.22 1.9.64l-.56 1c-.47-.32-.94-.48-1.4-.48s-.69.13-.69.38c0 .14.07.25.22.33.14.08.39.18.73.28.34.11.58.19.72.25s.32.14.52.26c.37.23.56.61.56 1.14s-.2.95-.59 1.27m5.942-1.21c.25.28.57.41.96.41s.71-.13.96-.41.38-.64.38-1.08-.13-.8-.38-1.08a1.23 1.23 0 0 0-.96-.42q-.585 0-.96.42c-.25.28-.37.64-.37 1.08s.12.8.37 1.08m3 .89c-.54.54-1.22.8-2.04.8s-1.49-.26-2.03-.8c-.54-.53-.81-1.19-.81-1.97s.27-1.43.81-1.97 1.21-.81 2.03-.81q1.23 0 2.04.81c.54.54.81 1.19.81 1.97s-.27 1.44-.81 1.97m4.755-3.34c-.45 0-.78.16-1 .48s-.33.73-.33 1.25v2.33h-1.5v-5.38h1.5v.71c.19-.22.43-.4.72-.56.29-.15.59-.23.89-.24l.01 1.41zm-39.706 11.39c0 1.12-.45 1.85-1.33 2.17l1.77 2.5h-1.92l-1.55-2.23h-1.08v2.23h-1.56v-6.99h2.65c1.08 0 1.86.19 2.32.55.46.37.7.96.7 1.77m-1.88.83c.19-.17.29-.44.29-.82q0-.57-.3-.78t-1.05-.21h-1.17v2.07h1.14c.53 0 .89-.08 1.09-.26m7.986 3.06c-.61.58-1.32.86-2.14.86s-1.49-.25-2.02-.75c-.54-.5-.8-1.18-.8-2.03 0-.84.27-1.52.81-2.02s1.19-.75 1.93-.75 1.36.23 1.88.67c.52.45.78 1.06.78 1.84v.8h-3.92c.04.3.2.54.46.72.26.19.55.28.88.28.52 0 .96-.17 1.3-.53zm-1.44-3.19c-.21-.17-.46-.26-.76-.26q-.45 0-.81.27c-.25.18-.39.43-.43.73h2.36c-.04-.32-.16-.56-.36-.74m4.462 3.97h-1.5v-7.42h1.5zm5.99 0h-1.41v-.65c-.39.49-.87.73-1.44.73s-1.05-.16-1.43-.49c-.39-.33-.58-.77-.58-1.32s.2-.96.6-1.24c.4-.27.94-.41 1.64-.41h1.12v-.03c0-.57-.31-.86-.91-.86-.26 0-.54.06-.83.16s-.53.23-.73.38l-.67-.97c.7-.51 1.51-.77 2.42-.77.65 0 1.18.17 1.6.49.41.33.62.85.62 1.55zm-1.51-2.05v-.26h-.94c-.6 0-.9.19-.9.56q0 .3.21.45c.14.1.35.15.62.15.26 0 .5-.08.7-.24s.31-.38.31-.66m4.608-2.25v2.41c0 .21.05.37.16.49.1.12.23.17.38.17.28 0 .51-.12.71-.38l.56 1.05c-.47.43-.96.64-1.48.64s-.95-.17-1.31-.51-.53-.8-.53-1.39v-2.48h-.63v-1.08h.63v-1.61h1.51v1.61h1.3v1.08zm4.115 4.3h-1.5v-5.38h1.5zm-1.63-6.69c0-.24.08-.45.25-.62a.86.86 0 0 1 .63-.26c.24 0 .45.09.62.26s.26.38.26.62c0 .25-.09.46-.26.63s-.38.25-.62.25a.85.85 0 0 1-.88-.88m4.5 6.69-2.13-5.39h1.56l1.34 3.39 1.34-3.39h1.56l-2.13 5.39zm9.069-.78c-.61.58-1.32.86-2.14.86s-1.49-.25-2.02-.75c-.54-.5-.8-1.18-.8-2.03 0-.84.27-1.52.81-2.02s1.19-.75 1.93-.75 1.36.23 1.88.67c.52.45.78 1.06.78 1.84v.8h-3.92c.04.3.2.54.46.72.26.19.55.28.88.28.52 0 .96-.17 1.3-.53zm-1.44-3.19c-.21-.17-.46-.26-.76-.26q-.45 0-.81.27c-.25.18-.39.43-.43.73h2.36c-.04-.32-.16-.56-.36-.74m6.422 3.57c-.39.32-.88.48-1.48.48-.4 0-.82-.07-1.25-.21-.44-.14-.83-.36-1.17-.64l.66-.94c.56.44 1.15.65 1.79.65.19 0 .34-.03.46-.11.11-.08.17-.18.17-.31 0-.12-.08-.24-.24-.35-.16-.1-.38-.2-.68-.3-.3-.09-.52-.17-.68-.24a3 3 0 0 1-.53-.29c-.41-.25-.61-.62-.61-1.12s.2-.9.6-1.22c.4-.31.91-.47 1.55-.47.63 0 1.26.22 1.9.64l-.56 1c-.47-.32-.94-.48-1.4-.48s-.69.13-.69.38c0 .14.07.25.22.33.14.08.39.18.73.28.34.11.58.19.72.25s.32.14.52.26c.37.23.56.61.56 1.14s-.2.95-.59 1.27M305.398 17.253c.76 0 1.39-.3 1.88-.91l1 1.03c-.8.9-1.73 1.34-2.81 1.34s-1.96-.34-2.66-1.02-1.04-1.53-1.04-2.57.35-1.9 1.06-2.6c.71-.69 1.58-1.04 2.61-1.04 1.14 0 2.1.44 2.88 1.31l-.97 1.1c-.5-.61-1.11-.92-1.84-.92-.59 0-1.09.2-1.51.58s-.62.9-.62 1.55.19 1.17.59 1.56c.39.4.87.59 1.43.59m5.32-.23c.25.28.57.41.96.41s.71-.13.96-.41.38-.64.38-1.08-.13-.8-.38-1.08a1.23 1.23 0 0 0-.96-.42q-.585 0-.96.42c-.25.28-.37.64-.37 1.08s.12.8.37 1.08m2.999.89c-.539.54-1.219.8-2.039.8s-1.49-.26-2.03-.8c-.54-.53-.81-1.19-.81-1.97s.27-1.43.81-1.97 1.21-.81 2.03-.81q1.23 0 2.039.81c.541.54.811 1.19.811 1.97s-.27 1.44-.811 1.97m6.865-2.18v2.9h-1.51v-2.94c0-.42-.07-.74-.2-.94q-.195-.3-.63-.3c-.29 0-.55.11-.77.33s-.33.53-.33.95v2.9h-1.5v-5.38h1.5v.61c.41-.46.88-.7 1.42-.7.34 0 .64.1.92.3s.49.45.63.73c.2-.32.48-.58.83-.76s.7-.27 1.06-.27q.945 0 1.53.57c.38.38.58.92.58 1.63v3.27h-1.51v-2.94c0-.82-.31-1.24-.91-1.24q-.45 0-.78.33c-.22.22-.33.53-.33.95m9.834 0v2.9h-1.51v-2.94c0-.42-.07-.74-.2-.94q-.195-.3-.63-.3c-.29 0-.55.11-.77.33s-.33.53-.33.95v2.9h-1.5v-5.38h1.5v.61c.41-.46.88-.7 1.42-.7.34 0 .64.1.92.3s.49.45.63.73c.2-.32.48-.58.83-.76s.7-.27 1.06-.27q.945 0 1.53.57c.38.38.58.92.58 1.63v3.27h-1.51v-2.94c0-.82-.31-1.24-.91-1.24q-.45 0-.78.33c-.22.22-.33.53-.33.95m8.364.42v-2.9h1.51v5.38h-1.51v-.71c-.38.53-.86.79-1.45.79s-1.08-.18-1.48-.55q-.6-.555-.6-1.65v-3.26h1.51v2.93c0 .83.3 1.24.91 1.24.3 0 .56-.1.78-.32s.33-.53.33-.95m4.716-1.82v2.41c0 .21.05.37.16.49.1.12.23.17.38.17.28 0 .51-.12.71-.38l.56 1.05c-.47.43-.96.64-1.48.64s-.95-.17-1.31-.51-.53-.8-.53-1.39v-2.48h-.63v-1.08h.63v-1.61h1.51v1.61h1.3v1.08zm4.114 4.3h-1.5v-5.38h1.5zm-1.63-6.69c0-.24.08-.45.25-.62a.86.86 0 0 1 .63-.26c.24 0 .45.09.62.26s.26.38.26.62c0 .25-.09.46-.26.63s-.38.25-.62.25a.85.85 0 0 1-.88-.88m4.55 3.69v3h-1.5v-5.38h1.5v.6q.675-.69 1.53-.69c.56 0 1.04.2 1.42.6s.58.94.58 1.6v3.27h-1.5v-3.04c0-.82-.31-1.24-.91-1.24-.3 0-.57.11-.79.33s-.33.53-.33.95m8.297-.82c-.24-.24-.54-.37-.89-.37-.36 0-.66.13-.92.37-.26.25-.38.59-.38 1.01 0 .43.12.78.37 1.04s.56.39.92.39q.54 0 .9-.39c.24-.26.36-.6.36-1.03q0-.645-.36-1.02m.57 2.91c-.48.53-1.07.79-1.77.79s-1.3-.23-1.78-.71-.72-1.11-.72-1.91.24-1.45.74-1.96 1.07-.77 1.71-.77 1.17.27 1.59.79v-.71h1.5v4.69c0 .48-.09.91-.25 1.28-.17.38-.39.67-.67.88-.56.44-1.21.66-1.96.66-.4 0-.81-.06-1.23-.19s-.78-.32-1.09-.56l.58-1.13c.49.38 1.01.56 1.56.56s.99-.13 1.31-.41c.32-.27.48-.7.48-1.3M287.208 180.376c1.032 0 1.704.536 1.704 1.376 0 .536-.4 1.184-.992 1.816l-1.72 1.824h3.032V186h-3.848v-.528l2.096-2.28c.472-.472.768-.992.768-1.352 0-.544-.416-.872-1.12-.872-.512 0-1.08.264-1.528.696l-.28-.512c.544-.488 1.224-.776 1.888-.776m4.232 2.392.312.024c1.008.048 1.688.592 1.688 1.488 0 1.032-.76 1.752-1.96 1.752a3.15 3.15 0 0 1-1.776-.568l.28-.536c.4.328.928.528 1.448.528.872 0 1.384-.472 1.384-1.152 0-.704-.52-1.064-1.392-1.064h-.688v-.408l1.64-1.816h-2.424v-.608h3.224v.432zm3.227 2.464c.216 0 .384.176.384.416s-.168.416-.384.416c-.224 0-.392-.176-.392-.416s.168-.416.392-.416m3.522-4.856c.512 0 1.128.16 1.584.4l-.256.512a2.7 2.7 0 0 0-1.288-.344c-1.2 0-1.8.984-1.712 2.496.248-.656.848-1.024 1.672-1.024 1.096 0 1.776.68 1.776 1.76 0 1.144-.744 1.856-1.896 1.856-1.36 0-2.184-.984-2.184-2.712 0-1.776.88-2.944 2.304-2.944m-.112 2.584c-.888 0-1.416.592-1.408 1.256-.008.536.408 1.224 1.36 1.224.792 0 1.336-.48 1.336-1.272 0-.744-.496-1.208-1.288-1.208m3.98-2.568c.896 0 1.432.616 1.432 1.656 0 1.048-.536 1.656-1.432 1.656s-1.424-.608-1.424-1.656c0-1.04.528-1.656 1.424-1.656m-.456 5.608 4.192-5.6h.616l-4.184 5.6zm.456-5.208c-.632 0-.984.456-.984 1.256s.352 1.248.984 1.248.984-.448.984-1.248-.352-1.256-.984-1.256m3.992 1.912c.896 0 1.432.608 1.432 1.648 0 1.048-.536 1.656-1.432 1.656s-1.424-.608-1.424-1.656c0-1.04.528-1.648 1.424-1.648m0 .4c-.632 0-.984.448-.984 1.248 0 .808.352 1.256.984 1.256s.984-.448.984-1.256c0-.8-.352-1.248-.984-1.248M77.904 156h-.632v-4.992h-1.136v-.608h1.768zm3.8-5.616c1.489 0 2.313 1.008 2.313 2.816s-.824 2.816-2.312 2.816-2.312-1.008-2.312-2.816.824-2.816 2.312-2.816m0 .544c-1.087 0-1.663.752-1.663 2.272 0 1.512.576 2.272 1.664 2.272s1.664-.76 1.664-2.272c0-1.52-.576-2.272-1.664-2.272m4.502-.536c.895 0 1.431.616 1.431 1.656 0 1.048-.535 1.656-1.431 1.656-.897 0-1.425-.608-1.425-1.656 0-1.04.528-1.656 1.424-1.656M85.749 156l4.193-5.6h.616l-4.184 5.6zm.457-5.208c-.633 0-.984.456-.984 1.256s.352 1.248.984 1.248.983-.448.983-1.248-.351-1.256-.983-1.256m3.992 1.912c.896 0 1.431.608 1.431 1.648 0 1.048-.535 1.656-1.431 1.656s-1.424-.608-1.424-1.656c0-1.04.528-1.648 1.424-1.648m0 .4c-.632 0-.984.448-.984 1.248 0 .808.352 1.256.984 1.256s.984-.448.984-1.256c0-.8-.353-1.248-.984-1.248M304.208 24.15c1.032 0 1.704.536 1.704 1.376 0 .536-.4 1.184-.992 1.816l-1.72 1.824h3.032v.608h-3.848v-.528l2.096-2.28c.472-.472.768-.992.768-1.352 0-.544-.416-.872-1.12-.872-.512 0-1.08.264-1.528.696l-.28-.512c.544-.488 1.224-.776 1.888-.776m4.232 2.392.312.024c1.008.048 1.688.592 1.688 1.488 0 1.032-.76 1.752-1.96 1.752a3.15 3.15 0 0 1-1.776-.568l.28-.536c.4.328.928.528 1.448.528.872 0 1.384-.472 1.384-1.152 0-.704-.52-1.064-1.392-1.064h-.688v-.408l1.64-1.816h-2.424v-.608h3.224v.432zm3.227 2.464c.216 0 .384.176.384.416s-.168.416-.384.416c-.224 0-.392-.176-.392-.416s.168-.416.392-.416m2.586-2.464.312.024c1.008.048 1.688.592 1.688 1.488 0 1.032-.76 1.752-1.96 1.752a3.15 3.15 0 0 1-1.776-.568l.28-.536c.4.328.928.528 1.448.528.872 0 1.384-.472 1.384-1.152 0-.704-.52-1.064-1.392-1.064h-.688v-.408l1.64-1.816h-2.424v-.608h3.224v.432zm4.195-2.376c.896 0 1.432.616 1.432 1.656 0 1.048-.536 1.656-1.432 1.656s-1.424-.608-1.424-1.656c0-1.04.528-1.656 1.424-1.656m-.456 5.608 4.192-5.6h.616l-4.184 5.6zm.456-5.208c-.632 0-.984.456-.984 1.256s.352 1.248.984 1.248.984-.448.984-1.248-.352-1.256-.984-1.256m3.992 1.912c.896 0 1.432.608 1.432 1.648 0 1.048-.536 1.656-1.432 1.656s-1.424-.608-1.424-1.656c0-1.04.528-1.648 1.424-1.648m0 .4c-.632 0-.984.448-.984 1.248 0 .808.352 1.256.984 1.256s.984-.448.984-1.256c0-.8-.352-1.248-.984-1.248"/><path stroke="#4B3300" d="m246.733 39.783 31.368-17.326h19.606M132 124l-19.412 14H97"/></svg>