<svg xmlns="http://www.w3.org/2000/svg" width="994pt" height="1056" viewBox="0 0 994 792"><path fill="#fff" d="M0 0h994v792H0z"/><path fill="#030303" d="M740.76 12.11c-1.15 7.84-4.4 14.72-7.9 21.73-3.66 8.11-8.61 15.35-13.24 22.9-7.63 12.58-16.8 24.02-24.21 36.77-4.33 7.55-9.44 14.56-14.18 21.85-4.07 6.47-8.49 12.69-13.01 18.85-6.09 8.32-9.87 17.66-16.31 25.69-3.1 3.87-6.35 7.66-9.91 11.11-1.87 1.81-4.1 2.73-6.42 3.79.02-1.5.05-3.01.09-4.51 1.31-1.33 2.58-2.7 3.8-4.11 4.84-5.74 9.62-11.87 13.28-18.44 2.28-4.05 4.45-8.14 6.9-12.09 4.4-7.19 9.59-13.71 14.13-20.81 4.92-7.75 10.24-15.2 14.94-23.08 10.87-18.16 23.75-35.07 35.1-52.92 5.95-9.37 9.22-18.66 16.94-26.73"/><path fill="#020202" d="M174.97 35.08c-3.4 4.51-7.42 8.53-11.05 12.86-5.65 6.18-10.37 13.02-14.96 20.01-4.94 7.32-7.98 16.09-10.68 24.45-3.01 11.52-3.49 23.82-2.65 35.65.92 11.55 6.42 19.98 10.09 31.2 3.17 9.4 8.38 17.5 12.43 26.48 1.89 3.85 3.84 8.51 7.06 11.42 1.83.4 3.87.21 5.72.03 12.95-1.69 26.04-2.28 39.04-3.53 36.22-2.47 72.43-5.56 108.66-7.63 9.83-.67 19.63-1.73 29.46-2.46 18.31-1.04 36.58-2.6 54.87-3.84 9.16-.23 18.25-1.24 27.39-1.96 13.51-.8 27.02-1.82 40.53-2.61 33.03-2.64 66.06-4.67 99.09-7.21 17.29-1.02 34.58-2.16 51.85-3.48 3.71-.22 7.5-.93 11.2-.8 2.22.06 4.49 1.55 6.45 2.52a87 87 0 0 1-3.8 4.11c-8.14-1.91-15.67-.14-23.84.23-22.58 1.58-45.18 3.09-67.78 4.69-15.05.61-30.04 2.22-45.07 3.15-18.63.91-37.23 2.61-55.87 3.47-17.87 1.61-35.74 2.66-53.64 3.79-16.42 1.15-32.84 2.26-49.27 3.17-22.82 1.99-45.82 2.7-68.55 4.56-24.86 1.74-49.77 3.34-74.64 4.92-10.04.35-20.01 1.41-30.07 1.29 2.23 4.56 4.76 8.96 7.27 13.37 8.62-.7 17.18-1.8 25.83-2.17 14.5-1.01 28.97-2.54 43.47-3.55 10.33-1.06 20.6-1.19 30.78-2.92 23.2-2.04 46.45-3.66 69.66-5.51 13.77-.71 27.46-2.43 41.23-3.29 26.96-2.11 53.85-4.09 80.81-6.23 13.69-.87 27.34-2.38 41.05-2.94 28.86-2.65 57.79-4.53 86.69-6.84 11.16-.09 22.37-1.39 33.47-2.43 3.25-.36 6.36.24 9.5 1.02-.92 1.22-1.86 2.5-2.93 3.59-3.62 1.31-7.99.92-11.81 1.3-32 2.34-63.99 4.88-95.98 7.45-20.45 1.17-40.84 2.92-61.29 4.11-10.27.63-20.53 1.24-30.75 2.49-10.07.79-20.14 1.44-30.19 2.38-23.64 1.14-47.09 4-70.72 5.24-24.99 2.04-50.02 3.65-75.03 5.52-13.65.66-27.28 1.64-40.9 2.78-13.55.86-27.11 1.61-40.65 2.51 6.31 8.33 12.77 16.6 19.6 24.51 3.54 4.34 6.02 9.26 9.47 13.67 8.74 10.45 16.77 21.44 25.72 31.71 4.34 5.15 8.75 10.26 12.93 15.53 5.18 6.5 9.68 13.46 15.12 19.77 3.85 4.77 7.45 9.73 10.88 14.81 2.74 3.98 5.59 7.89 8.43 11.79 9.61 13.56 17.78 28.38 24.32 43.65 4.25 9.85 5.28 19.65 7.31 30.05 1.16 6.26 2.76 12.42 3.84 18.7 1.58 9.08 2.29 18.27 4 27.35 1.35 7.18 2.51 14.35 2.59 21.67 9.87.23 19.43-1.99 29.26-2.2 6.03-.22 12.05-1.21 18.06-1.75 10.71-.81 21.22-2.85 31.97-3.26 12.46-1.33 24.8-3.73 37.23-5.32 3.41.15 6.84.68 10.22 1.17-5.03.7-9.99 1.76-15 2.54-7.38.78-14.53 2.7-21.9 3.61-8.59 1.23-17.24 1.36-25.84 2.56a577 577 0 0 1-27.83 3.35c-12.04.68-24.06 1.37-36.05 2.63-.29 9.22 1.05 18.24 2.9 27.24.85 5.14 1.51 10.31 2.26 15.46 1.24 8.45 5.18 16.21 8.48 24.09 2.66 6.28 5.96 12.18 10.59 17.23 6.98 7.59 14.62 15.15 23.43 20.59 5.29 3.33 11.08 4.67 16.64 7.56-5.12 1.22-9.68 1.23-14.61-.74-10.58-4.12-20.14-11.8-27.98-19.91-5.1-5.15-9.46-10.94-12.42-17.6-2.99-6.71-6.31-13.39-8.65-20.36-3.13-9.09-3.04-17.67-4.9-27.34-1.66-8.68-2.95-17.37-2.84-26.24.15-11.71-2.59-23.57-4.18-35.26-1.35-10.43-3.05-20.81-5.33-31.08-2.17-9.54-2.5-18.6-5.93-27.88-4.26-11.51-10.45-22.71-16.61-33.31-5.51-9.49-12.02-17.67-18.17-26.74-10.01-14.81-21.19-27.87-32.22-41.96-7.37-8.67-14.75-17.31-21.57-26.43-4.97-6.13-10.34-11.73-14.25-18.66-3.7-6.62-9.54-11.06-13.89-17.14-3.05-4.28-6.3-8.38-9.62-12.46-5.38-6.58-8.83-14.18-13.8-21.06-4.55-6.4-7.12-13.42-10.68-20.35-4.7-8.61-7.87-17.72-11.14-26.93-1.75-4.6-3.94-9.2-5.27-13.89-3.18-12.1-2.74-24.2-.89-36.46.95-9.7 4.5-18.36 8.22-27.26 2.96-6.9 8-13.25 12.39-19.33 4.38-6.07 9.78-10.74 15.18-15.86 2.56-2.5 5.67-3.81 9.05-4.82m551.44 27.13c6.81 1.34 13.23 6.6 18.99 10.3 5.99 4.12 12.41 6.73 17.79 11.33 4.17 3.49 7.71 7.59 11.99 10.96 8.11 6.29 16.15 12.65 24.45 18.7 7.45 6.17 14.57 12.72 22.11 18.8 9.95 8.04 18.54 17.41 28.06 25.91 7.58 7.17 15.82 13.42 23.12 20.87 3.82 3.94 8.1 7.29 12.35 10.73 5.92 4.79 9.62 10.64 14.74 16.18 4.34 4.69 8.64 9.41 12.64 14.41 5.1 6.26 9.28 13.6 13.4 20.55 3.31 5.58 6.15 11.4 8.1 17.6 2.54 8.08 4.93 16.1 5.67 24.57 1.85 23.67 4.2 47.08 3.61 70.88-.36 15.01-.11 30.02-.2 45.03-.19 7.5 2.01 14.07 3.86 21.23 2.49 9.34 6.56 18.06 9.17 27.35 2.14 7.43 3.57 15.03 5.71 22.47 3.42 11.17 4.87 22.62 6.22 34.18 1.04 12.77-.39 25 1.2 37.76.82 9.21 3.78 17.48 6.51 26.22 2.5 7.58 1.79 15.79 1.88 23.79.05 5.13-.57 10.06-3.23 14.55-4.06 6.91-9.67 13.01-15.01 18.95-6.9 7.17-12.88 14.27-22.96 16.77 3.64-4.97 8.18-8.86 12.24-13.43 5.22-5.85 10.12-12.02 14.86-18.25 2.26-3.04 4.7-6.4 5.99-9.98 1.3-3.55 1.05-7.9 1.09-11.65-.1-6.4.39-12.25-1.51-18.49-1.89-6.13-3.87-12.21-5.19-18.51-1.5-6.62-1.85-13.24-2.32-19.99-.36-9.01.26-17.92-.61-26.99-.62-6.02-1.24-12.08-2.29-18.04-1.35-7.61-3.69-14.76-5.41-22.26-1.12-4.84-2.27-9.67-3.74-14.41-2.44-8.15-5.9-15.89-8.16-24.09-1.84-6.81-4.2-13.72-5.2-20.69-.97-6.33-.58-13.05-.61-19.52.09-8.38-.29-16.63.5-24.99 1.29-23.03-.47-45.18-2.51-68.05-.2-14.72-4.17-28.94-10.33-42.23-3.36-6.74-7.64-13.03-11.62-19.4-5.18-8.29-12.03-14.44-18.35-21.76-3.31-3.73-6.25-7.66-9.82-11.17-4.84-4.91-10.52-8.71-15.49-13.5-11.25-11.1-23.6-21.03-34.97-32.03-10.27-10.87-22.39-19.51-33.16-29.83-6.28-5.92-13.57-10.32-20.08-15.94-6.67-5.73-13.69-10.83-19.73-17.27-4.57-4.91-10.31-7.53-15.56-11.51-5.77-4.78-11.88-8.85-18.05-13.05-.09-1.03-.13-2.05-.14-3.06"/><path fill="#020202" d="M710.83 80.19c3.08 1.46 5.83 3.31 8.14 5.83 5.62 6.02 10.13 13.25 15.38 19.62 3.76 4.57 7.54 9.12 11.14 13.83 4.02 5.32 8.8 9.86 13.18 14.88 7.21 8.19 15.14 15.46 23.16 22.83 5.21 4.79 10.01 10 15.15 14.86 4.49 4.26 9.62 7.64 14.01 11.96 3.9 3.8 7.2 8.11 11.03 11.97 8.61 8.57 15.77 19.21 22.85 29.1 6.4 9.63 12.44 19.78 16.62 30.59 2.9 7.24 5.88 14.24 8.12 21.71 1.54 5.06 2.54 10.17 3.9 15.29 4 15.57 9.42 30.28 11.46 46.33 1.04 14.04 2.45 27.95 2.52 42.01.1 10.77.26 22.5-2.41 32.99-.93 3.88-2.81 7.31-5.05 10.59-.03-7.3 1.63-14.31 2.2-21.54 1.05-18.29-.71-35.84-1.83-54.05-.99-14.84-5.1-28.35-9.69-42.36-2.73-8.47-4.17-17.24-6.59-25.79-2.25-7.91-5.93-15.03-9.05-22.91-2.91-7.4-6.43-14.49-10.84-21.12-3.31-5.48-7.28-10.67-10.99-15.9-4.33-6.09-8.44-12.08-13.68-17.46-4.64-4.73-8.73-9.9-13.52-14.5-4.92-4.84-10.52-8.69-15.49-13.5-3.9-3.77-7.61-7.73-11.47-11.54-8.5-8.68-17.5-16.53-25.26-25.79-4.77-5.26-9.6-10.42-13.73-16.22-3.74-5.19-7.89-10.06-11.68-15.21-4.09-5.53-6.83-11.65-11.17-16.99-2.45-3.01-4.89-5.9-6.41-9.51M24.1 84.6c5.38 2.47 7.42 8.91 10.64 13.61 4.71 8 11.58 12.65 17.78 19.27 4.52 4.65 8.08 9.82 12.26 14.75 5.91 7.09 12.97 12.94 19.06 19.91 5.12 5.67 9.29 11.96 14.59 17.45 5.6 5.85 11.11 11.52 15.7 18.24 3.89 5.73 7.94 11.33 12.54 16.52 5.75 6.46 11.74 13.65 14.95 21.79 2.16 6.35 1.11 13.94-1.69 19.95-2.76 6.33-7.23 10.74-11.22 16.46 6.17 5.78 11.77 12.06 17.36 18.39 4.58 5.16 8.05 11.13 12.75 16.21 4.24 4.66 7.81 9.7 10.99 15.13 5.64 9.52 11.95 18.57 17.98 27.84 7.22 11.17 15.42 21.52 22.15 32.96 7.44 12.11 14.86 23.93 21.31 36.65 4.05 8.49 7.29 17.41 9.72 26.5 3.15 12.14 5.44 24.17 5.52 36.77.01 6.92.38 13.41-.92 20.25-2.39 13.34-7.1 26.33-12.81 38.58-3.15 6.96-8.23 12.09-13.82 17.12-4.16 3.63-9.16 5.21-14.31 6.91-5.72 1.88-11.61 3.12-17.62 3.55-19.18 1.74-38.79 1.96-58.01 2.08-11.84-.1-23.79 1.75-35.55 3.05-16.8 2-33.36 5.09-48.29 13.49-9.68 5.61-18.74 12.3-26.88 19.98 3.87-5.33 7.87-10.51 12.67-15.06 7.51-7.54 16.9-12.38 26.64-16.39 10.04-4.14 20.45-6.03 31.12-7.76 9.83-1.47 19.74-2.89 29.66-3.52 11.18-1.05 22.4-.45 33.59-1.35 9.71-.29 19.36-.05 29.04-1.16 9.85-.17 19.46-2.16 28.45-6.22 4.1-1.94 7.5-5.26 10.57-8.54 4.61-4.97 7.22-11.23 9.83-17.39 4.37-10.64 8.22-22.11 9.5-33.57 1.34-20.73-1.9-41.78-8.89-61.32-4.8-13.09-12.11-24.92-19.21-37.07-6.51-10.49-12.69-20.92-19.96-30.88-11.02-15.14-20.58-31.41-30.84-47.09-2.81-4.2-6.17-7.87-9.33-11.78-3.92-4.82-7.08-10.13-11.14-14.85-4.9-5.68-9.42-11.41-15.32-16.13-2.54 2.36-5.1 4.67-7.88 6.74.92-3.36 2.1-6.63 3.32-9.9-4.92-3.53-10.34-5.9-16.04-7.85-9.66-3.35-18.69-7.86-27.9-12.25-3.72-1.75-6.26-4.26-8.46-7.7 4.66 1.68 8.95 4.16 13.59 5.9 8.77 3.25 17.47 6.65 26.44 9.34 5.68 1.7 10.98 4.21 16.25 6.89 4.58-5.73 8.81-11.2 11.23-18.24 1.49-4.34 2.1-8.84.16-13.16-3.52-7.86-9.58-14.48-15.11-20.89-4.86-5.62-8.92-11.77-13.23-17.8-5.05-7.07-11.31-12.54-16.86-19.15-3.67-4.36-6.99-9.01-10.7-13.33-4.64-5.35-9.51-10.48-14.47-15.53-6.08-6.22-10.44-13.44-16.06-19.97-3.54-4.12-7.7-7.61-11.37-11.59-3.5-3.82-5.83-8.13-8.22-12.68-2.07-4.01-4.15-7.73-5.25-12.16"/><path fill="#a2a2a2" d="M638.09 176.97c5.68.91 9.03 5.39 15.14 5.02-1.32-1.1-2.65-2.2-4-3.27 7.96 2.41 15.94 4.78 23.92 7.15-1.73 0-3.46.06-5.19.13 6.96 1.92 13.94 3.68 20.71 6.22 7.51 2.78 15.28 4.29 23.14 5.69-.55-.71-1.1-1.43-1.65-2.14 10.4 2.93 20.57 6.51 30.83 9.86 9.32 2.68 18.67 5.08 27.71 8.66 9.14 3.51 18.01 7.61 27.29 10.76 8.26 3.03 16.86 4.81 25.08 7.93 4.29 1.63 8.62 3.05 13.1 4.06-.99-1.41-1.97-2.79-3.05-4.13 2.14 1.71 3.98 3.7 5.92 5.62-.37 2.56-.59 5.13-.8 7.71 1.96-1.15 3.91-2.31 5.74-3.67 1.12-.84 2.22-1.72 3.33-2.6-.35-1.05-.71-2.11-1.08-3.16 4.41 6.63 7.93 13.72 10.84 21.12 3.12 7.88 6.8 15 9.05 22.91 2.42 8.55 3.86 17.32 6.59 25.79 4.59 14.01 8.7 27.52 9.69 42.36 1.12 18.21 2.88 35.76 1.83 54.05-.57 7.23-2.23 14.24-2.2 21.54 2.24-3.28 4.12-6.71 5.05-10.59 2.67-10.49 2.51-22.22 2.41-32.99-.07-14.06-1.48-27.97-2.52-42.01 2.27 12.39 2.33 24.69 3.47 37.2.91 10.47.17 20.85-1.32 31.23-.93 6.5-3.48 12.43-4.71 18.85-.7 3.11-1.11 6.71-2.67 9.52-1.52 2.32-4.44 3.88-6.68 5.42 1.08 3.39 2.46 6.7 3.32 10.15.57 2.14-.36 3.8-1.23 5.7.35-1.67.62-3.35.86-5.04-2.96 1.89-5.74 4.03-8.59 6.09.01-.66.03-1.32.04-1.98-2.87-1.14-5.93-2.79-9.02-3.09-3.4.28-6.81 2.76-10.26 2.71-4.02-.41-8.04-3.28-11.84-4.33-1.34-.2-2.92.81-4.17 1.2-1.03-.24-2.07-.49-3.1-.77 1.51.01 3.03-.01 4.54-.06-1.65-2.23-3.2-4.35-5.69-5.71-4.75-2.67-9.85-4.65-14.54-7.45-10.87-6.18-18.69-14.83-29.23-21.76-7.4-4.8-15.32-8.97-23.26-12.79-7.54-3.64-14.8-7.78-22.12-11.84-6.28-3.51-12.86-6.3-19.05-9.98-4.03-2.38-7.94-4.78-12.35-6.44-.19.97-.38 1.95-.56 2.92-2.19-4.08-4.25-8.15-7.12-11.81.05 1.07.11 2.14.18 3.2-2.62-6.68-3.99-13.64-5.77-20.57-.47-2.2-1.18-4.67-.39-6.87 1.19-3.41 2.92-6.59 4.01-10.05 1.71-4.87 2.45-9.98 4.02-14.88 1.77-5.64 7.33-9.32 10.35-14.65 4.91-8.35 4.89-17.63 2.58-26.8-6.46.86-12.8 1.54-19.3.48l.62-1.59c3.07-6.72 3.54-13.62 1.57-20.72-1.92-7.26-6.02-12.71-10.32-18.68-1.97-2.63-3.9-5.46-6.78-7.19-4.1-2.45-8.75-4.02-13-6.22-3.07-1.52-6.12-3.67-9.48-4.33-3.56-.68-7.37-.47-10.98-.48-4.85.09-10-.11-14.76.83-3.86.75-6.67 3.08-9.95 5.07-6.57-.26-12.69 2.02-19.23 2.02-4.35-.02-8.6.16-12.79 1.42.03-.68.07-1.36.11-2.04-4.37-.4-8.68-.75-13.07-.74.22 1.29.42 2.59.69 3.88 2.05.21 4.11.29 6.17.25-1.88.31-3.77.56-5.66.84-1.33-1.93-2.53-4.66-4.54-5.94-2.66-1.07-5.69-1.3-8.47-1.98-9.73-2.17-18.06-9.19-28.58-7.21-8.17 1.42-16.13 3-23.73 6.44-10.45 4.74-21.38 8.46-32.04 12.74-2.51 1.03-4.67 2.48-6.36 4.63-3.93 4.87-6.78 10.77-9.91 16.18-1.56 2.87-3.63 6-4.27 9.24-.53 3.3.23 7 .77 10.29-12.31 2.47-24.71 4.54-37.19 6.05-7.64.93-13.6 3.81-21.16 3.59-5.01-.23-10-.63-15.03-.52-13.03.23-25.98-.21-39 .48-10.28.13-20.76-.96-31.05-.27-2.99.18-5.26 1.76-7.41 3.7-5.78 5.45-11.28 11.09-15.46 17.91 1.63 1.3 3.26 2.61 4.88 3.94-8.61 3.69-16.57 7.51-22.77 14.81-1.68 2.03-2.74 4.41-3.49 6.93-3.7-4.43-7.29-8.36-13.17-9.66l-1.24.17c-5.44-6.31-9.94-13.27-15.12-19.77-4.18-5.27-8.59-10.38-12.93-15.53l1.05-1.41c-3.76-6.82-8.86-12.45-14.13-18.11-3.82-4.05-6.96-8.72-10.86-12.69-.59.16-1.19.33-1.78.5-3.45-4.41-5.93-9.33-9.47-13.67-6.83-7.91-13.29-16.18-19.6-24.51 13.54-.9 27.1-1.65 40.65-2.51-3.57.34-7.1.95-10.6 1.7 3.83 1.2 7.5 1.57 11.51 1.45 7.51-.34 14.4 2.37 21.93 1.62 11.71-1.05 23.45-1.72 35.2-2.3 6.51-.33 13.1-.26 19.59-.9 6.6-.66 12.58-2.43 19.03-3.8 8.9-1.93 18.16-3 27.22-3.98 11.03-1.17 21.97-2.64 33.06-3.12 12.4-.56 24.76-1.54 37.04-3.32-2.45-.35-4.86-.7-7.33-.89 10.05-.94 20.12-1.59 30.19-2.38 10.22-1.25 20.48-1.86 30.75-2.49 20.45-1.19 40.84-2.94 61.29-4.11 31.99-2.57 63.98-5.11 95.98-7.45 3.82-.38 8.19.01 11.81-1.3 1.07-1.09 2.01-2.37 2.93-3.59-3.14-.78-6.25-1.38-9.5-1.02-11.1 1.04-22.31 2.34-33.47 2.43 5.42-.78 10.79-1.36 16.27-1.59 9.23-.45 18.96-2.58 28.09-.92"/><path fill="#010101" d="M646.67 176.59c3.25-.04 6.39.24 9.56.98 8.27 1.87 16.54 3.74 24.87 5.32 15.56 2.79 30.39 8.01 45.76 12.16 17.18 5.71 34.3 9.24 50.94 16.32 9.99 4.31 20.07 8.37 30.45 11.68 7.77 2.55 16.35 4.69 22.87 9.86 1.08 1.34 2.06 2.72 3.05 4.13-4.48-1.01-8.81-2.43-13.1-4.06-8.22-3.12-16.82-4.9-25.08-7.93-9.28-3.15-18.15-7.25-27.29-10.76-9.04-3.58-18.39-5.98-27.71-8.66-10.26-3.35-20.43-6.93-30.83-9.86-12.22-3.93-24.36-7.57-37.01-9.9-7.98-2.37-15.96-4.74-23.92-7.15-.88-.68-1.72-1.4-2.56-2.13"/><path fill="#e7e7e7" d="M667.96 186c1.73-.07 3.46-.13 5.19-.13 12.65 2.33 24.79 5.97 37.01 9.9.55.71 1.1 1.43 1.65 2.14-7.86-1.4-15.63-2.91-23.14-5.69-6.77-2.54-13.75-4.3-20.71-6.22"/><path fill="#c8c8c8" d="M403.75 199.39c2.47.19 4.88.54 7.33.89-12.28 1.78-24.64 2.76-37.04 3.32-11.09.48-22.03 1.95-33.06 3.12-9.06.98-18.32 2.05-27.22 3.98-6.45 1.37-12.43 3.14-19.03 3.8-6.49.64-13.08.57-19.59.9-11.75.58-23.49 1.25-35.2 2.3-7.53.75-14.42-1.96-21.93-1.62-4.01.12-7.68-.25-11.51-1.45 3.5-.75 7.03-1.36 10.6-1.7 13.62-1.14 27.25-2.12 40.9-2.78 25.01-1.87 50.04-3.48 75.03-5.52 23.63-1.24 47.08-4.1 70.72-5.24"/><path fill="#a1a1a1" d="M274.29 204.29c-10.18 1.73-20.45 1.86-30.78 2.92-14.5 1.01-28.97 2.54-43.47 3.55-8.65.37-17.21 1.47-25.83 2.17 4.47-.98 7.99-3.56 12.09-5.29 3.19-.51 6.77.71 9.94 1.19 6.8 1.35 13.02.18 19.8-.43 14.92-1.51 29.89-2.27 44.81-3.7 4.47-.45 8.95-.37 13.44-.41"/><path d="M565.5 221.19c2.78.68 5.81.91 8.47 1.98 2.01 1.28 3.21 4.01 4.54 5.94 1.89-.28 3.78-.53 5.66-.84 2.04-.33 4.09-.84 6.1-1.35 4.19-1.26 8.44-1.44 12.79-1.42-.5 1.53-.99 3.08-1.47 4.62 6.8-2.15 14.48-3.12 20.7-6.64 3.28-1.99 6.09-4.32 9.95-5.07 4.76-.94 9.91-.74 14.76-.83 3.61.01 7.42-.2 10.98.48 3.36.66 6.41 2.81 9.48 4.33 4.25 2.2 8.9 3.77 13 6.22 2.88 1.73 4.81 4.56 6.78 7.19 4.3 5.97 8.4 11.42 10.32 18.68 1.97 7.1 1.5 14-1.57 20.72.85-8.66 1.44-17.56-2.64-25.53-2.38-4.49-4.96-9.62-8.84-12.98-3.06-.36-6.26.58-9.35.61-7.31.14-14.92-1.33-22.23-.69-5.9.59-11.19 5.38-16.74 7.61-5.66 2.5-11.21 2.27-17.24 2.2-5.33-.14-10.54.54-15.81 1.16-.4 5.44-.5 10.87-.42 16.32-7.69 4.08-17.32 8.14-22.67 15.18-4.36 5.29-9.42 9.91-13.65 15.31-2.38 3.07-5.26 5.58-8.02 8.29-1.22 1.05-.9 2.84-.84 4.26.46 4.11 1.83 8.31 3.1 12.24 2.96-2.67 5.94-5.14 7.67-8.82 1.86-4.01 3.34-8.12 5.79-11.84-1.49 4.85-1.51 9.69-1.19 14.7-1.11 4.36-2.88 8.09-2.15 12.68.85 5.68 2.18 12.65 6.83 16.52 5.58 4.96 12.73 9.02 20.35 9.24 9.67.13 18.11-3.01 26.75-6.93 9.03-4.02 17.26-10.92 24.9-17.15 3.43-2.99 7.14-5.46 11.1-7.7-1.54 2.48-4.88 5.68-4.26 8.79.65 4.23 2.65 8.38 4.33 12.3 3.28-1.68 6.92-3.71 10.57-4.32 3.3-.51 6.78.53 10.03 1.09 4.2.81 8.34.8 12.7 1.06 1.78-7.7 4.03-14.62 4.53-22.36.88-4.55 5.45-7.16 8.28-10.58 5.94-6.89 6.91-15.07 6.95-23.84-1.78 3.65-3.37 7.76-5.9 10.95-1.74 2.17-4.41 3.09-6.87 4.2 3.99-5.95 8.55-10.92 10.39-18.08-4.33 3.3-8.34 6.56-13.79 7.82 2.39-2.42 5.04-4.5 7.76-6.54-1.56-.21-3.11-.43-4.67-.63-2.08-.26-4.17-.46-6.26-.62.29-.78.58-1.56.89-2.33 6.5 1.06 12.84.38 19.3-.48 2.31 9.17 2.33 18.45-2.58 26.8-3.02 5.33-8.58 9.01-10.35 14.65-1.57 4.9-2.31 10.01-4.02 14.88-1.09 3.46-2.82 6.64-4.01 10.05-.79 2.2-.08 4.67.39 6.87 1.78 6.93 3.15 13.89 5.77 20.57 2.1 6.52 3.82 13.03 3.81 19.94.05 7.31 3.23 13.67 3.73 20.89.25 3.96.38 8.12-.43 12.03-.71 3.36-2.51 5.89-4.07 8.85-1.55 2.73-1.37 6.48-1.65 9.57-5.55 2.99-11.28 5.54-17.04 8.07-6.69 3.19-13.45 6.21-20.25 9.17-10.45 4.44-20.39 10.43-30.62 15.56-3.36 1.66-6.44 3.58-9.43 5.82-1.59 1.04-2.84 2.32-4.88 2.11-6.78-.54-13.69-3.56-19.85-6.31-5.87-2.65-12.03-4.5-17.92-7.11-4.5-1.96-8.8-3.73-13.84-3.37-14.6.93-31.78-.56-45.83 4.24-10.32 3.81-20.29 8.62-30.68 12.28-3.56 1.21-7.18 1.42-10.92 1.44-6.67.01-13.34-.06-20-.44-7.52-.45-14.96.71-22.48.25 1.23-.68 2.45-1.35 3.7-1.97 1.86-.24 3.72-.47 5.57-.7.21-1.05.41-2.11.61-3.16-3.38-.49-6.81-1.02-10.22-1.17 7.06-1.14 13.1-4.22 19.28-7.66 3.34-1.99 6.58-4.67 7.7-8.55.31-3.07-.91-6.39-1.5-9.4-1.85-7.82-2.77-15.8-4.53-23.65-1.68-8.78-4.51-16.94-5.51-25.84-.5-4.82-1.63-9.47-4.1-13.68-2.92-4.81-5.91-9.53-11.64-11.19-6.23-2.2-11.23.39-16.89 2.71-4.57 1.72-8.98 3.58-13.37 5.73-7.01 3.42-14.3 5.62-21.05 9.58 12.37.05 23.71-2.27 35.97 1.75-5.3 1.19-10.2.51-15.53.08-6.11-.6-11.83.57-18 .52-5.87.18-10.93-.88-16.56 1.22-15.74 5.68-32.07 9.02-47.85 14.64-4.3 1.58-8.4 2.45-13.01 2.1 5.01-2.7 10.2-4.18 15.55-5.98 14.11-4.75 28.5-8.67 42.75-12.98 15.2-5.27 30.25-11.12 44.95-17.67 5.82-2.41 11.7-4.51 17.22-7.61 4.04-2.29 8.65-3.98 12.35-6.81 1.53-1.07 1.44-2.69 1.7-4.37.39-5.65-.15-11.44-.34-17.1-.16-12.47-6.63-24.71-15.3-33.43-5.27-5.22-9.87-11.19-16.58-14.41-5.52-2.66-11.69-4.59-17.85-4.72-9.19-.43-18.92 2.85-28.06 4.55-5.54.96-11.38 1.72-16.96 3.29-3.95 1.12-7.55 2.81-11.45 4.09-6.16 2.1-12.27 2.94-18.75 4.48-3.92.73-7.52 2.25-11.25 3.58-4.08 1.42-8.03.49-11.99 2.08-4.81 1.84-9.13 5.79-13.01 9.12-3.39 2.85-5.8 6.4-8.26 10.03-.74.8-1.52 1.55-2.32 2.28.22-.93.46-1.86.71-2.78.75-2.52 1.81-4.9 3.49-6.93 6.2-7.3 14.16-11.12 22.77-14.81-1.62-1.33-3.25-2.64-4.88-3.94 4.18-6.82 9.68-12.46 15.46-17.91 2.15-1.94 4.42-3.52 7.41-3.7 10.29-.69 20.77.4 31.05.27 13.02-.69 25.97-.25 39-.48 5.03-.11 10.02.29 15.03.52 7.56.22 13.52-2.66 21.16-3.59 12.48-1.51 24.88-3.58 37.19-6.05-.54-3.29-1.3-6.99-.77-10.29.64-3.24 2.71-6.37 4.27-9.24 3.13-5.41 5.98-11.31 9.91-16.18 1.69-2.15 3.85-3.6 6.36-4.63 10.66-4.28 21.59-8 32.04-12.74 7.6-3.44 15.56-5.02 23.73-6.44 10.52-1.98 18.85 5.04 28.58 7.21m-161.15-7.18c3.46-.42 6.89-.23 10.33.29-8.22 3.13-17.47 3.5-26.34 5.06-11.65 1.59-22.73 5.07-34.4 6.16-6.95.67-13.88 1.45-20.78 2.52-8.02 1.24-16.1 1.81-24.11 3.09-10.61 1.72-21.33 2.59-31.94 4.31-7.48 1.23-14.96.87-22.47 1.69-12.6 1.04-25.02 3.03-37.63 3.93-3.23.27-6.41-.11-9.6-.65 2.4-1.3 4.79-2.31 7.55-2.52 11.65-1.01 23.1-3.4 34.76-4.45 9.1-1.22 18.27-1.13 27.37-2.3 15.87-2.1 31.7-4.47 47.6-6.28 9.48-1.11 18.75-3.01 28.3-3.54 9.49-.6 18.47-2.95 27.79-4.52 7.78-1.34 15.67-1.89 23.57-2.79"/><path fill="#fff" d="M640 221.25c6.59-.01 13.21-.07 19.79.29-.94 1.1-1.88 2.21-2.82 3.31 4.27.37 9.39.02 13.24 1.98 3.78 1.82 7.34 4.18 10.78 6.58-9.72 2.4-18.44-.3-28.06.3-6.97.6-11.63 4.74-18.16 7.07-6.44 2.51-12.7 2.08-19.38 2.96-3.97.68-7.89 1.53-11.9 1.87-.31-4.26-.75-8.51-1.02-12.77 5.33-1.78 10.77-3.04 16.21-4.41 3.99-.95 6.89-3.33 10.36-5.29 3.32-1.88 7.27-1.79 10.96-1.89"/><path fill="#bbb" d="M622.29 223.48c-6.22 3.52-13.9 4.49-20.7 6.64.48-1.54.97-3.09 1.47-4.62 6.54 0 12.66-2.28 19.23-2.02"/><path fill="#fcfcfc" d="M577.31 224.14c4.39-.01 8.7.34 13.07.74-.04.68-.08 1.36-.11 2.04-2.01.51-4.06 1.02-6.1 1.35-2.06.04-4.12-.04-6.17-.25-.27-1.29-.47-2.59-.69-3.88"/><path fill="#6c6c6c" d="M558.17 232.56c-8.95 3.35-17.78 3.7-27.14 2.07 8.97-1.64 18.01-2.51 27.14-2.07"/><path fill="#f8f8f8" d="M567.36 234.7c-1.91 1.9-3.65 3.3-6.43 3.66-10.41 1.8-21.42 4.19-31.94 3.97-3.48.02-6.77.06-9.94 1.71-5.16 2.4-8.9 7.09-14.01 9.38-1.67-.46-2.82-.78-3.36-2.6-.83-2.32 1.68-4.54 3.2-5.98 5.55-4.54 12.84-7.51 20.08-7.35 9.22.03 18.67 1 27.74-1.06 4.84-1.05 9.68-1.88 14.66-1.73"/><path fill="#eb9337" d="M684.51 236.69c3.88 3.36 6.46 8.49 8.84 12.98 4.08 7.97 3.49 16.87 2.64 25.53l-.62 1.59c-.31.77-.6 1.55-.89 2.33l-.7 1.98c2.33-.38 4.65-.86 6.96-1.36 1.56.2 3.11.42 4.67.63-2.72 2.04-5.37 4.12-7.76 6.54 5.45-1.26 9.46-4.52 13.79-7.82-1.84 7.16-6.4 12.13-10.39 18.08 2.46-1.11 5.13-2.03 6.87-4.2 2.53-3.19 4.12-7.3 5.9-10.95-.04 8.77-1.01 16.95-6.95 23.84-2.83 3.42-7.4 6.03-8.28 10.58-3.69 1.43-6.43 3.6-9.2 6.34-7.41-.27-14.48.57-20.56-4.57-3.44-2.56-2.79-7.46-2.79-11.24.23-9.19 5.14-17.14 5.69-26.04.3-4.62-1.77-8.56-4.79-11.88-3.14-3.61-7.02-6.31-10.36-9.67-2.66-2.66-3.58-6.05-4.97-9.45-3.43 5.76-3.99 10.14-2.45 16.71-1.22.57-2.43 1.15-3.64 1.72-3.6-4-5.26-8.83-6.39-14-4.38 1.03-8.56 2.13-13.1 2.23-5.31.16-10.37-1.31-15.69-.99-1.25-2.33-2.13-4.94-3.06-7.41-1.38-.21-2.76-.41-4.14-.61 5.27-.62 10.48-1.3 15.81-1.16 6.03.07 11.58.3 17.24-2.2 5.55-2.23 10.84-7.02 16.74-7.61 7.31-.64 14.92.83 22.23.69 3.09-.03 6.29-.97 9.35-.61"/><path fill="#c7c7c7" d="M837.04 238.53c1.59 1.41 3.26 2.73 4.94 4.04-1.83 1.36-3.78 2.52-5.74 3.67.21-2.58.43-5.15.8-7.71"/><path fill="#fff" d="M603.14 247.58c1.38.2 2.76.4 4.14.61.93 2.47 1.81 5.08 3.06 7.41 7.04 6.37 17.21 4.68 25.81 3.75 2.24 5.57 5.59 10.46 10.72 13.74 3.54 2.17 7.92 2.44 11.96 2.84l-.57-2.16c-2.15-1.34-4.97-2.52-6-5-1.8-4.01-1.7-8.85-1.63-13.16 3.56 4.68 7.13 9.29 11.4 13.36 2.97 3.05 6.65 6.45 6.55 11.07-.46 8.97-5.71 17.96-6.14 26.96-.16 3.99-.31 7.93 2.25 11.26 6 6.85 16.74 10.25 24.7 4.52 2.77-2.74 5.51-4.91 9.2-6.34-.5 7.74-2.75 14.66-4.53 22.36-4.36-.26-8.5-.25-12.7-1.06-3.25-.56-6.73-1.6-10.03-1.09-3.65.61-7.29 2.64-10.57 4.32-1.68-3.92-3.68-8.07-4.33-12.3-.62-3.11 2.72-6.31 4.26-8.79-3.96 2.24-7.67 4.71-11.1 7.7-7.64 6.23-15.87 13.13-24.9 17.15-8.64 3.92-17.08 7.06-26.75 6.93-7.62-.22-14.77-4.28-20.35-9.24-4.65-3.87-5.98-10.84-6.83-16.52-.73-4.59 1.04-8.32 2.15-12.68 1.66-4.49 2.9-9.1 4.46-13.63 1.48-4.27 4-7.7 6.54-11.37-3.41 3.12-7.34 6.38-9.81 10.3-2.45 3.72-3.93 7.83-5.79 11.84-1.73 3.68-4.71 6.15-7.67 8.82-1.27-3.93-2.64-8.13-3.1-12.24-.06-1.42-.38-3.21.84-4.26 2.76-2.71 5.64-5.22 8.02-8.29 4.23-5.4 9.29-10.02 13.65-15.31 5.35-7.04 14.98-11.1 22.67-15.18-.08-5.45.02-10.88.42-16.32"/><path fill="#070201" d="M651.61 249.93c1.39 3.4 2.31 6.79 4.97 9.45 3.34 3.36 7.22 6.06 10.36 9.67 3.02 3.32 5.09 7.26 4.79 11.88-.55 8.9-5.46 16.85-5.69 26.04 0 3.78-.65 8.68 2.79 11.24 6.08 5.14 13.15 4.3 20.56 4.57-7.96 5.73-18.7 2.33-24.7-4.52-2.56-3.33-2.41-7.27-2.25-11.26.43-9 5.68-17.99 6.14-26.96.1-4.62-3.58-8.02-6.55-11.07-4.27-4.07-7.84-8.68-11.4-13.36-.07 4.31-.17 9.15 1.63 13.16 1.03 2.48 3.85 3.66 6 5l.57 2.16c-4.04-.4-8.42-.67-11.96-2.84-5.13-3.28-8.48-8.17-10.72-13.74-8.6.93-18.77 2.62-25.81-3.75 5.32-.32 10.38 1.15 15.69.99 4.54-.1 8.72-1.2 13.1-2.23 1.13 5.17 2.79 10 6.39 14 1.62 1.26 3.32 2.38 5.03 3.51-.46-1.75-.95-3.48-1.39-5.23-1.54-6.57-.98-10.95 2.45-16.71"/><path fill="#dcdcdc" d="M207.3 253.12c3.9 3.97 7.04 8.64 10.86 12.69 5.27 5.66 10.37 11.29 14.13 18.11l-1.05 1.41c-8.95-10.27-16.98-21.26-25.72-31.71.59-.17 1.19-.34 1.78-.5"/><path fill="#080808" d="M351.07 254.49c-10.16 4.52-22.47 5.44-33.45 6.82-8.33.76-15.73 2.71-24.13 1.91 6.02-3.06 11.96-2.96 18.48-4.1 8.51-1.48 17.11-1.98 25.65-3.18 4.47-.61 8.95-1.16 13.45-1.45"/><path fill="#b7ad9f" d="M649.16 266.64c.44 1.75.93 3.48 1.39 5.23-1.71-1.13-3.41-2.25-5.03-3.51 1.21-.57 2.42-1.15 3.64-1.72"/><path fill="#030303" d="M617.59 273.74c3.13 1.76 5.53 4.16 7.58 7.09 2.17 3.12 4.56 6.18 6.33 9.56 1.35 2.6 1.14 5.19 1.25 8.04-3.16-1.75-4.51-4.15-6.02-7.3-2.04.16-4.07.33-6.11.47.93-2.2 1.93-4.36 2.95-6.52-2.37-3.62-4.68-7.16-5.98-11.34"/><path fill="#010101" d="M630.81 276.07c3.56 2.74 6.68 6.17 9.7 9.48 1.69 1.81 2.68 3.97 3.67 6.2-2.47-.23-5.7.86-7.24-1.65-3-4.13-5.11-9.03-6.13-14.03"/><path fill="#c6a57d" d="M694.48 279.12c2.09.16 4.18.36 6.26.62-2.31.5-4.63.98-6.96 1.36z"/><path fill="#f4f4f4" d="M574.68 281.05c-6.49 5.49-11.24 12.53-17.46 18.25.62-4.07 1.05-7.9 4.18-10.91 3.68-3.31 8.9-5.11 13.28-7.34"/><path fill="#6f6f6f" d="m404.55 285.42.42 2.73c-3-.31-5.94-.66-8.96-.79-6.39-.33-12.5 1.18-18.9.11 9.03-3.99 17.92-3.09 27.44-2.05"/><path fill="#4f4f4f" d="M554.91 287.86c1.16.13 2.32.25 3.48.39-1 1.02-1.99 2.06-3.01 3.07-.16-1.16-.31-2.31-.47-3.46"/><path fill="#858585" d="M583.91 288.22c-2.54 3.67-5.06 7.1-6.54 11.37-1.56 4.53-2.8 9.14-4.46 13.63-.32-5.01-.3-9.85 1.19-14.7 2.47-3.92 6.4-7.18 9.81-10.3"/><path fill="#fff" d="M395.04 289.4c6.16.13 12.33 2.06 17.85 4.72 6.71 3.22 11.31 9.19 16.58 14.41 8.67 8.72 15.14 20.96 15.3 33.43.19 5.66.73 11.45.34 17.1-.26 1.68-.17 3.3-1.7 4.37-3.7 2.83-8.31 4.52-12.35 6.81-5.52 3.1-11.4 5.2-17.22 7.61-14.7 6.55-29.75 12.4-44.95 17.67-14.25 4.31-28.64 8.23-42.75 12.98-5.35 1.8-10.54 3.28-15.55 5.98 4.61.35 8.71-.52 13.01-2.1 15.78-5.62 32.11-8.96 47.85-14.64 5.63-2.1 10.69-1.04 16.56-1.22 6.17.05 11.89-1.12 18-.52 5.33.43 10.23 1.11 15.53-.08 1.33-1.17 2.73-2.53 3.52-4.13.77-2.15.1-4.76-1.8-6.09-2.62-1.75-6.1-2.44-9.09-3.35 1.93-1.17 3.85-2.39 5.82-3.49 5.66-2.32 10.66-4.91 16.89-2.71 5.73 1.66 8.72 6.38 11.64 11.19 2.47 4.21 3.6 8.86 4.1 13.68 1 8.9 3.83 17.06 5.51 25.84 1.76 7.85 2.68 15.83 4.53 23.65.59 3.01 1.81 6.33 1.5 9.4-1.12 3.88-4.36 6.56-7.7 8.55-6.18 3.44-12.22 6.52-19.28 7.66-12.43 1.59-24.77 3.99-37.23 5.32-10.75.41-21.26 2.45-31.97 3.26-6.01.54-12.03 1.53-18.06 1.75-9.83.21-19.39 2.43-29.26 2.2-.08-7.32-1.24-14.49-2.59-21.67-1.71-9.08-2.42-18.27-4-27.35-1.08-6.28-2.68-12.44-3.84-18.7-2.03-10.4-3.06-20.2-7.31-30.05-6.54-15.27-14.71-30.09-24.32-43.65.31-1.01.61-2.03.92-3.05 8.03-5.85 17.04-9.27 25.69-13.99 7.18-3.67 13.56-8.51 20.61-12.42 5.95-2.46 12.45-3.32 18.37-5.77 2.84-1.18 3.93-4.18 5.23-6.73 1.63-.74 3.26-1.51 4.82-2.37.71-.79 1.37-1.6 2.04-2.42-3.32.32-6.62.77-9.91 1.28-.58-.62-1.16-1.24-1.73-1.86 7.31-2.48 14.86-3.96 22.34-5.95 9.14-1.7 18.87-4.98 28.06-4.55"/><path fill="#010101" d="M587.08 290.39c4.64 1.07 9.13 2.93 13.41 4.97-2.67.87-5.37 1.62-8.09 2.34-.12 4.51-.22 8.68 2.19 12.7 2.87 5.21 7.65 7.41 11.34 11.7 3.66 4.33 3.04 10.21 6.6 14.33 1.84 2.23 3.83 4.32 5.6 6.61-3.09-.48-5.84-.64-8.07-3.1-4.74-4.59-3.46-11.07-7.26-15.77-3.72-4.13-8.42-6.43-11.28-11.59-2.34-3.99-2.09-8.01-2.06-12.45.21-3.64-1.45-6.34-2.38-9.74"/><path fill="#a3a3a2" d="M366.98 293.95c-7.48 1.99-15.03 3.47-22.34 5.95.57.62 1.15 1.24 1.73 1.86 3.29-.51 6.59-.96 9.91-1.28-.67.82-1.33 1.63-2.04 2.42l.21-1.99c-11.45 3.22-21.12 9.24-31.44 15.03-6.21 3.4-11.61 7.95-17.87 11.27-9.36 5.33-18.88 8.59-27.17 15.68.52.43 1.03.86 1.55 1.29-.31 1.02-.61 2.04-.92 3.05-2.84-3.9-5.69-7.81-8.43-11.79.95-.84 1.89-1.68 2.82-2.54.8-.73 1.58-1.48 2.32-2.28 5.51-.15 9.75-4.2 14.66-6.65 11.15-5.8 22.29-11.46 32.94-18.17-1.03 0-2.06 0-3.09.01 6.48-1.54 12.59-2.38 18.75-4.48 3.9-1.28 7.5-2.97 11.45-4.09 5.58-1.57 11.42-2.33 16.96-3.29"/><path fill="#3c3c3c" d="M333.29 299.63c-4.26 2.12-7.94 3.06-12.73 2.9 1.28-.95 2.58-2.11 4.06-2.72 2.71-.75 5.89-.34 8.67-.18"/><path fill="#020202" d="m354.45 300.91-.21 1.99c-1.56.86-3.19 1.63-4.82 2.37-8.33 3.36-16.05 7.68-23.6 12.5-7.05 3.91-13.43 8.75-20.61 12.42-8.65 4.72-17.66 8.14-25.69 13.99-.52-.43-1.03-.86-1.55-1.29 8.29-7.09 17.81-10.35 27.17-15.68 6.26-3.32 11.66-7.87 17.87-11.27 10.32-5.79 19.99-11.81 31.44-15.03"/><path fill="#3b3b3b" d="M429.09 303.52c4.26 1.95 6.26 4.46 8.24 8.62-3.4-2.34-6.18-5.01-8.24-8.62"/><path fill="#030303" d="M651.41 304.32c2 3.78 3.3 7.62 3.65 11.91-3.38-1.7-8.39-5.09-8.83-9.16-.3-2.85 3.31-2.47 5.18-2.75"/><path fill="#a2a2a2" d="M349.42 305.27c-1.3 2.55-2.39 5.55-5.23 6.73-5.92 2.45-12.42 3.31-18.37 5.77 7.55-4.82 15.27-9.14 23.6-12.5"/><path fill="#020202" d="M615.9 305.3c6.4.79 11.53 4.07 18.21 3.14-.82.93-1.66 1.85-2.48 2.78.79 2.39 2.43 5.6 1.64 8.1-1.7 3.06-5.2 3.02-8.24 3.6.87-2.37 4.19-5.73 3.37-8.25-2.55-4.34-8.94-5.66-12.5-9.37"/><path fill="#fdfdfd" d="M319.82 305.81c1.03-.01 2.06-.01 3.09-.01-10.65 6.71-21.79 12.37-32.94 18.17-4.91 2.45-9.15 6.5-14.66 6.65 2.46-3.63 4.87-7.18 8.26-10.03 3.88-3.33 8.2-7.28 13.01-9.12 3.96-1.59 7.91-.66 11.99-2.08 3.73-1.33 7.33-2.85 11.25-3.58"/><path fill="#010101" d="M639.19 309.85c4.71 5 9.46 9.89 8.21 17.35-2.43-1.64-4.76-3.42-7.14-5.13-.12-4.1-.87-8.13-1.07-12.22"/><path fill="#e6e6e6" d="M567.37 317.93c.09 6.64.76 13.11 3.12 19.37 1.4 3.66 4 6.58 6.36 9.65-5.95-3.51-8.74-9.3-11.15-15.49-.5-3.89-.14-7.4-2.1-11 1.26-.85 2.51-1.69 3.77-2.53"/><path fill="#fdfdfd" d="M260.53 320.46c5.88 1.3 9.47 5.23 13.17 9.66-.25.92-.49 1.85-.71 2.78-.93.86-1.87 1.7-2.82 2.54-3.43-5.08-7.03-10.04-10.88-14.81z"/><path fill="#fff" d="M653.19 327.86c1.4 4.86 2.49 9.59 4.99 14.03 1.56 3.02 3.73 5.47 3.29 9.08-.57 6.91-2.91 14.12-4.75 20.77-1.51 5.39-1.89 10.94-3.48 16.28-1.1 3.73-2.58 7.24-4.14 10.8-5.92-3.88-10.93-8.73-16.31-13.6-2.23-2.23-5.04-4.62-6.32-7.55-.04-1.54.35-3.15.67-4.65 1.45-5.92 2.28-12.01 2.89-18.07.36-2.84-1.77-5.58-3.15-7.92 4.94-2.73 9.68-5.5 14.07-9.08 4.11-3.34 7.99-6.92 12.24-10.09"/><path fill="#5a5959" d="M433.22 371.92c1.67-.38 2.37 1.68.85 2.44-1.68.37-2.38-1.69-.85-2.44"/><path fill="#020202" d="M707.37 375.82c4.41 1.66 8.32 4.06 12.35 6.44 6.19 3.68 12.77 6.47 19.05 9.98 7.32 4.06 14.58 8.2 22.12 11.84 7.94 3.82 15.86 7.99 23.26 12.79 10.54 6.93 18.36 15.58 29.23 21.76 4.69 2.8 9.79 4.78 14.54 7.45 2.49 1.36 4.04 3.48 5.69 5.71-1.51.05-3.03.07-4.54.06-5.59-1.69-10.89-4.44-16.2-6.85-9.02-4.18-15.7-10.4-23.26-16.63-7.41-6.28-16.65-11.02-25.18-15.76-9.82-5.06-19.57-10.22-28.95-16.05-9.45-5.91-19.94-10.95-28.67-17.82.18-.97.37-1.95.56-2.92"/><path fill="#a1a1a1" d="M419.99 378.86c-1.97 1.1-3.89 2.32-5.82 3.49 2.99.91 6.47 1.6 9.09 3.35 1.9 1.33 2.57 3.94 1.8 6.09-.79 1.6-2.19 2.96-3.52 4.13-12.26-4.02-23.6-1.7-35.97-1.75 6.75-3.96 14.04-6.16 21.05-9.58 4.39-2.15 8.8-4.01 13.37-5.73"/><path fill="#010101" d="M876.01 452.02c-.24 1.69-.51 3.37-.86 5.04-2.41 3.99-6.23 7.24-10.02 9.89-8.9 5.68-18.47 9.06-28.6 11.79-9.67 3.53-19.59 6.16-29.32 9.51-7.02 2.35-14.22 4.09-21.22 6.52-21.96 7.43-44.45 12.28-66.7 18.57-8.72 2.58-17.67 4.22-26.39 6.77-18.11 5.45-36.01 11.54-54.27 16.52-17.25 4.33-33.88 10.59-51.25 14.54-9.67 2.09-19.05 5.1-28.59 7.65-7.14 1.95-13.78 5.15-20.87 7.29-5.44 1.64-10.7 3.72-15.94 5.91-8.05 3.41-16.62 4.95-24.74 8.16-8.01 3.19-16.14 5.05-23.79 9.09-6.64 3.39-13.34 4.57-20.4 6.92-6.75 2.29-13.82 2.94-20.61 5.05-6.11 1.95-11.96 1.19-18.43 2.1-9.6 1.13-17.87-1.15-27.59-2.03-.29-.69-.58-1.38-.88-2.07 9.66-.02 19.74 1.32 29.24-.23 5.42-.76 10.6-.52 15.86-2.38 6.74-2.47 13.87-2.97 20.63-5.33 7-2.39 13.98-3.82 20.59-7.29 7.01-3.66 14.47-5.41 21.79-8.32 5.42-2.16 10.98-3.84 16.56-5.5 7.86-2.36 15.02-6.26 22.82-8.77 8.99-2.86 17.35-6.91 26.47-9.2 9.13-2.35 17.99-5.47 27.19-7.53 13.82-3.39 27.47-7.66 41.03-11.94 16.82-4.52 33.44-9.5 49.95-15.07 10.58-3.53 21.35-6.18 32.14-8.94 25.87-7.56 53.21-13.12 78.97-21.91 10.84-3.03 21.49-6.61 32.34-9.6 5.37-1.52 10.5-3.7 15.86-5.25 10.78-2.78 21.39-7.33 30.44-13.87 2.85-2.06 5.63-4.2 8.59-6.09"/><path fill="#9d9d9d" d="M570.99 459.21c9.95.34 17.39 5.08 26.47 8.47 6.15 2.63 13.94 1.8 20.57 1.93 8.59.2 16.39-2.89 24.96-3.39-5.6 3.43-11.51 6.29-17.1 9.73-2.37 1.32-5.15 3.2-7.9 3.35-5.37-.4-10.89-3.36-15.74-5.57-6-2.94-12.39-4.79-18.45-7.58-3.48-1.54-7.19-3.37-11.01-3.8-6.89-.45-13.86.25-20.79.06-6.11-.03-12.13.91-18.24.75 11.76-4.02 24.91-4.39 37.23-3.95"/><path fill="#a2a2a2" d="M663.97 458.65c.17 2.57 1.28 6.51-.61 8.66-3.7 4.61-9.44 6.2-14.38 8.92-3.11 1.71-4.86 5.03-7.59 7.15-2.08 1.34-4.98 1.6-7.38 1.99-5.61.66-11.4 1.32-17.04.92-8.43-.59-15.31-5.12-23.92-5.14-10.36-.07-20.88-.4-31.18.8-9.13 1.05-18.45 1.71-27.51 3.17-8.48 1.33-16.56 4.84-25.02 7.21-8.01 2.24-16 4.56-24.02 6.78-10.59 2.36-22.13 3.92-32.88 1.88-9.41-1.58-18.96-2.13-28.48-1.53-6.62.43-13.01 2.15-19.65 2.93-6.1.84-12.21.96-18.36 1.1-8.22.2-15.8 2.06-23.8 3.77-12.68 2.98-25.5 2.7-37.91 7.14-.2 1.6-.41 3.2-.56 4.82-1.85-9-3.19-18.02-2.9-27.24 11.99-1.26 24.01-1.95 36.05-2.63 9.3-.89 18.59-2.01 27.83-3.35 8.6-1.2 17.25-1.33 25.84-2.56 7.37-.91 14.52-2.83 21.9-3.61 2.95.41 5.86.98 8.82 1.32-1.25.62-2.47 1.29-3.7 1.97 7.52.46 14.96-.7 22.48-.25 6.66.38 13.33.45 20 .44 3.74-.02 7.36-.23 10.92-1.44 10.39-3.66 20.36-8.47 30.68-12.28 14.05-4.8 31.23-3.31 45.83-4.24 5.04-.36 9.34 1.41 13.84 3.37 5.89 2.61 12.05 4.46 17.92 7.11 6.16 2.75 13.07 5.77 19.85 6.31 2.04.21 3.29-1.07 4.88-2.11 2.99-2.24 6.07-4.16 9.43-5.82 10.23-5.13 20.17-11.12 30.62-15.56"/><path fill="#e6e6e6" d="M447.4 477.29c-.2 1.05-.4 2.11-.61 3.16-1.85.23-3.71.46-5.57.7-2.96-.34-5.87-.91-8.82-1.32 5.01-.78 9.97-1.84 15-2.54"/><path fill="#010101" d="M380.39 649.95c1.68 4.2 2.52 8.58 3.66 12.92 1.59 5.94 4.57 11.05 7.96 16.11 4.86 7.21 9.08 15.27 10.38 23.96.75 6.71.89 13.28-1.67 19.65-1.85-8.67-1.5-17.15-4.73-25.58-3.39-10.51-10.93-18.28-14.27-28.69-1.87-6.05-2.92-12.11-1.33-18.37m-350.13 27.3c6.19 1.38 12.43 1.93 18.74 2.39 6.9.6 13.75 1.49 20.6 2.47 9.65 1.35 19.14 1.7 28.7 3.76a294 294 0 0 0 16.69 3.17c11.03 1.66 21.99 4.94 32.54 8.53 8.32 2.86 17.07 3.91 25.43 6.75 8.74 2.94 17.52 5.65 26.39 8.19 9.02 2.48 17.52 6.36 26.53 8.88 7.01 1.99 13.88 4.27 20.6 7.11 8.82 3.72 18 6.19 26.64 10.35 9.85 4.16 18.56 10.31 28.28 14.77 11.46 6.51 24.25 9.55 35.7 16.07-5.49 1.09-10.99 1.55-16.34-.4-4.75-1.7-9.38-3.76-13.96-5.87-8.67-4.34-17.69-8.23-25.84-13.39-8.03-4.77-17.08-8.37-25.86-11.49-6.22-2.21-12.26-4.89-18.42-7.26-6.5-2.49-13.27-3.9-19.82-6.24-4.33-1.51-8.52-3.36-12.83-4.91-6.54-2.37-13.28-3.96-20.03-6.06-6.93-2.16-13.68-4.64-20.7-6.53-6.02-1.67-12.04-2.81-17.95-4.88-6.02-2.11-12.05-4.14-18.19-5.85-8.96-2.59-18.2-3.52-27.28-5.76-8.82-2.2-17.75-2.9-26.72-4.16-8.85-1.2-17.45-3.35-26.36-4.19-8.78-.83-18.98-1.86-26.76-6.34 3.48-.26 6.83.11 10.22.89"/></svg>