<svg xmlns="http://www.w3.org/2000/svg" width="1189pt" height="880pt" viewBox="0 0 1189 880"><path fill="#fff" d="M0 0h1189v880H0V496.3l.77.27c7.01 2.87 13.92 2.61 21.29 3.47 12.44 1.41 25.45.5 37.97.85 7.02.32 13.91 1.5 20.97 1.25 14.35-.36 28.69-.22 43.04-.53 16.34-.78 32.67-1.61 48.98-2.96 17.6-1.55 35.49 1.84 53 .01 4.41-.03 7.65-5.15 10.78-7.82 2.73-2.21 3.02-4.72 3.33-8.05 3.76-1.66 7.54-3.44 10.99-5.7 3.15-2.07 5.2-4.95 7.2-8.07 1.5-2.36 2.9-4.93 4.65-7.1 3.09-3.82 7.55-5.44 10-9.84 3.48-6.29 4.84-13.93 4.77-21.07-.06-6.49-.46-13.33-2.38-19.56-1.91-6.25-3.93-12.44-6.39-18.49-2.09-6.61-2.91-12.69-9.33-16.62-5.66-4.1-11.55-2.96-17.75-4.48-7.72-4.95-16.22-12.24-25.89-13.17-2-.41-4.97-.35-6.49-1.87-.04-3.04 2.2-7.62-.47-9.9-3.4-3.88-8.27-3.3-12.91-4.16-2.48-.29-4.45-2.05-6.35-3.53-7.82-6.54-15.52-12.69-24.65-17.36-11.63-6.14-23.98-13.41-37.16-15.02-10.6-1.34-21.29-2.21-31.94-3.01-9-.34-18.02-.1-27.03-.22-13.03.07-25.37-.76-38 .63-10.31.59-20.67.1-31 .33z"/><path fill="#060606" d="M694.12 14.77c.41 2.12.82 4.24 1.22 6.36 15.2-.68 30.45-.51 45.66-.7 9.02-.03 17.97-.93 27-.73 17.98-.31 36.03.13 53.98-1.02 19.99-.37 40.05.14 60.02-.95 28.97-.23 57.95-.16 86.93-.33 7.34.13 14.79-1.24 22.05-.51 6.56 1.05 12.73 6.45 18.54 9.61-.3 13.49-.03 27.02.71 40.5.11 29.68.25 59.36.36 89.04.05 6.34.97 12.6.8 18.95.02 26 .07 52.01.32 78.01.46 7.68.83 15.3.7 23.01.05 26.99.14 53.99.27 80.99-.06 6.67.79 13.28.74 19.95.07 19.35.05 38.7.16 58.05.08 8.54-.24 16.98.55 25.5.65 13.49-.28 27.15.77 40.63.27 3.29.32 6.58.3 9.87-.1 24.34.23 48.68.08 73.02.05 3.16-.01 6.06 1.83 8.79 3.33 5.12 7.35 9.78 10.85 14.8-.72.34-1.42.71-2.12 1.09-3.21-4.59-6.05-9.32-10-13.36-.29 4.4-.86 9.18.07 13.52 1.32 3.56 4.26 6.66 6.49 9.7 13.52 17.89 26.55 36.14 39.82 54.21 37.6 51.46 74.95 103.04 112.4 154.6 2.26 3.07 4.81 6.05 6.72 9.35 1.52 2.4 1.1 5.56 1.19 8.31-20.25-2.9-40.3-7.4-60.45-10.93-32.05-5.88-64.04-11.97-96.04-18.09-2.84-.56-5.59-1.42-8.29-2.45 2.41-.55 4.71-1.03 7.18-.55 25.81 4.37 51.52 9.23 77.31 13.73 16.92 2.89 33.75 6.31 50.67 9.2 8.78 1.48 17.51 3.38 26.33 4.43-2.72-5.01-6.21-9.43-9.63-13.96-46.92-65.04-94.26-129.83-141.02-194.98-4.32-5.83-7.61-11.81-12.71-17.01-.31 3.85-.39 7.72-.36 11.58.11 14 .19 28 .17 42-.04 4.23.32 8.42.55 12.64.55 18.08-.23 36.26.92 54.32.12 34.02-.02 68.03.42 102.04-.07 9.75.26 19.53-.19 29.27-1.31-.18-2.61-.37-3.92-.56-.06-9.9-.3-19.8-.2-29.71.12-6.35-.6-12.65-.57-19-.01-26.31-.2-52.62-.32-78.93.01-6.04-.74-12.03-.67-18.07.02-25.66-.21-51.33-.22-77-.08-7.33-.02-14.68-.32-22.01-.84-11.44-.25-22.98-.52-34.46-.08-31.18-.22-62.35-.37-93.53-.18-5.68-.73-11.31-.62-17-.03-36.67-.21-73.33-.34-110 .1-7.02-.82-13.98-.7-21-.06-28.34-.11-56.67-.33-85.01.03-5.67-.56-11.31-.56-16.99-.21-45.01-.25-90.02-.44-135.04-.07-6.33-.8-12.62-.72-18.96.05-19.91-.18-39.82.15-59.72-3.6-2.75-7.13-5.54-11.05-7.85-.39 7.57.63 15.02.59 22.57.24 33.68.21 67.36.42 101.03-.02 6.34.61 12.64.55 18.97.07 72 .31 144 .4 215.99-.11 7.7.87 15.32.72 23.02-.01 77.66.16 155.33.41 232.99.03 4.01.4 7.99.46 12 .17 67.35.19 134.65.25 202 .03 5.44.07 10.88-.19 16.32-1.57-.17-3.13-.36-4.7-.54.03-82.93-.24-165.85-.34-248.78-.04-5.01-.53-9.99-.5-15-.01-23-.25-46-.19-69 .04-100-.1-200-.19-300-.1-5.7.76-10.79-1.21-16.26l-.7 1.4-.05-.88c.74-3.12 1.75-5.95 1.95-9.19.21-62.55-.3-125.31.28-187.84-.48-.4-.96-.81-1.44-1.21-2.87 1.76-5.61 3.26-9.1 3.2-17.04-.04-34.05.06-51.09.19-19 .24-38.06-.24-57.01.88-38.33.37-76.66.09-114.99.39-6.02-.08-11.99.2-18 .54-15.88.2-31.76.13-47.65.11-2.11 15.6-3.46 31.29-5.73 46.87-3.53 29.32-6.88 58.65-10.6 87.94-3.3 24.89-5.96 49.88-9.15 74.78-2.39 20.66-5.46 41.21-7.64 61.89-2.86 22.46-5.44 44.95-8.49 67.38-.73 5.95-1.33 11.91-2.07 17.85-5.72 44.81-11.21 89.77-16.87 134.58-11.84 95.92-24.18 191.88-35.59 287.84l-4.53.45c-.04-7.16 1.51-14.47 2.31-21.66 2.66-21.76 5.41-43.51 8.1-65.27 5.74-42.48 10.36-85.1 16.02-127.59 3.78-29.82 7.17-59.7 11.23-89.49 8.05-66.64 16.46-133.3 24.86-199.91 10.63-85.46 21.8-170.53 32.33-256.02.77-6.49 1.99-12.84 2.22-19.39-4.83-.19-9.61-.37-14.32-1.56 1.08-.17 2.09-.6 3-1.19 3.85-.46 7.67-.29 11.52-.44 1.04-2.22 2.07-4.43 3.17-6.62"/><path fill="#a39178" d="M780.17 44.87c-1.83.22-3.65.52-5.48.73-2.52.06-5.04.09-7.55.2.08-.52.17-1.05.25-1.58-3.15.23-6.31.4-9.44.78 7.4-2.29 14.78-2.26 22.22-.13"/><path fill="#25120b" d="M767.39 44.22c-.08.53-.17 1.06-.25 1.58-7.91.34-14.84 3.14-21.94 6.39-4.79 2.23-10.17 5.45-12.85 10.16-1.75 3.64-2.16 7.96-3.26 11.84-2.31-1.37-4.58-2.79-6.93-4.08-1.71.1-3.38.08-5.07-.2.37-1.25.71-2.5 1.01-3.77 2.08-.88 4.13-1.83 6.17-2.82.15 2.02.3 4.04.47 6.06.63.5 1.26 1 1.88 1.51 1.2-5.53 2.35-10.57 6.83-14.43 6.71-5.81 16.17-8.77 24.5-11.46 3.13-.38 6.29-.55 9.44-.78"/><path fill="#0e0907" d="M780.17 44.87c6.59 1.6 12.67 4.58 17.06 9.89 3.74 4.6 7.53 9.23 10.95 14.07 4.46 6.21 5.03 14.85 5.13 22.25l-1.17 1.78c-1.44-5.24-1.97-10.63-3.17-15.91-1.31-5.46-4.97-9.27-8.28-13.6-3.17-3.94-6.27-8.72-10.34-11.72-4.45-3.33-10.3-4.92-15.66-6.03 1.83-.21 3.65-.51 5.48-.73"/><path fill="#fa8e09" d="M767.14 45.8c2.51-.11 5.03-.14 7.55-.2 5.36 1.11 11.21 2.7 15.66 6.03 4.07 3 7.17 7.78 10.34 11.72 3.31 4.33 6.97 8.14 8.28 13.6 1.2 5.28 1.73 10.67 3.17 15.91l1.17-1.78c.87-.07 1.75-.12 2.62-.15 5.1 4.7 11.62 8.41 12.44 16.01.48 6.39.82 13.35-.95 19.56-1.74 5.4-5.48 9.74-8.38 14.5-1.95 2.95-3.29 6.18-4.48 9.49-1.08-.02-2.17-.03-3.25-.05l-.28-1.82c-.65-4.43-.9-8.91-1.42-13.35 3.79-3.84 9.64-8.25 10.87-13.71.6-3.13.66-7.72-2.5-9.56-3.81-2.17-9.02-1.86-12.84.16-3.27 1.81-5.88 5.27-8.37 8.01-1.16-4.04-2.45-7.78-1.72-12.05.79-4.85 2.61-9.52 3.73-14.31-1.31 1.3-2.59 2.62-3.79 4.01-.86-.05-1.72-.09-2.57-.14-3.76-.28-7.52-.13-11.28.13 3.85-2.52 6.43-5.08 8.97-8.92-.84-.11-1.69-.23-2.53-.34-2.4-.36-4.8-.77-7.2-1.14-3.77-1.1-7.46-1.96-11.43-1.45-5.91.61-13.04 1.43-17.98 5-3.68 2.85-6.86 6.21-7.06 11.11-1.47 2.55-2.66 5.26-3.88 7.93-2.02.42-4.05.8-6.04 1.32-.23.59-.46 1.18-.67 1.78-.82 2.42-1.49 4.89-2.29 7.32-5.76.25-11.31-.16-16.54-2.82-5.12-2.48-9.82-5.78-11.39-11.56-1.22-5.05-.64-10.68-.66-15.85.19-4.71-.31-10.27 2.36-14.37 2.36-3.92 5.89-6.14 9.75-8.35.39 2.22.78 4.44 1.16 6.66.47-1.4.94-2.8 1.38-4.22 1.69.28 3.36.3 5.07.2 2.35 1.29 4.62 2.71 6.93 4.08 1.1-3.88 1.51-8.2 3.26-11.84 2.68-4.71 8.06-7.93 12.85-10.16 7.1-3.25 14.03-6.05 21.94-6.39"/><path fill="#976835" d="M482.81 62.79c-1.1-.05-2.21-.08-3.31-.08 1.47 6.13 2.04 12.27 4.09 18.22-.66-.1-1.33-.19-1.99-.28-.63-4.22-1.05-9-2.82-12.91-.72-1.38-1.48-2.73-2.27-4.07-1.44 3.89-1.83 7.89-2.05 12l-.43.88c-.62-2.21-1.24-4.4-1.7-6.66.43-2.4.83-4.8 1.12-7.22 3.1-.59 6.29-.62 9.36.12"/><path fill="#2a1914" d="M473.45 62.67c-.29 2.42-.69 4.82-1.12 7.22-2.96 4.46-6.49 7.78-10.99 10.64-.41-.69-.82-1.39-1.23-2.08 5.93-4.18 9.39-9.91 13.34-15.78"/><path fill="#0d0705" d="M479.5 62.71c1.1 0 2.21.03 3.31.08 5.23 3.62 10.03 8.46 13.97 13.44 5.63 7.07 6.64 17.47 2.93 25.63l-.51.71c-.87-5.78-.37-12.19-2.18-17.67-2.32-6.31-6.59-11.29-11.77-15.46-.5 3.84-.94 7.68-1.66 11.49-2.05-5.95-2.62-12.09-4.09-18.22"/><path fill="#120705" d="M717.72 62.62c.14 1.17.27 2.35.38 3.52-.3 1.27-.64 2.52-1.01 3.77-.44 1.42-.91 2.82-1.38 4.22-.38-2.22-.77-4.44-1.16-6.66-3.86 2.21-7.39 4.43-9.75 8.35-2.67 4.1-2.17 9.66-2.36 14.37.02 5.17-.56 10.8.66 15.85 1.57 5.78 6.27 9.08 11.39 11.56 5.23 2.66 10.78 3.07 16.54 2.82-2.12 2.16-3.89 2.95-6.99 2.83-7.8-.39-16.24-3.94-21.04-10.29-2.79-3.51-3.11-8.66-3.31-12.95-.08-7.74-.63-15.66 2.34-23 2.96-6.9 9.22-11.13 15.69-14.39"/><path fill="#5c2a09" d="M476.51 63.67c.79 1.34 1.55 2.69 2.27 4.07-1.41 2.67-2.85 5.31-4.32 7.93.22-4.11.61-8.11 2.05-12"/><path fill="#120805" d="M446.07 67.42c5.75.19 9.31 2.79 12.05 7.67-.32.67-.64 1.33-.96 1.99-2.71-2.09-5.61-4.81-9.1-5.35-3.95-.59-8.07-.35-12.06-.39-6.5.07-12.69-.28-19.01 1.56-9.08 2.52-16.97 9.06-22.92 16.18-6.03 7.39-7.38 16.73-8.2 25.93-.6 5.78-.17 11.44 1 17.13-.08 1.44-.2 2.88-.37 4.32-4.45-7.31-4.39-15.23-3.82-23.49.88-9.2 2.04-17.84 8-25.29 5.98-7.2 13.07-13.94 22.07-17.08 10.46-4.11 22.13-3.3 33.32-3.18"/><path fill="#fa8e09" d="M478.78 67.74c1.77 3.91 2.19 8.69 2.82 12.91.66.09 1.33.18 1.99.28.72-3.81 1.16-7.65 1.66-11.49 5.18 4.17 9.45 9.15 11.77 15.46 1.81 5.48 1.31 11.89 2.18 17.67-1.04 1.42-2.13 2.8-3.21 4.18-2.39 2.71-4.43 5.26-8.18 5.98-5.76 1.24-10.02-1.28-15.04-3.49 1.75 5.37 5.2 9.17 9.09 13.08-2.68-.25-5.56-.32-8.12-1.17-4.85-2.23-6.01-10-11.16-11.66l-1.73-.78c1.47 3.53 3.42 6.78 5.48 9.98 1.89 4.67 5 10.93 3.72 16-.8 3.7-5.21 3.39-8.08 4.43-3.29.79-5.96 2.16-7.48 5.33-4.54 9.19-2.79 21.35 4.25 28.83 2.83 3.02 7.39 3.3 11.22 4.11.61 6.56.34 12.89-1.15 19.31-1.36 5.26-1.2 10.26-5.53 14.1-3.52-4.2-7.14-8.27-12.66-9.7-1.02-.23-2.05-.38-3.1-.48-5.12-5.41-11.79-4.32-18.58-4.08-6.44.39-11.89 2.98-16.91 6.88l1.29.58c.06.68.11 1.36.16 2.04-7.07-4.31-15.85-8.95-20.64-15.88-7.83-11.51-9.71-25.27-7.86-38.86.62-3.77 2.17-7.08 3.26-10.69.98-2.68-.7-5.86-1.37-8.47-1.17-5.69-1.6-11.35-1-17.13.82-9.2 2.17-18.54 8.2-25.93 5.95-7.12 13.84-13.66 22.92-16.18 6.32-1.84 12.51-1.49 19.01-1.56 3.99.04 8.11-.2 12.06.39 3.49.54 6.39 3.26 9.1 5.35.32-.66.64-1.32.96-1.99.68 1.11 1.33 2.23 1.99 3.36.41.69.82 1.39 1.23 2.08 4.5-2.86 8.03-6.18 10.99-10.64.46 2.26 1.08 4.45 1.7 6.66l.43-.88c1.47-2.62 2.91-5.26 4.32-7.93"/><path fill="#0d0602" d="M768.95 85.96c3.97-.51 7.66.35 11.43 1.45-7.95 1.69-16.57 1.11-24.24 3.58-5.5 1.76-8.82 6.78-12.23 11.08.2-4.9 3.38-8.26 7.06-11.11 4.94-3.57 12.07-4.39 17.98-5"/><path fill="#050301" d="M790.11 88.89c-2.54 3.84-5.12 6.4-8.97 8.92 3.76-.26 7.52-.41 11.28-.13-5.24 3.55-11.76 4.45-16.84.1 4.6-2.45 8.79-5.02 12-9.23.84.11 1.69.23 2.53.34"/><path fill="#150f0b" d="M815.93 90.93c8.65.25 16.28 8.49 16.5 17 .34 6.9.24 14.27-2.77 20.63-2.83 5.94-7.28 11.37-11.02 16.76.15-1.43.25-2.88.4-4.32 2.9-4.76 6.64-9.1 8.38-14.5 1.77-6.21 1.43-13.17.95-19.56-.82-7.6-7.34-11.31-12.44-16.01"/><path fill="#230c04" d="M798.78 93.81c-1.12 4.79-2.94 9.46-3.73 14.31-.73 4.27.56 8.01 1.72 12.05 2.49-2.74 5.1-6.2 8.37-8.01 3.82-2.02 9.03-2.33 12.84-.16 3.16 1.84 3.1 6.43 2.5 9.56-1.23 5.46-7.08 9.87-10.87 13.71-1.29-.17-2.58-.35-3.88-.53 4.29-3.87 10.5-8.27 12.27-13.97 1-2.57.03-5.98-2.57-7.17-4.16-1.06-8.9-.3-12.12 2.69-2.83 2.49-3.9 6.02-5.21 9.43-2.61-3.92-5.6-6.88-6.14-11.81-.45-5.38 1.11-11.09 3.03-16.09 1.2-1.39 2.48-2.71 3.79-4.01"/><path fill="#b7a391" d="m499.2 102.57.51-.71c-.4 2.38-.63 4.79-1.12 7.14-.86-.76-1.73-1.51-2.6-2.25 1.08-1.38 2.17-2.76 3.21-4.18"/><path fill="#a8a8a8" d="M765.28 104.18c-.59.88-1.17 1.76-1.8 2.6-1.43-.72-2.88-1.42-4.36-2.04 2.05-.36 4.07-.44 6.16-.56"/><path fill="#060606" d="M759.12 104.74c1.48.62 2.93 1.32 4.36 2.04-1.99 1.89-4.26 2.74-6.85 3.45l-.66-3.36c1.04-.74 2.05-1.48 3.15-2.13"/><path fill="#080605" d="M495.99 106.75c.87.74 1.74 1.49 2.6 2.25-1.9 2.41-4.25 5.23-7.23 6.29-3.35 1.14-7.16 1.23-10.65 1.82 3.5 2.48 6.37 2.69 10.51 2.43-.39 1.58-2.87 3.87-.3 4.49 2.64-.35 5.23-1.19 7.83-1.79-1.02 2.51-2.31 5.02-2.97 7.66 1.42 4.01 4.97 7.13 6.38 11.08-.33 2.93-1.6 5.84-2.67 8.57-.42-.99-.82-1.98-1.2-2.99-1.19-2.11.81-4.99 1.52-7.05-1.95-2.61-3.87-6.76-6.84-8.16-2.06 1.1-3.99 2.68-5.82 4.15 1.72-4.26 2.97-7.88 1.32-12.43-4.7 1-9.29 1.59-14.11 1.46-.11 4.74-.4 9.31-2.25 13.75-.56.07-1.13.13-1.7.2.4-3.39.99-7.03.6-10.43-.44-3.47-2.82-6.5-4.68-9.36-2.06-3.2-4.01-6.45-5.48-9.98l1.73.78c5.15 1.66 6.31 9.43 11.16 11.66 2.56.85 5.44.92 8.12 1.17-3.89-3.91-7.34-7.71-9.09-13.08 5.02 2.21 9.28 4.73 15.04 3.49 3.75-.72 5.79-3.27 8.18-5.98"/><path fill="#020202" d="M733.99 111.32c1.99-.52 4.02-.9 6.04-1.32.55 1.49 3.41 3.14.93 4.12-2.01 1.68-5.52-.4-7.64-1.02.21-.6.44-1.19.67-1.78m27.67 1.15c2.58.89 5.09 2.23 7.73 2.9 2.66.52 5.52.21 8.22.27-1.58 2.16-2.57 4.57-5.62 4.73-4.87-.25-9.39-2.78-10.33-7.9"/><path fill="#5c5248" d="M466.33 118.69c1.86 2.86 4.24 5.89 4.68 9.36.39 3.4-.2 7.04-.6 10.43.57-.07 1.14-.13 1.7-.2-.64 1.46-1.34 2.89-2.03 4.32-2.35-.67-4.7-1.29-7.06-1.89 1.25-.67 2.53-1.29 3.81-1.92-1.62.1-3.25.18-4.86.33 2.87-1.04 7.28-.73 8.08-4.43 1.28-5.07-1.83-11.33-3.72-16"/><path fill="#363636" d="M740.23 119.88c-.1.97-.22 1.94-.35 2.9-1.99 2.45-6.27 4.72-6.17 8.14-.41 5.88.13 11.69-1.01 17.55-2.7-6.47-1.89-13.94-.54-20.65.83-4.26 4.68-5.98 8.07-7.94"/><path fill="#a2a3a3" d="M746.35 120.41c1.78-.33 3.27.62 4.22 2.08.16 1.51-.17 2.89-.53 4.34-.09-1.45-.19-2.9-.32-4.34-1.73 2.26-3.29 4.64-4.77 7.08-1.6-.96-3.21-1.89-4.83-2.82 1.8-2.23 3.73-4.85 6.23-6.34"/><path fill="#050505" d="M749.72 122.49c.13 1.44.23 2.89.32 4.34-1.2 2.69-2.84 5.19-4.29 7.74-1.89-1.16-3.78-2.33-5.65-3.53-.98 2.8-1.98 5.59-3.16 8.32-.19-2.32-.69-4.95-.12-7.23.74-1.93 2.08-3.72 3.3-5.38 1.62.93 3.23 1.86 4.83 2.82 1.48-2.44 3.04-4.82 4.77-7.08"/><path fill="#180702" d="M386.87 132.14c.67 2.61 2.35 5.79 1.37 8.47-1.09 3.61-2.64 6.92-3.26 10.69-1.85 13.59.03 27.35 7.86 38.86 4.79 6.93 13.57 11.57 20.64 15.88l.11 1.34c-1.4-.3-2.8-.61-4.2-.91-.66-.15-1.32-.29-1.98-.44-6.79-3.52-13.2-8.46-17.78-14.63-5.58-7.92-8.53-17.72-8.39-27.4.04-5.31-.39-11.4 1.4-16.43 1.3-3.95 3.36-7.12 3.86-11.11.17-1.44.29-2.88.37-4.32"/><path fill="#3a3a3a" d="M493.83 135.67c-.2 3.92-.77 5.8-3.38 8.67.04-1.87-.07-3.84.33-5.68.79-1.16 2.01-2.07 3.05-2.99"/><path fill="#a56c2d" d="M461.97 139.12c-3.4 2.36-6.38 5.1-7.67 9.17-2.05 6.85-.98 14.54 2.78 20.62 1.45 2.33 3.49 4.9 6.09 5.97 2.63.94 5.81.75 8.58.8.07 4.32.18 8.77-.21 13.07-.58 7.23-3.67 13.4-2.82 20.82-1.47.86-3.06 1.58-4.62 2.25l-.82-1.02c4.33-3.84 4.17-8.84 5.53-14.1 1.49-6.42 1.76-12.75 1.15-19.31-3.83-.81-8.39-1.09-11.22-4.11-7.04-7.48-8.79-19.64-4.25-28.83 1.52-3.17 4.19-4.54 7.48-5.33"/><path fill="#070606" d="M461.97 139.12c1.61-.15 3.24-.23 4.86-.33-1.28.63-2.56 1.25-3.81 1.92-2.84 1.84-5.27 3.97-6.2 7.36-1.74 8.27-.59 17.19 6.08 22.99 2.54 2.33 6.39 1.99 8.8-.35 3.39-3.2 5.92-7.28 9.09-10.72-.91 2.9-1.88 5.75-3.39 8.41-1.8 3.15-3.31 5.75-2.62 9.55 1.53 10.49.09 19.77-4.42 29.32-.53.78-1.07 1.55-1.64 2.3-.85-7.42 2.24-13.59 2.82-20.82.39-4.3.28-8.75.21-13.07-2.77-.05-5.95.14-8.58-.8-2.6-1.07-4.64-3.64-6.09-5.97-3.76-6.08-4.83-13.77-2.78-20.62 1.29-4.07 4.27-6.81 7.67-9.17"/><path fill="#292828" d="M819.04 141c-.15 1.44-.25 2.89-.4 4.32-.96 2-1.91 4.01-2.85 6.02 7.68 1.83 15.84 1.81 23.58.37 3.8-.85 7.14-1.28 10.98-.27-2.25 1.78-4.54 2.95-7.37 3.53-9.27 2.02-18.93 2.06-27.95-1.13-1.13-.35-2.26-.68-3.4-1.01-.09-.8-.2-1.59-.32-2.39 1.08.02 2.17.03 3.25.05 1.19-3.31 2.53-6.54 4.48-9.49"/><path fill="#0d0d0d" d="M503.22 143.94c1.26 1.35 2.5 2.73 3.68 4.16 1.68-.27 3.37-.45 5.05-.7.8 3.01 1.9 6.53 1.44 9.64-.44 1.94-1.72 3.78-2.73 5.47-.18-3.73-.06-7.44.04-11.17-1.88.5-3.74 1.04-5.62 1.51-.66-2.96-1.38-5.92-1.86-8.91"/><path fill="#434343" d="M737.33 144.61c.25 6.66-.57 13.3-2.57 19.67-2.07-6.42-2.04-14.32 2.57-19.67"/><path fill="#0b0b0b" d="m811.03 148.62.28 1.82c.12.8.23 1.59.32 2.39.45 6.28-.36 14.42 3.97 19.59 2.61 2.45 8.08 4.15 10.84 1.01 2.49-2.1 4.99-4.1 7.88-5.65-3 5.39-7.4 9.35-11.47 14.25-7.69 6.61-12.88 15.41-20.55 21.94-.8-.35-1.6-.7-2.39-1.06 1.03-.74 2.05-1.48 3.08-2.22-2.51-4.21-5.63-8.06-6.67-12.93-.95-4.33-1.34-8.78-2.12-13.14-3.58 3.95-5.97 8.55-8.61 13.13-1.63 2.56-3.29 5.09-4.96 7.62 2.83 1.5 5.72 2.84 8.65 4.11-.05.95-.09 1.91-.12 2.86-3.89-1.2-7.21-3.2-10.56-5.45-1.65.76-3.22 1.62-4.74 2.6-2.65 4.07-6.27 10.44-3.68 15.26 2.7 6.37 5.43 12.7 7.82 19.19 3.02 9.5 4.03 19.37 7.22 28.8.97 2.94 2.18 5.78 3.25 8.68-.11 2.37-.36 4.73-.48 7.1-3.53-9.98-7.77-19.39-9.71-29.88-1.75-9.83-5.56-18.74-8.8-28.11-1.02-2.88-2.55-5.48-4.26-8 1.58-3.35 3.18-6.68 4.4-10.19-2.68 2.22-5.12 4.51-6.59 7.74-1.81 3.63-1.08 8.01-.93 11.92.26 3.79-.15 7.51-.58 11.27-.89-7.25-.96-14.47-1.48-21.73 1.43-2.26 2.68-4.63 3.96-6.97-4.58-.7-8.86-1.18-12.94-3.57-8.54-4.7-13.39-13.99-15.9-23.07 5.24 5.92 6.48 12.45 12.61 17.29 4.41 3.3 10.63 6.33 16.25 5.18 4.36-1 8.45-3.71 11.96-6.42 4.82-3.79 7.01-8.72 10.33-13.68 2.8-4.33 6.1-8.29 8.91-12.61.37 2.85.96 5.64 1.53 8.45 1.7 7.81 3.08 15.25 8.03 21.78 3.89-4.24 7.36-8.89 11.42-12.95 2.38-2.31 4.74-4.63 7.02-7.05-1.94-.52-3.88-1.06-5.83-1.47-.39 1.38-.73 2.76-1.08 4.15-.7.19-1.39.37-2.09.55-3.46-6.32-4.14-13.46-7.58-19.77-.48-1.09-1.47-2.62-.99-3.82 1.28-3.2 3.47-6.09 5.38-8.94"/><path fill="#232323" d="M801.69 149.6c.11 4.94-.82 8.83-2.85 13.29-2.04 4.4-2.57 8.42-2.09 13.25-.57-2.81-1.16-5.6-1.53-8.45 2.01-6.31 2.99-12.33 6.47-18.09"/><path fill="#0d0d0d" d="M491.57 151.27c3.81.53 6.84 1.11 9.12 4.51-2.11-.15-4.67.09-6.62-.83-1.09-.95-1.82-2.42-2.5-3.68"/><path fill="#050505" d="M772.28 150.58c4.38.03 9.09.02 12.94 2.41-2.22 3.13-5.69 3.07-9.06 2.23-1.81-.69-2.83-3.13-3.88-4.64"/><path fill="#a2a2a2" d="M811.63 152.83c1.14.33 2.27.66 3.4 1.01-.85.4-1.69.81-2.54 1.21.06 3.86.43 7.57 1.23 11.35 5.46-.19 10.83-1.46 16.27-1.59 3.2.16 5.53 2.67 4.75 5.93-1.64 6.02-6.48 9.02-11.89 11.29 4.07-4.9 8.47-8.86 11.47-14.25-2.89 1.55-5.39 3.55-7.88 5.65-2.76 3.14-8.23 1.44-10.84-1.01-4.33-5.17-3.52-13.31-3.97-19.59"/><path fill="#020202" d="M851.03 154.04c4.01 2.17 7.8 4.78 11.35 7.64 2.45 1.94 4.4 4.48 6.91 6.31 4.78.87 9.92.71 14.78.68 4.15.23 5.54-3.24 9.01-4.81 4.56-.76 9.27-.2 12.55 3.34l-.8 1.24c-2.88 7.44-4.6 15.64-4.26 23.64-.16 3.51 2.7 5.17 4.69 7.67 4.97 5.36 6.26 11.56 8.91 18.11 1.79 4.36 2.84 8.82 4.92 13.06 6.67 14.15 14.07 27.98 20.82 42.1 3.89 9.31 7.59 18.72 10.75 28.31 1.64 4.86 3.84 9.44 5.96 14.1 2.16 4.44.06 10.32-1.49 14.67-1.66 4.6-6.23 6.64-10.4 8.46-3.55 1.4-7.05 2.83-10.36 4.76-7.04 4.1-13.26 10.23-19.71 15.36-3.2 2.76-6.91 5.71-8.99 9.43-.15.9-.11 1.83.12 2.78 1.7 7.13 4.64 13.83 7.88 20.36 3.54 7.11 4.61 14.6 8.67 21.44 2.92 4.96 5.82 9.94 8.66 14.95 2.82-2.76 5.52-5.53 8.88-7.65 9.9-6.14 18.03-15.28 23.62-25.46 3.75-6.62 5.26-13.71 8.61-20.54 1.07-2.45 2.85-5.14 2.63-7.86-.36-5.92-1.86-11.74-2.44-17.65-1.07-10.14-1.77-20.32-2.54-30.48-.23-13.52-.62-27.38.53-40.84.09-1.72.33-3.61-.04-5.29-1.24-2.53-3.37-4.68-5.07-6.92-1.57-1.83-2.83-4.12-5.31-4.74-4.31-1.25-8.41-2.42-12.08-5.13 1.12-.16 2.25-.3 3.38-.42 4.33 1.08 8.61 2.31 12.99 3.18 1.43 2.41 2.89 4.8 4.43 7.14 4.54-4.18 9.88-6.69 15.59-8.84 1.22-7.07 1.55-14.16 3.15-21.14 1.39-5.96 2.07-11.92 4.07-17.74l.05.88c1.08 9.11-1.89 17.04-2.72 25.99-.49 5.04-1.43 9.99-2.57 14.92-4.08 1.53-8.97 2.98-12.29 5.88-2.29 1.61-1.31 5.67-1.26 8.07 1.23 10.09.37 19.93.63 30.04.23 7.88-.09 15.62.81 23.47.72 9.92 1.11 20.4 3.01 30.23.57 3.4 1.33 6.86 1.49 10.31.23 2.79-1.48 5.49-2.59 7.98-3.32 6.7-4.94 13.96-8.43 20.46-4.36 8.22-10.24 15.67-17.1 21.94-4.65 4.24-10.22 6.77-14.42 11.58-4.68 5.05-9.52 9.29-16.84 9.14-4.96-.9-9.12-5.95-13.17-8.78.32 9.35 2.63 18.21 4.51 27.32 1.26 6.21 5.26 10.99 6.36 17.25.76 4.56 1.57 9.41 1.15 14.04-1.11 6.34-5.94 12.38-9.15 17.89-2.34 3.37-4.12 8.12-7.48 10.53-3.32.73-7.22-1.8-10.51-2.39-1.74-.5-4.83-.13-4.37 2.33-.62 6.77 3.23 13.72 2.06 20.25-2.05 5.32-7.33 9.51-9.9 14.5-.29 1.58-.14 3.31-.02 4.9.85 8.22 2.27 16.34 3.4 24.5.89 8.22 1.15 16.5 1.88 24.73.71 5.84.18 11.58 1.21 17.38.83 5.04 1.32 10.01 1.4 15.12.05 4.45.72 8.5-1.14 12.68-1.28 3.39-3.18 7.39-.35 10.57 3.92 3.64 9.13 5.81 12.72 10.23 3.67 4.45 5.38 9.58 7.02 15 2.11 7.15 6.33 13.06 8.88 20.03 3.39 9.91 8.62 18.96 12.15 28.81 2.76 7.36 6.9 13.92 10.15 21.04 2.88 6.2 5.01 12.68 8.12 18.79 5.4 10.54 9.68 21.74 12.47 33.25-4.17-6.44-6.09-13.51-9.3-20.4-1.92-4.28-4.25-8.34-6.35-12.53-2.89-5.74-4.76-11.81-7.53-17.6-2.08-4.47-4.61-8.67-6.84-13.05-2.48-4.88-4.01-9.91-6.17-14.91-1.88-4.38-4.17-8.53-6.07-12.9-2.09-4.73-3.64-9.57-5.83-14.2-2.04-4.31-4.51-8.12-6.12-12.65-1.62-4.4-2.53-9.12-5.13-13.07-3.3-5.09-8.21-8.81-13.31-11.97-.4 4.99-.47 9.99-1.01 14.98-.76-.2-1.51-.4-2.26-.61.47-6.55.96-13.04.35-19.6-2.28 3.3-4.2 6.79-6.06 10.33.29-2.95.52-5.97 1.01-8.9 2.03-5.18 6.46-9.84 7.66-15.24.07-9.25-1.05-18.66-2.49-27.8-.46-6.68-.59-13.32-1.36-19.99-.05-12.09-2.39-23.78-3.82-35.73-.37-4.48-.31-8.96-.72-13.43-.52-6.41-1.92-12.29-.58-18.73 1.63 5.3 2.35 10.71 3.3 16.14 2.25-2.83 4.53-5.72 6.49-8.76 1.44-4.05.29-7.58-.29-11.63-.6-3.53-.69-7.08-.73-10.66-4.2-.51-8.33-1.2-12.49-2.02-12.38-1.87-24.44-1.83-36.91-1.83-9.04-.09-17.44 2.02-26.46.13-2.04-10.29-1.23-20.1-.57-30.48.4-4.05.28-8.01-.22-12.03-3.03.39-6.03.91-9.02 1.53-2.17 12.36-5.42 24.47-7.91 36.76-6.27.24-11.58-2.98-17.75-2.94-5.33-.07-10-.93-15.08-.22-6.97.72-12.58 3.92-19.78 3.21 3.34-2.45 7.09-4.04 11.02-5.26 7.56-2.65 16.85-1.45 24.85-1.54 5.12-.07 9.12 2.21 13.98 3.25 1.7-4.44 2.26-9.36 3.59-13.96 1.63-5.86 2.99-11.77 3.74-17.81 1.02-8.74 3.37-17.16 3.89-25.98.35-7.71 1.44-15.33 2.04-23.02 1.14-16.85-2.2-33.09-.35-50 .92-6.4-.4-12.6.1-18.99.55-7.1-.41-13.94-.69-21.02-.77-7.47-1.32-15.19-3.05-22.48-2.66-10.93-3.98-21.76-5.22-32.9-.99-10.52-3.65-20-3.47-30.61.15-10.75-.01-21.51.18-32.26.29-2.79.99-5.39 1.54-8.12.5 3.34 1 6.68 1.43 10.04 2.21-.5 4.4-1.02 6.6-1.55-.4-3.21-.79-6.41-1.07-9.63 1.19-.87 2.39-1.71 3.59-2.57.79.36 1.59.71 2.39 1.06-1.26 1.36-2.97 1.96-2.63 4.11.89 8.49 3.9 16.35 4.59 24.93.44 5.6.86 11.2 1.4 16.8.66 6.15 2.52 12.18 2.83 18.27.22 12.74 1.9 25.15.66 37.93-.82 6.4.22 12.6.24 18.99.04 15.74-.18 31.59 1.14 47.28.32 5.92-.03 11.82.38 17.72 1.43 15.35.32 31.52.51 47 .13 10-.19 20-.07 30 .25 13.31-2.04 27.89-.63 41.28 7.5.51 14.8-.89 22.28-.85 6.69-.03 13.33.11 20 .7 5.65.44 10.78.08 16.27 1.23 3.23.58 6.44 1.64 9.71 1.9 3.69.04 7.35-.85 11.07-.65 3.37.11 6.79 1.45 9.99 2.47 4.24-6.45 8.36-12.96 12.75-19.31 3.92-5.67 2.86-11.9 1.7-18.27-1.14-6.08-4.72-10.89-6.26-16.82-2.58-10.09-4.6-20.3-5.44-30.69-.18-2.55-.36-5.03-1.38-7.41-2.63-6.27-5.56-12.43-8.48-18.57-2.31-4.9-3.54-10.02-4.88-15.24-1.47 1.97-2.87 4-4.15 6.09-1.57 2.5-3.51 4.1-6.04 5.57.87-3.38 2.28-6.31 4.17-9.22 2.85-4.49 5.83-8.93 9.09-13.14 6.21-7.39 13.37-12.73 20.48-19.46 6.78-5.35 12.48-12.09 19.84-16.14 3.91-2.3 7.91-4.34 12.25-5.7 3.48-1.3 7.34-2.48 8.82-6.26 1.56-4.17 3.09-8.59.8-12.81-2.83-5.75-5.29-11.65-7.19-17.77-2.43-7.85-5.83-15.35-9-23.09-6.37-13.75-13.9-27.02-20.35-40.71-3.2-5.47-4.06-11.5-6.5-17.28-2.16-5.62-4.5-13.25-9.46-17.01-7.31-.9-15.07-.23-22.4.45-.57 4.58-.71 9.1-.39 13.71.46 6.84-.24 13.24 1.15 20 1.91 9.28.91 20.9 4.07 30.08 2.7 5.91 6.31 11.45 9.41 17.17 2.55 4.83 3.84 9.64 7.07 14.09 1.48 1.35 3.05 2.62 4.61 3.89 3.85-3.3 6.17-7.51 8.46-11.94-2.01-.24-4.03-.52-6.04-.65 5.14-3.78 12.69-2.85 19.01-4.31-.17.61-.35 1.22-.53 1.83-3.29 1.47-7.01 2.95-9.72 5.38-3.06 2.75-4.49 6.56-7.54 9.44-3.41 3.35-7.11 5.41-8.98 10.08-2.64 6.53-6.5 12.46-11.65 17.3-3.07 2.78-6.68 4.49-9.78 7.2-3.6 3.21-6.92 6.72-9.77 10.62-1.92 2.7-3.99 5.69-4.86 8.92.32 4.46 2.64 8.82 3.69 13.18 1.88 7.57 4.79 14.8 6.7 22.36 1.4 5.49 3.04 10.91 4.46 16.4-.88-.68-1.77-1.36-2.63-2.07-3.69-6.24-4.79-14.11-7.32-20.9-2.9-7.54-4.23-15.44-6.7-23.1-1.39-4.27-.89-9.07.62-13.23 1.58-2.01 4.13-3.07 5.66-5.23 3.63-4.78 7.6-9.12 12.74-12.32-1.69-1.46-3.31-2.74-4.37-4.76-5.98-12.41-7.4-25.01-10.76-38.13-2.72-11.44-2.6-22.91-4.82-34.53-2.5-12.61-3.34-25.13-4-37.97-.34-6.93.72-13.61 1.66-20.44-6.66-4.11-14.05-3.79-21.08-6.61 4.64-.34 9.82-.75 14.36.47 4.21 1.12 7.41 3.4 11.21 5.32 3.12 1.56 6.42 2.2 9.79 3 1.22-2.04 3.03-4.2 3.52-6.56-2.52-8.16-7.87-15.78-13.61-22.03-3.97-3.93-8.39-6.75-11.02-11.91"/><path fill="#101010" d="M776.4 157.13c-2.46 5.28-6.61 8.69-11.08 12.19-5.69 4.49-14.49 4.78-21.37 3.99-3.87-.37-6.52-2.56-9.22-5.1 7.37 1.74 14.23 3.37 21.82 1.47 8.38-1.78 12.27-8.4 19.85-12.55"/><path fill="#080808" d="M962.68 158.7c1.64-.86 3.15.3 4.54 1.11 3.06 2.03 5.95 4.15 9.4 5.52 2.43 1.12 5.38 1.91 7.45 3.64 1.97 2.53 3 5.91 4.1 8.9 1.94 6.08 3.88 12.58 3.32 19-4.76-7.27-4.44-16.64-9.06-24.39-.87-1.07-1.92-1.9-2.94-2.81.53 6.03 1.15 12.04 1.46 18.09-.19 1.16-.42 2.32-.66 3.47-.8-3.22-1.36-6.48-1.85-9.76-.48-2.79-1.21-5.51-1.97-8.23-7.82 4.22-15.75 8.27-23.51 12.58 1.45 2 2.95 3.96 4.46 5.91 1.39 1.97 2.76 3.94 4 6 1.97 5.47-1.21 9.13-1.69 14.41.3 2.52 1.81 4.98 2.8 7.3 3.2 6.51 4.78 13.29 7.37 20.07 2.02-2.66 4.09-5.29 6.14-7.94 1.01-1.52 2.75-3.33 2.6-5.26-.05-3.67-1.32-7.52-2.49-10.97-.9 2.57-1.72 5.16-2.4 7.79a93 93 0 0 1-2.02 6.4c-3.7-5.03-1.83-9.8-2.38-15.57-.25-5.56-2.53-10.47-2.94-15.96-.22-3.14-.1-6.34.34-9.46 3.81 2.53 7.49 4.44 11.76 6.06 1.39 7.39 1.7 14.84 2.02 22.33.15 3.91 1.33 7.89 1.09 11.78-.95 2.13-2.72 3.94-4.12 5.78-3.36 4.05-5.41 8.47-7.87 13.07-.64.06-1.27.12-1.91.17-1.37-9.44-4.42-18.46-8.35-27.12-1.04-2.51-2.48-5.1-2.9-7.79-.04-3.93 2.14-7.83 2.24-11.74-.89-5.22-6.89-9.64-7.41-15.06-.2-1.91 1.49-2.82 2.79-3.85 7.42-4.67 15.07-8.54 22.79-12.64-4.89-2.32-9.11-5.31-13.19-8.85-3.8 3.42-7.12 7.26-10.6 10.99-7.02-3.09-13.68-2.02-21.09-2.2-9.14-.18-18.1.46-27.17-1.03l.8-1.24c13.4 1.12 26.96-.24 40.41.26 2.48.01 5.13.37 7.58-.09 3.25-2.37 5.55-6.61 9.06-8.67"/><path fill="#282828" d="M506.18 159.97c4.34 5.92 6.19 12.51 8.38 19.42 3.24 11.3 6.13 22.8 4.51 34.63-.91 6.7-3.36 12.24-8.06 17.14-.44-.43-.88-.86-1.31-1.29 5.02-7.12 8.04-15.05 7.66-23.87-.51-7.67-1.52-15.99-4.92-22.97-3.26 3.51-6.2 7.3-9.4 10.86.54-2.72.93-5.97 2.56-8.29 1.66-2.39 4.38-4.19 6.69-5.92-1.71-6.71-4.64-12.96-6.11-19.71"/><path fill="#fdfdfd" d="M892.18 166.67c3.1-.21 6.01.56 9.03 1.19-2.44 9.15-4.05 18.2-3.52 27.72-3.69.49-7.36.89-11.08.94-.47-10.07 2.59-20.32 5.57-29.85"/><path fill="#efefef" d="M870.85 169.64c5.86.62 11.63.99 17.52 1.09-1.29 4.65-2.91 9.49-3.59 14.25-.5 3.76-.26 7.77-.16 11.55-3.08-.2-6.14-.63-9.17-1.2 1.08-2.76 3.95-6.53 2.79-9.57-1.69-5.54-4.7-11.03-7.39-16.12"/><path fill="#a2a2a2" d="M976.47 173.24c.76 2.72 1.49 5.44 1.97 8.23-2.6-.72-4.3-.84-6.84.24-2.43 1.86-4.48 3.63-4.85 6.83a45.4 45.4 0 0 0-.34 9.46c.41 5.49 2.69 10.4 2.94 15.96.55 5.77-1.32 10.54 2.38 15.57a93 93 0 0 0 2.02-6.4c.47 2.9 1.33 5.67 2.29 8.44-2.05 2.65-4.12 5.28-6.14 7.94-2.59-6.78-4.17-13.56-7.37-20.07-.99-2.32-2.5-4.78-2.8-7.3.48-5.28 3.66-8.94 1.69-14.41.94-1.18 1.86-2.37 2.79-3.56-2.22-.95-4.46-1.79-6.79-2.44-1.51-1.95-3.01-3.91-4.46-5.91 7.76-4.31 15.69-8.36 23.51-12.58"/><path fill="#fefefe" d="M794.2 174.62c.78 4.36 1.17 8.81 2.12 13.14 1.04 4.87 4.16 8.72 6.67 12.93-1.03.74-2.05 1.48-3.08 2.22-1.2.86-2.4 1.7-3.59 2.57.28 3.22.67 6.42 1.07 9.63-2.2.53-4.39 1.05-6.6 1.55-.43-3.36-.93-6.7-1.43-10.04-.09-1.43-.18-2.85-.2-4.28.03-.95.07-1.91.12-2.86.08-2.19.49-4.64-.06-6.78-.81-1.84-2.33-3.44-3.63-4.95 2.64-4.58 5.03-9.18 8.61-13.13"/><path fill="#9d9d9d" d="M817.39 176.45c1.95.41 3.89.95 5.83 1.47-2.28 2.42-4.64 4.74-7.02 7.05-.66-1.27-1.33-2.54-1.98-3.82.7-.18 1.39-.36 2.09-.55.35-1.39.69-2.77 1.08-4.15"/><path fill="#c4c4c4" d="M978.44 181.47c.49 3.28 1.05 6.54 1.85 9.76.24-1.15.47-2.31.66-3.47.18 1.86.43 3.71.6 5.58-3.93-3.4-7.46-7.01-9.95-11.63 2.54-1.08 4.24-.96 6.84-.24"/><path fill="#a3a3a3" d="M785.59 187.75c1.3 1.51 2.82 3.11 3.63 4.95.55 2.14.14 4.59.06 6.78-2.93-1.27-5.82-2.61-8.65-4.11 1.67-2.53 3.33-5.06 4.96-7.62"/><path fill="#f6f6f6" d="M964.21 194.17c-.93 1.19-1.85 2.38-2.79 3.56-1.24-2.06-2.61-4.03-4-6 2.33.65 4.57 1.49 6.79 2.44"/><path fill="#f2f2f2" d="M969.59 195.64c2 .27 4 .55 5.99.83.69 4.67 1.58 9.8.85 14.5-.82 2.16-2.46 4.08-3.79 5.97-.82-7.23-3.03-13.97-3.05-21.3"/><path fill="#0d0806" d="M428.94 196.54c6.79-.24 13.46-1.33 18.58 4.08-6.54.1-13.06-.57-19.57-.23-5.3.27-9.6 2.3-14.63 3.61l-1.29-.58c5.02-3.9 10.47-6.49 16.91-6.88"/><path fill="#a2a2a2" d="M778.6 196.89c3.35 2.25 6.67 4.25 10.56 5.45.02 1.43.11 2.85.2 4.28-.55 2.73-1.25 5.33-1.54 8.12-.72 7.36-.46 14.87-.54 22.26.05 7.69-.53 14.79.65 22.39.66 4.03.92 7.95.54 12.03-1.07-2.9-2.28-5.74-3.25-8.68-3.19-9.43-4.2-19.3-7.22-28.8.57.72 1.16 1.42 1.76 2.12-.29-7.07-1.21-14.06-3.18-20.86-1.54-5.15-2.11-10.4-2.72-15.71 1.52-.98 3.09-1.84 4.74-2.6"/><path fill="#fcfcfc" d="M773.86 199.49c.61 5.31 1.18 10.56 2.72 15.71 1.97 6.8 2.89 13.79 3.18 20.86-.6-.7-1.19-1.4-1.76-2.12-2.39-6.49-5.12-12.82-7.82-19.19-2.59-4.82 1.03-11.19 3.68-15.26"/><path fill="#fff" d="M878.41 200.29c7.33-.68 15.09-1.35 22.4-.45 4.96 3.76 7.3 11.39 9.46 17.01 2.44 5.78 3.3 11.81 6.5 17.28 6.45 13.69 13.98 26.96 20.35 40.71 3.17 7.74 6.57 15.24 9 23.09 1.9 6.12 4.36 12.02 7.19 17.77 2.29 4.22.76 8.64-.8 12.81-1.48 3.78-5.34 4.96-8.82 6.26-4.34 1.36-8.34 3.4-12.25 5.7-7.36 4.05-13.06 10.79-19.84 16.14-7.11 6.73-14.27 12.07-20.48 19.46-3.26 4.21-6.24 8.65-9.09 13.14l-2.32.69c-2.22-6.95-.62-13.99-2.57-20.93-2.18-8.63-4.9-17.03-9.35-24.79 2.85-3.9 6.17-7.41 9.77-10.62 3.1-2.71 6.71-4.42 9.78-7.2 5.15-4.84 9.01-10.77 11.65-17.3 1.87-4.67 5.57-6.73 8.98-10.08 3.05-2.88 4.48-6.69 7.54-9.44 2.71-2.43 6.43-3.91 9.72-5.38.18-.61.36-1.22.53-1.83-6.32 1.46-13.87.53-19.01 4.31-2.85 2.3-4.9 5.76-7.03 8.7-3.23-4.45-4.52-9.26-7.07-14.09-3.1-5.72-6.71-11.26-9.41-17.17-3.16-9.18-2.16-20.8-4.07-30.08-1.39-6.76-.69-13.16-1.15-20-.32-4.61-.18-9.13.39-13.71"/><path fill="#0a0909" d="M450.62 201.1c5.52 1.43 9.14 5.5 12.66 9.7l.82 1.02c1.62 2.62 3.07 5.59 5.27 7.78 1.84 1.84 4.27 3.05 6.6 4.15 11.72 4.41 23.17 9.3 34.59 14.42 8.01 3.45 15.74 4.6 22.63 9.28l-1.5-.05c-4.25.16-8.1-1.1-12.05-2.47-7.59-2.96-15.27-5.23-22.5-9.04-7.83-4.09-16.17-7.07-24.04-11.05-5.37-2.69-7.19-7.49-11.41-11.57-4-3.93-8.2-7.22-11.07-12.17"/><path fill="#090909" d="M407.41 206.03c.66.15 1.32.29 1.98.44-1.59 3.51-2.42 6.83-5.67 9.22-5.55 4.19-10.09 8.62-16.38 11.67-9.73 4.92-19.63 9.46-29.18 14.77-4.81 2.71-10.26 4.19-14.92 7.11-3.25 2.01-4.59 5.69-5.94 9.07-4.77 12.76-6.75 26.86-8.55 40.3-.55 8.54-.92 17.08-1.8 25.6.21-5.2-.4-10.3-.6-15.48.12-3.48.77-6.85 1.45-10.24 1.08-5.11.29-10.31.9-15.58 1.02-9.37 3.44-18.6 6.93-27.34 1.47-3.46 2.81-6.69 6.12-8.79 5.23-3.35 11.29-5.18 16.68-8.32 8.91-5 18.21-9.17 27.37-13.66 6.22-3 10.66-7.69 16.45-11.6 2.7-1.81 3.66-4.44 5.16-7.17"/><path fill="#cbcbcb" d="M470.36 207.27c1.85 2.1 3.39 4.18 5.98 5.44 5.68 2.85 11.92 4.64 17.81 7.03-2.84-.63-6.07-1.49-8.98-1.06-3.21 1.31-6.08 3.53-9.2 5.07-2.33-1.1-4.76-2.31-6.6-4.15-2.2-2.19-3.65-5.16-5.27-7.78 1.56-.67 3.15-1.39 4.62-2.25.57-.75 1.11-1.52 1.64-2.3"/><path fill="#848484" d="M941.09 206.75c4.65 4.51 7.06 11.45 8.67 17.58-4.97-4.75-8.03-10.7-8.67-17.58"/><path fill="#010101" d="M760.04 211.54c.52 7.26.59 14.48 1.48 21.73-1.6 12.94-4.59 25.74-7.11 38.52-1.27 7.08-2.56 14.13-4.36 21.11-3.38 13.17-5.65 26.55-6.55 40.13-.35 6.12 1.86 11.54 3.19 17.49 1.41 5.62 1.72 11.28 2.4 17 .12.94.25 1.88.38 2.82 2.48-1.97 5-3.9 7.67-5.62-2.89 4.96-6.29 9.22-7.59 14.97-2.08 1.06-4.7 1.76-5.61 4.16-1.21 3.1-.39 7.12-.22 10.39.64 8.77 1.46 17.58 1.8 26.37-.76-.16-1.51-.32-2.27-.49-.69-7.21-2.68-13.87-2.7-21.09-.03-4-.47-8.02-.34-12.02.2-5.64 6.74-10.39 6.18-15.97-.75-8.76-1.5-17.47-3.46-26.07-1.95-9.37-1.35-18.51-1.08-27.98.23-6.68-.57-13.31-.33-19.99.24-6.02-.45-11.99-.21-18 .36-10 .07-19.99.27-30.01.07-3.47-.02-6.92-.55-10.35-2.09 3.97-2.7 7.88-2.64 12.32-.02 7.81-1.11 15.45-2.16 23.16-1.58 15.45-5.29 30.55-7.6 45.92-.75 6.1-3.16 11.84-3.85 17.93.04 3.97 1.64 7.92 2.12 11.88 1.18 9.16 2.12 18.28 1.42 27.53-1.64-.82-3.29-1.67-4.85-2.64.99-.98 1.98-1.97 2.97-2.95-.79-6.91-1.39-13.86-2.49-20.73-.54-3.59-1.61-7.31-1.62-10.95.17-4.07 1.63-8.21 2.48-12.2 1.25-5.28 1.49-10.58 2.29-15.91 1.58-7.3 2.47-14.71 3.93-22.03 1.25-6.18 1.55-12.42 2.43-18.65 1.13-8 1.64-16.11 2.26-24.17.39-3.69 1.12-7.42 2.47-10.89 1.29-3.27 4.02-6.14 6.42-8.66 5.26-5.32 10.74-10.17 15.43-16.06"/><path fill="#626262" d="M787.82 214.74c-.19 10.75-.03 21.51-.18 32.26-.18 10.61 2.48 20.09 3.47 30.61-.55 1.71-1.2 3.37-1.85 5.03-.43-1.37-.86-2.74-1.27-4.12.12-2.37.37-4.73.48-7.1.38-4.08.12-8-.54-12.03-1.18-7.6-.6-14.7-.65-22.39.08-7.39-.18-14.9.54-22.26"/><path fill="#fdfdfd" d="M976.15 215.34c1.17 3.45 2.44 7.3 2.49 10.97.15 1.93-1.59 3.74-2.6 5.26-.96-2.77-1.82-5.54-2.29-8.44.68-2.63 1.5-5.22 2.4-7.79"/><path fill="#adadad" d="M485.17 218.68c2.91-.43 6.14.43 8.98 1.06 5.84 2.25 11.08 5.75 15.55 10.13.43.43.87.86 1.31 1.29-.2 2.34-.33 4.67-.45 7.01-11.42-5.12-22.87-10.01-34.59-14.42 3.12-1.54 5.99-3.76 9.2-5.07"/><path fill="#a2a2a2" d="M519.64 244.93c3.95 1.37 7.8 2.63 12.05 2.47l.46.93c-.75 3.31-1.88 6.37-3.49 9.35-3.97 5.79-7.57 11.88-10.66 18.19-2.46 5.92-3.4 12.34-5.87 18.3 1.78-9.69 3.87-19.04 8.11-28.01 1.97-4.05 3.79-8.11 4.79-12.52-7.8 8.07-11.34 21.01-14.2 31.6-.2-1.21-.4-2.41-.61-3.61 2.94-10.28 8.14-19.85 10.7-30.21-1.91 2.05-3.69 4.14-4.86 6.71-5.37 12.3-9.85 24.83-12.8 37.95.71-5.69 1.9-11.07 3.48-16.57 2-7.13.72-13.17 4.2-19.51 2.8-5.08 6.02-9.91 8.7-15.07"/><path fill="#151515" d="M533.19 247.45c2.24 1.34 3.81 3.99 5.25 6.1 2.7 4.26 5.62 8.32 8.75 12.26 7.28 9.19 13.23 19.27 20.59 28.4 9.43 13.49 17.94 27.88 25.59 42.45 7.83 16.62 15.79 34.42 19.68 52.42 1.3 6.35 2.71 13.34 1.87 19.79-.54 5.3-1.19 10.45-3.45 15.34-.21-5.84.76-11.51 1.17-17.3.6-8.72-1.54-17.11-4.1-25.37-3.21-10.11-6.82-20.07-11.25-29.72-7.06-16.99-16.74-33-26.62-48.48-4.56-7.35-10.39-13.71-15-21.02-7.62-11.7-16.75-21.74-23.52-33.99l-.46-.93z"/><path fill="#2d2d2d" d="M453 250.65c6.9.28 13.43-1.75 20.33-1.05-14.17 6.46-27.88 3.28-42.51.8 7.67-1.94 14.5.49 22.18.25"/><path fill="#414141" d="M520.92 251.42c-2.56 10.36-7.76 19.93-10.7 30.21-3.22 8.6-4.21 17.63-6.84 26.38-.15-3.69-.34-7.41-.27-11.1l.15-.83c2.95-13.12 7.43-25.65 12.8-37.95 1.17-2.57 2.95-4.66 4.86-6.71"/><path fill="#4a4a4a" d="M525.03 253.64c-1 4.41-2.82 8.47-4.79 12.52-4.24 8.97-6.33 18.32-8.11 28.01-1.03 3.02-2.28 5.94-3.57 8.86.5-5.97 1.38-11.88 2.27-17.79 2.86-10.59 6.4-23.53 14.2-31.6"/><path fill="#dcdcdc" d="M945.08 253.55c.11 1.05.23 2.1.37 3.15-1.93 1.61-6.79 2.72-5.26 5.93.28.7.73 1.32 1.35 1.87 5.07 1.13 10.57-1.34 14.73 1.89-1.14-.17-2.29-.31-3.44-.43-4.17-1.1-7.9 3.34-11.72 4.83-1.41-4.27-2.74-8.12-.91-12.54.83-2.54 2.54-3.65 4.88-4.7"/><path fill="#a2a2a2" d="M945.08 253.55c2.06.19 4.06.66 6.09 1.11-1.13.12-2.26.26-3.38.42 3.67 2.71 7.77 3.88 12.08 5.13 2.48.62 3.74 2.91 5.31 4.74 1.7 2.24 3.83 4.39 5.07 6.92.37 1.68.13 3.57.04 5.29-.08-.85-.16-1.69-.25-2.53-2.3-.11-4.92.08-7.11-.7-2.75-1.69-4.67-5.05-6.66-7.54-4.16-3.23-9.66-.76-14.73-1.89-.62-.55-1.07-1.17-1.35-1.87-1.53-3.21 3.33-4.32 5.26-5.93-.14-1.05-.26-2.1-.37-3.15"/><path fill="#b7b7b7" d="M528.66 257.68c-2.53 5.03-4.72 10.23-6.33 15.63-3.01 10.07-5.61 20.39-7.23 30.77-.61 3.64-1.06 7.42-2.14 10.94-.65 1.94-1.44 3.76-3.41 4.66-3.48 1.57-8.38 0-9.05-4.1-.76-6.03 1.49-12.74 2.61-18.67-.07 3.69.12 7.41.27 11.1 2.63-8.75 3.62-17.78 6.84-26.38.21 1.2.41 2.4.61 3.61-.89 5.91-1.77 11.82-2.27 17.79 1.29-2.92 2.54-5.84 3.57-8.86 2.47-5.96 3.41-12.38 5.87-18.3 3.09-6.31 6.69-12.4 10.66-18.19"/><path fill="#090909" d="M380.48 260.54c-7.07 2.88-14.93 4-22.53 3.83-4.6.02-8.94.51-13.38-1.05 4.46-.55 8.92-.89 13.41-.95 7.75.11 14.64-3.03 22.5-1.83"/><path fill="#5b5b5b" d="M395.94 276.45c1.72 1.99 3.28 3.92 3.86 6.56 1.84 8.15 1.52 17.31 2.46 25.65.88 10.3 3.69 19.97 3.21 30.41-.92-6.93-1.94-13.79-3.72-20.56-2.45-9.5-2.56-19-3.23-28.71-.3-4.59-1.56-8.9-2.58-13.35"/><path fill="#fcfcfb" d="M886.75 279.3c3.73 3.82 4.74 8.5 6.83 13.21 1.69 3.84 4.5 6.36 7.4 9.26-2.04 3.45-3.84 7.01-5.57 10.62-.51.15-1.03.3-1.54.46-1.23-11.87-7.33-21.37-7.12-33.55"/><path fill="#a2a2a2" d="M906.75 286.64c2.01.13 4.03.41 6.04.65-2.29 4.43-4.61 8.64-8.46 11.94-1.56-1.27-3.13-2.54-4.61-3.89 2.13-2.94 4.18-6.4 7.03-8.7"/><path fill="#080808" d="M0 304.58c10.33-.23 20.69.26 31-.33 12.63-1.39 24.97-.56 38-.63 9.01.12 18.03-.12 27.03.22 10.65.8 21.34 1.67 31.94 3.01 13.18 1.61 25.53 8.88 37.16 15.02 9.13 4.67 16.83 10.82 24.65 17.36 1.9 1.48 3.87 3.24 6.35 3.53 4.64.86 9.51.28 12.91 4.16 2.67 2.28.43 6.86.47 9.9 1.52 1.52 4.49 1.46 6.49 1.87 9.67.93 18.17 8.22 25.89 13.17 6.2 1.52 12.09.38 17.75 4.48 6.42 3.93 7.24 10.01 9.33 16.62 1.02 7.64 4.22 14.35 6.43 21.62 2.03 10.58 2.87 22.28-1.21 32.49-1.14 2.76-2.49 6.26-4.92 8.13-3.88 1.53-8.32 1.81-12.4 2.62-15.96 3.07-32.37 4.62-48.51 6.34 3.29 4.35 7.9 7.36 13.48 7.39 4.72-.68 9.05-3.43 13.7-4.6-.87 2.42-1.28 4.57-3.7 5.94-5.54 3.77-11.73 3.31-17.75 1.05-1.56-1.09-3.16-2.15-4.68-3.3-.72-.96-1.41-1.95-2.09-2.94-.71-1.43-1.36-2.9-2.02-4.36-4.78.47-9.42 1.1-14.25.74-4.45-.35-8.84-.73-13.3-.18-12.53 1.49-25.12 2.59-37.75 2.44-18.68.22-37.35.08-56.02-.36-3.65-.16-7.03-.17-10.31-1.98.97-2.3 3.15-2.05 5.26-2.28 6.69-.19 13.36.83 20.07.81 14 .09 28 .05 42 .02 8.42-.01 16.65.21 25.04-.78 6.99-.8 13.89-1.77 20.96-1.47 8.71.39 17.3-.6 25.99-.85 7.29-.29 14.41-1.53 21.62-2.49 11.05-1.04 22.03-2.69 33.01-4.25 2.53-5.65 5.17-10.72 5.88-16.99.55-5.13.55-10.44.08-15.57-.56-5.43-2.54-10.16-4.72-15.09-4.14.17-10.39 1.95-13.66-1.26-2.81-2.42-5.45-5.77-5-9.72.56-5.46 3.33-10.57 7.06-14.54.77 5.59-2.13 9.46-3.42 14.61-.71 2.3 1.17 4.76 2.78 6.23 2.4 2.44 7.23 1.23 10.33 1.24-.66-5.86-1.34-12.36-3.78-17.77-1.74-3.93-5.81-6.08-9.63-7.57-4.34-1.64-8.56-1-12.88-1.72-2.57-.8-4.84-2.81-7.07-4.29-4.92-3.36-10.43-7.15-16.33-8.41-3.17-.74-6.85-.97-9.76-2.49-2.19-.72-.8-4.45-.65-6.13.27-1.1.55-2.19.85-3.27-3.71-2.48-6.91-3.81-11.47-3.11l-.94.08c-8.42-6.61-16.62-13.73-25.68-19.45-11.57-6.22-23.67-13.2-36.16-16.98-8.59-2.66-16.96-2-26.44-3.03-15.46-1.7-30.41-.59-45.92-1.15-5.38-.29-10.68-.89-16.09-.57-15 .95-30.01 1.76-45 2.81z"/><path fill="#a2a2a2" d="M45 305.76c5.41-.32 10.71.28 16.09.57 15.51.56 30.46-.55 45.92 1.15 9.48 1.03 17.85.37 26.44 3.03 12.49 3.78 24.59 10.76 36.16 16.98-.14 1.21-.18 2.41-.1 3.63-6.53-4.18-13.39-8.25-20.66-10.96-8.96-3.27-17.86-3.36-27.2-4.54-8.52-1.09-17.07-1.42-25.65-1.97-16.06-.84-32.97 2.39-48.96 3.04-7.5.05-14.93.08-22.34 1.41 3.12 6.75 7.64 12.54 11.13 19.07 4.53 8.19 6.58 17.18 10.53 25.73 7.14-1.91 14.35-1.74 21.65-1.12 16.18 1.71 32.68.43 48.99 1.17 22.05 1.11 43.94-.77 66-.18 4.15.02 8.54.48 12.62-.28 2.14-.77 3.83-3.01 5.48-4.53-2.97-4-6.3-7.58-10.3-10.56 1.5-.15 2.99-.32 4.49-.46l.94-.08c2.95 3.18 6.7 4.75 10.62 6.38-.15 1.68-1.54 5.41.65 6.13 2.91 1.52 6.59 1.75 9.76 2.49-.87.26-1.73.52-2.59.8 5.86 2.87 12.26 7.94 18.92 7.61 2.23 1.48 4.5 3.49 7.07 4.29 4.32.72 8.54.08 12.88 1.72 3.82 1.49 7.89 3.64 9.63 7.57 2.44 5.41 3.12 11.91 3.78 17.77-3.1-.01-7.93 1.2-10.33-1.24-1.61-1.47-3.49-3.93-2.78-6.23 1.29-5.15 4.19-9.02 3.42-14.61-3.73 3.97-6.5 9.08-7.06 14.54-.45 3.95 2.19 7.3 5 9.72 3.27 3.21 9.52 1.43 13.66 1.26 2.18 4.93 4.16 9.66 4.72 15.09.47 5.13.47 10.44-.08 15.57-.71 6.27-3.35 11.34-5.88 16.99-10.98 1.56-21.96 3.21-33.01 4.25-7.21.96-14.33 2.2-21.62 2.49-8.69.25-17.28 1.24-25.99.85-7.07-.3-13.97.67-20.96 1.47-8.39.99-16.62.77-25.04.78-14 .03-28 .07-42-.02-6.71.02-13.38-1-20.07-.81-2.11.23-4.29-.02-5.26 2.28 3.28 1.81 6.66 1.82 10.31 1.98 18.67.44 37.34.58 56.02.36 12.63.15 25.22-.95 37.75-2.44 4.46-.55 8.85-.17 13.3.18 4.83.36 9.47-.27 14.25-.74.66 1.46 1.31 2.93 2.02 4.36-4.08-4.65-11.73-2.55-17.32-2.93-13.79-.61-27.25 2.3-41.01 2.01-15-.1-29.98.51-44.99 0-4.89-.23-9.69.04-14.54.64l-.84.07c-1.3 2.18-2.51 4.4-3.54 6.73-4.01 1.47-4.92 4.63-6.11 8.36l1.71.4c-2.09 2.39-4.24 4.47-7.49 5.06-5.68 1.04-11.52 1.41-17.26 2-.91-.38-1.8-.77-2.69-1.17 2.43-.07 4.84-.39 7.25-.74-4.52-2.72-9.08-4.34-12.74-7.86-5.05-4.87-9.03-10.65-12.11-16.94-2.68-5.51-6.24-9.88-6.21-16.28.06-10.82-.69-21.59 2.78-31.73 1.43-4.24 3.27-9.42 6.73-12.42 3.4-2.88 8.18-1.75 11.52.61 4.72 3.29 6.64 8.34 8.75 13.45-2.84-1.79-5.92-4.36-9.24-5.06-3.33-.11-6.05 2.73-7.78 5.28-4.81 7.24-6.24 16.34-5.35 24.87.74 9.13 3.73 17.52 7.26 25.89 1.49 3.15 3.41 6.9 7.19 7.56 3.23.5 7.88.87 10.06-2.15 4.11-5.44 5.23-12.41 3.56-18.99-3.32 4.66-2.82 10.24-5.37 15.08-1.77 3.34-5.82 3.28-8.83 1.85-1.76-1.12-2.81-3.5-3.68-5.33-4.84-11.35-8.97-23.26-6.91-35.78.96-5.11 3.19-11.46 7.57-14.61 2.02-1.72 4.53.36 6.41 1.33 3.2 2.16 7.3 4.56 8.65 8.36 3.41 8.73 5.21 18.54 7.38 27.65.83 3.91 1.79 7.63.37 11.54-2.4 7.06-8.69 9.98-11.75 16.8 5.96-2.06 9.36-6.91 11.96-12.37 2-4.66 3.52-9.24 2.7-14.39-2.18-12.36-5.08-24.56-9.72-36.25-2.44-5.93-5.73-13.04-11.04-16.89-4.95-3.55-13.09-4.12-16.97 1.31-5.11 7.3-7.94 16.42-8.42 25.3-.4 5.98-.94 12.13-.43 18.11.4 4.77 2.4 8.57 4.26 12.86-9.45-.91-18.78-1.49-28.28-1.65 1.85-.3 3.69-.68 5.54-.97 5.17.01 10.34-.05 15.5-.34l-.18-2.51c-8.06-.01-15.74.39-23.67-1.33v-87.57c9.41 2.05 18.58 3.84 28.27 2.87.19-.97.34-1.93.47-2.89-9.56-1.12-19.31-1.62-28.74-3.32v-12.48c6.23-.83 15.17-2.82 20.87.38 2.24 3.1 1.49 8.29 3.61 11.52 2.41 2.45 6.69 1.87 9.81 1.94-2.63-1.76-5.41-3.25-8.23-4.69-.89-4.07-.44-11.11-5.18-12.77-6.12-2.62-14.42-.58-20.88.04V316.4c4.4 1.21 8.47 1.58 12.29 4.3 7.18 5.1 12.79 13.14 17.6 20.41 3.78 5.53 5.12 11.69 9.74 16.68-1.14-8.77-5.99-16.36-10.92-23.49-4.57-6.38-9.41-12.74-16.28-16.8-3.9-2.34-8.04-2.47-12.43-3.04v-5.89c14.99-1.05 30-1.86 45-2.81"/><path fill="#030303" d="M326.35 308.73c.2 5.18.81 10.28.6 15.48-.85 12.18-3.16 24.14-4.3 36.28-2.34 20.31-2.88 41.11-3.86 61.51-.24 18.03.11 36.1-.42 54.13-1.24 11.96-.73 23.88-.84 35.87-.11 5.4.72 10.69.95 16.07.1 14.56 3.19 29.38 6.4 43.55.73 3.08.87 7.07 2.75 9.68 2.65 2.73 6.3 4.54 9.33 6.84-2.27-.61-4.74-1.19-6.77-2.38-3.99-2.4-6.66-6.41-7.64-10.94-3.42-14.38-6.98-29.55-7.27-44.33-1.6-19.64-1.1-39.49.03-59.13.51-12.78.14-25.58.49-38.36.47-6.68.45-13.33.43-20.02-.03-8.89 1.07-17.7 1.27-26.59.68-8.86 1.2-17.71 2.46-26.52 1.68-16.94 5.52-34.08 6.39-51.14"/><path fill="#a2a09d" d="M727.1 312c-.8 5.33-1.04 10.63-2.29 15.91-.85 3.99-2.31 8.13-2.48 12.2.01 3.64 1.08 7.36 1.62 10.95 1.1 6.87 1.7 13.82 2.49 20.73-.99.98-1.98 1.97-2.97 2.95-1.62-1.65-3.04-3.46-4.47-5.27-1.12 4.24-2.6 8.34-3.9 12.52 1.13-4.65 1.94-9.36 2.99-14.03.4-2.08 1.52-3.74 2.84-5.33-.67-2.85-1.34-5.7-2.12-8.51 3.2-6.84 1.86-13.55 3.76-20.68 1.82-7.09 2.77-14.33 4.53-21.44"/><path fill="#0b0b0b" d="M96 313.65c8.58.55 17.13.88 25.65 1.97 9.34 1.18 18.24 1.27 27.2 4.54 7.27 2.71 14.13 6.78 20.66 10.96 7.53 4.94 14.06 10.92 21.29 16.28 4 2.98 7.33 6.56 10.3 10.56-1.65 1.52-3.34 3.76-5.48 4.53-4.08.76-8.47.3-12.62.28-22.06-.59-43.95 1.29-66 .18-16.31-.74-32.81.54-48.99-1.17-7.3-.62-14.51-.79-21.65 1.12-3.95-8.55-6-17.54-10.53-25.73-3.49-6.53-8.01-12.32-11.13-19.07 7.41-1.33 14.84-1.36 22.34-1.41 15.99-.65 32.9-3.88 48.96-3.04"/><path fill="#323232" d="M0 314.46c4.39.57 8.53.7 12.43 3.04 6.87 4.06 11.71 10.42 16.28 16.8 4.93 7.13 9.78 14.72 10.92 23.49-4.62-4.99-5.96-11.15-9.74-16.68-4.81-7.27-10.42-15.31-17.6-20.41-3.82-2.72-7.89-3.09-12.29-4.3z"/><path fill="#a2a2a2" d="M108.93 317.49c7.07.39 13.98 1.63 21.03 2.21 5.15.5 9.99.77 14.93 2.41 5.45 1.82 10.64 4.52 15.61 7.38 6.57 3.79 11.95 8.54 18.03 12.99 6.93 5.25 13.88 9.38 18.98 16.65-8.21.76-16.3-.26-24.51-.05-31.07.91-61.84.18-93 .44-6.04.13-11.96-.91-17.97-1.12-4.61-.2-9.23.68-13.82.4-1.42-.82-2.09-2.94-2.73-4.37-1.97-5.36-3.49-10.81-6.02-15.97-3.22-6.97-7.8-12.66-11.77-19.15 6.78-.27 13.57.19 20.34-.1 10.6-.75 21.19-1.34 31.76-2.38 9.83-.99 19.33.21 29.14.66"/><path fill="#e4e4e4" d="M344.68 324.34c1.21 2.29.87 5.52.76 8.03-1.41 13.98.15 27.86-.65 41.89-1.1-6.08-1.37-12.12-1.59-18.27-.83-9.59-.45-19.11-.61-28.73l-1.27.09-.75.02c-.3 4.58-.21 9.36-1.16 13.85-.49 3.87-6.68 5.17-7.28 8.89-1.14 5.93-1.23 12.13-1.21 18.15-.69-5.55-.68-11.11-.29-16.68.49-7.34.6-15.34 2.5-22.45.59-2.05 1.36-4.55 2.94-6.07 2.5-1.87 6.99-1.75 8.61 1.28"/><path fill="#c4c4c4" d="m340.57 327.37.75-.02c.05 4.16-.14 8.26-.56 12.4-1.14 6.73-1.25 13.5-2 20.26-.17 3.26-3.88 5.01-6.15 6.85-.22 5.47-.13 10.91.27 16.37-.47-5.02-1.45-9.96-1.96-14.97-.02-6.02.07-12.22 1.21-18.15.6-3.72 6.79-5.02 7.28-8.89.95-4.49.86-9.27 1.16-13.85"/><path fill="#040404" d="m341.32 327.35 1.27-.09c.16 9.62-.22 19.14.61 28.73.22 6.15.49 12.19 1.59 18.27.88 7.35 1.53 14.71 1.89 22.11.42 8.24 2.31 16.1 3.95 24.15 3.71 17.1 9.64 32.82 14.49 49.51 2.71 7.5 5.64 14.97 8.56 22.39 3.5 7.48 6.66 14.99 9.2 22.85 4.25 12.71 10.67 26.36 11.93 39.7-2.56-5.35-4.51-10.91-6.53-16.48-2.97-8.24-6.58-16.15-9.31-24.49-1.38-4.28-3.09-8.39-5.29-12.33-.09 1.01-.17 2.02-.25 3.04-.32 3.18-.8 6.36-1.06 9.55-.32-5.62-.44-11.32-1.18-16.89-1.39-6.16-4.41-11.98-6.65-17.87-3.37-7.77-5.01-16.02-8.13-23.88-2.83-7.24-4.51-14.71-6.84-22.12-2.3-7.31-3.2-14.65-4.75-22.14-2.15-10.19-1.73-20.01-3-30.31-1.66-13.62-1.37-27.59-1.06-41.3.42-4.14.61-8.24.56-12.4"/><path fill="#f1f1f1" d="M169.61 327.49c9.06 5.72 17.26 12.84 25.68 19.45-1.5.14-2.99.31-4.49.46-7.23-5.36-13.76-11.34-21.29-16.28-.08-1.22-.04-2.42.1-3.63"/><path fill="#b0b0b0" d="M944.73 338.56c-.49 8.23-2.64 16.18-3.01 24.41-.42 9.55-.26 19.78 2.23 29.06 1.01 4.01 3.03 7.89 3.64 11.97.38 2.95-3.24 4.67-5.52 3.01-1.97-1.76-3.13-4.58-4.33-6.89-2.21-4.69-4.99-9.52-6.33-14.49-1.8-6.44-1.31-13.89-1.12-20.53.17-3.25.11-6.71.97-9.86 1.14-2.63 3.58-4.72 4.69-7.35.19-1.61-1.01-3.07-1.58-4.57 3.31-1.93 6.81-3.36 10.36-4.76"/><path fill="#a2a2a2" d="M340.76 339.75c-.31 13.71-.6 27.68 1.06 41.3 1.27 10.3.85 20.12 3 30.31 1.55 7.49 2.45 14.83 4.75 22.14 2.33 7.41 4.01 14.88 6.84 22.12 3.12 7.86 4.76 16.11 8.13 23.88 2.24 5.89 5.26 11.71 6.65 17.87.74 5.57.86 11.27 1.18 16.89-.1 6.01.18 11.98.68 17.96-2.44-.56-5.88-.71-7.84-2.41-1.8-2.15-2.35-5.52-2.89-8.2-1.64-9.98-2.42-20.45-4.59-30.39-1.66-7.6-4.25-14.81-6.52-22.41-2.28-7.62-4.78-15.18-7.35-22.72-3.02-8.54-4.3-17.5-6.62-26.31-2.99-12.06-3.48-24.23-4.36-36.55-.4-5.46-.49-10.9-.27-16.37 2.27-1.84 5.98-3.59 6.15-6.85.75-6.76.86-13.53 2-20.26"/><path fill="#0b0b0b" d="M512.59 340.56c4.42 3.88 7.11 8.64 10.35 13.44 8.84 13.42 17.38 27.05 26.17 40.51-1.25.43-2.47.92-3.7 1.41 2.59 2.46 5.3 4.77 7.96 7.16-1.62-.11-3.24-.21-4.85-.31-.88 1.01-1.75 2.02-2.67 2.99-4.4 3.58-9.4 5-14.48 7.2-.82-.74-1.65-1.48-2.48-2.22 6-2.82 12.14-5.12 17.79-8.65-2.29-5.66-2.36-11-5.54-16.15-9.38-15.16-20.03-29.72-28.55-45.38"/><path fill="#090909" d="M20.88 345.12c4.74 1.66 4.29 8.7 5.18 12.77 2.82 1.44 5.6 2.93 8.23 4.69-3.12-.07-7.4.51-9.81-1.94-2.12-3.23-1.37-8.42-3.61-11.52-5.7-3.2-14.64-1.21-20.87-.38v-3.58c6.46-.62 14.76-2.66 20.88-.04"/><path fill="#010101" d="M510.27 343.61c6.28 5.75 7.36 12.82 11.19 20.01 1.07 2.25 2.71 4.8 2.85 7.33-.96 14.37-2.24 28.74-1.65 43.04 2.07-1.1 4.13-2.2 6.23-3.25.83.74 1.66 1.48 2.48 2.22-4.66 2.4-8.17 5.53-11.1 9.87-1.5-16.65-.95-33.55.23-50.2.18-3.91-2.34-8-3.59-11.66-2.07-5.85-4.94-11.4-6.64-17.36"/><path fill="#a4a4a4" d="M867.79 344.18c4.45 7.76 7.17 16.16 9.35 24.79 1.95 6.94.35 13.98 2.57 20.93l2.32-.69c-1.89 2.91-3.3 5.84-4.17 9.22 2.53-1.47 4.47-3.07 6.04-5.57-1.63 4.9-3.14 9.7-5.8 14.17a84 84 0 0 1-2.95-4.06c.86.71 1.75 1.39 2.63 2.07-1.42-5.49-3.06-10.91-4.46-16.4-1.91-7.56-4.82-14.79-6.7-22.36-1.05-4.36-3.37-8.72-3.69-13.18.87-3.23 2.94-6.22 4.86-8.92"/><path fill="#f3f3f3" d="M207.7 349.97c-.3 1.08-.58 2.17-.85 3.27-3.92-1.63-7.67-3.2-10.62-6.38 4.56-.7 7.76.63 11.47 3.11"/><path fill="#0e0e0e" d="M718.81 354.12c.78 2.81 1.45 5.66 2.12 8.51-1.32 1.59-2.44 3.25-2.84 5.33-1.05 4.67-1.86 9.38-2.99 14.03-2.21 8.44-2.26 17.11-4.55 25.5-2.26 8.38-4.22 16.83-5.91 25.34-.97 5.16-3.32 9.62-5.08 14.5-2.73 8.02-6.05 15.84-9.43 23.61-.86 2.2-1.88 4.57-1.48 6.97.63 4.2 2.26 7.72 1.01 12.05-2.3-4.06-4.36-8.18-4.29-12.97 0-3.18 1.3-6.21 2.54-9.09 4.73-10.55 8.09-21.56 12.48-32.25 2.33-9.18 3.8-18.57 6.54-27.67 2.64-8.27 2.56-16.79 4.58-25.16.85-3.76 2.14-7.37 3.18-11.08 1.69-5.93 1.73-11.84 4.12-17.62"/><path fill="#151515" d="M934.25 353.4c.69 8.56-.33 17.03.74 25.59.48 3.53.21 6.64-.62 10.09-5.54-9.67-3.36-19.61-2.7-30.12.23-2.62.45-3.89 2.58-5.56"/><path fill="#010101" d="M0 361.22c9.43 1.7 19.18 2.2 28.74 3.32-.13.96-.28 1.92-.47 2.89-9.69.97-18.86-.82-28.27-2.87z"/><path fill="#bcbcbc" d="M217.26 361.86c5.9 1.26 11.41 5.05 16.33 8.41-6.66.33-13.06-4.74-18.92-7.61.86-.28 1.72-.54 2.59-.8"/><path fill="#080808" d="M53.82 363.48c7.48 0 14.12 2.32 21.12 4.59 15.99 5.33 32.14 7.76 47.99 14.05 2.65 1.01 4.69 2.8 6.63 4.83-6.99-.35-12.37-3.71-18.92-5.63-9.66-3.07-19.54-5.21-29.33-7.77-6.34-1.59-12.06-4.63-18.29-6.51-3.15-.97-6.27-2.02-9.2-3.56"/><path fill="#a1a1a1" d="M757.61 364.28c2.11.52 3.44 3.45 2.23 5.33-2.59 4.34-6.56 7.67-9.02 12.16-1.86.77-4.66 1.36-5.93 3.01-1.19 2.87-1.11 6.4-1.17 9.46-.17-3.27-.99-7.29.22-10.39.91-2.4 3.53-3.1 5.61-4.16 1.3-5.75 4.7-10.01 7.59-14.97-2.67 1.72-5.19 3.65-7.67 5.62-.13-.94-.26-1.88-.38-2.82 2.71-1.16 5.57-2.87 8.52-3.24"/><path fill="#474747" d="m237.86 376.03 1.95.02c2.1 3.28 2 5.45.5 8.93-1.38-2.88-2.55-5.68-2.45-8.95"/><path fill="#070707" d="M67.35 377.22c3.83-1.3 8.58-.54 12.5.07 10.65 1.91 21.18 4.34 31.66 7.01 6.94 1.7 13.47 2.7 19.72 6.47 3.04 1.89 7.06 4.2 8.67 7.52 1.02 2.44-1.76 4.84-3.53 6.09-9.08 6.02-18.82 6.41-29.37 6.27-9.36.3-18.25-1.17-26.95-4.64-4.46-1.82-9.43-3.73-11.71-8.31-2.27-4.77-3.76-10.42-3.6-15.71.29-1.81.39-4.37 2.61-4.77"/><path fill="#a2a2a2" d="M68.02 380.31c4.59-.8 9.45-.12 14 .72 8.46 1.69 16.89 3.44 25.25 5.57 6.45 1.66 13.56 2.81 19.63 5.53 3.78 1.65 6.81 4.19 9.86 6.91-6.4 4.91-13.71 7.13-21.73 7.41-9.89.22-19.67.68-29.16-2.35-4.07-1.34-8.29-2.79-11.93-5.08-2.67-1.71-3.77-4.37-4.77-7.25-1.17-3.7-2.09-7.61-1.15-11.46"/><path fill="#b7b7b7" d="M750.82 381.77c-.92 3.89-1.51 7.87-2.32 11.79-1.03 5.23-2.47 10.02-2.44 15.42.02 4.47.2 8.91-.18 13.36-.46 5.87.04 11.73-.3 17.59-.25 4.56-1.44 8.83-2.6 13.22.76-5.69 1.57-11.39 2.13-17.11.45-4.25-.5-8.18-1.45-12.27-.14-1.21-.27-2.43-.41-3.65.76.17 1.51.33 2.27.49-.34-8.79-1.16-17.6-1.8-26.37.06-3.06-.02-6.59 1.17-9.46 1.27-1.65 4.07-2.24 5.93-3.01"/><path fill="#202020" d="M209.51 391.06c-1.01 1.35-1.94 3.05-3.31 4.07-2.66 1.39-5.94 1.82-8.9 1.43-1.85-.29-4.23-1.35-4.23-3.53-.26-2.14 3.1-2.67 4.48-3.7a236 236 0 0 1-.97 4.45c3.78.29 6.15.08 9.61-1.46-1.85-1.01-3.77-1.88-5.65-2.85 3.46-.22 5.82.11 8.97 1.59"/><path fill="#a2a2a2" d="M268.97 392.96c2.46 6.05 4.48 12.24 6.39 18.49 1.92 6.23 2.32 13.07 2.38 19.56.07 7.14-1.29 14.78-4.77 21.07-2.45 4.4-6.91 6.02-10 9.84-1.75 2.17-3.15 4.74-4.65 7.1-.26-1.04-.53-2.08-.79-3.12-5.55 4.82-10.33 9.63-17.46 12.15-4.86 1.9-9.51.96-14.55.74 1.87 1.4 3.73 2.98 6.05 3.57 2.76.64 5.75.57 8.56.43-.31 3.33-.6 5.84-3.33 8.05-1.47.45-2.95.84-4.45 1.15-15.14.04-30.2 1.54-45.35 1.28-9.93-.13-19.9.23-29.81-.31-2.8-.39-6.28-.82-8.57-2.58-2.68-2.51-2.54-8.1.76-10.06 2.25-1.18 5.39-.92 7.86-.85 5.92.43 11.82.69 17.76.63 6.8-.07 13.49.54 20.08-1.13 3.3-.8 6.25-2.03 9.68-2.33 3.77-.33 7.57-.26 11.35-.51-.66-.74-1.33-1.47-2.02-2.19 6.02 2.26 12.21 2.72 17.75-1.05 2.42-1.37 2.83-3.52 3.7-5.94-4.65 1.17-8.98 3.92-13.7 4.6-5.58-.03-10.19-3.04-13.48-7.39 16.14-1.72 32.55-3.27 48.51-6.34 4.08-.81 8.52-1.09 12.4-2.62 2.43-1.87 3.78-5.37 4.92-8.13 4.08-10.21 3.24-21.91 1.21-32.49-2.21-7.27-5.41-13.98-6.43-21.62"/><path fill="#a1a1a1" d="M569.79 394.37c5.6 2.18 4.86 9.54 2.29 13.75-2.06 3.08-5.23 2.76-8.45 2.21-5.98-1.27-11.87-3.02-17.78-4.57.92-.97 1.79-1.98 2.67-2.99 1.61.1 3.23.2 4.85.31-2.66-2.39-5.37-4.7-7.96-7.16 1.23-.49 2.45-.98 3.7-1.41 6.47-.92 14.46-2.55 20.68-.14"/><path fill="#bdbdbd" d="M409.44 393.73c1.55 5.85 1.12 11.6 1.1 17.57-.53-3.31-1.42-6.52-2.14-9.79-.11-2.66.35-5.23 1.04-7.78"/><path fill="#222" d="M573.21 403.41c-.54.9-1.07 1.8-1.61 2.71-2.25-.39-4.5-.79-6.75-1.18 1.74-.59 3.49-1.17 5.23-1.77-5.81-1.92-11.82-3.02-17.55-5.13 7.13-1.33 15.24.41 20.68 5.37"/><path fill="#0c0c0c" d="M52.65 401.35c5.31 3.85 8.6 10.96 11.04 16.89 4.64 11.69 7.54 23.89 9.72 36.25.82 5.15-.7 9.73-2.7 14.39-2.6 5.46-6 10.31-11.96 12.37 3.06-6.82 9.35-9.74 11.75-16.8 1.42-3.91.46-7.63-.37-11.54-2.17-9.11-3.97-18.92-7.38-27.65-1.35-3.8-5.45-6.2-8.65-8.36-1.88-.97-4.39-3.05-6.41-1.33-4.38 3.15-6.61 9.5-7.57 14.61-2.06 12.52 2.07 24.43 6.91 35.78.87 1.83 1.92 4.21 3.68 5.33 3.01 1.43 7.06 1.49 8.83-1.85 2.55-4.84 2.05-10.42 5.37-15.08 1.67 6.58.55 13.55-3.56 18.99-2.18 3.02-6.83 2.65-10.06 2.15-3.78-.66-5.7-4.41-7.19-7.56-3.53-8.37-6.52-16.76-7.26-25.89-.89-8.53.54-17.63 5.35-24.87 1.73-2.55 4.45-5.39 7.78-5.28 3.32.7 6.4 3.27 9.24 5.06-2.11-5.11-4.03-10.16-8.75-13.45-3.34-2.36-8.12-3.49-11.52-.61-3.46 3-5.3 8.18-6.73 12.42-3.47 10.14-2.72 20.91-2.78 31.73-.03 6.4 3.53 10.77 6.21 16.28 3.08 6.29 7.06 12.07 12.11 16.94 3.66 3.52 8.22 5.14 12.74 7.86-2.41.35-4.82.67-7.25.74-5.75-3-10.34-8.71-14.24-13.78-1.75-2.66-3.11-5.48-4.48-8.34-.98-1.63-1.86-4.74-3.91-5.22-9.92-2.69-20.71-1.11-30.61-3.25v-.89c.94-.04 1.88-.07 2.81-.11 9.5.16 18.83.74 28.28 1.65-1.86-4.29-3.86-8.09-4.26-12.86-.51-5.98.03-12.13.43-18.11.48-8.88 3.31-18 8.42-25.3 3.88-5.43 12.02-4.86 16.97-1.31"/><path fill="#040404" d="M228.97 400.99c5.3.47 11.15-.45 15.86 2.19 4.31 2.27 8.28 5.24 12.31 7.96-2.84 5.2-5.69 10.37-8.41 15.64-1.42 2.83-3.62 4.9-5.85 7.07-2.49 2.22-2.83 5.88-4.39 8.82-3.37 1.64-7.84 1.42-11.53 1.7-11.65.58-23.3 1.23-34.96 1.77-6.44.17-12.78.01-19.15 1.17-.46-3.01-.91-6.03-1.34-9.05-3.69-.43-7.65-.55-11.19-1.69-3.24-1.07-5.66-4.62-7.7-7.2-4.07-5.71-8.82-10-11.47-16.64 6.36 3.97 10.26 9.5 14.88 15.21 2.33 2.83 4.34 5.45 8.29 5.82 5.96 1.32 8.66-3.67 14.61-3.68 14.34-.89 28.72-1.41 43.07-2.33 4-.19 8.08-.56 12.08-.25 2.71.16 5.25 2.12 7.52 3.49 4.32-5.84 7.06-12.43 10.87-18.59-4.94-2.92-9.54-7.16-15.43-7.62-4.96-.48-10-1.07-15-.88-10.01.48-20.02.89-30.04 1.32-7.96.32-16.29-.55-24.15.75-6.48 1.01-10.79 5.62-17.07 6.83-2.4.47-4.73.49-7.17.53 4.84-2.48 9.95-4.34 14.72-6.96 4.16-2.28 8.23-3.47 12.96-3.89 12.11-1.06 24.31-.67 36.44-1.8 7.1-.68 14.14-.24 21.24.31"/><path fill="#1c1c1c" d="M408.4 401.51c.72 3.27 1.61 6.48 2.14 9.79 1.07 7.58 1.99 15.03 2.17 22.7 1.48 13.5 2.79 27.01 4.36 40.5.76 8.66 1.65 17.3 3.2 25.86.82 4.55 1.24 9.04 1.37 13.66-6.52-18.07-6.86-35.39-9.05-54.12-.66-9.97-2.19-19.92-2.2-29.9-.09-9.57-2.29-18.88-1.99-28.49"/><path fill="#060606" d="M743.66 423.77c.95 4.09 1.9 8.02 1.45 12.27-.56 5.72-1.37 11.42-2.13 17.11-1.36 5.75-2.98 11.46-4.64 17.13-1.05 3.71-3.05 6.83-4.88 10.16-2.24 3.86-1.81 8.62-2.42 13.01-1.53-3.74-2.18-7.62-2.61-11.61-2.23 1.65-4.81 3.26-6.58 5.41-1.16 4.44 2.63 6.84 4.92 9.98 2.17 2.57 2.6 5.5 3.31 8.67-2.31-3.68-4.73-7.09-7.76-10.21-2.93-3.06-3.82-6.92-7.72-8.45-7.07-3.09-14.97-2.48-22.08-5.79 1.74-.34 3.47-.73 5.23-.97 4.18.16 8.4.53 12.49 1.39 3.58.78 6.12 2.84 8.96 4.98 1.37-1.69 2.73-3.38 4.25-4.95 3.68-3.09 7.66-4.92 10.95-8.49 2.57-8.65 4.71-17.53 6.54-26.37 1.67-7.72 1.89-15.43 2.72-23.27"/><path fill="#090909" d="M608.83 424.87c-3.8 3.97-8.17 7.21-12.71 10.26-4.96 3.32-9.61 7.14-14.69 10.24-8.87 5.14-17.67 10.39-26.55 15.51-8.12 5.48-16.98 10.47-23.96 17.17 1.23 7.48 2.61 14.89 4.42 22.26 2.6 12.57 5.34 25.11 7.77 37.71 2.7 11.42 5.38 22.86 8.63 34.13 1.54 5.35 3.98 10.31 5.41 15.69 1.54 5.71 2.63 11.54 3.16 17.43-2.58-4.36-3.88-9.01-4.89-13.93-1.18-5.6-3.89-10.43-5.76-15.76-3.61-11.5-6.1-23.2-8.88-34.91-1.64-9.07-3.44-18.04-5.52-27.02-1.83-9.94-4.63-19.63-6.05-29.65-3.39-14.65-4.73-29.6-7.83-44.29-.63-3.39-.5-6.78-.16-10.19 3.68 14.64 6.01 29.82 8.46 44.72 4.37-2.77 8.41-5.97 12.7-8.84 12.35-8.63 26.01-15.42 39.03-22.99 4.07-2.55 7.97-5.37 12.02-7.95 5.18-3.27 9.76-7.06 15.4-9.59"/><path fill="#a2a2a2" d="M237.35 431.05c-.16 2.89-.35 5.77-.56 8.65-7.56.9-15.2 1.05-22.8 1.58-12.95.59-25.8 2-38.67 3.46-.55-3.82-.92-7.65-1.2-11.49 9.31-.02 18.58-.71 27.87-.91 11.81-.2 23.54-1.45 35.36-1.29"/><path fill="#1c1c1c" d="M0 452.13c7.93 1.72 15.61 1.32 23.67 1.33l.18 2.51c-5.16.29-10.33.35-15.5.34-2.81-.52-5.59-1.16-8.35-1.89z"/><path fill="#bababa" d="M0 454.42c2.76.73 5.54 1.37 8.35 1.89-1.85.29-3.69.67-5.54.97-.93.04-1.87.07-2.81.11z"/><path fill="#fefefe" d="M0 458.28c9.9 2.14 20.69.56 30.61 3.25 2.05.48 2.93 3.59 3.91 5.22-.22.95-.43 1.91-.65 2.86-11.25-2.49-22.46-1.99-33.87-2.42z"/><path fill="#fff" d="M190 464.77c5.59.38 13.24-1.72 17.32 2.93.68.99 1.37 1.98 2.09 2.94 1.16 1.63 2.28 3.28 3.38 4.95-4.79.49-7.68-2.15-11.87-3.7-2.88-.24-5.94.6-8.78 1.09-7.41 1.56-15.51 1.14-23.15 1.18-4.38.05-8.49-.93-12.59-2.34-4.48-1.58-9-1.59-13.68-1.8-14.46-1.6-29.21-1.52-43.74-1.33-3.25.03-6.36-.62-9.52-1.27 4.85-.6 9.65-.87 14.54-.64 15.01.51 29.99-.1 44.99 0 13.76.29 27.22-2.62 41.01-2.01"/><path fill="#030303" d="M257.53 465.9c.26 1.04.53 2.08.79 3.12-2 3.12-4.05 6-7.2 8.07-3.45 2.26-7.23 4.04-10.99 5.7-2.81.14-5.8.21-8.56-.43-2.32-.59-4.18-2.17-6.05-3.57 5.04.22 9.69 1.16 14.55-.74 7.13-2.52 11.91-7.33 17.46-12.15"/><path fill="#bfbfbf" d="M0 467.19c11.41.43 22.62-.07 33.87 2.42.22-.95.43-1.91.65-2.86 1.37 2.86 2.73 5.68 4.48 8.34-1.85 2.52-3.4 5.21-4.9 7.94 3.8 1.01 7.57 2.08 11.27 3.42-1.66 1.15-3.53 2.84-5.59 3.06-3.89.49-7.93.17-11.85.1-9.01-.38-17.86-.3-26.81-1.6.05-1 .1-2 .14-3 5.15-.93 10.33-1.34 15.55-1.6-5.58-.55-11.27-.65-16.81-1.53z"/><path fill="#bababa" d="M88.62 467.49c.25 1.05.49 2.11.74 3.16 10.53 1.71 21.11 1.04 31.67 2.3 7.22.85 14.51 1.31 21.69 2.44 6.92 1.07 13.33 3.12 20.34 3.71 5.56.45 11.33.23 16.94.27 4.98.01 10.16.2 15.08-.4-6.59 1.67-13.28 1.06-20.08 1.13-5.94.06-11.84-.2-17.76-.63-2.47-.07-5.61-.33-7.86.85-3.3 1.96-3.44 7.55-.76 10.06 2.29 1.76 5.77 2.19 8.57 2.58-15.7-.98-31.46-2.01-47.19-1.94-12.21.2-24.33.57-36.52-.32-.56 2.1-1 4.26-1.45 6.38-1.58 1.04-3.19 2.06-4.86 2.94-3.38-3.88-6.58-7.58-11.24-9.98 5.74-.59 11.58-.96 17.26-2 3.25-.59 5.4-2.67 7.49-5.06 2.21-2.65 3.13-5.62 4.4-8.76 1.03-2.33 2.24-4.55 3.54-6.73"/><path fill="#c7c7c7" d="m88.62 467.49.84-.07c3.16.65 6.27 1.3 9.52 1.27 14.53-.19 29.28-.27 43.74 1.33 3.99.64 8.05 1.23 11.92 2.41 3.63 1.08 5.91 4.02 8.42 6.67-7.01-.59-13.42-2.64-20.34-3.71-7.18-1.13-14.47-1.59-21.69-2.44-10.56-1.26-21.14-.59-31.67-2.3-.25-1.05-.49-2.11-.74-3.16"/><path fill="#d7d7d7" d="M142.72 470.02c4.68.21 9.2.22 13.68 1.8 4.1 1.41 8.21 2.39 12.59 2.34 7.64-.04 15.74.38 23.15-1.18 2.84-.49 5.9-1.33 8.78-1.09 4.19 1.55 7.08 4.19 11.87 3.7-1.1-1.67-2.22-3.32-3.38-4.95 1.52 1.15 3.12 2.21 4.68 3.3.69.72 1.36 1.45 2.02 2.19-3.78.25-7.58.18-11.35.51-3.43.3-6.38 1.53-9.68 2.33-4.92.6-10.1.41-15.08.4-5.61-.04-11.38.18-16.94-.27-2.51-2.65-4.79-5.59-8.42-6.67-3.87-1.18-7.93-1.77-11.92-2.41"/><path fill="#d4d4d4" d="m697.18 471.67.86.4c1.84 4.15 5.28 5.7 9.2 7.48-3.2.12-6.32.5-9.49.93-1.76.24-3.49.63-5.23.97l-.94-.08c.33-1.86.54-3.81 1.14-5.61 1-1.71 2.85-2.98 4.46-4.09"/><path fill="#ccc" d="M725.55 471.18c1.52 1.5 2.77 3.33 4.06 5.03 1.6-.93 3.19-1.87 4.79-2.8-3.29 3.57-7.27 5.4-10.95 8.49-2.1-2.39-4.02-4.5-7.31-5.1-3.12-.51-6.26-.85-9.37-1.45 3.31.09 6.49-.04 9.66-1.13 2.93-.95 6.04-2.76 9.12-3.04"/><path fill="#0b0b0b" d="M698.04 472.07c2.76 1.25 5.74 2.68 8.73 3.28 3.11.6 6.25.94 9.37 1.45.71.96 1.43 1.92 2.14 2.88-3.68.07-7.36.04-11.04-.13-3.92-1.78-7.36-3.33-9.2-7.48"/><path fill="#454545" d="M85.08 474.22c-1.27 3.14-2.19 6.11-4.4 8.76l-1.71-.4c1.19-3.73 2.1-6.89 6.11-8.36"/><path fill="#cacaca" d="M39 475.09c3.9 5.07 8.49 10.78 14.24 13.78.89.4 1.78.79 2.69 1.17 4.66 2.4 7.86 6.1 11.24 9.98-22.13-2.88-44.31-1.73-66.4-3.45L0 496.3v-14.42c5.54.88 11.23.98 16.81 1.53-5.22.26-10.4.67-15.55 1.6-.04 1-.09 2-.14 3 8.95 1.3 17.8 1.22 26.81 1.6 3.92.07 7.96.39 11.85-.1 2.06-.22 3.93-1.91 5.59-3.06-3.7-1.34-7.47-2.41-11.27-3.42 1.5-2.73 3.05-5.42 4.9-7.94"/><path fill="#9d9d9d" d="M716.14 476.8c3.29.6 5.21 2.71 7.31 5.1-1.52 1.57-2.88 3.26-4.25 4.95-2.84-2.14-5.38-4.2-8.96-4.98-4.09-.86-8.31-1.23-12.49-1.39 3.17-.43 6.29-.81 9.49-.93 3.68.17 7.36.2 11.04.13-.71-.96-1.43-1.92-2.14-2.88"/><path fill="#121212" d="M77.62 485.81c-2.87.9-5.79 1.9-8.84 1.82-2.7-.07-5.48-1.2-8.01-2.09 5.98-1.4 11.29-3.51 16.85.27"/><path fill="#cbcbcb" d="M73.48 490.7c12.19.89 24.31.52 36.52.32 15.73-.07 31.49.96 47.19 1.94 9.91.54 19.88.18 29.81.31 15.15.26 30.21-1.24 45.35-1.28-.99 1.67-1.94 3.63-3.37 4.98-2.71 1.29-6.49.65-9.42.48-11.98-1.41-23.56-.62-35.56-.67-16.63-.24-33.3.79-50 .04-9.66-.7-19.02-1.24-28.73-.37-4.76.42-9.54 1.61-14.3 1.68-4.24.13-7.79-2.88-11.8-3.76-2.63-.54-5.02 1.44-7.14 2.71.45-2.12.89-4.28 1.45-6.38"/><path fill="#d7d7d7" d="M236.8 490.84c-3.13 2.67-6.37 7.79-10.78 7.82-17.51 1.83-35.4-1.56-53-.01-16.31 1.35-32.64 2.18-48.98 2.96-14.35.31-28.69.17-43.04.53-7.06.25-13.95-.93-20.97-1.25-12.52-.35-25.53.56-37.97-.85-7.37-.86-14.28-.6-21.29-3.47 22.09 1.72 44.27.57 66.4 3.45 1.67-.88 3.28-1.9 4.86-2.94 2.12-1.27 4.51-3.25 7.14-2.71 4.01.88 7.56 3.89 11.8 3.76 4.76-.07 9.54-1.26 14.3-1.68 9.71-.87 19.07-.33 28.73.37 16.7.75 33.37-.28 50-.04 12 .05 23.58-.74 35.56.67 2.93.17 6.71.81 9.42-.48 1.43-1.35 2.38-3.31 3.37-4.98 1.5-.31 2.98-.7 4.45-1.15"/><path fill="#0f0f0f" d="M693.08 493.23c.71 1.92 1.42 3.74 1.58 5.81.53 8-.87 15.52-2.21 23.34-.62 2.34 1.9 4.31 3.23 5.94 4.36 4.39 8 9.31 11.53 14.38 9.45-3.41 18.36-7.58 28.38-9.21.66-1.97 1.26-3.96 1.83-5.95.11 1.83.32 3.66.45 5.49-.33 1.31-.96 1.95-2.13 2.57-2.76 1.4-5.86 2.17-8.79 3.15-7.01 2.12-13.87 4.65-20.76 7.15-4.31-5.1-8.07-10.57-12.6-15.48-1.48-1.74-3.26-3.59-4.11-5.73.05-4.05 1.6-8.08 2.05-12.12 1.18-6.43.78-12.9 1.55-19.34"/><path fill="#2a2a2a" d="M701.23 501.32c4.3 2.15 9.25 5.21 11.97 9.24.5 5.64.09 11.28 1.1 16.93-1.17-1.67-2.91-3.45-2.97-5.57-.34-4.66.48-8.75-2.05-13-2.11.74-4.23 1.48-6.36 2.19-.13 3.81-.19 7.61-.53 11.41-1.71-1.47-3.5-2.27-3.82-4.75-.82-5.52-.51-11.66 2.66-16.45"/><path fill="#404040" d="M722.92 503.55c3.22 3.28 7.22 3.56 11.12 5.45 6.79 6.59 6.34 15.57 3.83 24.03-.13-1.83-.34-3.66-.45-5.49.29-2.97 1.19-6.36.5-9.29-1.07-2.96-3.2-5.76-5.56-7.82-1.29-1.14-4.32-1.29-5.29.32-3.44 4.98-5.36 10.82-8.95 15.77.15-1.9.24-3.9.71-5.75.87-3.17 3.42-5.96 4.51-8.99.53-2.63-.15-5.59-.42-8.23"/><path fill="#262626" d="M373.43 504.71c.38 7.9 2.24 15.3 1.97 23.29-.25 9.33-.21 18.67.01 28 .1 3.88-.03 7.75-.64 11.6-.81-2.45-1.41-4.92-1.47-7.52-.15-5.77-.7-11.33-.31-17.08.22-3.59.32-7.18.06-10.78-.5-5.98-.78-11.95-.68-17.96.26-3.19.74-6.37 1.06-9.55"/><path fill="#b1b1b1" d="M702.76 504.74c1.09.88 2.16 1.79 3.22 2.71-1.84.31-3.68.55-5.51.84.73-1.2 1.46-2.41 2.29-3.55"/><path fill="#020202" d="M699.24 508.83c1.23-.13 2.43-.16 3.67-.2-.57 4.22-1.03 8.46-1.62 12.68-1.87-3.99-2.96-8.06-2.05-12.48"/><path fill="#a2a2a2" d="M785.33 509.71v.9c-1.3 12.17 3.44 24.79 6.72 36.43 2.41 6.85 4.75 13.57 6.51 20.63 4.6 13.13 8.66 27.57 8.64 41.57-.38-2.88-.87-5.75-1.28-8.63-.77-.05-1.54-.11-2.3-.16-.09-.92-.18-1.84-.29-2.75-5.22 5.02-6.06 13.73-8.98 20.4-1.65-6.61-2.95-13.24-3.38-20.05-.67-9.81-2.91-19.24-4.16-28.98-1.77-13.97-4.4-27.84-6.9-41.71-.78-4.74-2.66-9.92-2.18-14.73.64-3.76 4.86-2.49 7.6-2.92"/><path fill="#040404" d="M747.48 509.83c2.14 5.48 1.12 12.31 1.15 18.17.05 7.85-1.56 15.36-2.51 23.1-2.54 18.92-7.68 36.98-11.54 55.59-1.37 6.21-4.2 11.77-5.99 17.81-1.68 5.44-1.05 11.79-1.14 17.5-.3 10.44 2.6 20.24 3.32 30.68 2.16 13.48 4.56 26.9 6.17 40.46.94 9.1 3.98 17.71 4.7 26.84 2.35 16.7 3.96 32.77 8.32 49.08 1.5 5.3 1.84 10.52 1.35 15.99-.82-.32-1.65-.64-2.47-.96-1.98-13.54-6.45-26.48-8-40.15-.97-9.85-2.31-19.66-3.68-29.47-1.32-7.18-3.55-14.07-4.15-21.4-1.56-13.79-4.09-27.42-6.13-41.13-.67-10.2-3.54-19.75-3.32-29.94.01-5.1-.18-9.94.79-14.96.84-4.74 2.68-8.81 4.27-13.31 2.47-6.77 3.29-14.01 5.1-21.13 3.12-12.83 6.1-25.46 8.09-38.63.85-7.36 2.45-14.58 3.01-21.96.76-7.58.46-14.77 2.66-22.18"/><path fill="#060606" d="M785.33 510.61c3.14 7.51 4.27 15.51 7.08 23.11 2.43 6.67 4.23 13.54 6.55 20.25 1.71 4.97 2.44 10.15 4.06 15.14 3.92 11.52 6.52 23.59 7.31 35.74.63 15.38 3.29 30.61 4.3 45.96.97 12.04 2.01 23.47 5.66 35.06 1.15 3.84 4.05 5.49 6.73 8.14 3.08 2.9 4.82 6.35 8.13 8.71 3.01 2.11 6.32 3.54 9.16 5.95 4.67 4.03 8.97 8.46 12.52 13.52 2.46 3.54 5.6 6.33 8.56 9.42 4.49 4.74 6.2 10.7 10.72 15.26 3.19 3.19 6.91 5.67 9.91 9.1 3.68 4.07 5.86 8.68 8.87 13.16 3 4.45 6.85 7.51 10.42 11.59 8.78 10.12 16.49 21.74 26.06 30.91 3 2.88 5.73 5.94 7.79 9.58-2.48-1.22-4.87-2.55-6.97-4.38-10.03-8.82-17.54-18.92-25.63-29.41-3.31-4.37-7.37-7.92-11.13-11.86-4.83-5.05-6.91-11.37-11.48-16.53-3.52-4.01-7.93-6.52-11.53-10.46-4.16-4.52-5.9-10.22-10.35-14.63-2.87-2.85-5.74-5.63-8.05-8.98-3.52-5.05-7.66-9.63-12.3-13.69-3.17-2.74-6.57-4.47-9.49-7.48-2.47-2.56-4.5-5.42-7.19-7.8-2.74-2.56-5.71-4.26-7.09-7.94-4.41-12.38-5.84-25.02-6.57-38.06-1.15-13.59-3.7-27.11-4.18-40.75.02-14-4.04-28.44-8.64-41.57-1.76-7.06-4.1-13.78-6.51-20.63-3.28-11.64-8.02-24.26-6.72-36.43"/><path fill="#a3a3a3" d="M880.91 529.94c1.58 2.24 2.45 5.05 3.51 7.56-1.96 3.04-4.24 5.93-6.49 8.76-.95-5.43-1.67-10.84-3.3-16.14-1.34 6.44.06 12.32.58 18.73.41 4.47.35 8.95.72 13.43-1.6-10.67-2.59-21.55-2.83-32.33 2.29-.2 5.79-1.4 7.81-.01"/><path fill="#050505" d="M420.35 567.23c2-.01 2.28 1.98 2.93 3.47 1.57 5.24 1.87 10.95 2.81 16.33 1.18 7.75 3.61 15.12 4.64 22.89-.21 1.5-.46 2.99-.73 4.48-.59-.86-1.16-1.73-1.72-2.61-1.4-4.83-1.96-9.87-3.27-14.73-1.83-6.9-2.11-14-3.73-20.93-4.46 11.25-9.15 22.06-10.76 34.18-3.85-.56-7.56-.77-10.9-2.96-3.55-2.33-6.68-5.3-10.08-7.85-6.05-4.5-10.55-10.08-17.31-13.69l.27-1.9c5.93 1.6 10.06 4.99 14.54 8.96 7.11 5.46 13.54 11.94 21.58 15.32.9-6.28 1.88-12.45 4.26-18.38 2.07-5.19 3.9-10.39 5.1-15.86.67-2.26 1.31-4.61 2.37-6.72"/><path fill="#b6b6b6" d="M417.98 573.95c-1.2 5.47-3.03 10.67-5.1 15.86-2.38 5.93-3.36 12.1-4.26 18.38-8.04-3.38-14.47-9.86-21.58-15.32 3.16.85 6.14 1.35 8.99 3.08 3.3 1.99 6.44 4.22 9.76 6.17 1.77-4.81 3.02-9.77 4.58-14.64 1.7-5.22 5.02-8.81 7.61-13.53"/><path fill="#252525" d="M373.73 576.72c-.39 2.4-.86 4.79-1.23 7.19l-.27 1.9-.6-.29c-2.04-.91-4.16-1.56-6.28-2.26 2.81-2.17 5.55-4.41 8.38-6.54"/><path fill="#b7b7b7" d="M421.28 576.13c1.62 6.93 1.9 14.03 3.73 20.93 1.31 4.86 1.87 9.9 3.27 14.73 1.27 3.95 2.93 7.78 4.62 11.57.78 1.49 1.33 3.08 2.99 3.78 3.46 1.58 7.4 2.26 11.09 3.15-7.93-1.03-15.31-2.02-22.54-5.76-3.33-1.82-5.73-4.61-8.3-7.33-2.12 1.33-4.62 3.65-7.15 3.83-6.67-.72-13.2-4.22-18.24-8.58-.01 7.14-.29 14.17.62 21.29.71 5.37 1.21 10.76 1.8 16.14-1.51-6.91-2.81-13.74-2.88-20.84-.03-6.94-.11-14.18-.95-21.1-.13-1.81-1.33-3-1.81-4.69-.46 2.83-.88 5.7-1.02 8.57-4.76-2.38-9.26-4.4-13.14-8.17-4.67-4.11-5.54-10.27-8.92-15.91.44 3.41 1 6.82 1.76 10.19-1.73-4.07-2.9-8-2.98-12.47 1.65 1.44 3.27 2.91 4.88 4.39 1.18-1.44 2.35-2.89 3.52-4.33l.6.29c6.76 3.61 11.26 9.19 17.31 13.69 3.4 2.55 6.53 5.52 10.08 7.85 3.34 2.19 7.05 2.4 10.9 2.96 1.61-12.12 6.3-22.93 10.76-34.18"/><path fill="#0c0c0c" d="M335.26 579.1c4.38.49 8.29 1.51 12.75 1.06 4.25-.48 8.46-.84 12.75-.84-.03.71-.06 1.43-.08 2.14-6.52 1.07-12.97 2.12-19.59 2.03 1.31 5.78 2.72 11.47 3.23 17.4.59 7.14 1.79 14.23 3.71 21.14 2.69 9.3 6.91 18.16 10.95 27 3.54 7.82 9.44 13.51 11.84 21.94-7.58-7.91-13.44-17.2-17.58-27.32-6.73-13.5-11.49-27.43-11.73-42.67-.59-7.78-1-15.69-6.25-21.88"/><path fill="#060606" d="M364.45 587.74c3.38 5.64 4.25 11.8 8.92 15.91 3.88 3.77 8.38 5.79 13.14 8.17.14-2.87.56-5.74 1.02-8.57.48 1.69 1.68 2.88 1.81 4.69.84 6.92.92 14.16.95 21.1.07 7.1 1.37 13.93 2.88 20.84.94 4.35 2.24 8.8 4.39 12.72 3.82 3.96 8.43 7.05 12.15 11.17-1.56.66-3.13 1.31-4.7 1.96.3 4.59.94 9.11 2.26 13.52 3.81 13.25 5.86 27 9.16 40.38 1.46 5.72 3.52 11.16 4.61 16.99 1.02 5.33 1.74 10.61 3.56 15.75 3.43 9.4 5.32 19.18 8.26 28.74 2.71 10.23 4.92 20.41 8.71 30.33 1.81 4.7 3.5 9.04 2.58 14.18-4.54-8.79-8.38-18.03-10.98-27.58-1.72-6.17-2.7-12.42-4.77-18.5-2.83-8.27-4.85-16.78-7.68-25.05-2.88-8.34-3.16-17.11-5.91-25.49-4.7-14.1-6.26-29.57-9.87-43.9-1.67-6.63-2.58-13.33-3.21-20.13.09-4.43-4.93-6.98-7.63-10.02-5.78-13.84-6.64-28.39-6.95-43.18-1.9 2.04-3.77 4.11-5.62 6.19 1.85 5.21 3.37 10.45 3.74 16.01.45 7 1.25 13.91 1.1 20.94-.61-.54-1.22-1.08-1.83-1.63-.11-3.53-.36-7.04-.83-10.54-.68-4.67-1.43-9.34-2.42-13.97-1.73-7.75-5.45-15.47-8.35-22.87-2.51-5.89-4.67-11.91-6.73-17.97-.76-3.37-1.32-6.78-1.76-10.19"/><path fill="#070707" d="M803.33 597.7c.11.91.2 1.83.29 2.75-1.56 5.64-3.6 11.17-5.44 16.72-2.8 8.51-7.46 16.42-10.16 24.91-2.22 6.56-5.12 12.91-7.85 19.26-1.3-4.7.73-8.23 2.2-12.55 1.87-5.07 3-10.36 5.16-15.27 2.27-5.14 4.73-10.21 6.82-15.42 2.92-6.67 3.76-15.38 8.98-20.4"/><path fill="#fdfdfd" d="M373 607.49c3.71 2.3 7.34 4.71 11.07 6.96-.43 3.76-1.3 6.71-3.14 10.04-3.34-5.18-5.47-11.31-7.93-17"/><path fill="#070707" d="M1027.96 607.61c32.12 44.4 63.88 89.04 95.86 133.55 18.99 26.41 38.17 53.53 57.13 79.85 1.87 2.77 1.56 5.7 1.87 8.89-28.77-40.47-57.57-80.9-86.26-121.44-23.68-33.18-47.27-66.41-70.72-99.76.7-.38 1.4-.75 2.12-1.09"/><path fill="#a2a2a2" d="M430.73 609.92c1.14 2.21 1.95 4.13 4.62 4.74 6.07 1.65 12.46 1.98 18.61 3.4-7.75-.79-15.61-1.43-23.4-1.14 4.16 1.63 8.5 2.21 12.93 2.58 6.22.53 12.28 2.02 18.47 2.63 5.06.51 10.01-.02 15.05.22 3.72.17 7.31 1.07 11.02 1.23 4.76.21 9.22-.74 13.99-.61 4.36.13 8.6.85 12.98.77 6.54.01 12.93-2.22 19.55-3.09 7.62-1.06 15-2.78 21.7-6.7-5.87.46-11.41 2.16-17.18 3.14 6.95-1.99 12.46-5.22 19.98-3.33-4.4 2.99-9.68 3.76-14.18 6.41-.65 3.23-.35 6.78-.1 10.05-.27-2.8-.51-5.62-.92-8.41-.53-.21-1.07-.4-1.61-.58-8.72-.76-17.92 2.56-26.48 4.17-1.63 2.88-3.16 6.42-6.23 8.02-3.7 2.01-8.4 2.02-12.51 2.24-6.15.19-11.92 1.28-18.04 1.04-5.05-.2-10.08-.95-15.02-1.97-5.75-1.2-11.24-3.27-16.98-4.44-3.69-.89-7.63-1.57-11.09-3.15-1.66-.7-2.21-2.29-2.99-3.78-1.69-3.79-3.35-7.62-4.62-11.57.56.88 1.13 1.75 1.72 2.61.27-1.49.52-2.98.73-4.48"/><path fill="#050505" d="M556.25 613.95c-6.7 3.92-14.08 5.64-21.7 6.7-6.62.87-13.01 3.1-19.55 3.09-4.38.08-8.62-.64-12.98-.77-4.77-.13-9.23.82-13.99.61-3.71-.16-7.3-1.06-11.02-1.23-5.04-.24-9.99.29-15.05-.22-6.19-.61-12.25-2.1-18.47-2.63-4.43-.37-8.77-.95-12.93-2.58 7.79-.29 15.65.35 23.4 1.14 6.18 1.24 11.78 1.65 18.08 1.26 6.68-.5 12.96 1.75 19.61 1.15 4.5-.35 8.85-1.06 13.39-.62 5.82.53 11.24 1.42 17.07.18 5.62-1.27 11.28-2.05 16.96-2.94 5.77-.98 11.31-2.68 17.18-3.14"/><path fill="silver" d="M368.99 622c6.65 6.56 8.02 16.19 11.97 24.33.17-2.51.33-5.04.33-7.56.99 4.63 1.74 9.3 2.42 13.97-.52.75-1.05 1.48-1.61 2.2-1.99-5.75-3.55-11.63-5.53-17.37-.93-2.37-1.93-5.36-3.87-7.09-2.76-1.09-5.85-1.44-8.74-2.15-1.31-1.06-2.54-2.17-3.81-3.27 1.01 4.03 1.95 8.07 2.82 12.13-1.7-3.5-5.19-7.91-4.73-11.93.76-5.09 7.26-6.8 10.75-3.26"/><path fill="#020202" d="M543.85 621.81c.41 2.79.65 5.61.92 8.41.76 6.91.69 13.85.2 20.78-.52 7.7-.02 15.31.23 23 .24 6.7-.63 13.29-.83 19.97-.34 13.37-1.8 26.87-2.82 40.21-.45 6.82-1.18 13.61-2.12 20.37-1.61 11.39-2.26 22.85-4.07 34.21-1.92 12-3.39 24.03-5.51 36-1.82 10.28-5.51 19.9-7.17 30.23-.87 4.39-.62 8.32-3.84 11.82-.24-2.61-.4-5.21-.14-7.83 1.05-9.77 3.55-19.03 5.96-28.51 2.3-8.95 3.19-17.84 4.56-26.95 1.53-10.92 3.41-21.61 4.35-32.62.46-5.52.99-11.03 1.71-16.53 2-14.71 2.6-29.57 4.03-44.36.19-9.44 1.22-18.81 1.9-28.22.51-13.17-.4-26.67.91-39.79.53-6.87.11-13.87.12-20.77.54.18 1.08.37 1.61.58"/><path fill="#3a3a3a" d="M360.15 625.06c1.27 1.1 2.5 2.21 3.81 3.27 1.42 6.16 2.94 12.27 3.93 18.53-.92-.57-1.84-1.14-2.75-1.73-.83-2.6-1.46-5.29-2.17-7.94-.87-4.06-1.81-8.1-2.82-12.13"/><path fill="#a2a2a2" d="M363.96 628.33c2.89.71 5.98 1.06 8.74 2.15 1.94 1.73 2.94 4.72 3.87 7.09 1.98 5.74 3.54 11.62 5.53 17.37.56-.72 1.09-1.45 1.61-2.2.47 3.5.72 7.01.83 10.54-2.58 1.27-5.17 2.53-7.77 3.77-.77 2.4-1.55 4.8-2.34 7.19-.58-2.71-1.09-5.43-1.69-8.14.7 1.73 1.52 3.37 2.33 5.04.13-4.13.37-8.12-1.08-12.07-1.02-2.82-2.86-4.96-4.89-7.1.01.95.03 1.89.07 2.83-1.35-3.26-2.86-6.32-4.03-9.67.91.59 1.83 1.16 2.75 1.73-.99-6.26-2.51-12.37-3.93-18.53"/><path fill="#d2d2d2" d="M782.37 648.79c-1.47 4.32-3.5 7.85-2.2 12.55-.4 1.25-.73 2.52-1.01 3.8-.65-1.14-1.3-2.28-1.96-3.42-.18-.84-.37-1.69-.55-2.53-.29 2.38-.63 4.76-.99 7.13-2.52-4.61-4.54-10.47-1.88-15.45 2.2-1.38 5.96-1.35 8.59-2.08"/><path fill="#3f3f3f" d="M369.1 651.97c2.03 2.14 3.87 4.28 4.89 7.1 1.45 3.95 1.21 7.94 1.08 12.07-.81-1.67-1.63-3.31-2.33-5.04-1.06-3.81-2.26-7.56-3.57-11.3-.04-.94-.06-1.88-.07-2.83"/><path fill="#a2a2a2" d="M437.27 654.09c1.62 1.62 4.06 3.61 4.24 6.04.53 4.65.04 9.41.3 14.08-.4-5.24-.58-10.47-1.28-15.69-2.21 7.82-1.1 16.24-1.16 24.48.03 11.77.45 23.52 1.57 35.24.79 6.63 2.43 13.04 2.85 19.73.92 9.71.06 19.36 1.18 29.03.66 5.99.99 12.03 1.29 18.04.41 10.69 2.02 21.23 2.19 31.97.09 5.9.66 11.77 2.11 17.5 1.05 4.12 1.9 8.23 2.42 12.45-.51-2.27-1.19-4.51-1.89-6.73-1.39-.13-2.86-.18-4.21-.56-1.2-1.04-1.97-2.68-2.73-4.05.92-5.14-.77-9.48-2.58-14.18-3.79-9.92-6-20.1-8.71-30.33.69.57 1.37 1.14 2.06 1.72-1.08-9.28-2.52-18.44-2.56-27.82-.7-10.04-.83-19.97-.76-30.02.12-7.8-1.97-15.1-1.39-22.86.48-6.38 1.53-12.7 1.9-19.09.46-7.99 1.01-15.98 1.49-23.97.31-5.2 1.63-10.21 3.67-14.98"/><path fill="#030303" d="M440.53 658.52c.7 5.22.88 10.45 1.28 15.69 1.33 13.9 1.62 27.82 2.77 41.71.59 7.46 2.91 14.54 3.15 22.07 1.06 11.01.04 22 1.52 32.99 1.06 18.26 2.6 36.46 3.37 54.72 1.4 11.98 5.27 22.35 3.21 34.81-1.82-4.37-2.23-8.91-2.85-13.55-.52-4.22-1.37-8.33-2.42-12.45-1.45-5.73-2.02-11.6-2.11-17.5-.17-10.74-1.78-21.28-2.19-31.97-.3-6.01-.63-12.05-1.29-18.04-1.12-9.67-.26-19.32-1.18-29.03-.42-6.69-2.06-13.1-2.85-19.73-1.12-11.72-1.54-23.47-1.57-35.24.06-8.24-1.05-16.66 1.16-24.48"/><path fill="#a7a7a7" d="M880.99 659.61c.61 6.56.12 13.05-.35 19.6-1.89-.71-3.64-1.31-4.78-3.1-2.99-4.7-2.06-10.24.08-15.07-.49 2.93-.72 5.95-1.01 8.9 1.86-3.54 3.78-7.03 6.06-10.33"/><path fill="#d2d2d2" d="M397.56 662.6c3.25.55 7.52.61 10.27 2.52 3.11 3.58 5.1 8.47 6.28 13.03 1.72 4.82-4.04 8.11-6.84 11.1-1.32-4.41-1.96-8.93-2.26-13.52 1.57-.65 3.14-1.3 4.7-1.96-3.72-4.12-8.33-7.21-12.15-11.17"/><path fill="#161616" d="M777.2 661.72c.66 1.14 1.31 2.28 1.96 3.42 1.84 6.91 1.54 13.8 1.36 20.86.19 12.82-3.58 25.07-3.21 38-.26 14.39.85 28.67 1.37 43.03.49 7.06 1.95 13.85 1.81 20.97-.08 6.78.48 12.92-.49 19.48-2.32-8.38-2.02-17.61-2.82-25.89-.85-5.86-1.9-11.62-1.78-17.58.08-13.03-1.09-25.98-.9-39.01-.44-11.97 3.11-22.96 3.09-35-.07-5.95.9-11.56.15-17.46-.42-3.61-.57-7.18-.54-10.82"/><path fill="#d6d6d6" d="M394.1 664.95c2.7 3.04 7.72 5.59 7.63 10.02.63 6.8 1.54 13.5 3.21 20.13-1.67-5.69-3.81-11.09-6.81-16.22-2.57-4.46-2.86-9.05-4.03-13.93"/><path fill="#040404" d="M603.61 805.46c6.5-.22 11.92 2.06 18.06 3.71 37.99 10.52 75.71 21.86 113.6 32.68 15.6 4.91 31.45 8.94 47.05 13.84 11.52 3.62 23.23 6.43 34.71 10.16-5.62.55-11.04.85-16.6-.39-6.19-1.41-12.2-3.66-18.31-5.38-35.92-10.36-71.63-21.37-107.56-31.8-18.51-5.79-37.19-11.01-55.65-16.95-5.4-1.75-10.53-2.56-15.3-5.87"/></svg>