<svg xmlns="http://www.w3.org/2000/svg" width="692pt" height="1006pt" viewBox="0 0 692 1006"><path fill="#fff" d="M0 0h692v1006H0z"/><path fill="#040101" d="M363.49 33.83c6.74-.8 13.34-1.27 19.44 2.2 4.79 2.57 7.08 6.69 10.2 10.9 2.27-1.03 4.51-2.11 6.64-3.42.68.48 1.37.96 2.05 1.44-1.62 1.04-3.26 2.1-4.92 3.05-2.13.37-4.27.62-6.41.88-2.69-4.32-4.91-8.37-9.66-10.76-7.62-3.97-18.04-2.31-25.63 1.02-8.46 4.05-17.09 8.66-24.29 14.74-5.74 4.79-11.33 9.19-15.64 15.41-4.55 6.54-9.52 13.67-11.58 21.43-1.54 5.61-2.54 11.48-2.51 17.3-.01 5.12 2.1 9.64 2.37 14.74-2.47-2.82-4.37-5.92-4.84-9.7-.86-6.55.15-13.58 1.51-20 .91-4.34 2.41-8.36 4.57-12.22 4.11-7.21 8.21-14.01 14.18-19.87 6.89-6.73 13.95-12.9 22.41-17.61 7.04-3.91 13.99-8.42 22.11-9.53"/><path fill="#eb9337" d="M380.83 38.12c4.75 2.39 6.97 6.44 9.66 10.76 2.14-.26 4.28-.51 6.41-.88l1.7-.26c-1.83 2.72-4.22 5.41-5.4 8.47-.6 1.42.34 2.82 1.84 2.67 3.33-.13 5.75-1.88 7.36-4.71.78-1.21 1.54-2.43 2.32-3.64l2.5-.3c.78 5.86 1.4 11.74 2.15 17.61 1.73.04 3.47.07 5.2.1.41-3.48.84-6.97.91-10.47.11-3.75-.21-7.35-.98-11.01 1.06.65 2.14 1.25 3.21 1.87l-1.4-.28c3.73 5.62 9.7 10.57 12.39 16.69-.35 5.2-.7 10.42-1.27 15.61-.47 2.21-1.01 4.4-1.59 6.59l.21-1.83c-3.86 5.18-5.8 10.98-10 15.91-2.56 3.02-5.93 6.25-9.78 7.43-3.07.97-5.93-.81-8.51-2.26l-1.08-1.35c1.62-.76 3.25-1.53 4.87-2.3 4.38-1.77 6.28-4.44 8.1-8.69-4.6-1.62-7.38.69-11.49 2.17-3.06 1.32-6.36-.42-9.08-1.79-3.96-3.73-8.46-8.81-13.75-10.51-5.45-1.56-11.93.5-16.96 2.68-5.43 2.43-10.9 4.66-16.67 6.16-1-.01-2-.02-3-.04-.75-.8-1.5-1.59-2.26-2.38.26 1.61.57 3.22.85 4.83.4 2.41.89 4.81 1.38 7.21-3.05-1.11-6-2.47-9.03-3.62 3.33 3.39 7.27 5.5 11.62 7.29-.04 9.38 3.72 17.9-.92 26.72-1.98.39-3.96.83-5.95 1.17-2.21-3.31-4.35-6.33-8.05-8.12-4.11-2.14-8.51-2.34-13.04-1.96-3.2.1-6.66.02-9.75-.9-.27-5.1-2.38-9.62-2.37-14.74-.03-5.82.97-11.69 2.51-17.3 2.06-7.76 7.03-14.89 11.58-21.43 4.31-6.22 9.9-10.62 15.64-15.41 7.2-6.08 15.83-10.69 24.29-14.74 7.59-3.33 18.01-4.99 25.63-1.02"/><path fill="#b36e27" d="M405.95 40.29c-1.65 4.52-2.61 9.18-3.55 13.88-1.61 2.83-4.03 4.58-7.36 4.71-1.5.15-2.44-1.25-1.84-2.67 1.18-3.06 3.57-5.75 5.4-8.47l-1.7.26c1.66-.95 3.3-2.01 4.92-3.05-.68-.48-1.37-.96-2.05-1.44 1.98-1.23 4.01-2.35 6.18-3.22"/><path fill="#030202" d="M405.95 40.29c3.79-.02 6.09 3.77 8.55 6.17.77 3.66 1.09 7.26.98 11.01-3.56-3.53-4.84-7.85-7.25-12.09-1.22 1.68-2.39 3.4-3.51 5.15-.78 1.21-1.54 2.43-2.32 3.64.94-4.7 1.9-9.36 3.55-13.88"/><path fill="#b16a25" d="M408.23 45.38c2.41 4.24 3.69 8.56 7.25 12.09-.07 3.5-.5 6.99-.91 10.47-1.73-.03-3.47-.06-5.2-.1-.75-5.87-1.37-11.75-2.15-17.61l-2.5.3c1.12-1.75 2.29-3.47 3.51-5.15"/><path fill="#100f0e" d="m416.31 48.05 1.4.28c4.41 2.57 7.83 7.04 11.03 10.94 3.68 4.55 4.83 10.08 4.32 15.83l-1.88.39c-.47-3.7-.96-7.3-2.48-10.75-2.69-6.12-8.66-11.07-12.39-16.69"/><path fill="#c3b097" d="M428.7 64.74c1.52 3.45 2.01 7.05 2.48 10.75l1.88-.39c-.49 1.41-1.04 2.78-1.59 4.16-.73-2.05-1.44-4.1-2.14-6.16-.65 2.41-1.31 4.82-1.9 7.25.57-5.19.92-10.41 1.27-15.61"/><path fill="#040100" d="M375.33 83.72c5.29 1.7 9.79 6.78 13.75 10.51.79 2.07 1.03 4.19 1.07 6.38-3.64-3.55-6.84-7.85-10.87-10.93-3.09-2.33-6.16-4.32-10.24-3.85-9.91 1.21-16.74 7.74-27.34 6.73 5.77-1.5 11.24-3.73 16.67-6.16 5.03-2.18 11.51-4.24 16.96-2.68"/><path fill="#020202" d="m426.05 85.11-.21 1.83c-1.6 6.14-4.7 12.26-8.82 17.1-3.07 3.61-6.96 5.58-11.04 7.8 3.96 9.78 7.64 19.92 9.51 30.32 2.04 11.09 3.95 21.54 2.57 32.87-.91 6.98-1.91 14.31-4.41 20.91-1.99 5.31-5.27 9.32-8.55 13.84 10.26 4.15 21.65 5.73 31.93 8.4 3.46.99 6.66 1.88 8.36 5.37 2.62 5.39 4.04 11.46 5.46 17.26 2.15 8.51 2.14 17.07 3.63 25.71.76 6.22 2.22 12.33 2.96 18.54.38 7.98.11 16.01.14 24-1.58-5.92-2.58-11.89-2.74-18.03.1-10.98-3.29-22.2-4.49-33.24-.8-9.56-2.84-19.07-5.74-28.21-.99-2.61-1.93-6.18-4.81-7.29-5.56-2.19-11.69-3.12-17.45-4.7-4.9-1.37-9.74-2.88-14.67-4.11.7 6.46 1.62 12.82 1.79 19.33.14 2.25.11 4.67.75 6.83 1.34 1.73 3.27 3.05 4.92 4.47-8.52.92-16.17-2-24.48.14-1.23 6.04-4.32 11.21-6.19 16.97-.95 5.79-2.28 10.66-5.12 15.82 1.41 2.66 2.61 5.71 4.62 7.97 2.2 1.53 5.65 1.47 8.25 1.8 6.6.47 13.06 1.43 19.47 3.16l-3.81 1.71c.59 1.61 1.28 3.27 1.58 4.96-1.52 2.77-4.11 3.16-6.82 4.2 4.18 6.15 6.89 13.38 9.15 20.42-2.88-2.35-6.7-4.26-8.09-7.84-1.68-3.93-3.1-7.96-4.85-11.86-1.3-4.03-2.87-7.94-4.44-11.86-4.15-.71-8.63-1.06-12.57-2.58-1.92-1.87-4.75-7.52-5.15-10.19.48-2.54 1.91-4.97 2.83-7.38 1.79-4.25 1.57-8.7 3.26-13.01 2.03-5.07 4.14-10.08 6.99-14.75 1.98-2.8.6-6.64.02-9.72-1.38-5.1-2.09-10.42-3.75-15.43-1.65-.94-3.67-1.4-5.49-1.94-.09 4.43.17 8.94-.3 13.34-.31 1.61-.42 3.25-2.02 4.11-2.59 1.57-5.59 2.51-8.34 3.78-4.81 2.22-9.45 4.85-13.73 7.97.08-5.42-.31-10.8-.69-16.2 1.39-.14 2.78-.26 4.17-.38-.87 3.82-1.37 7.57-1.63 11.47 4.75-2.68 9.37-5.44 14.56-7.21 1.52-.76 4.34-1.31 4.72-3.22 1.27-4.77 1.2-10.01 1.4-14.92-8-5.29-15.76-10.93-23.39-16.75-4.63-3.57-8.85-7.53-12.35-12.24-2.66-4.11-4.24-8.47-5.94-13.02.7.13 1.4.25 2.1.38 2.55 7.69 7.41 14.32 13.61 19.47 6.22 5.18 12.97 9.72 19.47 14.54 4.43 3.1 9.27 6.88 14.81 7.44 6.62.61 12.71-2.35 17.1-7.18 6.13-6.44 8.43-14.33 10.05-22.86 2.23-10.98 2.07-22.49.05-33.49-1.38-7.66-2.47-15.26-4.93-22.69-2.08.72-4.15 1.44-6.25 2.08 1.84-1.77 3.76-3.45 5.69-5.12-.96-3.02-2.05-5.97-3.51-8.8-.42 2.8-.68 5.61-.9 8.43-1.12.01-2.23.03-3.35.04-.91-3.64-.99-7.28-.79-11.01 1.87-.07 3.74-.14 5.61-.24-3.05-1.75-5.97-3.26-8.01-6.23 2.58 1.45 5.44 3.23 8.51 2.26 3.85-1.18 7.22-4.41 9.78-7.43 4.2-4.93 6.14-10.73 10-15.91"/><path fill="#c3c3c3" d="M369.04 85.83c4.08-.47 7.15 1.52 10.24 3.85-4.33 1.92-8.65 3.62-13.36 4.35-5.65.94-10.85 2.94-16.17 4.95 2.61 1.22 5.21 2.45 7.8 3.71-.71.23-1.42.45-2.13.67-6.12-3.25-12.2-5.21-16.72-10.84 1 .02 2 .03 3 .04 10.6 1.01 17.43-5.52 27.34-6.73"/><path fill="#050402" d="M336.44 90.14c.76.79 1.51 1.58 2.26 2.38 4.52 5.63 10.6 7.59 16.72 10.84-4.21 1.45-8.51 2.11-12.93 2.49 2.06 8.01 4.58 15.72 2.1 24.02-1.4 4.77-4.49 8.36-8.5 11.18 1.27-2.9 2.79-5.67 4.25-8.48 4.64-8.82.88-17.34.92-26.72-4.35-1.79-8.29-3.9-11.62-7.29 3.03 1.15 5.98 2.51 9.03 3.62 2.8.57 5.6.79 8.45 1.03-3.22-2.81-6.52-5.54-9.83-8.24-.28-1.61-.59-3.22-.85-4.83"/><path fill="#e1e2e1" d="M379.28 89.68c4.03 3.08 7.23 7.38 10.87 10.93l.41.42c-2.72-1.37-4.69-3.22-7.71-1.43-1.34-.14-2.68-.29-4.02-.39-3.99-4.45-6.83-5.55-12.91-5.18 4.71-.73 9.03-2.43 13.36-4.35"/><path fill="#cc7e2e" d="M409.65 93.85c-1.82 4.25-3.72 6.92-8.1 8.69-2.6-1.12-5.11-1.85-7.98-1.69-.18.85-.36 1.71-.53 2.57-.85-.77-1.66-1.59-2.48-2.39l-.41-.42c-.04-2.19-.28-4.31-1.07-6.38 2.72 1.37 6.02 3.11 9.08 1.79 4.11-1.48 6.89-3.79 11.49-2.17"/><path fill="#fff" d="M365.92 94.03c6.08-.37 8.92.73 12.91 5.18-3.4.93-6.39 2.32-9.33 4.24 4 .22 8.02.25 12.03.36.44-1.4.87-2.81 1.32-4.21 3.02-1.79 4.99.06 7.71 1.43.82.8 1.63 1.62 2.48 2.39 1.2.51 2.42.96 3.64 1.42l1.08 1.35c2.04 2.97 4.96 4.48 8.01 6.23-1.87.1-3.74.17-5.61.24-.2 3.73-.12 7.37.79 11.01 1.12-.01 2.23-.03 3.35-.04.22-2.82.48-5.63.9-8.43 1.46 2.83 2.55 5.78 3.51 8.8-1.93 1.67-3.85 3.35-5.69 5.12 2.1-.64 4.17-1.36 6.25-2.08 2.46 7.43 3.55 15.03 4.93 22.69 2.02 11 2.18 22.51-.05 33.49-1.62 8.53-3.92 16.42-10.05 22.86-4.39 4.83-10.48 7.79-17.1 7.18-5.54-.56-10.38-4.34-14.81-7.44-6.5-4.82-13.25-9.36-19.47-14.54-6.2-5.15-11.06-11.78-13.61-19.47-.66-2.05-1.24-4.1-1.95-6.13-.54-1.59-1.09-3.19-1.65-4.78-1.71.74-3.58 1.42-5.12 2.48-1.32 2-1.06 5.19-1.12 7.53 2.5 6.77 7.14 12.22 10 18.77-1.31 4.1-2.84 8.1-4.48 12.08-2.55 5.95-2.5 13.21-3.48 19.65-3.66-5.91-6.07-12.05-10.12-17.64-1.58-2.28-3.55-4.64-4.53-7.24-.8-2.6-1.06-5.37-1.58-8.03-.48 3.18-1.59 7.52-.01 10.49 2.26 4.27 5.35 8.05 7.66 12.31 3.07 5.56 6.31 10.94 10.27 15.92-.99 2.35-2.01 4.7-3.03 7.05-.75-4.11-.97-8.72-2.68-12.55-3.14-5.45-10.62-7.65-14.78-11.26-2.95-3.58-4.4-9.59-8.06-12.89-4.77-4.06-10.42-4.94-16.47-5.31-5.43-.33-10.15-2.39-15.31-3.81 1.65 1.33 3.29 2.6 5.19 3.56 7 3.57 15.19 2.04 22.02 6.12 4.16 2.41 6.13 7.04 8.35 11.09-.73.53-1.45 1.06-2.18 1.6 6.55 2.51 14.72 6.29 18.7 12.32 2.82 7.75 2.42 17.08 3.33 25.25.4 8.04.5 16.08.93 24.12-1.79-3.25-3.39-6.52-4.32-10.13-.93-3.57-1.17-7.35-2.48-10.7-1.69-4.34-4.35-7.8-6.98-11.58-3.86.63-7.67 1.42-11.47 2.32-1.91-2.74-3.73-5.54-5.36-8.46 4.69.94 9.17 2.26 13.99 2.47-4.19-2.5-8.63-2.81-13.27-3.8-3.82-.57-6.76-4.73-9.82-6.93-4.78-3.56-10.27-6.84-15.89-8.87-7.19-1.34-15.14.01-22.42.22-3.41-.08-6.96-.89-10.34-1.41 2.65 1.62 5.18 3.12 8.36 3.41 4.04.55 8.49-.41 12.4.61 4.77 2.81 8.7 7.42 12.49 11.42 3.68 4.12 7.75 7.82 11.74 11.63-5.14 7.46-7.02 15.56-9.69 24.09-1.92 6.53-4.19 13.1-5.41 19.8-.79 3.54 1.35 6.94 2.87 9.99 2.4 4.42 5.31 8.88 10.41 10.4 3.89.98 8.33.36 12.32.2-1.58 4.05-2.87 8.06-5.38 11.65-2.11 2.99-4.68 5.69-7.13 8.4 1.3 4.23 4 8.24 2.47 12.73-2.35 8.42-5.44 17.12-9.08 25.06-4.98 9.16-10.15 18.15-14.17 27.79-2.35 5.05-3.84 11.35-7.57 15.43-2.96 3.4-6.61 5.44-10.55 7.48-5.91 2.97-11.25 6.56-17.59 8.63-4.46 1.52-9.3 4.43-14.03 4.48-7.23-.42-14.32-4.72-17.85-11.1-3.17-5.54-5.7-11.37-9.37-16.65-4.43-6.46-8.46-13.02-9.1-21.05-.19-9.53 1.64-18.75 5.15-27.6 2.91 3.11 4.53 6.37 5.82 10.4.23-.88.45-1.77.67-2.65 3.09-6.41 4.35-12.01 4.2-19.16.43-10.92-3.03-19.21-.56-29.54 2.32-9.49 4.53-18.99 7.12-28.41 2.7-11.41 7-22.27 9.28-33.81 1.4-5.76 2.16-11.93 4.4-17.42 1.37-3.4 5.28-3.82 8.32-4.89 5.55-1.49 10.61-4.43 15.33-7.66 1.69-.99 1.91-3.22 2.48-4.93 1.34-5.58 3.62-10.81 4.7-16.45 1.02-4.32 2.08-9.71 5.02-13.16 2.57-1.7 6.09-2.11 9-3.03 7.07-1.8 13.6-4.98 18.6-10.38 2.3-2.36 4.47-5.36 7.9-6.04 4.23-.91 8.61-.78 12.87-1.6 6.86-1.08 13.63-3.23 20.51-1.27.16 8.77-1.34 17.33-1.67 26.05 3.96-7.96 3.59-16.13 2.45-24.71 3.55-.67 7.09-1.4 10.63-2.08-4.58-.12-10.32.53-14.09-2.57-4.07-3.28-6.67-8.69-8.6-13.44-1.52-4.08-2.6-8.78-.45-12.84 1.88-3.34 5.89-5.57 9.4-6.81 3.65-1.43 8.06.53 11.07 2.63 2.6 1.71 4.96 4.57 8.05 5.07 1.99-.34 3.97-.78 5.95-1.17-1.46 2.81-2.98 5.58-4.25 8.48 4.01-2.82 7.1-6.41 8.5-11.18 2.48-8.3-.04-16.01-2.1-24.02 4.42-.38 8.72-1.04 12.93-2.49.71-.22 1.42-.44 2.13-.67-2.59-1.26-5.19-2.49-7.8-3.71 5.32-2.01 10.52-4.01 16.17-4.95"/><path fill="#fbfaf9" d="M337.29 94.97c3.31 2.7 6.61 5.43 9.83 8.24-2.85-.24-5.65-.46-8.45-1.03-.49-2.4-.98-4.8-1.38-7.21"/><path fill="#020202" d="M378.83 99.21c1.34.1 2.68.25 4.02.39-.45 1.4-.88 2.81-1.32 4.21-4.01-.11-8.03-.14-12.03-.36 2.94-1.92 5.93-3.31 9.33-4.24"/><path d="M393.57 100.85c2.87-.16 5.38.57 7.98 1.69-1.62.77-3.25 1.54-4.87 2.3-1.22-.46-2.44-.91-3.64-1.42.17-.86.35-1.72.53-2.57"/><path fill="#616161" d="M375.02 106.76c-2.77 4.65-6.2 8.2-10.65 11.28.96-2.45 1.85-5.04 3.69-6.99 1.9-2.02 4.5-3.13 6.96-4.29"/><path fill="#010101" d="M376.7 114c1.27 4.25 1.73 8.2 1.35 12.65-1.88-1.42-3.64-2.39-4.07-4.9-.53-2.67-.78-7.12 2.72-7.75"/><path fill="#020202" d="M326.34 125.62c3.7 1.79 5.84 4.81 8.05 8.12-3.09-.5-5.45-3.36-8.05-5.07-3.01-2.1-7.42-4.06-11.07-2.63-3.51 1.24-7.52 3.47-9.4 6.81-2.15 4.06-1.07 8.76.45 12.84 1.93 4.75 4.53 10.16 8.6 13.44 3.77 3.1 9.51 2.45 14.09 2.57-3.54.68-7.08 1.41-10.63 2.08 1.14 8.58 1.51 16.75-2.45 24.71.33-8.72 1.83-17.28 1.67-26.05-6.88-1.96-13.65.19-20.51 1.27-4.26.82-8.64.69-12.87 1.6-3.43.68-5.6 3.68-7.9 6.04-5 5.4-11.53 8.58-18.6 10.38-2.91.92-6.43 1.33-9 3.03-2.94 3.45-4 8.84-5.02 13.16-1.08 5.64-3.36 10.87-4.7 16.45-.57 1.71-.79 3.94-2.48 4.93-4.72 3.23-9.78 6.17-15.33 7.66-3.04 1.07-6.95 1.49-8.32 4.89-2.24 5.49-3 11.66-4.4 17.42-2.28 11.54-6.58 22.4-9.28 33.81-2.59 9.42-4.8 18.92-7.12 28.41-2.47 10.33.99 18.62.56 29.54.15 7.15-1.11 12.75-4.2 19.16.06-6.11 1.44-12.06 1.43-18.17.03-4.38-.21-8.77-.72-13.12-.74-5.86-1.38-11.39-.14-17.25 3.1-13.37 6.5-26.64 10.1-39.87 3.51-11.34 7.13-22.52 8.91-34.29-2.9-1.57-5.72-3.05-8.03-5.46-4.19-4.22-7.44-9.19-11.93-13.16-3.98 1.62-8.03 3.67-12.17 4.65-8.07 1.81-16.14 3.55-24.38 4.38.02 1.26.04 2.53.05 3.79-2.36-2.3-4.97-6.21-8.56-6.22-3.83-.14-8.53-.85-12.17.39-1.2 3.33-1.6 6.98-2.44 10.43-1.39 6.22-3.73 12.1-6.42 17.87-1.03 2.68-2.57 4.89-.92 7.71 2.74 5.38 5.25 10.73 6.43 16.69-2.59-3.15-3.98-6.79-5.66-10.45-1.28-2.83-3.43-5.01-4.96-7.66.02-2.62 1.79-5.41 2.78-7.81 4.54-9.26 7.15-19.11 9.12-29.2 5.9-.99 12.69-1.7 18.37.56 2.41.85 4.58 1.79 7.21 1.49 5.9-.52 11.61-2.76 17.5-3.75 4.9-.83 9.5-2.33 13.3-5.67 4.37-3.91 9.15-7.15 14.79-8.93 2.85-.83 6.05-.49 8.89-1.18 2.31-.74 4.47-2.3 6.55-3.54 4.66-2.98 9.88-4.65 14.66-7.44 2.98-1.74 5.85-2.92 9.23-3.67-3.82 4.93-10.64 7.27-16.22 9.66-4.94 1.89-9.4 4.56-13.66 7.67 4.86 2.82 7.9 5.72 11.27 10.15-.83 1.34-1.66 2.67-2.48 4.01l1.32 2.22c5.23-1.15 10.82-3.1 14.83-6.78 1.28-1.75 1.47-4.35 2.05-6.41.88-4.3 2.8-8.21 3.79-12.48 1.15-4.83 2.05-9.43 4.41-13.87 1.02-1.84 2.1-3.68 4.13-4.52 3.03-1.24 6.36-1.84 9.49-2.78 5.97-1.69 11.65-4.44 15.97-8.99 2.51-2.54 4.83-5.35 8.41-6.37 4.45-1.13 9.27-.97 13.82-1.72 4.9-.81 9.79-1.47 14.76-1.7-4.3-7.13-9.57-14.57-8.73-23.33.16-5.96 6.36-9.7 10.89-12.41 4.53-.38 8.93-.18 13.04 1.96"/><path fill="#c3c3c3" d="M395.56 125.47c3.42 1.59 6.25 4.61 9.27 6.85-3.33.47-5.79.34-9.02-.49.03 3.02-.32 4.93-1.77 7.64-2.69-2.45-5.33-4.47-5.34-8.47-.18-3.62 3.35-6.68 6.86-5.53"/><path fill="#2b2b2b" d="M321.82 130.21c2.38 1.51 5.57 4.25 5.83 7.24.05 3.92.31 7.55 1.16 11.4-1.15-1.55-2.71-3.19-3.03-5.14-.88-3.68-.29-7.4-3.47-10.02-1.51-1.13-3.98-3.12-5.65-1.28-2.75 2.12-2.66 6.4-1.67 9.4 1.48 4.66 5.13 7.47 8.48 10.76-3.08-1.31-5.94-2.19-7.99-5.04-3.27-4.42-5.2-10.85-1.65-15.7 1.87-2.67 5.22-3.16 7.99-1.62"/><path fill="#696969" d="M365.8 128.67c3.55.73 5.71 2.35 8.14 4.95-1.49-.23-3.27-.23-4.62-.96-1.42-.98-2.51-2.61-3.52-3.99"/><path fill="#030303" d="M395.81 131.83c3.23.83 5.69.96 9.02.49.63.49 1.26.96 1.9 1.44-.23 2.11-.21 4.79-1.39 6.61-1.24 1.71-3.55 2.79-5.33 3.84 1.17-3.12 2.67-6.09 4.06-9.11a203 203 0 0 0-10.03 4.37c1.45-2.71 1.8-4.62 1.77-7.64"/><path fill="#050505" d="M369.13 154.55c-4.68 3.6-8.85 4.2-14.61 3.29 4.58-2.57 9.3-4.11 14.61-3.29"/><path fill="#020202" d="M410.34 157.53c.9.28 1.79.58 2.69.9-.45 3.42-.79 6.59-4.04 8.54-4.33 2.55-10.22.12-15.04.13-6.98-.49-12.33 4.07-18.92 4.06-6.1-.72-10.99-6.04-13.7-11.22 4.23 2.59 8.68 7.56 13.66 8.32 5.69-.6 11.01-4.62 17.09-4.85 4.35-.37 8.57 1.02 12.86.81 3.49-.01 3.89-4.32 5.4-6.69"/><path fill="#bebebe" d="M335.51 160.9c.56 1.59 1.11 3.19 1.65 4.78l-.92-.4-.76-.24c-3.05 1.14-4.62 3.11-6.21 5.87.06-2.34-.2-5.53 1.12-7.53 1.54-1.06 3.41-1.74 5.12-2.48"/><path fill="#a1a1a1" d="m335.48 165.04.76.24.92.4c.71 2.03 1.29 4.08 1.95 6.13-.7-.13-1.4-.25-2.1-.38 1.7 4.55 3.28 8.91 5.94 13.02-.47.95-.94 1.91-1.39 2.87-.31-1.32-2.03-2.38-2.15-.36q.315 1.17 1.53 1.71c-.33 1.14-.64 2.28-.92 3.44-.23-.82-.49-1.63-.75-2.43-2.86-6.55-7.5-12-10-18.77 1.59-2.76 3.16-4.73 6.21-5.87"/><path fill="#323232" d="m341.56 187.32-.62 1.35q-1.215-.54-1.53-1.71c.12-2.02 1.84-.96 2.15.36"/><path fill="#020202" d="M272.67 188.45c5.16 1.42 9.88 3.48 15.31 3.81 6.05.37 11.7 1.25 16.47 5.31 3.66 3.3 5.11 9.31 8.06 12.89 4.16 3.61 11.64 5.81 14.78 11.26 1.71 3.83 1.93 8.44 2.68 12.55 1.02-2.35 2.04-4.7 3.03-7.05-3.96-4.98-7.2-10.36-10.27-15.92-2.31-4.26-5.4-8.04-7.66-12.31-1.58-2.97-.47-7.31.01-10.49.52 2.66.78 5.43 1.58 8.03.98 2.6 2.95 4.96 4.53 7.24 4.05 5.59 6.46 11.73 10.12 17.64.98-6.44.93-13.7 3.48-19.65 1.64-3.98 3.17-7.98 4.48-12.08.26.8.52 1.61.75 2.43-.77 3.67-1.92 7.22-3.33 10.7-2.28 5.3-2.81 11.55-3.12 17.27-.91 5.03 6.03 7.61 7.09 12.18.19 2.48-1.01 5.18-1.87 7.47-2.78 6.56-4.58 13.36-6.65 20.3-1.81 6.04-1.95 12.28-1.23 18.51.48 3.56.38 7.11.04 10.68-.6 6.3.81 12.45-.09 18.77-1.15 8.67-.21 17.33-1.08 26.01-.62 6.92-.35 13.86-1.02 20.77-.77 8.76-.6 17.46-.5 26.23.25 23.03-.51 45.95.63 68.97.28 12.93 2.79 25.58 3.5 38.49.21 4.24.54 8.29 2.45 12.16 2.88.61 5.77.99 8.68 1.37-.18-3.04-.4-6.04-.38-9.09l.24-4.66c.29-10.31 1.99-20.95.72-31.2-.55-5.01-.59-10.05-.2-15.06.84-9.89 1.54-19.63 3.82-29.32 1.53-6.5 2.39-13.04 2.74-19.71.36-8.07 1.95-15.93 2.6-23.97.67-9.36 1.95-18.57 1.7-27.98.09-15.65-5.14-29.03-7-44.12-1.03-7.04-3.59-13.42-5.38-20.24-2.01-8.2-3.32-16.32-2.5-24.79.61-4.02.52-8.1 1.14-12.12.74-4.47 3.02-8.44 3.27-12.81.25-3.7.14-7.44.03-11.15-1.92 3.23-3.65 6.55-5.75 9.68.57-5.6 2.99-10.31 5.67-15.13.74-.07 1.48-.13 2.22-.2.11 4.15.19 8.3.53 12.44 4.37-4.89 6.37-10.69 8.76-16.65-.77 12.27-10.88 23.12-12.21 35.03.08 9.6-2.74 17.62.39 27.05 2.61-7.99 3.93-15.65 8-23.15-.64 8.95-4.97 16.91-6.04 25.87-1.41 6.14 1.41 10.54 2.95 16.28 2.21 7.01 2.09 14.2 4.05 21.26 2.14 7.41 3.53 15.06 4.44 22.72.85 14.78.02 29.45-1.52 44.15-1.85 12.8-2.74 25.66-5.34 38.36-2.67 13.38-3.65 26.9-3.21 40.52.19 5.78.56 11.46 0 17.23-.75 7.21-.74 14.52-.96 21.77-.25 8.4 1.5 16.6 1.12 25-.22 6.42-.13 12.71 1.35 18.99-.07 1.06-.14 2.12-.23 3.17-6.01-11.86-2.57-22.8-4.68-35.55-3.25-.42-6.49-.95-9.75-1.27-.58 8.19-.46 16.45-.66 24.67-.27 11.06 3.88 21.02 4.14 32 .11 6.46.99 12.78 2.08 19.13 1.68 11.58 2.31 23.24 3.49 34.87.61 9.54-1.87 19.57-4.41 28.73-1.98 7.57-2.7 15.47-4.16 23.19-1.66 8.83-.93 17.78-1.06 27.07-.08 8.62.97 18.7-1.8 26.92-2.74 7.54-7.24 14.74-7.06 23.05.17 6.32.57 12.89 1.29 19.18 1.38 8.31 2.13 16.7 3.45 25.02.56 3.96 1.23 7.66.49 11.67-1.28 6.66-2.45 13.31-4.17 19.85-.6 2.61-1.41 5.47-1.22 8.16 1.57 2.7 4.92 4.72 4.69 8.07-.13 7.71-1.36 15.38-1.4 23.11 6.11.62 12.02 1.81 18.2 1.74 5.67-.04 11.35.08 17.03-.03 5.28-.09 10.03-2.06 15.3-2.59-2.39 2.24-5.03 4.12-7.72 5.95 3.34 4.05 6.61 7.76 11.65 9.69 9.09 3.99 21.18.97 30.8.94 6.05-.13 10.83 3.21 15.09 7.13 3.58 3.28 4.96 7.39 7.93 11.08 1.55 2.05 3.27 3.73 3.84 6.34.69 2.97.31 6.73-1.47 9.27-2.82 3.31-7.14 5.47-11.35 6.35-5.47 1.18-10.87 2.76-16.38 3.72-5.42.95-10.36.09-15.76-.37-3.92-.35-7.75-.96-11.45-2.33 5.16-.55 10.33-.37 15.49.19 8.02.96 16.65-1.33 24.19-3.98 4.29-1.86 8.43-3.48 12.9-4.83 1.93-2.95 1.72-5.49.99-8.79-.14-.74-.27-1.48-.41-2.21-2.38 1.43-4.75 2.87-7.2 4.18-5.25 2.87-11.86 3.89-17.69 5.12a84.4 84.4 0 0 1-31.88.33c6.05-1.04 12-.34 18.07-.91 8.89-.75 17.69-2.65 26.35-4.76 2.8-.82 7.29-2.08 8.26-5.22-1.09-4.95-4.31-9.29-8.29-12.34-2.7-2.07-5.78-4.27-9.3-4.36-8.33-.29-16.71.71-25.04.35-4.59-.15-8.87-1.7-12.83-3.94-3.5-2.96-6.09-6.54-8.67-10.29-6.49-.2-12.99-.11-19.48-.29-4.92-.12-9.65-1.16-14.5-1.81-.17 3.77-.1 7.54-.39 11.3-.47 6.48-1.24 12.88-2.6 19.23-1.41 5.99-1.23 11.41-4.92 16.64-.52-7.87 2.11-14.34 3.29-22.1 1.38-8.79 3.1-17.29 2.68-26.25-3.55.01-5.62.81-8.59 2.65 1.53-10.61 2.94-21.56 2.81-32.27-1.67-.06-3.33-.11-5-.17-.09-11.38 4.25-23.04 5.51-34.42.15-2.95-.43-6.07-.82-9-1.24-8.05-2.12-16.14-3.17-24.21-.94-6.67-.48-13.26-.9-19.96-4.13 12.44-3.98 24.86-5.03 38.19-.94-6.38-2.19-12.52-1.78-19.02.48-7.87 1.68-16.17 4.84-23.45 2.46-5.66 4.56-11.45 7.07-17.08 4-8.94 2.87-19.9 2.9-29.44.12-9.45-.61-19.09 1.21-28.19 1.5-7.74 1.98-15.41 4.33-22.99 2.37-7.61 4.21-15.8 4.28-23.79-.72-13.38-1.73-26.73-3.3-40.04-1.21-9.41.51-17.6-2.04-26.74-2.5-8.7-3.7-17.17-3.58-26.23.16-20.02-2.2-40.17-4.49-60.04-.59-5.55-.38-11.06-.81-16.61-.51-6.45-.59-12.9-.59-19.37-.01-19.33.23-38.66-.01-58-.19-6.71 1.03-13.27 1.15-19.95.04-8.06 1.4-15.97 1.13-24.05-.22-6.32.59-12.5 1.39-18.75.85-6.1-.35-12.03.25-18.14.22-3.88 1.09-8.49-.12-12.24-1.42-3.52-3.79-6.71-5.77-9.94-.04 3.55.32 7.31-.37 10.81-2.1 1.69-4.79 2.59-6.84 4.32-1.24 2.46-1.69 5.39-2.36 8.06-2.17 9.83-5.48 19.23-9.07 28.62-2.4 6.07-6.01 11.28-8.83 17.12-2.25 4.63-4.52 9.23-7.26 13.6-.15-2.01-.28-4.02-.43-6.03-2.78 4.95-4.57 10.24-6.13 15.68-2.24 7.49-6.31 13.31-9.73 20.23-3.83 7.72-7.37 15.56-10.52 23.58-1.58 4.04-4.32 7.56-7.66 10.29-3.88 3.16-9.01 5.22-13.45 7.55-4.49 2.37-9 4.67-13.68 6.64-.88 7.58-2.11 15.11-3.41 22.62-1.09 6.32-3.12 11.68-3.21 18-.16 3.03.19 6.14-.2 9.14-.8 3.84-2.21 7.54-3.05 11.37-1.31 5.61-1.09 11.58-2.02 17.18-.53 3.34-4.78 5.91-4.27 9.26.7 7.17 3.23 14.25 6.25 20.76 1.84 4.06 6.29 5.33 9.97 7.2 4.17 1.86 7.65 4.63 11.01 7.66 1.84 1.62 3.73 3.19 5.64 4.72-.06-4.36-.33-8.69-.87-13.01-2.49-.82-4.95-1.62-7.33-2.72l-1.28-1.07c4.92-.06 9.72 1.05 14.66.99 5.03 0 9.9.72 14.76 1.98 6.75 1.78 13.22 3.11 19.51 6.22 5.34 2.59 11.02 4.09 16.26 6.88 4.1 1.98 7.47 4.53 12.29 3.57 2.48-.28 4.96-.54 7.45-.74-3.23 2.26-5.96 4.52-10.19 4.15-5.6-.44-10.92-4.48-16.25-6.33-7.15-2.46-13.6-6.29-20.9-8.15-8.97-2.35-17.22-5.23-26.67-4.71.02 6.71 1.58 12.93 2.1 19.62.35 4.37.86 8.73 1.19 13.11.1 5.63.14 11.27.24 16.9.22 10.68 1.67 21.33 1.53 32-.04 8.02.19 15.99-.43 24-.37 10.1-.12 20.23-.72 30.33-.85 11.19-.33 22.45-1.05 33.67-.86 10.29-.25 20.64-.57 31-.55 17.46.69 35.01 2.6 52.36.6 6.55-.14 13.2.62 19.7.49 3.56.92 7.4 2.28 10.75.62 1.88 2.48 2.35 4.11 3.11 5.82 2.23 12.27 3.55 18.34 4.9 8.65 2.1 17.69 2.89 26.57 2.47 5.06-.25 9.44-2.09 14.16-3.65.89-.06 1.78-.11 2.67-.17l-.24 2.31c-8.81 3.88-16.99 5.09-26.59 4.05-15-.55-29.24-4.66-42.94-10.56 1.34-5.29-.85-9.37-1.31-14.59-.51-5.82-.01-11.65-.72-17.47-.82-7.07-1.6-14.09-1.82-21.21-1.44-14.53-.6-28.41-.68-43 .04-7.08-.25-13.94.48-21 .94-10.3.11-20.73 1.06-30.99.94-12 .2-24.01 1.28-36.01.19-12.64.61-25.46-.74-38.02-.32-12.7-.77-25.38-1.29-38.07-.45-3.7-.23-7.3-3.37-9.86-4.09-3.53-8.17-7.18-12.52-10.38-4.61-3.24-12.55-4.97-14.59-10.59-2.98-7.15-5.86-15.33-5.51-23.15.12-4.49 2.72-7.61 3.5-11.9.71-3.98.48-8.04 1.3-12.02.83-4.01 1.71-7.99 2.2-12.06-5.78.33-11.07 2.21-16.71 3.27-4.3.82-8.5 2.1-12.81 2.8-2.51.42-5.21.08-6.9-2.02-2.78-3.47-3.81-8.59-5.37-12.69-1.8-4.96-4.66-9.35-6.56-14.26-2-5.25-4.26-9.83-5.31-15.26-1.75-9.61-4.32-18.93-4.95-28.74-1.13-9.64.25-19.18 2.8-28.49 1.57-5.52 3.57-10.79 4.88-16.42 1.25-5.24 1.81-10.48 2.89-15.75.68-3.5 1.6-6.72 1.41-10.33-.29-5.93-1.62-11.85-2.83-17.64-.76-3.72-2.01-7.19-3.63-10.61-5.14 2.52-8.33 6.77-12.56 10.35-5.68-.61-10.4-4.56-16.28-5.15-.93-5.35-2.41-10.41-4.11-15.55 2.93 3.61 4.59 7.73 5.98 12.12 4.57 1.51 8.89 3.57 13.31 5.45 3.33-3.72 6.35-7.32 11-9.45 4.28-2.07 9.6-.49 14.25-1.63 4.11-1.04 7.99-2.79 12.09-3.89-2.18 2.54-4.57 4.83-7.06 7.05 2.01 4.88 3.79 9.79 5.15 14.9.98 4.74 2.78 10.31.97 15.02-1.32 3.82-2.85 7.56-4.07 11.41-3.51 8.85-5.34 18.07-5.15 27.6.64 8.03 4.67 14.59 9.1 21.05 3.67 5.28 6.2 11.11 9.37 16.65 3.53 6.38 10.62 10.68 17.85 11.1 4.73-.05 9.57-2.96 14.03-4.48 6.34-2.07 11.68-5.66 17.59-8.63 3.94-2.04 7.59-4.08 10.55-7.48 3.73-4.08 5.22-10.38 7.57-15.43 4.02-9.64 9.19-18.63 14.17-27.79 3.64-7.94 6.73-16.64 9.08-25.06 1.53-4.49-1.17-8.5-2.47-12.73 2.45-2.71 5.02-5.41 7.13-8.4 2.51-3.59 3.8-7.6 5.38-11.65-3.99.16-8.43.78-12.32-.2-5.1-1.52-8.01-5.98-10.41-10.4-1.52-3.05-3.66-6.45-2.87-9.99 1.22-6.7 3.49-13.27 5.41-19.8 2.67-8.53 4.55-16.63 9.69-24.09-3.99-3.81-8.06-7.51-11.74-11.63-3.79-4-7.72-8.61-12.49-11.42-3.91-1.02-8.36-.06-12.4-.61-3.18-.29-5.71-1.79-8.36-3.41 3.38.52 6.93 1.33 10.34 1.41 7.28-.21 15.23-1.56 22.42-.22 5.62 2.03 11.11 5.31 15.89 8.87 3.06 2.2 6 6.36 9.82 6.93 4.64.99 9.08 1.3 13.27 3.8-4.82-.21-9.3-1.53-13.99-2.47 1.63 2.92 3.45 5.72 5.36 8.46 3.8-.9 7.61-1.69 11.47-2.32 2.63 3.78 5.29 7.24 6.98 11.58 1.31 3.35 1.55 7.13 2.48 10.7.93 3.61 2.53 6.88 4.32 10.13-.43-8.04-.53-16.08-.93-24.12-.91-8.17-.51-17.5-3.33-25.25-3.98-6.03-12.15-9.81-18.7-12.32.73-.54 1.45-1.07 2.18-1.6-2.22-4.05-4.19-8.68-8.35-11.09-6.83-4.08-15.02-2.55-22.02-6.12-1.9-.96-3.54-2.23-5.19-3.56"/><path fill="#fefefe" d="M201.65 208.78c2.83-1.3 5.59 1.95 7.83 3.3-4.86 3.04-9.31 6.98-14.39 9.58-2.89-1.3-5.4-3.74-7.83-5.74 4.5-2.85 9.32-5.47 14.39-7.14m12.66 5.39c.54 1.55 1.16 3.15 1.49 4.75-3.88 4.39-9.02 7.67-13.05 11.99-2.68-1.92-5.3-3.93-7.89-5.98 5.87-5.4 11.67-8.8 19.45-10.76"/><path fill="#595959" d="M388.63 217.1c1.57-1.2 3.37.89 2.1 2.33-1.58 1.19-3.35-.88-2.1-2.33"/><path fill="#4b4b4b" d="M264.46 218.14c1.86 1.02 3.62 2.19 5.32 3.45-2.98-.35-3.64-1.07-5.32-3.45"/><path fill="#f5f5f5" d="M216.51 222.37c-.08 1.26.2 2.19-.89 3.08-2.92 2.77-5.45 5.55-7.6 8.98-.96-1.18-1.91-2.37-2.85-3.56 3.46-3.28 7.04-6.34 11.34-8.5"/><path fill="#191919" d="M317.36 226.49c.16 4.4-.13 8.72-1.27 12.99-1.31-3.76-2.2-7.63-2.71-11.57 1.32-.49 2.65-.97 3.98-1.42"/><path fill="#fefefe" d="M334.9 227.96c2.42 2.31 3.24 4.18 3.96 7.42-2.36-.15-4.71-.37-7.07-.61.96-2.31 1.96-4.59 3.11-6.81"/><path fill="#010101" d="M414.4 231.51c2.56-.48 5.3-.12 6.94 2.11 2.82 3.66 4.62 8.29 6.7 12.4 1.55 3.36 3.57 6.13 3.67 9.93.44 5.76.18 11.01 3 16.28.98 2.11 3.83 3.07 5.72 4.23-4.57 5.35-8.83 11.19-14.01 15.96-3.98 3.61-7.66 5.39-13.12 5.53 1.81-1.12 3.66-2.18 5.5-3.25 6.67-3.64 11.99-10.5 16.85-16.24-2.14-3.5-4.42-7.32-5.54-11.29-1.21-4.31-.08-9.45-1.74-13.56-1.34-3.24-3.02-6.33-4.4-9.56-1.52-3.21-3.04-6.97-5.58-9.5-2.66-.54-5.56-.14-8.27-.18 1.33-1.01 2.71-2.25 4.28-2.86m-276.62 6.12c3.98 2.49 7.57 5.51 11.43 8.16 3.19 2.21 6.66 3.08 10.35 4.09-1.02 4.97-2.08 10.04-1.96 15.13.08 4.26 1.03 8.29 1.9 12.43-8.6 7.97-8.58 18.47-15.55 27.46-6.26-3.43-8.75-9.16-11.63-15.31-.62-1.69-1.48-3.16-.65-4.95 1.61-4.12 3.93-7.63 4.85-12.05 1.31-5.3-.05-10.34-.36-15.99 4.83-.04 9.11.94 13.59 2.7-.29 5.52-.04 11.71-1.89 16.95-2.19 3.91-4.82 7.52-6.66 11.65.38-3.88.62-7.55 2.67-10.98 2.92-5.03 2.64-10.11 2.85-15.7-2.43-.75-4.85-1.48-7.29-2.18.17 4.63.67 9.61-.1 14.19-.63 3.74-2.33 6.8-3.91 10.18-.56 1.37-1.28 2.51-.81 4.03 1.56 5.01 4.88 9.68 7.98 13.86 4.64-7.08 6.33-15.43 11.36-22.38 2.5-3.23 1.27-6.18 1.04-9.89-.64-5.58.29-10.74.76-16.26-7-2.63-12-7.56-18.02-11.74-5.59 5.94-7.3 13.2-10.99 20.18.82-8.51 4.74-17.69 11.04-23.58"/><path fill="#fff" d="M313.69 243.13c4.74 5.32 5.27 11.42 6.47 18.1.45 5.24-.33 10.62-.47 15.87-2.91.29-5.83.48-8.72.86-5.7.72-10.82 3.36-16.48 4.68.77 1.38 1.79 2.79 2.16 4.33-.91 3.19-3.04 6.08-4.36 9.13-1.26 2.81-1.66 5.66-2.14 8.67-3.14-.38-6.87-.43-9.32-2.64-2.84-2.48-4.96-5.93-6.83-9.16-.92-1.77-2.06-3.66-1.74-5.74.55-3.83 2.16-7.59 3.35-11.27 2.55-7.4 4.55-14.96 6.95-22.4.82-2.23 1.66-5.05 3.45-6.69 1.33-.44 2.77-.6 4.15-.83-.92 1.7-1.87 3.39-2.83 5.06 8.43-3.22 17.42-6.44 26.36-7.97"/><path fill="#a2a2a2" d="M339.88 251.85c-.82 8.47.49 16.59 2.5 24.79 1.79 6.82 4.35 13.2 5.38 20.24 1.86 15.09 7.09 28.47 7 44.12.25 9.41-1.03 18.62-1.7 27.98-.65 8.04-2.24 15.9-2.6 23.97-.35 6.67-1.21 13.21-2.74 19.71-2.28 9.69-2.98 19.43-3.82 29.32-.39 5.01-.35 10.05.2 15.06-1.96-5.48-5.2-9.57-5.76-15.45-.47-5.24-.52-10.54-.56-15.81.51-10.75 1.87-21.52 3.87-32.1 2.72-13.87 5.97-28.51 5.96-42.68 0-6.68.34-13.38.06-20.05-.25-7-2.23-13.19-3.65-19.97-1.59-7.27-2.39-14.66-4.11-21.91-1.3-5.89-3.01-11.66-4.48-17.51-.65-3-1.45-6.28-.29-9.26 1.33-3.59 3.37-6.86 4.74-10.45"/><path fill="#060606" d="M442.22 271.56c7.7 5.73 9.37 15.9 7.93 24.87-1.41-3.89-2.03-7.91-2.93-11.93-1.07-4.67-3.5-8.38-5-12.94"/><path fill="#6e6e6e" d="M267.94 285.78c-2.51 2.65-5.36 4.81-6.69 8.3-1.42 3.65-2.4 7.47-3.82 11.13-.24-6.11.13-11.79 3.96-16.83 1.32-1.99 4.42-2.02 6.55-2.6"/><path fill="#030303" d="M252.95 300.18c-3.21 2.1-6.68 3.79-9.84 5.97-3.64 2.61-5.81 6.21-7.86 10.09-2.89 5.58-5.91 11.04-8.15 16.93-1.06 2.79-2.48 5.18-4.62 7.27-3.89 3.89-7.75 7.58-11.04 12.03-2.42 3.23-2.75 7.38-3.01 11.27-.47 5.86-.37 11.7-.18 17.56-.71-1.75-1.4-3.43-1.85-5.27-.41-4.79-.16-9.65.22-14.43.33-3.28.71-6.74 2.44-9.6 3.97-6.25 9.04-10.82 13.96-16.08 1.73-3.56 2.85-7.41 4.44-11.04 4.47-6.73 7.6-15.62 13.8-20.62 3.46-2.91 7.39-3.4 11.69-4.08"/><path fill="#a1a1a1" d="M398.85 301.56c1.75 3.9 3.17 7.93 4.85 11.86 1.39 3.58 5.21 5.49 8.09 7.84.38 2.11.57 4.26.83 6.38-.83 7.09-1.37 14.18-2.54 21.22-.84 6.06-2.17 12.97-.99 19.01 1.38 7.19 5.77 12.55 6.92 19.64.47 2.28.53 4.93 1.54 7.04 1.29 1.84 3.45 3.18 5.22 4.53-.5-3.05-1.06-6.05-1.84-9.04 1.71 2.16 4.19 4.37 5.11 7-.05 2.42-2.33 4.41-4.71 3.52-2.77-1.22-5.18-3.4-7.7-5.07l.33 1.45c-1.3-5.01-1.8-10.21-2.8-15.28-.63.55-1.26 1.11-1.88 1.66.24 1.52.48 3.04.76 4.56-4.11-6.67-7.25-13.65-8.31-21.48-.54-5.36.71-11.01 1-16.4.49-7.41 1.7-15.7.16-22.97-1.64-9.09-5.76-16.06-4.04-25.47"/><path fill="#5c5c5c" d="M443.1 305.13c-4.43 6.31-10.31 10.03-16.37 14.62-3.7 2.75-7.33 4.38-11.83 5.4 4.9-4.28 10.56-7.52 15.5-11.77 3.88-3.33 7.94-6.27 12.7-8.25"/><path fill="#1b1b1b" d="M452.58 306.75c2 3 3.52 6.25 5.33 9.36 1.49 2.58 3.45 4.38 4.48 7.02 1.17 3.24 1.58 6.79 2.45 10.12 1.03 4.31 2.71 7.93 2.77 12.44-.14 8.26.09 15.84-5.09 22.76 1.42-6.15 3.05-12.06 2.9-18.46.14-7.02-2.05-12.96-3.79-19.68-2.26-8.22-6.12-15.63-9.05-23.56"/><path fill="#555" d="M257.65 309.98c4.15 3.4 6.9 8.02 11.06 11.32 3.18 2.53 7.41 3.54 11.21 4.81-3.66.21-7.72 1.05-11-1.03-5.41-3.4-9.63-8.89-11.27-15.1"/><path fill="#030303" d="m287.49 311.49.12 3.25c-2.55 1.02-5.11 1.99-7.72 2.85 1.29-1.54 2.61-3.04 3.93-4.56-2.01.56-4 1.15-6.01 1.7.39-.99.8-1.96 1.23-2.94 2.83-.3 5.6-.29 8.45-.3"/><path fill="#a2a2a2" d="M165.76 312.24c4.09-.01 8.18-.08 12.27-.29 3.29 6.89 4.79 14.18 6.81 21.48.56 2.14.9 4.19.09 6.33-3.44 9.62-8.78 19.63-10.18 29.83-.86 6.44-.98 13.17 1.31 19.34 2.8 8.07 7.89 13.55 11.85 21.17 2.9 5.71 6.86 11.37 7.27 17.84.56 5.04-.93 9.62-3.13 14.07-4.88 9.77-6.81 20.47-12.15 30.07-5.37-8.09-9.44-17.13-12.78-26.23-1.99-5.31-2.71-10.66-3.92-16.16-1.98-8.72-3.58-17.77-3.64-26.73.4-10.06 3.42-20.37 6.6-29.85 2.64-7.83 2.96-15.96 5.11-23.88.64-2.53 1.29-4.93 1.06-7.57-1.06-10.21-3.73-19.63-6.57-29.42"/><path fill="#ddd" d="M227.46 324.88c-1.59 3.63-2.71 7.48-4.44 11.04-2.63-.4-5.22-.81-7.87-1.01 4.38-3.64 6.72-8.03 12.31-10.03"/><path fill="#a2a2a2" d="M185.04 326.01c.77 1.67 1.62 3.29 2.47 4.92.54-.67 1.09-1.35 1.63-2.03.51 4.35.75 8.74.72 13.12.01 6.11-1.37 12.06-1.43 18.17-.22.88-.44 1.77-.67 2.65-1.29-4.03-2.91-7.29-5.82-10.4 1.22-3.85 2.75-7.59 4.07-11.41 1.81-4.71.01-10.28-.97-15.02"/><path fill="#040404" d="M412.62 327.64c2.51 12.02-.74 22.59-1.16 34.36-.23 4.75 1.31 9 3.31 13.21 2.31 4.84 4.17 9.85 6.16 14.83.78 2.99 1.34 5.99 1.84 9.04-1.77-1.35-3.93-2.69-5.22-4.53-1.01-2.11-1.07-4.76-1.54-7.04-1.15-7.09-5.54-12.45-6.92-19.64-1.18-6.04.15-12.95.99-19.01 1.17-7.04 1.71-14.13 2.54-21.22"/><path fill="#a2a2a2" d="M215.15 334.91c2.65.2 5.24.61 7.87 1.01-4.92 5.26-9.99 9.83-13.96 16.08-1.73 2.86-2.11 6.32-2.44 9.6-.38 4.78-.63 9.64-.22 14.43-.79-2.59-.95-6.25-3.04-8.11-1.08-1.27-2.81-2.47-3.36-4.07-.57-2.54-.38-5.32-.17-7.91 2.03-8.42 8.97-15.5 15.32-21.03"/><path fill="#bdbdbd" d="M199.83 355.94c-.21 2.59-.4 5.37.17 7.91.55 1.6 2.28 2.8 3.36 4.07 2.09 1.86 2.25 5.52 3.04 8.11.45 1.84 1.14 3.52 1.85 5.27-.19-5.86-.29-11.7.18-17.56.05 6.1.68 12.24 1.28 18.31-1.91.26-4.13.9-6.03.43-1.74-2.26-2.51-5.31-3.08-8.06-1.16-6.1-1.82-12.31-.77-18.48"/><path fill="#030303" d="M469.81 366.56c.99 5.49 1.72 12.07-1.07 17.15-3.14 6.16-4.92 12.36-9.01 18.01-3.83 5.33-8.13 10.65-13.33 14.7-2.93 2.17-6.01 3.92-9.77 2.84-3.7-1.25-6.51-5.21-8.59-8.33 3.43 1.97 6.47 4.77 10.07 6.4 2.68-.04 5.41-2.15 7.39-3.82 4.39-3.94 8.12-8.68 11.54-13.46 4.07-5.68 5.9-11.69 8.96-18.04 2.58-5.2.41-10.49 3.81-15.45"/><path fill="#0d0d0d" d="M411.16 381.66c1 5.07 1.5 10.27 2.8 15.28 1.75 5.58 6.35 10.45 9.52 15.34-5.12-2.42-7.97-6.47-11.1-10.98-.05 5.58.57 11.09 1.36 16.6.71 4.6 1.89 8.98 4.34 12.98 2.59 4.35 6.16 7.86 9.06 11.93 1.13 1.55 1.27 3.28 1.41 5.13.46 7.7 1.42 15.38 2.59 23.01 1.12 7.21 1.11 14.49 2.35 21.69 1.3 8.35 3.19 18.27.71 26.5-1-4.76-.88-9.46-1.03-14.29-.54 5.02-.15 9.95.42 14.94.05 3.22.03 6.44-.18 9.65l-.12 1.09c-1.47-6.91-.29-14.45-.57-21.53.33-9.29-2.59-17.81-3.14-26.99-.37-9.79-2.56-19.36-3.33-29.14-.38-2.92-.2-6.69-2.1-9.07-3.13-4.3-6.76-7.84-9.27-12.67-2.69-5.08-3.14-10.73-4.53-16.33-1.52 8.5-1.02 16.62-1.13 25.2-.05 5.08.32 9.96 1.17 14.97-1.44-3.95-2.98-7.61-3.02-11.91-.13-6.68-.06-13.41.11-20.09.18-6.33 1.79-12.19 3.3-18.29 1.51-5.69.41-11.16-.74-16.8-.28-1.52-.52-3.04-.76-4.56.62-.55 1.25-1.11 1.88-1.66"/><path fill="#fff" d="M197.29 425.85c4.08 2.19 8.58 5.32 13.43 4.59 4.91-.71 9.76-1.79 14.68-2.43-1.66 10.86-4.29 21.58-6.6 32.32-1.02 5.32-1.31 10.61-1.73 15.99-9.97-.5-19.26 2.26-28.74 5.01-1.75.38-4.11 1.13-5.79.26-2.16-1.64-3.63-4.36-5.15-6.59 1.88-1.01 4.69-1.86 5.64-3.92 4.9-9.77 6.77-20.5 11.84-30.2 2.32-4.66 2.06-9.91 2.42-15.03"/><path fill="#c1c1c1" d="M337.78 425.78c.04 5.27.09 10.57.56 15.81.56 5.88 3.8 9.97 5.76 15.45 1.27 10.25-.43 20.89-.72 31.2.17-4.08.28-8.2.06-12.27-.34-7.93-3.25-14.88-4.49-22.9-1.71-9.05-1.91-18.12-1.17-27.29"/><path fill="#bfbfbf" d="M343.14 492.9c-.02 3.05.2 6.05.38 9.09-2.91-.38-5.8-.76-8.68-1.37 2.14-.99 4.69-1.86 6.45-3.47.88-1.24 1.38-2.82 1.85-4.25"/><path fill="#c3c3c3" d="M334.11 503.34c3.26.32 6.5.85 9.75 1.27 2.11 12.75-1.33 23.69 4.68 35.55.09-1.05.16-2.11.23-3.17 2.4 6.68 2.69 12.27 1.89 19.28-.72-2.86-1.19-5.85-1.71-8.76-3.48 2.6-6.75 4.82-8.23 9.15-.88 2.78-1.65 6.61 1.16 8.58 6.19 4.61 16.05 4.87 22-.34 3.3-2.8 5.02-6.53 6.85-10.35 3.64-1.78 7.41-3.25 11.18-4.72 5.83-2.23 10.67-5.2 17.03-5.91 6.58-.7 12.96-1.68 19.43-3.1.16 7.75-.85 15.43-.75 23.18.04 6.75-.25 13.51-.05 20.25-1.41-12.07.35-24.16-.53-36.31-6.91 3.66-13.27 8.14-19.94 12.19-6.47 3.97-13.2 5.1-20.17 7.82-7.41 2.89-14.77 5.9-22.13 8.92-2.34.89-5 1.94-7.53 1.89-3.06-1.71-5.33-5.18-7.53-7.84-.05 2.74-.13 5.48-.07 8.22-1.09-6.35-1.97-12.67-2.08-19.13-.26-10.98-4.41-20.94-4.14-32 .2-8.22.08-16.48.66-24.67"/><path fill="#202020" d="M433.59 519.79c.37 3.25.27 6.41-.18 9.65.21-3.21.23-6.43.18-9.65"/><path fill="#020202" d="M432.56 534.38c-.81 1.48-1.58 3.07-2.64 4.38-3.11 1.17-6.86.87-10.15 1.31-.29 10.97.05 21.95-.06 32.93-.2 9.1 1.84 17.93 1.78 27-.01 7.31.06 14.8-.71 22.04-.59 5.98-1.29 11.95-1.69 17.95-.65 10.79-3.33 21.18-4.56 31.92-1.16 10.35-4.28 20.19-6.07 30.41-2.32 14.13-5.31 28.15-8.2 42.17-4.72 18.34-10.24 36.47-14.88 54.83-1.99 7.6-2.39 15.33-1.97 23.15 1.1-1.6 2.17-3.22 3.25-4.83 3.23 4.88 1.94 9.59 1.93 15.09-.38 6.08.05 12.54-1.27 18.48-.62 2.85-2.84 4.32-4.87 6.16.75-3.48 1.77-6.78 2.26-10.31 1.02-6.87.81-14.02.82-20.96-12.15 2.96-25.1 4.38-37.56 2.91-6.15-1.28-12.31-1.95-18.54-2.74l1.57-.53c4.31-.82 8.61-.6 12.9.13 11.7 2.14 24.8-.09 36.56-1.59.22-5.48.08-10.98.53-16.45.66-6.12 2.35-12.35 3.92-18.31 4.14-14.91 8.13-29.86 12.25-44.78 2.69-11.78 5.04-23.73 7.2-35.62 1.77-13.06 5.96-25.53 7.5-38.6 1.31-10.62 3.89-20.77 4.41-31.48.29-7.73 1.91-15.32 2.16-23.03.11-10.66.7-21.16-.86-31.76-.2-6.74.09-13.5.05-20.25-.1-7.75.91-15.43.75-23.18-6.47 1.42-12.85 2.4-19.43 3.1-6.36.71-11.2 3.68-17.03 5.91-3.77 1.47-7.54 2.94-11.18 4.72-6.2 2.5-12.87 8.24-19.65 8.13-3.67.1-5.35-2.66-7.66-4.97 2.47.95 5.01 2.19 7.62 2.66 2.31.07 4.74-1 6.82-1.94 4.05-2.6 7.91-5.31 12.37-7.19 5.6-2.4 11.39-4.23 16.84-6.98 4.78-2.43 9.86-3.54 15.18-4.02 7.39-.66 14.43-2.8 21.75-3.89 2.9-.47 5.72-1.24 8.56-1.97"/><path fill="#c3c3c3" d="M235.58 539.58c2.38 1.1 4.84 1.9 7.33 2.72.54 4.32.81 8.65.87 13.01-1.91-1.53-3.8-3.1-5.64-4.72 1.16-2.27 2.29-4.56 3.41-6.85-2.08-1.27-4.12-2.58-5.97-4.16m9.64 2.79c9.45-.52 17.7 2.36 26.67 4.71 7.3 1.86 13.75 5.69 20.9 8.15 5.33 1.85 10.65 5.89 16.25 6.33 4.23.37 6.96-1.89 10.19-4.15-2.49.2-4.97.46-7.45.74 2.4-.58 5.23-1.91 7.71-1.55 3.59 2.32 6.36 6.04 9.4 9.03-4.07 4.22-8.87 8.64-14.28 11.03-3.71 1.78-8.34-.17-12.07-1.09-12.86-3.9-25.42-2.42-38.53-1.58-5.52.46-10.29-1.39-15.24-3.53-.1 1.55-.2 3.09-.26 4.64-.33-4.38-.84-8.74-1.19-13.11-.52-6.69-2.08-12.91-2.1-19.62"/><path fill="#e3e3e3" d="M229.46 547.67c4.35 3.2 8.43 6.85 12.52 10.38 3.14 2.56 2.92 6.16 3.37 9.86.06 1.28.12 2.57.17 3.86-2.06-3.33-4.12-5.73-7.27-8.08-5.3-3.72-6.49-10.32-8.79-16.02"/><path fill="#aeaeae" d="M348.95 547.51c.52 2.91.99 5.9 1.71 8.76 2.33.97 4.75 1.6 7.2 2.16-2.08.94-4.51 2.01-6.82 1.94-2.61-.47-5.15-1.71-7.62-2.66 2.31 2.31 3.99 5.07 7.66 4.97 6.78.11 13.45-5.63 19.65-8.13-1.83 3.82-3.55 7.55-6.85 10.35-5.95 5.21-15.81 4.95-22 .34-2.81-1.97-2.04-5.8-1.16-8.58 1.48-4.33 4.75-6.55 8.23-9.15"/><path fill="#b7b7b7" d="M372.67 791.42c.12 6.73-1.08 11.95-4.24 17.88.24-6.1.08-12.94 4.24-17.88"/><path fill="#545454" d="M357.58 807.16c1.2 5.51-3.42 10-6.44 14.05.6-5.56 2.28-10.16 6.44-14.05"/><path fill="#c7c7c7" d="M380.99 807.83c-.45 5.47-.31 10.97-.53 16.45-11.76 1.5-24.86 3.73-36.56 1.59-4.29-.73-8.59-.95-12.9-.13 6.33-2.75 11.57-.47 18.04-.35 4.34.25 7.95-2.6 12.08-3.61 4.88-1.22 10.76-1.16 15.74-2.93 1.26-.5 2.32-.79 2.68-2.27.84-2.81 1.08-5.85 1.45-8.75"/><path fill="#b4b4b4" d="M310.13 809.98c-6.63 4.1-11.68 9.52-14.24 16.98 4.89-5.65 7.75-11.61 15.17-14.47-1.87 5.41-4.77 10.27-7.02 15.52 1.56-1.6 3.1-3.19 4.46-4.97.47 2.2.75 4.68 1.79 6.7 1.34 1.6 4 2.21 5.9 2.9-4.72 1.56-9.1 3.4-14.16 3.65-8.88.42-17.92-.37-26.57-2.47-6.07-1.35-12.52-2.67-18.34-4.9-1.63-.76-3.49-1.23-4.11-3.11-1.36-3.35-1.79-7.19-2.28-10.75 2.19 5.78 7.04 7.19 11.65 10.58 4.6 3.3 9.37 6.07 14.98 7.23 4.25.88 9.56 1.86 13.71.31 2.15-3.7 3.08-7.97 5.49-11.59 2.19-3.35 4.45-6.85 7.31-9.67 1.61-1.63 4.13-1.61 6.26-1.94"/><path fill="#1a1a1a" d="M310.13 809.98c1.47-.14 2.94-.24 4.42-.29-1.4 4.74-3.15 9.3-6.05 13.35-1.36 1.78-2.9 3.37-4.46 4.97 2.25-5.25 5.15-10.11 7.02-15.52-7.42 2.86-10.28 8.82-15.17 14.47 2.56-7.46 7.61-12.88 14.24-16.98"/><path fill="#080808" d="M247.86 820.86c-1.3 3.71-3.33 7.36-4.12 11.19-.57 3.83-.05 7.9.31 11.74.73 6.52.52 12.83.4 19.37 7.01 3.07 14.21 6.37 21.69 8.06 11.57 2.17 21.55-1.65 32.82-3.43 5.28-.85 9.84-2.69 15.28-2.31-5.35 4.59-11.45 5-18.1 5.98.12 3.69-.05 7.6 1.25 11.08 2.22 5.97 5.32 11.67 10.06 16.02 4.49 4.4 9.89 6.25 13.23 11.73 2.92 4.68 3.17 9.74 2.97 15.1-2.1-4.15-3.1-8.73-5.17-12.87-2.55-5.09-8.53-7.14-12.6-11.4-5.79-5.25-8.9-12.19-10.67-19.69-.5-3.11-.6-6.17-.75-9.31-6.1 1.1-12.27 2.46-18.44 2.97-5.33.41-10.67-.92-15.89-1.92.45 4.24 1 8.48 1.34 12.73.61 7.68 1.21 15.23.16 22.9.91.79 1.82 1.58 2.73 2.36.69-4.22 1.43-8.41 2.71-12.49 1.14 7.56-.97 14.85-.53 22.33 1.1 4.41 5.31 10.73 9.14 13.27 5.1 2.87 10.45 3.88 14.51 8.51-4.47-.86-8.82-2.29-12.97-4.15-5.2-2.19-8.98-7.47-11.54-12.31-1.77-3.29-1.58-6.59-2.16-10.2-.37-3.2-3.97-5.91-3.9-9.16-.06-3.98.29-7.95.22-11.93.08-7.75-1.19-15.07-2.09-22.85-5.41-2.56-10.97-4.7-16.17-7.71.39-9.53-.05-19-.28-28.52-.17-6 2.37-10.96 6.56-15.09"/><path fill="#b7b7b7" d="M334.47 861.36c4.85.65 9.58 1.69 14.5 1.81 6.49.18 12.99.09 19.48.29 2.58 3.75 5.17 7.33 8.67 10.29-3.28.84-6.57 1.63-9.85 2.48-2.75-1.79-4.83-3.83-8.35-3.45-7.3.76-14.36 1.63-21.69.33-1.05-.16-2.1-.3-3.15-.45.29-3.76.22-7.53.39-11.3"/><path fill="#c3c3c3" d="M294.46 872.12c.15 3.14.25 6.2.75 9.31-5 1.24-9.95 2.33-15.14 2.37-6.33.1-12.42.71-18.6 2.1-.34-4.25-.89-8.49-1.34-12.73 5.22 1 10.56 2.33 15.89 1.92 6.17-.51 12.34-1.87 18.44-2.97m72.81 4.11c-5.41 1.45-11.7 3.48-17.33 2.89-4.5-.77-8.38-4.39-12.71-6.01 7.33 1.3 14.39.43 21.69-.33 3.52-.38 5.6 1.66 8.35 3.45"/><path fill="#a7a7a7" d="M437.08 897.51c.73 3.3.94 5.84-.99 8.79-.37-3.28-.15-5.69.99-8.79"/><path fill="#050505" d="M339.86 906.09c6.14.88 12.2 2.26 18.39 2.89 6.8.64 13.18 1.37 18.86 5.55-6.07.73-11.18-1.6-17.13-2.07-6.17-.53-12.13-1.96-18.17-3.23-4.61-1.01-8.83-.34-13.49-.43 3.67-1.9 7.3-3.37 11.54-2.71"/><path fill="#0e0e0e" d="M272 925.07c5.48 1.29 10.53 3.43 16.19 3.98 7.96.75 16.08.89 24.02-.2-3.64 1.76-7 3.45-11.18 3.29-5.28-.21-10.81-.63-16.04-1.34-4.86-.63-9.11-2.85-12.99-5.73"/><path fill="#020202" d="M322.34 928.02c-1.18 3.19-2.25 6.14-4.97 8.35-4.85 3.82-10.99 5.63-17.15 4.87 3.42-2.26 7.2-3.52 10.93-5.12 4.5-1.95 7.37-5.19 11.19-8.1"/></svg>