<svg xmlns="http://www.w3.org/2000/svg" width="1252pt" height="1088" viewBox="0 0 1252 816"><path fill="#fff" d="M0 0h1252v816H0z"/><path fill="#020202" d="M340.88 19.09c9.89 2.08 17.66 11.12 19.75 20.79.95 3.34 1.19 7.52 3.14 10.43 2.58 2.82 7.44 3.74 10.91 5.12 5.89 2.08 11.56 4.86 16.98 7.94 5.84 3.5 11.2 7.89 13.05 14.73 4.48 15.46 3.72 32.6-.41 48.05-1.09 4.54-2.44 9.82-1.73 14.48.19 1.32 1.52 2.44 2.45 3.3 4.22 3.54 9.35 6.95 12.57 11.5 2.74 3.96 4.34 8.77 4.8 13.54.47 6.11-2.64 12.65-5.42 17.96-2.07 4.03-4.59 7.13-8.15 9.92-5.19 4.02-9.67 8.49-15.86 10.75-3.06 1.28-6.75 2.03-9.44 3.99-1.66 3.58-2.07 7.78-3.27 11.55-1.45 6-6.84 10.95-11.71 14.4-4.56 3.25-12.05 4.23-14.71 9.29-4.39 7.42-6.22 16.31-9.89 24.16-2.73 6.54-8.05 11.52-14.39 14.55-5.39 2.39-12.26 3.01-17.67.38-3.68-1.47-7.01-3.72-11.08-2.12-10.46 4.32-20.2 11.24-30.09 16.71-5.09 2.68-10.95 4.77-16.74 4.91-5.66.02-10.19-6.67-15.94-6.11-7.29.29-14.54 4.3-22 4.51-8.3.48-16.47-1.02-23.76-5.11-4.68-2.59-10.48-5.86-12.75-10.95-3.31-7.74-3.67-15.56-5.13-23.42-1.74-7.85-10.54-12.55-15.97-17.77-5.18-4.76-9.51-10.51-11.44-17.36-1.78-7.34.64-15.67-.88-22.95-2.08-7.71-7.51-13-12.41-18.91-7.92-9.44-9.79-23.33-4.97-34.63 2.33-5.49 5.16-10.79 7.91-16.08 5.85-11.23 15.31-20.97 24.51-29.54 7.17-7.48 14.77-14.54 21.95-22.01-.8-2.26-2.67-5.17-2.31-7.59 1.57-3.54 4.86-6.44 7.3-9.41 4.31-5.04 8.61-10 13.77-14.21 4.44-3.83 8.5-7.63 13.85-10.21 7.86-3.81 15.75-7.32 24.16-9.66 9.55-2.97 20.24-4.75 30.22-3.42 4.45.51 8.46 3.34 12.86 3.64 4.84-.76 9.48-3.46 14.04-5.23 7.86-3.1 14.29-7.31 22.88-8.34 6.75-.77 14.31-2.83 21.02-1.57"/><path fill="#a2a2a2" d="M331.01 23.84c4.33-.38 8.79-.6 12.8 1.39 4.2 2.12 7.62 5.95 9.99 9.96 3.07 5.33 2.77 11.7 5.13 16.93 1.72 3.66 5.02 5.04 8.62 6.27 9.87 3 20.18 7.26 28.21 13.86 5.17 4.23 5.45 10.58 6.34 16.72.96 10.24.96 21.28-1.92 31.23-1.93 6.97-4.55 14.49-3.45 21.82.57 4.4 5.5 7.06 8.63 9.65 5.85 4.39 10.47 9.97 11.18 17.5.14 4.98-2.5 10.23-4.85 14.5-3.42 6.62-10.68 11.26-16.82 15.19-5.27 3.38-12.63 3.67-17.29 7.68-3.53 5.05-2.44 12.7-6.05 18-5.09 7.64-13.62 9.03-18.95 16.03-4.76 5.88-7.8 12.55-10.46 19.57-2.3 5.56-4.3 11.97-9.04 15.95-4.44 3.87-11.01 6.77-16.9 4.89-5.43-1.57-9.77-4.79-15.71-3.51-6.09 1.42-11.88 4.67-17.34 7.65-8.29 4.65-16.77 12.25-26.41 13.63-4.82.91-9.1-3.81-13.78-4.78-5.17-.97-10.97.01-16.07 1.13 4.28-1.33 8.67-1.65 13.06-2.42 2.98-.47 5.49-3.18 8.03-4.74 1.98-1.76 5.46-.09 7.76.28 6.18 1.82 11.85.27 17.71-1.79 8.22-3.06 16.06-7.53 22.62-13.38 2.62-2.23 5.6-5.56 9.02-6.38 4.65-.2 9.17 4.34 13.75 4.94 2.93.16 5.2-1.66 7.11-3.66 2.4-2.61 4.65-5.45 6.44-8.53 2.42-4.21 2.18-9.94 4.1-14.09 1.48-2.87 3.98-5.33 5.96-7.88 2.99-3.62 4.84-7.33 9.16-9.61 5.37-2.85 11.08-6.81 13.74-12.47 2.02-5.01-1.08-11.66.16-16.79 1.3-3.76 4.7-5.55 8.19-6.87 6.68-2.42 13.1-3.75 19.01-8.05 4.14-2.94 6.34-8.22 8.32-12.74 1.1-2.91 2.82-6.29 1.57-9.41-1.64-4.28-4.48-9.12-9-10.79-2.63-1.27-6.05-2.13-8.16-4.18-1.54-1.78-.68-5.21-.35-7.32 2.05-8.94 3.27-18.01 5.2-26.97 1.03-5.24 2.46-10.96 2.19-16.3-.3-5.3-2.73-10.72-4.99-15.47-1.97-4.15-4.77-7.77-8.69-10.24-7.69-4.93-18.06-8-25.02-14.03-4.05-3.35-4.21-9.78-5.23-14.59-.66-2.87-.9-6.73-3.78-8.3-4.09-2.42-8.6-4.2-12.97-6.06-6.29-2.8-14.23-.85-20.65.72 6.47-2.79 12.96-3.3 19.88-4.14"/><path fill="#020202" d="M896.95 25.42c6.21.32 12.26 3.19 17.89 5.63 4.08 1.81 7.88 3.83 10.54 7.54 2.1 2.98 2.57 6.94 4.51 9.9 5.05 2.77 12.3 1.44 17.9 2.95 7.26 1.82 14.29 4.84 17.28 12.24 3.33 9.8 2.03 21.56 3.98 31.74.79 3.38 3.54 6.21 5.87 8.66 4.79 4.87 9.7 8.84 12.92 15.05 2.65 5.24 5.7 10.95 6.5 16.82.82 7.97-3.32 15.34-7.73 21.63-1.8 2.85-4.47 6.25-3.15 9.81 1.81 4.68 4.86 8.61 6.13 13.6 2.36 8.64.26 18.1-6.12 24.48-3.05 2.97-7.48 4.42-10.33 7.5-1.36 4.06-1.08 8.61-2.59 12.68-1.86 5.5-6.91 10.07-11.41 13.51-5.4 4.18-11.96 5.2-18.52 6.57-6.88 1.52-12.66-.61-19.61-.49-5.62.07-11.63-.74-16.73 2.09-6.89 3.65-13.49 9.03-21.34 11.62-5.87 2-12.75 1.3-18.94 1.46-7.69.17-16.61.08-23.44-3.99-3.93-2.44-4.25-6.22-5.84-10.17-.48-1.36-1.22-2.62-2.84-2.61-4.95-.07-9.86 1.75-14.84 1.99-3.53.17-7.44.4-10.86-.62-2.96-.97-4.43-3.75-6.1-6.15-2.77-6.73-4.12-13.74-5.72-20.79-1.34-4.57-3.26-9.37-6.37-13.03-1.34-1.36-2.7-3.13-4.84-2.58-7.94 1.48-15.09 4.62-23.56 2.6-4.87-1.85-9.29-5.19-13.39-8.35-6.55-5.17-7.46-14-6.76-21.76.94-6.74 4.31-13.39 3.1-20.72-.97-2.05-2.72-3.79-4.14-5.54-6.39-7.41-11.28-16.72-11.72-26.64-.22-5.36-.17-10.74-.2-16.1-.08-5.63 2.43-11.33 5.51-15.95 3.03-4.45 7.61-7.06 11.96-10.04 4.01-2.66 7.73-5.69 11.3-8.91-.57-3.64-2.1-8.58-.18-11.99 2.24-4.01 6.56-7.14 10.2-9.83 6.63-4.86 14.04-8.58 22.05-10.53 7.47-1.95 15.96-1.23 23.68-1.2 7.59.22 15.41-.57 22.7 1.96 2.56.78 5.3 2.2 7.98 2.24 4.36-1.48 5.74-8.13 9.26-10.77 2.46-1.71 6.08-1.7 8.9-1.07 4.92 1.18 8.54 4.58 13.06 6.25 3.54-1.99 6.29-5.25 9.85-7.31 4.3-2.45 9.25-3.7 14.2-3.38"/><path fill="#fff" d="M331.78 27.26c4.37 1.86 8.88 3.64 12.97 6.06 2.88 1.57 3.12 5.43 3.78 8.3 1.02 4.81 1.18 11.24 5.23 14.59 6.96 6.03 17.33 9.1 25.02 14.03 3.92 2.47 6.72 6.09 8.69 10.24 2.26 4.75 4.69 10.17 4.99 15.47.27 5.34-1.16 11.06-2.19 16.3-1.93 8.96-3.15 18.03-5.2 26.97-.33 2.11-1.19 5.54.35 7.32 2.11 2.05 5.53 2.91 8.16 4.18 4.52 1.67 7.36 6.51 9 10.79 1.25 3.12-.47 6.5-1.57 9.41-1.98 4.52-4.18 9.8-8.32 12.74-5.91 4.3-12.33 5.63-19.01 8.05-3.49 1.32-6.89 3.11-8.19 6.87-1.24 5.13 1.86 11.78-.16 16.79-2.66 5.66-8.37 9.62-13.74 12.47-4.32 2.28-6.17 5.99-9.16 9.61-1.98 2.55-4.48 5.01-5.96 7.88-1.92 4.15-1.68 9.88-4.1 14.09-1.79 3.08-4.04 5.92-6.44 8.53-1.91 2-4.18 3.82-7.11 3.66-4.58-.6-9.1-5.14-13.75-4.94-3.42.82-6.4 4.15-9.02 6.38-6.56 5.85-14.4 10.32-22.62 13.38-5.86 2.06-11.53 3.61-17.71 1.79-2.3-.37-5.78-2.04-7.76-.28-2.54 1.56-5.05 4.27-8.03 4.74-4.39.77-8.78 1.09-13.06 2.42-4.52 1.21-9.11 3.25-13.85 3.21-6.18-.21-12.24-1.79-17.78-4.53-3.77-1.96-8.55-4.49-10.67-8.32-3.66-7.51-3.59-16.89-5.8-24.32-3.05-8.54-9.72-12.16-16.17-17.71-4.73-4.2-9.08-9.76-10.84-15.9-1.4-6.9.62-14.59-.79-21.55-.88-4.37-3.27-8.59-5.7-12.28-3.72-5.58-8.52-9.41-11.42-15.54-3.67-7.8-3.46-17.43.13-25.23 3.08-6.7 6.42-13.35 10.35-19.6 2.82-4.52 6.29-8.17 9.8-12.13 5.01-5.7 11.14-10.19 16.06-15.99 5.08-5.87 11.27-10.83 16.08-16.9 3.49-3.89-1.94-9.37 1.29-12.7 5.99-7.38 12.1-14.56 19.51-20.58 7.27-6.96 16.61-10.45 25.89-14.2 11.36-3.76 24.03-7.74 36.09-6.18 6.37.84 10.97 5.62 17.63 3.26 8.28-2.92 16.37-6.5 24.45-9.93 6.42-1.57 14.36-3.52 20.65-.72m576.07 7.82c3.82 1.78 8.59 3.4 11.53 6.5 2.21 2.83 2.65 7.13 3.86 10.47 1.35 3.98 2.72 8.93 5.75 11.95 4.87 4.53 10.85 7.39 17.3 8.91 2.47 2.72 3.57 5.35 3.98 9.02 1 8.56 1.44 18.31 5.97 25.93 4.11 6.12 11.18 10.34 15.8 16.09 3.63 4.45 4.45 11 4.5 16.55.2 8.6-8.77 15.98-9.21 24.55.09 4.14 2.85 8.4 4.24 12.27 3.12 7.91 1.19 17.45-4.57 23.66-2.57 2.98-6.07 5.4-8.24 8.67-2.4 4.42-2 10.86-4.89 15.22-1.7 2.61-4.67 3.65-7.46 4.67-5.18 1.73-10.98 3.31-16.47 3.01-6.48-.33-11.13-4.4-17.74-4.27-4.82.09-9.99.1-14.64 1.48-3.89 1.75-6.71 6.11-9.97 8.85-3.63 3.4-8.12 4.5-12.92 5.11-5.2.59-10.46.77-15.69.72-3.1-.13-6.82-.26-9.45-2.12-4.27-2.97-7.49-7.72-12.73-9.13-5.73-1.54-11.33.81-16.98 1.29-2.4.39-4.47-1.71-6.27-3.02-3.69-3.08-7.84-5.72-10.75-9.41-1.29-5.15-2.45-10.33-4.87-15.15-2.02-3.97-6.04-7.15-9.03-10.44-7.23 1.58-14.58 3.4-21.96 3.93-4.64.27-8.16-1.95-11.88-4.37-3.04-2.07-6.64-4.5-8.38-7.84-2.25-4.51-2.79-9.81-1.39-14.66 1.92-6.66 4.01-14.53 3.08-21.47-1.05-2.66-3.54-4.88-5.35-7.07-5.26-6.08-9.82-13.81-10.42-21.98-.36-5.33-.26-10.71-.26-16.05-.15-7.12 3.53-14.26 9.45-18.24 6.09-4.22 13.04-8.33 18.19-13.7 3.39-3.01.12-8.69.61-12.61 1.05-2.48 3.75-4.4 5.81-6.03 6.86-5.09 15.02-10.12 23.54-11.61 5.9-.9 12.09-.49 18.06-.53 6.34.12 12.74-.22 19.06.28 5 .38 9.17 3.19 13.95 3.91 3.46.05 6.91-2.8 8.95-5.4 1.99-2.35 3.5-5.79 6.11-7.44 5.04.35 8.68 4.02 12.87 6.3 2.68 1.44 5.68.76 8.1-.86 4.44-2.99 7.5-6.76 12.85-8.43 6.19-2.41 12.2.16 17.96 2.49"/><path fill="#ddd" d="M923.24 52.05c3.97 4.16 8.96 5.13 14.47 5.55-.23 2.24-.71 4.69-.33 6.93 2.45 3.2 6.13 5.44 8.91 8.38-6.45-1.52-12.43-4.38-17.3-8.91-3.03-3.02-4.4-7.97-5.75-11.95"/><path fill="#a1a1a1" d="M937.71 57.6c5.59.51 11.57 1.31 16.47 4.26 1.75 1.06 2.88 2.51 3.58 4.43 3.41 10.21 1.69 22.07 4.06 32.16 2.93 10.37 14.98 16.47 19.86 25.88 2.58 4.81 5.8 11.06 4.57 16.64-1.78 8.87-10.04 14.61-11.5 23.1-.9 5.08 3.34 10.35 5.36 14.79 3.03 5.93 3.19 13.06-.55 18.7-3.28 4.94-10.7 6.37-13.78 11.16-2.23 4.66-1.07 12.02-4.34 16.7-3.97 5.67-10.09 9.69-16.83 11.26-10.99 2.94-21.89-1.23-33.6.26-10.82.78-17.79 8.44-27.31 12.78-5.1 2.5-10.17 2.32-15.7 2.46-5.99.02-12.59.46-18.44-.82-2.25-.57-4.32-1.1-5.34-3.41-2.26-4.07-2.84-9.66-7.87-11.32-8.26-3.18-18.62 2.75-27.17.53-3.7-3.7-4.88-10.23-6.38-15.11 2.91 3.69 7.06 6.33 10.75 9.41 1.8 1.31 3.87 3.41 6.27 3.02 5.65-.48 11.25-2.83 16.98-1.29 5.24 1.41 8.46 6.16 12.73 9.13 2.63 1.86 6.35 1.99 9.45 2.12 5.23.05 10.49-.13 15.69-.72 4.8-.61 9.29-1.71 12.92-5.11 3.26-2.74 6.08-7.1 9.97-8.85 4.65-1.38 9.82-1.39 14.64-1.48 6.61-.13 11.26 3.94 17.74 4.27 5.49.3 11.29-1.28 16.47-3.01 2.79-1.02 5.76-2.06 7.46-4.67 2.89-4.36 2.49-10.8 4.89-15.22 2.17-3.27 5.67-5.69 8.24-8.67 5.76-6.21 7.69-15.75 4.57-23.66-1.39-3.87-4.15-8.13-4.24-12.27.44-8.57 9.41-15.95 9.21-24.55-.05-5.55-.87-12.1-4.5-16.55-4.62-5.75-11.69-9.97-15.8-16.09-4.53-7.62-4.97-17.37-5.97-25.93-.41-3.67-1.51-6.3-3.98-9.02-2.78-2.94-6.46-5.18-8.91-8.38-.38-2.24.1-4.69.33-6.93"/><path fill="#030303" d="M288.36 78.66c3.98 1.65 7.79 4.13 10.64 7.37 3.85 4.4 4.62 11 2.24 16.27-3.03 6.6-7.47 11.47-11.71 17.19 6.86-.32 14.48-1.86 21.25-.57 5.53 1.41 7.78 6.97 8.54 12.1.63 4.33-1.02 8.17-4.29 10.97-5.99 5.32-13.55 6.37-21.11 7.89 8.81 4.81 17.53 10.44 23.37 18.81 2.15 3.21 2.69 6.36 1.77 10.12-1.23 4.89-3.89 10.28-8.63 12.6-4.86 2.45-10.84 2.86-16.13 1.92-4.48-1-7.87-6.11-10.8-9.37 1.49 7.16 3.08 15.56 1.43 22.78-.91 3.99-3.61 7.27-7.89 7.65-6.28.45-13.42-.81-19.26-3.19-5-2.21-10.93-6.51-12.02-12.22-.61-5.3.81-10.96 1.73-16.19 1.66-9.02 6.37-15.7 10.48-23.75-2.29-3.56-4.85-6.52-4.71-11.03-.2-4.62 1.92-8.01 3.48-12.13 1.04-2.3-.24-4.36-.87-6.61-2.78-7.68-4.4-16.66-8.19-23.86-1.39-2.67-3.46-4.73-6.66-4.65-5.81.45-10.56 4.95-13.65 9.57-1.95 3.04-3.78 6.67-2.24 10.29 2 4.43 5 8.49 7.92 12.35 4.37 5.66 11.32 6.32 16.66 11.41-5.14-.39-10.63-1.46-15.15-4.04-3.91-2.27-6.8-6.76-9.46-10.34-1.92-2.8-4.38-5.79-5.36-9.07-1.31-6.07 1.56-11.44 5.07-16.14 4-5.35 10.17-9.76 17.12-9.38 3.68.09 6.78 1.72 8.96 4.68 3.12 4.32 4.74 10.03 6.59 15.01 1.53-9.74 2.02-18.83 6.92-27.68 1.9-3.44 4.89-5.99 8.49-7.54 4.78-2.06 10.48-3.29 15.47-1.22"/><path fill="#fff" d="M288.27 84.71c2.52 1.3 5.04 3.04 6.79 5.29 2.17 2.71 2.26 6.7.9 9.78-3.98 8.54-10.17 14.87-17.17 20.99-5.02 4.17-7.59 9.24-14.42 10.61-1.84-10.96-1.88-22.73 1.24-33.46 1.47-4.51 3.45-10.05 7.9-12.41 4.3-2.4 10.3-3.28 14.76-.8"/><path fill="#030303" d="M856 90.23c8 .05 16.06-.45 23.94 1.04 7.74 1.37 15.13 4.97 21.69 9.22 3.2 2.08 5.66 4.78 7.54 8.1 1.63 2.61 3.04 5.93 5.39 7.95 6.83 2.25 14.62 1.07 21.57 4.4 6.9 3.02 11.11 10.56 13.6 17.31 3.81 10.53.95 22.01-1.14 32.59-.74 3.74-2.86 7.11-6.7 8.16-4.44.82-9.19.49-13.68.27.28-1.58.36-3.34 1.01-4.83 3.4-1.68 7.82-1.58 11.55-2.07 1.94-9.49 5.62-21.35 2.62-30.78-1.72-4.98-4.45-10.95-8.97-13.94-6.78-4.13-16.88-1.77-23.67-4.57-4.89-3.39-6.27-10.97-10.65-15.16-4.4-4.15-9.95-7.34-15.61-9.44-11.56-4-22.51-3.2-34.49-3.07-5.84.3-11.77.89-17.13 3.38-5.37 2.37-11.42 5.24-15.41 9.67-4.03 4.72-6.05 11.49-8.23 17.18-.67 1.45-1.36 3.64-3.01 4.21-5.03 1.94-11.58 1.3-16.75 1.97-3.54.5-5.85 3.44-7.33 6.46-3.73 9.02-4.61 18.62-3.6 28.28 8.26 2.93 17.96 2.62 26.71 3.11 1.81-3.98 3.41-7.7 6.61-10.79 3.85-3.9 9.02-5.76 14.36-6.46 5.14-.73 10.81 1.26 14.55 4.81 2.89 3.32 3.91 8.51 5.4 12.59 7.65-.27 15.21.5 22.84.81 8.14.36 16.02 2.44 24.19 2.66.44-6.95 1.35-14.28 7.67-18.43 5.56-3.14 13.48-1.83 18.53 1.84 4.59 3.08 6.66 8.3 7.75 13.52.48 2.71.59 5.27-1.53 7.35-1.81.21-3.71.07-5.53.01-2.59 2.71-5.15 6.06-9.1 6.66-4.79.55-8.14-1.79-11.96-4.19-2.47-1.76-6.16-1.06-9.04-1.2-6.13.21-11.9-1.19-17.95-1.75-9.46-.83-19.08-1.51-28.45-3.03-3.13-1.13-3.86-6.98-5.14-9.73-1.2-4.43-5.47-6.05-9.6-6.57-4.52.19-9.58 2.07-12.92 5.19-3.56 3.37-4.38 8.58-7.12 12.31-3.82.76-7.93.41-11.82.39-6.7-.19-14.27-.22-20.37-3.38-3.62-1.87-4.13-5.59-4.69-9.23-.97-6.57.61-12.48 2.15-18.81 1.07-3.9 2.18-8.16 4.79-11.33 2.65-3.22 5.77-6.05 10.14-6.31 6.03-.24 12.11.11 18.12.62 1.17-6.48 2.82-13.32 6-19.13 3.54-5.75 10.17-9.91 16.12-12.81 8.03-4.29 17.8-5.1 26.75-5.05"/><path fill="#030303" d="M864.06 101.38c7.01.76 14 4.27 20.22 7.46 5.5 2.8 10.18 7.17 13.5 12.35 2.17 3.43 2.58 7.82 1.51 11.68-1.47 1.94-4.3 2.22-6.55 2.44-7.47.37-14.89-.13-22.38.8-5.57.68-11.15.62-16.71.02-5.22-.58-10.41-.54-15.59-1.52-5.62-1.06-10.85-1.51-15.78-4.75 10.36-1.11 20.72.37 31.15-.25-.08-8.07.08-15.66 3.73-23.06.99 2.08 1.95 4.05 2.05 6.4.27 5.82.07 11.67.21 17.49 5.19-.44 10.33-1.11 15.56-1.08 6.53 0 13 .04 19.48-.92-3.49-10.29-13.75-15.65-23.04-19.81-10.37-4.52-21.25-3.41-31.7.17-7.36 2.24-13.9 7.63-17.28 14.57-1.53 3.05-2 6.52-3.47 9.57-1.18.65-2.5 1.11-3.76 1.61-.41-3.74-.99-7.1.73-10.62 4.54-9.06 12.14-16.96 22.09-19.82 8.4-3.06 17.2-3.47 26.03-2.73"/><path fill="#fff" d="M306.09 123.37c8.01-1.04 11.21 11.76 4.83 15.62-10.04 7.17-22.56 5.89-34.21 5.64-.63-3.52-1.41-6.98-2.33-10.43 4.2-2.76 8.25-5.84 12.65-8.28 5.47-3.14 12.92-2.57 19.06-2.55"/><path fill="#565656" d="M260.78 128.58c.53 1.4 1.05 2.82 1.56 4.23-1.19-.11-2.38-.22-3.56-.34.66-1.3 1.32-2.6 2-3.89"/><path fill="#fff" d="M263.27 136.86c1.88-.46 4.73-1.2 5.76 1 2.08 3.29 1.76 8.24.8 11.86-.91 3.54-4.93 6.27-8.33 4.09-3.85-2.52-3.5-6.85-3.17-10.89.29-3.04 2.13-5.07 4.94-6.06"/><path fill="#020202" d="M222 145.69c4.97-.4 10 .18 14.99-.06 4.43-.19 8.5.21 12.82 1.17-.01.85-.03 1.69-.04 2.54-9.47 1.26-18.44 1.51-27.98 1.15-1.03 7.36 1.48 13.51 2.98 20.55.81 3.34 1.77 6.37 4.74 8.4 1.86 1.21 4.87 2.94 6.81 1.02 4.63-3.93 6.83-10.91 10.5-15.77 1.89-2.69 4.47-4.2 7.2-5.91-1.05 8.05-5.01 14.27-9.07 21.09-2.15 3.35-4.74 6.84-8.91 7.63-4.5.75-9.28-2.13-12.29-5.28-3.42-3.49-4.02-8.28-5.04-12.85-1.04-5.63-2.96-11.47-2.14-17.19.41-2.92 2.22-6.12 5.43-6.49"/><path fill="#fff" d="M277.07 149.48c2.43-.14 4.84.28 7.12 1.14 10.58 4.24 19.93 11.18 27.15 19.99 4.13 4.27 1.01 11.65-3 14.78-4.5 2.77-12.05 4.79-16.3.55-5.52-5.33-8.81-13.4-12.06-20.17-1.68-3.61-4.3-6.96-5.52-10.74.03-2.03 1.26-4.09 2.61-5.55"/><path fill="#030202" d="M607.11 153.11c7.72 2.53 15.56 4.67 23.14 7.57 8 3.05 16.89 6.24 23.93 11.21 3.58 2.44 5.05 5.89 7.28 9.43-.78.15-1.56.3-2.33.45-4.72-4.52-9.67-8.58-15.77-11.11-9.48-3.97-19.19-7.61-29.15-10.2-6.39-1.69-12.96-4.07-19.5-4.91-6.62-.77-13.42-.43-19.96.81-8.39 1.6-16.3 2.69-24.17 6.22-6.88 3.12-13.6 6.9-19.72 11.34-14.2 11.06-24.46 25.58-32.23 41.69-3.19 6.81-6.66 13.7-7.15 21.34-.37 6.33-.21 12.71-.11 19.06.12 7.3 1.97 13.98 3.42 21.06-1.46-1.76-2.9-3.54-4.35-5.31-2.98 2.78-5.74 5.5-7.38 9.32-8.36 18.5-.67 42.52 16.23 53.46.06-5.78-1-11.78-.29-17.49.49-3.7 2.68-6.29 5.26-8.78 2.45-2.27 5-4.56 7.86-6.3 3.63-.8 7.48-1.21 11.12-.25 3.93 1.05 7.74 3.43 11.27 5.43 1.82-3.9 3.08-7.88 3.35-12.2.58-8.15 1.26-17.19-.75-25.16-.99-4.04-2.14-8.04-3.08-12.09 6.31-.8 12.33-2.16 18.11-4.88-7.53-.99-14.93-1.07-21.58-5.16l-.32-1.76 1.63.05c7.64.47 15.48 1.7 23.01-.34 4.26-1.16 8.46-2.44 12.82-3.17-.86 3.67-1.71 7.02-4.62 9.63-5.93 6.1-13.59 8.61-21.84 9.72 1.51 5.79 3.23 11.11 3.29 17.17.09 8.14-.33 16.86-2.98 24.62-1.13 3.25-3.9 7.5-7.62 7.91-3.1-.78-5.75-2.89-8.84-3.81-4.14-1.28-8.26-2.37-12.15.23-4.03 2.6-8.88 6.72-8.62 11.99-.15 5.89.48 11.92 2.04 17.61 1.92 6.97 7.61 12.54 12.42 17.7 4.52 4.71 9.39 9.64 16.32 10.11 4.78-.53 9.3-4.39 13.59-6.49-1.31 3.58-2.05 7.25-5.37 9.56-3.55 2.67-7.95 2.58-12.16 2.14-5.01-.68-9.57-4.16-13.14-7.55-5.04-4.94-9.79-10.34-13.56-16.33-1.54-2.3-2.71-4.51-5.22-5.9-3.81-2.21-7.6-4.06-10.77-7.22-7.75-7.63-13.11-17.55-14.03-28.5-1.35-8.71-.09-17.67 4.07-25.48 2.69-4.87 6.79-7.89 11.21-11.05-2.85-10.99-4.28-22.06-2.54-33.38 1.5-8.62 5.51-16.83 9.25-24.69 3.88-8.15 8.92-15.51 14.33-22.7 5.49-7.19 11.62-13.7 19.09-18.86 6.64-4.57 13.69-8.77 21.17-11.81 6.79-2.74 13.58-3.79 20.72-5.15 11.44-2.23 24.22-2.62 35.37 1.2"/><path fill="#eb9337" d="M594.71 155.55c6.54.84 13.11 3.22 19.5 4.91 9.96 2.59 19.67 6.23 29.15 10.2 6.1 2.53 11.05 6.59 15.77 11.11.77-.15 1.55-.3 2.33-.45l1.49-.3c-.29 1.11-.57 2.22-.82 3.34 1.9-1.18 3.78-2.39 5.65-3.63.32 4.62-.17 9.24.14 13.84.08 3.07 3.72 4.73 6.36 3.7s4.56-3.68 5.69-6.19c2.43-5.45 2.45-11.63 3.74-17.37.61-1.86 1.29-3.7 1.96-5.54 3.69 3.16 7.21 6.08 9.95 10.17 3.9 5.75 5.69 12.31 7.13 19.02 1.06 5.16 2.01 10.33 1.35 15.61-1.25 8.81-3.59 17.24-8.43 24.79-5.98 9.62-15.94 16.97-27.11 19.21.41-.76.83-1.51 1.25-2.27 3.46-1.7 6.68-2.9 8.17-6.81 1.99-4.37-.56-7.87-2.68-11.55-6.71-3.97-13.42.21-20.48-3.04-4.6-2.21-9.09-5.98-11.39-10.59-.7-2.97 1.37-6.49 1.51-9.54-1.66-3.09-5.78-4.96-8.87-6.31-7.43-2.99-16.47-5.34-24.42-3.36-4.74 1.16-7.86 4.04-11.68 6.79-5.59 1.39-11.08 3.03-16.41 5.25-8.44 3.51-16.5 5.83-24.28 10.71-4.76 2.82-8.84 6.56-13.51 9.49-5.12 3.2-10.48 4.17-15.95 6.46-2.41 3.23-4.98 7.59-4.83 11.74.64 5.16 3.18 9.86 3.62 15.12.93 10.28-.06 20.62-2.73 30.59-4.87-.33-9.22-1.04-13.76 1.32-2.86 1.74-5.41 4.03-7.86 6.3-2.58 2.49-4.77 5.08-5.26 8.78-.71 5.71.35 11.71.29 17.49-16.9-10.94-24.59-34.96-16.23-53.46 1.64-3.82 4.4-6.54 7.38-9.32 1.45 1.77 2.89 3.55 4.35 5.31-1.45-7.08-3.3-13.76-3.42-21.06-.1-6.35-.26-12.73.11-19.06.49-7.64 3.96-14.53 7.15-21.34 7.77-16.11 18.03-30.63 32.23-41.69 6.12-4.44 12.84-8.22 19.72-11.34 7.87-3.53 15.78-4.62 24.17-6.22 6.54-1.24 13.34-1.58 19.96-.81"/><path fill="#8f5c22" d="M673.1 155.59c2.16 6.8 4.96 14.45 10.61 19.12-1.29 5.74-1.31 11.92-3.74 17.37-1.13 2.51-3.05 5.16-5.69 6.19s-6.28-.63-6.36-3.7c-.31-4.6.18-9.22-.14-13.84-.11-2.68-.21-5.39-.08-8.08 1.08-3.28 1.54-6.66 1.89-10.08 1.19 9.04.18 17.93.61 26.97 4.41-6.9 5.27-15.3 3.5-23.19-.57-2.4-2.14-3.93-3.86-5.55 1.01-1.78 2.14-3.49 3.26-5.21"/><path fill="#020202" d="M673.1 155.59c5.04 1.71 7.64 5.59 11.93 8.39 4.25 2.85 8.5 5.17 12.01 8.99 5.78 6.09 8.47 13.61 10.53 21.59 3.03 11.29 2.85 23.39-.54 34.59-4.03 12.23-12.52 22.77-23.77 29.07-3.88 2.03-7.9 2.78-12.15 3.63 2.95 6.16 6.75 11.46 9.05 17.87 3.43 9.23 6.39 18.8 8.22 28.49.94 4.74 1.44 9.45 3.73 13.76 6.04 11.18 10.39 22.79 15.79 34.17 5.6 11.96 10.15 24.25 15.1 36.62.82 2.38 2.14 5.32 1.76 7.87-1.4 3.51-4.07 6.3-4.96 10.14-.89 2.96.46 5.19 1.53 7.85 1.6 3.53 2.83 7.18 4.12 10.83 1.63 4.58 4.08 8.61 6 13.06 6.58 15.64 11.83 31.67 17.22 47.74 4.17 16.51 10.96 31.71 16.08 47.95 1.54 4.98 3.06 9.96 4.97 14.81 6.76 16.33 11.59 33.46 17.2 50.22 3.35 12.04 8.02 23.63 11.03 35.76 3.22 10.47 5.17 21.85 4.26 32.81-1.49 8.12-2.91 15.91-7.89 22.68-.78 1.07-1.55 2.15-2.31 3.23 6.2.29 12.21-.04 18.3-1.3 10.84-1.96 21.75-2.89 32.72-3.65 13.09-.4 26.28-.01 39.31-1.02 19.76-.35 39.56-.59 59.32.04 11.12.93 22.2.65 33.34.74 17.32.11 34.65.05 51.97.24 7.02.35 14 .72 21.03.55 17.99-.21 36.04.48 54-.55 10.7-.32 21.31.17 31.99.81 26.64 1.82 52.7 4.75 79.24 7.56 7.42.66 14.3.3 21.38 3.16-1.4 1.25-2.65 3.24-4.71 3.22-5.53.41-11.15.05-16.68-.27-25.18-2.19-50.31-4.92-75.52-6.83-4.9-.4-9.77-.88-14.7-.84-43.67 0-87.33.23-131-.28-12.7.31-25.3-.83-38-.62-25.33-.49-50.66-.77-76-.28-12.65.29-25.23-.14-37.86.95-12.1.22-23.91 2.21-35.87 3.75-6.21.43-12.24-.02-18.4 1.23-2.99.63-5.99.6-9.02.74-4.08.17-7.77 2.46-11.88 2.55-3.64.03-7.34-1.15-11.02-1.49-3.3-.34-6.48.15-9.73.65-6.42 1.05-12.89 1.92-19.35 2.68-10.09.61-20.16 1.86-30.19 3.1-6.53.51-13.24.97-19.59 2.61-2.76.56-4.68 3.52-6.48 5.5-7.12 8.23-8.57 20.46-16.18 27.74-3.69 3.38-7.82 6.57-12.34 8.75-5.68.86-10.58.61-16.05-1.21 5.5-2.23 11.48-2.61 16.96-4.78 3.13-2.19 6.18-4.58 8.82-7.35 3.85-4.08 5.84-9.48 8.69-14.41 3.91-7.19 9.27-15.07 11.09-23.09 1.51-7.55-3.23-15.32-3.1-23.27.33-14.11-1.57-28.07-4.58-41.83-2.69-14.82-4.72-29.48-9.08-44.14-2.54-8.48-4.33-17.15-6.96-25.61-2.72-8.87-5.06-17.85-7.83-26.7-1.93-6.32-4.26-12.43-5.83-18.86-3.46-14.55-9.54-28.47-13.39-42.93-.93-3.43-1.47-6.92-1.45-10.49 3.75 4.29 5.81 9.36 7.38 14.77 3.57 12.01 8.36 23.52 11.34 35.66 1.12 4.37 2.3 8.72 3.76 13 3.92 10.8 6.68 21.91 10.09 32.87 2.51 8.03 4.3 16.24 6.64 24.32 4.2 14.27 6.93 28.83 9.26 43.5 2.13 10.16 4.21 20.26 4.98 30.63 1.04 8.31-.44 15.89 1.53 23.96 2.11-7.17 3.21-14.73 4.73-22.06 1.92-10.05 4.67-19.95 6.43-30.03 2.04-12.39 3.39-25.23 6.14-37.5 2.5-10.38 4.52-20.94 5.95-31.53.94-11.55 2.56-23.01 3.67-34.55.75-8.81 1.26-18.58 4.39-26.91 1.16 6.53.35 12.86.03 19.4-.03 12.37-1.91 24.54-2.84 36.99-.43 7.08-1.96 13.98-2.75 21.02-1.15 5.45-2.32 10.88-3.61 16.29-2.45 11.46-3.92 23.17-5.69 34.75-.6 4.3-1.92 8.59-2.14 12.93 1.82 2.98 5.53 4.99 8.21 7.17 4.67 3.51 7.2 8.34 11.14 12.82 3.58 4.07 7.56 8.08 12.33 10.72 10.84 5.83 21.09 12.52 32.26 17.79 3.63 1.86 8.46.98 12.4.72 6.02-.78 12.03-.73 18.08-.84 2.25-.15 4.74-.05 6.31-1.94 4.88-5.89 7.51-12.67 9.43-19.99 2.8-8.28 2.04-16.87.69-25.36-1.12-5.51-3.09-10.83-4.42-16.31-2.12-7.82-5.16-15.32-7.45-23.11-3.57-12.18-7.98-24.08-11.81-36.18-2.93-9.46-7.35-18.31-10.4-27.72-4.37-13.66-9.48-27.08-14.51-40.51-2.67-7.32-4.03-14.99-6.86-22.26-3.46-8.93-5.68-18.22-8.88-27.23-2.8-7.87-4.09-15.43-8.07-22.84-2.81-5.19-4.56-10.78-7.1-16.09-.97-2.19-2-4.11-1.82-6.6.22-4.45 3.3-8.47 4.09-12.39-.12-3.06-1.79-6.19-2.88-9.02-3.64-8.24-6.83-16.64-10.17-25-.78-1.88-1.55-3.76-2.38-5.62-2.55-5.55-5.41-10.86-7.38-16.68-1.61-4.76-3.04-9.52-5.35-14.01-.09 5.88.67 11.65 1.15 17.49.66 11.66 1.24 23.27.52 34.94-.43 6.98-1.32 14.08-3.16 20.83-1.91 6.6-3.38 13.61-5.95 19.97-2.26 4.92-4.69 9.58-8.18 13.77-3.52 4.21-7.83 7.93-11.81 11.71 9.44 7.52 19.98 13.27 31.21 17.61-2.52-8.74-5.33-16.78-5.6-26.01 3.54 5.88 4.89 12.2 7.34 18.52 1.28 3.35 2.58 6.68 3.63 10.12 4.94 16.93 9.07 33.94 10.94 51.52.56 6.04.16 12 .51 17.99 1.24 11.93.92 24.04.91 36.03.1 7.09-1.18 14.26 1.35 20.78 2.84 7.99 5.93 15.6 6.77 24.14-.9-.94-1.81-1.86-2.67-2.83-4.43-5.32-6.74-12.77-9.02-19.24-2.86-8.06-1.54-15.72-1.65-24.21.43-14.59-1.09-29.06-.95-43.65.11-8.22-.67-15.91-2.48-23.93-1.99-10.87-4.37-21.64-7.4-32.26-14.42-3.33-27.01-11.42-37.69-21.46l-1.26.5c-2.72 1.11-5.45 2.15-8.29 2.95-8.15.44-14.38-.75-21.46-4.79l2.01-1.29c7.11 2.19 14.1 3.48 21.46 1.58 6.55-1.67 11.92-6.7 16.67-11.27 6.49-6.16 10.94-14.02 13.8-22.45 3.21-11.08 6.81-23 6.79-34.57.55-32.57-1.02-64.03-11.06-95.27-2.6-9.48-6.77-18.24-10.95-27.1.32-.55.63-1.1.95-1.66 11.17-2.24 21.13-9.59 27.11-19.21 4.84-7.55 7.18-15.98 8.43-24.79.66-5.28-.29-10.45-1.35-15.61-1.44-6.71-3.23-13.27-7.13-19.02-2.74-4.09-6.26-7.01-9.95-10.17-.67 1.84-1.35 3.68-1.96 5.54-5.65-4.67-8.45-12.32-10.61-19.12"/><path fill="#fff" d="M272.74 158.15c1.8 4.24 3.68 8.16 3.9 12.85.55 9.64 3.27 18.44 3.07 28.02-.05 2.41-.12 5.23-1.23 7.42-.77 2.13-3.62 1.78-5.45 1.89-5.71-.31-11.94-1.45-16.89-4.47-2.81-1.78-5.45-4.22-5.49-7.8-.04-4.07.71-8.18 1.36-12.19 1.04-6.55 3.87-12.01 6.49-18.09.91-1.67 1.7-4.22 3.74-4.72 3.44-1.14 7.01-1.91 10.5-2.91"/><path fill="#f4f4f4" d="M915.66 160.36c2.28 1.48 3.88 4.18 5.42 6.37-3.45-2.12-7.77-5.7-11.99-5.43-3.46.09-5.94 3.46-8.07 5.8-.73-.24-1.46-.49-2.2-.71 1.29-2.81 3.01-6.21 5.95-7.58 3.51-1.3 7.81-.52 10.89 1.55"/><path fill="#000001" d="M669.84 160.8c1.72 1.62 3.29 3.15 3.86 5.55 1.77 7.89.91 16.29-3.5 23.19-.43-9.04.58-17.93-.61-26.97z"/><path fill="#020202" d="M823.34 161.22c6.57-2.42 14.36 2.23 15.98 8.91 1.02 5.9-2.84 12.62-8.72 14.25-4.85.97-10.26-.7-13.82-4.11-2.26-2.28-2.47-5.25-2.17-8.29.38-4.79 4.47-8.99 8.73-10.76"/><path fill="#fefefe" d="M824.48 166.47c3.71-.83 7.73.9 8.92 4.66.55 2.81-1.79 6.48-4.48 7.35-2.8.5-5.96-.36-8.27-1.98-1.69-1.05-1.42-3.6-1.4-5.32-.15-2.72 3.06-4.11 5.23-4.71"/><path fill="#494949" d="M898.82 166.39c.74.22 1.47.47 2.2.71q-1.365 1.635-2.76 3.24c.16-1.31.29-2.66.56-3.95"/><path fill="#fff" d="M915.46 169.64c.99 3.07-1.09 5.74-3.35 7.55-2.41 2.25-6.71.27-9.6-.07.3-2.77.09-6.56 1.71-8.94 3.18-3.02 8.69-1.82 11.24 1.46"/><path fill="#070101" d="M667.7 172.65c-.13 2.69-.03 5.4.08 8.08-1.87 1.24-3.75 2.45-5.65 3.63.25-1.12.53-2.23.82-3.34 1.47-2.85 3.11-5.61 4.75-8.37"/><path fill="#c67d2e" d="M636.07 207.86c3.09 1.35 7.21 3.22 8.87 6.31-.14 3.05-2.21 6.57-1.51 9.54 2.3 4.61 6.79 8.38 11.39 10.59 7.06 3.25 13.77-.93 20.48 3.04-4.02.01-8.01.24-11.98 1-5.95-1.38-11.49-3.32-15.89-7.74-6.61-6.83-14.61-14.82-23.69-18.13-7.49-2.14-16.04-1.01-23.77-1.18 3.82-2.75 6.94-5.63 11.68-6.79 7.95-1.98 16.99.37 24.42 3.36"/><path fill="#030102" d="M599.97 211.29c7.73.17 16.28-.96 23.77 1.18 9.08 3.31 17.08 11.3 23.69 18.13 4.4 4.42 9.94 6.36 15.89 7.74-1.22.3-2.45.6-3.68.9-1.36-.18-2.72-.38-4.07-.61-5.29-.99-9.49-3.1-13.43-6.74-5.36-5-10.97-10.09-17.68-13.26-6.02-2.91-13.89-2.24-20.47-2.24-7.26.07-13.45 2.73-19.97 5.54-7.86 3.43-15.95 5.55-22.98 9.95-4.13 2.5-7.63 5.77-11.66 8.38-5.21 3.38-11.39 5.05-17.51 5.69l-1.63-.05-.42-2.7c5.47-2.29 10.83-3.26 15.95-6.46 4.67-2.93 8.75-6.67 13.51-9.49 7.78-4.88 15.84-7.2 24.28-10.71 5.33-2.22 10.82-3.86 16.41-5.25"/><path fill="#030303" d="M778.92 213.22c2.88.02 6.31 1.91 6.65 5.02.37 4.17.24 8.48 0 12.66-.21 4.39-3.96 8.91-8.55 8.84-2.84-.28-5.6-2.27-8.13-3.53-3.16-1.82-6.92-3.03-9.76-5.33-3.62-3.06-2.84-9.35.07-12.58 2.28-1.45 5.65-1.37 8.23-2.23 3.99-1.17 7.13-3.13 11.49-2.85"/><path fill="#d8d8d8" d="M780.64 217.7c-.21 5.94.63 11.23-2.38 16.66-5.35-2.93-10.71-5.68-16.46-7.78.21-1.91.42-3.81.64-5.72 6.36.06 11.93-2.65 18.2-3.16"/><path fill="#a0a0a0" d="M794.36 218.07c1.6 7.05 2.95 14.06 5.72 20.79-2.45-2.25-5.35-3.99-7.74-6.29-.94-1.02-1.92-1.87-1.36-3.39 1.13-3.75 2.89-7.15 3.38-11.11"/><path fill="#020202" d="M401.01 220.75c3.13.14 5.75 2.97 5.65 6.15.11 4.39.3 9.41-3 12.8-3.34 3.57-7.83 7.2-12.77 8.03-3.41.63-7.69.99-10.79-.87-2.26-1.51-4.48-3.59-3.85-6.58.76-3.95 2.06-7.89 3.35-11.7 1.03-3.18 4.53-4.57 7.27-5.97 2.17.44 4.34.92 6.51 1.4-.26.93-.51 1.86-.76 2.78-4.13-.38-5.84.38-8.95 2.98-.67 4.04-1.09 8.13-1.57 12.2 5.82-.05 11.02-.14 15.49-4.38 3.81-2.98 3.67-6.82 4-11.22-2.04.08-4.07.16-6.11.25-.38-1.37-.77-2.74-1.15-4.12 2.21-.58 4.42-1.42 6.68-1.75"/><path fill="#a1a1a1" d="M394.33 222.5c.38 1.38.77 2.75 1.15 4.12 2.04-.09 4.07-.17 6.11-.25-.33 4.4-.19 8.24-4 11.22-4.47 4.24-9.67 4.33-15.49 4.38.48-4.07.9-8.16 1.57-12.2.23 1.68.47 3.36.7 5.03 2.05-.12 4.1-.25 6.14-.36.73-2.55 1.42-5.1 2.11-7.65.25-.92.5-1.85.76-2.78-2.17-.48-4.34-.96-6.51-1.4 2.5-.09 4.96.04 7.46-.11"/><path fill="#fefefe" d="M762.43 222.27c2.13-.23 4.27-.36 6.41-.41-.74 2.13-1.52 4.25-2.29 6.37-2.23-1.82-3.67-2.93-4.12-5.96"/><path fill="#f8f8f8" d="M392.62 226.79c-.69 2.55-1.38 5.1-2.11 7.65-2.04.11-4.09.24-6.14.36-.23-1.67-.47-3.35-.7-5.03 3.11-2.6 4.82-3.36 8.95-2.98"/><path fill="#020202" d="M427.84 237.35c3.82 1.75 5.12 5.26 7.83 8.1 3.14 1.82 7.72 2.02 10.47 4.41 2.3 3.21.57 6.71-.21 10.13-.8-2.3-1.47-4.63-2.23-6.93-.06-1.16-2.07-1.24-2.94-1.55-3.28-.64-6.64-.94-9.97-1.23-.65-3.21-1.03-7.2-4.46-8.67-2.99-1.5-6.04-.3-8.99.64-1.04 3.18-1.09 6.39-1.61 9.66-.48 3.5-3.39 6.68-4.26 10.07.34 2.03 1.43 3.99 2.25 5.87 3.54-.23 7.36-.88 10.87-.27 3.04 1.08 5.47 4.27 7.8 6.4 1.66-1.31 3.93-2.65 4.84-4.61 1.58-3.2 2.29-6.44 4.76-9.18 2.29 2.32 2.34 4.81 2.26 7.87-1.5 5.6-4.83 9.16-10.08 11.49-1.57-.17-3.27-.31-4.76-.88-2.48-1.28-4.42-3.69-6.85-5.05-3.07-.72-6.4-.47-9.53-.78-4.07-.99-6.45-6.14-6.79-9.95-.53-5.27 4.4-8.69 4.81-13.98.52-2.82.03-6.57 2.21-8.67 3.62-4.21 9.63-4.75 14.58-2.89"/><path fill="#855621" d="M675.3 237.34c2.12 3.68 4.67 7.18 2.68 11.55-1.49 3.91-4.71 5.11-8.17 6.81-1.81-.83-3.62-1.68-5.48-2.34.85-1.36 1.7-2.72 2.55-4.09-3.32-.38-6.56-.7-9.81-1.54 1.07.13 2.15.25 3.22.35.74-2.8 1.5-5.59 2.3-8.36-.98-.17-1.97-.33-2.95-.48 1.23-.3 2.46-.6 3.68-.9 3.97-.76 7.96-.99 11.98-1"/><path fill="#030303" d="M742.4 239.01c4.88.55 9.64-.4 13.85 2.74 4.17 2.94 4.55 7.58 5.6 12.16.5 2.99 1.69 7.1-.12 9.83-1.95 2.99-4.69 6.57-8.11 7.88-3.45.53-7.25-1.32-10.73-1.69-5.81-.96-12.62.15-16.46-5.35-3.52-4.23-1.71-8.84-.39-13.52 1.34-3.89 2.23-8.69 5.95-11.06 3.22-2.26 6.78-1.23 10.41-.99"/><path fill="#c5baab" d="M655.57 238.63c1.35.23 2.71.43 4.07.61.98.15 1.97.31 2.95.48-.8 2.77-1.56 5.56-2.3 8.36-1.07-.1-2.15-.22-3.22-.35-1.88-.48-3.73-1.32-5.56-1.99 2.97.46 5.93.92 8.9 1.33-1.49-2.88-3.13-5.67-4.84-8.44"/><path fill="#d0d0d0" d="M426.33 241.61c3.43 1.47 3.81 5.46 4.46 8.67.21 2.98.39 5.97.59 8.95-.78.22-1.56.43-2.35.65.71-.67 1.41-1.34 2.11-2.01-2.54-2.41-5.35-4.74-7.48-7.52-1.68-2.1-1.36-5.65-1.55-8.21-1.59.04-3.18.08-4.77.11 2.95-.94 6-2.14 8.99-.64"/><path fill="#fefefe" d="M422.11 242.14c.19 2.56-.13 6.11 1.55 8.21 2.13 2.78 4.94 5.11 7.48 7.52-.7.67-1.4 1.34-2.11 2.01-5.86 1.32-10.55 4.48-15.31 7.97-.82-1.88-1.91-3.84-2.25-5.87.87-3.39 3.78-6.57 4.26-10.07.52-3.27.57-6.48 1.61-9.66 1.59-.03 3.18-.07 4.77-.11"/><path fill="#d08331" d="m529.82 243.2.42 2.7.32 1.76c6.65 4.09 14.05 4.17 21.58 5.16-5.78 2.72-11.8 4.08-18.11 4.88.94 4.05 2.09 8.05 3.08 12.09 2.01 7.97 1.33 17.01.75 25.16-.27 4.32-1.53 8.3-3.35 12.2-3.53-2-7.34-4.38-11.27-5.43-3.64-.96-7.49-.55-11.12.25 4.54-2.36 8.89-1.65 13.76-1.32 2.67-9.97 3.66-20.31 2.73-30.59-.44-5.26-2.98-9.96-3.62-15.12-.15-4.15 2.42-8.51 4.83-11.74"/><path fill="#030303" d="m620.57 243.04.27 4.82c-5.24 3.76-11.4 8.09-17.82 9.31-4.04.82-7.58-.75-11.32-2.02 3.75-1.57 7.61-2.84 11.39-4.32 3.68-1.41 6.24-4.06 9.58-5.96 2.51-1.43 5.11-1.49 7.9-1.83"/><path fill="#fff" d="M747.44 243.57c-.58 3.37-.48 7.16-1.72 10.35-2.69 1.83-6.42 2.73-8.97 4.84-1.64 1.37-3.06 3.06-4.51 4.62-.87-1.9-2.35-4-1.88-6.15.51-3.13 1.55-6.19 2.49-9.21.62-1.58 1.11-3.59 2.86-4.28 3.71-1.45 7.92-1.05 11.73-.17"/><path fill="#a2a2a2" d="M747.44 243.57c1.68.72 3.66 1.64 4.78 3.14 1.3 3.57 1.76 7.38 3.21 10.93.29 1.16 1.23 2.72.86 3.9-1.1 2.26-3.1 4.45-5.88 3.84-6.05-.93-12.03-1.81-18.17-2 1.45-1.56 2.87-3.25 4.51-4.62 2.55-2.11 6.28-3.01 8.97-4.84 1.24-3.19 1.14-6.98 1.72-10.35"/><path fill="#010101" d="M651.51 245.74c1.83.67 3.68 1.51 5.56 1.99 3.25.84 6.49 1.16 9.81 1.54-.85 1.37-1.7 2.73-2.55 4.09-6.3.22-13.06 1.25-18.81-2.04-1.27-.75-2.86-2.91-1.48-4.24 1.41-2.69 5.04-1.55 7.47-1.34"/><path fill="#a2a2a2" d="M430.79 250.28c3.33.29 6.69.59 9.97 1.23.87.31 2.88.39 2.94 1.55 1.03 4.93 1.17 10.01.55 15 .08-3.06.03-5.55-2.26-7.87-2.47 2.74-3.18 5.98-4.76 9.18-.91 1.96-3.18 3.3-4.84 4.61-2.33-2.13-4.76-5.32-7.8-6.4-3.51-.61-7.33.04-10.87.27 4.76-3.49 9.45-6.65 15.31-7.97.79-.22 1.57-.43 2.35-.65-.2-2.98-.38-5.97-.59-8.95"/><path fill="#020202" d="M658.05 269.24c7.14 1.57 11.4 5.49 12.9 12.74-4.87-3.48-9.37-7.91-12.9-12.74"/><path fill="#a1a1a1" d="M413.03 272.84c3.13.31 6.46.06 9.53.78 2.43 1.36 4.37 3.77 6.85 5.05 1.49.57 3.19.71 4.76.88-2.56 1.17-5.85 2.67-8.71 2.14-2.26-1.81-3.59-4.61-5.81-6.4-2.04-1.12-4.43-1.68-6.62-2.45"/><path fill="#030303" d="M609.57 272.62c-4.33 6.06-7.76 12.54-11.61 18.88-.31-2.49-.91-5.31-.09-7.75.96-2.88 2.78-5.79 4.95-7.93 1.72-1.71 4.52-2.39 6.75-3.2"/><path fill="#020202" d="M663.06 275.51c1.19 4.63 2.55 9.09-.19 13.49l-3.72-.42c-.52-4.04-.76-8.07-.81-12.14 1.57-.37 3.14-.67 4.72-.93m-41.7 3.11c2.84 6.19 3.86 13.29 1.53 19.84-2.49-1.06-5.19-1.23-6.19-4.13-1.85-5.03-1.63-11.33-.66-16.53 2.52-1.54 3.51-1.8 5.32.82"/><path fill="#a1a1a1" d="M658.34 276.44c.05 4.07.29 8.1.81 12.14l3.72.42c-.77.82-1.57 1.62-2.37 2.42 1.06 1.94 2.14 3.88 3.22 5.8-2.15 1.35-4.21 2.9-6.25 4.4-1.66-3.7-3.44-7-6.85-9.39.66 2.95 1.48 5.86 2.51 8.7-1.57-2.99-3.74-6.06-4.69-9.3-.51-1.78-.31-3.72 1.21-4.94 2.08-1.05 4.64-1.31 6.92-1.73.54-2.88 1.03-5.69 1.77-8.52"/><path fill="#020202" d="M650.62 292.23c3.41 2.39 5.19 5.69 6.85 9.39 2.04-1.5 4.1-3.05 6.25-4.4 2.71-1.25 5.63-2.43 8.63-1.48 3.01 1.35 4.48 4.4 4.98 7.52.87 8.71.46 17.26-5.3 24.33-1.24-6.61-.35-13.03-.41-19.66.05-2.66-1.04-4.85-2.12-7.2-3.93 2.25-7.63 4.73-10.66 8.14-5.49 5.82-7.79 12.79-12.7 19.14-.46-2.07-1.17-4.12-.56-6.23 1.83-6.1 5.46-11.95 9.22-17.05-.55-1.27-1.11-2.53-1.67-3.8-1.03-2.84-1.85-5.75-2.51-8.7"/><path fill="#030303" d="M590.2 302.8c1.09 1.38 1.63 3.17 2.12 4.84 2.9 10.92 4.86 21.97 7.25 32.99 1.76 7.05 3.77 14.02 5.21 21.16 1.16 5.82 3.18 12.26 2.52 18.17-.16 2.6-.8 5.35-.49 7.94 1.02 2.47 2.84 4.7 4.24 6.99 2.34 3.66 3.97 7.65 4.83 11.92.74 7.48 1.24 15.13.75 22.65-.48 7.09-.46 14.19-.3 21.3 3.44-.24 6.96-.71 10.41-.51.83 1.27.6 3.09.7 4.56-2.09-.09-4.18-.09-6.27-.25-2.77-.18-5.53-.53-8.29-.79 3.26 2.74 6.55 4.84 10.43 6.63.18 2.54.51 5.3-.02 7.8-.72 1.92-2.93 3.34-4.37 4.71-.4-3.42-.51-6.85-.58-10.3-2.23-1.27-4.51-2.44-6.84-3.54.56-10.08-.47-20.05.64-30.06.74-7.38-.14-14.39-1.15-21.69-.89-5.92-3.09-11.35-5.64-16.72-2.67-5.53-1.39-10.58-2.79-16.82-1.76-7.87-3.6-15.77-5.6-23.59-2.98-10.18-4.25-20.63-6.69-30.94-.99-3.85-1.48-8.49-3.69-11.84-7.61-.57-15.45.36-23.05.94-1.74 11.31-5.68 22.36-7.17 33.71-.53 12.82 1.04 26.78-1.33 39.48-1.08-2.81-1.9-5.67-2.75-8.58-2.21 3.99-4.91 7.93-6.48 12.22-1.03 2.14 1.25 4.86 2.15 6.78 3.32 5.29 5.6 11.27 9.87 15.56 3.15 3.11 3.66 7.58 5.99 11.6 3.51 5.91 7.02 11.76 9.81 18.06 2.91 6.43 3.39 13.46 6.06 20.02 2.61 8.39 6.84 16.17 7.65 24.66 1.46 10.73 3.12 21.34 3.81 32.16 2.05 20.74 5.87 41.26 7.71 62.01 1.44 11.67 4.32 24.24 3.79 36.03-.21 7.15-2.99 13.5-3.62 20.69-1.35 10.07 1.87 18.54 2.54 29.21-4.16-9.46-7.05-19.87-7.37-30.24-.4-7.36 3.2-13.34 3.35-20.71.09-5.96.18-12.85-2.18-18.41-2.44-3.81-5.66-7.09-8.05-10.96-4.08-6.36-8.86-12.18-13.36-18.23-2.69-3.71-5.21-7.47-8.24-10.93-2.43 3.27-4.11 6.92-5.62 10.69-4.07 10.06-9.65 18.83-14.56 28.33-3.53 7.15-7.7 13.93-10.85 21.28-3.68 6.97-6.88 14.24-10.92 21.01-1.12 1.73-2.21 3.49-3.32 5.23 1.64 2.7 3.29 5.39 4.99 8.05 3.25 4.9 6.56 9.76 9.83 14.63 6.49 9.48 14.39 17.76 20.79 27.27 5.12 7.48 10.46 14.68 16.87 21.12 5.9 5.89 10.45 12.8 16.07 18.92 3.79 4.23 7.11 8.84 10.91 13.06 2.17 2.57 3.92 6.43 6.84 8.14 5.23 1.66 10.81 1.41 15.98 3.57-5.42.89-11.3 1.28-16.72.27-3.42-.56-5.13-3.45-7.17-5.92-6.66-8.87-14.46-16.76-21.14-25.63-5.21-6.81-11.38-12.75-16.69-19.49-4.08-5.08-7.38-10.57-11.18-15.85-3.85-5.38-8.15-10.5-12.16-15.78-4.33-5.61-7.86-11.73-12.06-17.44-2.13 1.33-4.2 2.77-6.59 3.61-2.62-1.33-4.18-4.66-5.38-7.21-1.08-2.67-2.56-5.99-1.21-8.81 1.47-3.55 4.15-6.72 6.26-9.93 6.16-9.03 10.67-19.63 15.79-29.2 4.14-6.94 7.65-14.2 11.75-21.16 4.63-7.91 8.91-16.01 12.52-24.44 1.85-3.77 3.39-7.96 5.95-11.29 2.06-1.17 5.16.84 7.16 1.61-1.33-5.99-2.2-12.05-3.83-17.98-1.29-4.74-1.09-9.48-.36-14.3 3.17 6.24 4.6 13.55 5.82 20.41.8 6.72.97 12.97 4.72 18.88-.88 1.38-1.76 2.75-2.65 4.13 6.36 7.46 12.56 14.89 18.14 22.97.02-10.72-1.94-20.73-3.15-31.3-1.77-13.27-3.89-26.59-4.56-39.97-.42-6.38-1.24-12.71-1.72-19.08-.65-6.04-.58-11.77-2.64-17.56-2.15-6.12-3.38-12.42-4.71-18.74-.61-3.23-2.07-6-3.86-8.71-2.01-3.09-3.76-6.31-5.35-9.63-2.91-6.11-6.3-11.88-8.7-18.23-1.19-3.27-3.07-6.07-5.2-8.79-3.34-4.33-5.88-9.08-8.88-13.63-1.83-3.28-5.75-7.77-3.86-11.67 2.72-6.82 6.94-13.09 10.23-19.64 2.03-4.49 1.04-10.49.7-15.28-.66-4.83-.26-9.46.85-14.18 1.77-7.84 3.5-16.1 6.42-23.59.82-1.79 1.68-4.36 3.64-5.15 4.35-1.98 9.59-2.53 14.27-3.39 4.28-.66 8.88-1.68 13.03.11"/><path fill="#010101" d="M600.64 303.24c6.27 1.15 12.43 3.27 18.37 5.56-2.3 1.18-4.94 3.1-7.63 2.5-4.65-1.03-9.12-3.25-10.74-8.06"/><path fill="#fff" d="M586.58 307.41c2.21 3.35 2.7 7.99 3.69 11.84 2.44 10.31 3.71 20.76 6.69 30.94 2 7.82 3.84 15.72 5.6 23.59 1.4 6.24.12 11.29 2.79 16.82 2.55 5.37 4.75 10.8 5.64 16.72 1.01 7.3 1.89 14.31 1.15 21.69-1.11 10.01-.08 19.98-.64 30.06 2.33 1.1 4.61 2.27 6.84 3.54-.47 3.29-.92 6.55-.96 9.87-.02 3.57.52 7.06 1.45 10.49 3.85 14.46 9.93 28.38 13.39 42.93 1.57 6.43 3.9 12.54 5.83 18.86 2.77 8.85 5.11 17.83 7.83 26.7 2.63 8.46 4.42 17.13 6.96 25.61 4.36 14.66 6.39 29.32 9.08 44.14 3.01 13.76 4.91 27.72 4.58 41.83-.13 7.95 4.61 15.72 3.1 23.27-1.82 8.02-7.18 15.9-11.09 23.09-2.85 4.93-4.84 10.33-8.69 14.41-2.64 2.77-5.69 5.16-8.82 7.35-2.77-1.29-5.45-3.07-8.64-2.61-5.49.66-10.33 2.09-15.95.87-5.81-1.33-11.32-4.49-16.51-7.35-3.8-4.22-7.12-8.83-10.91-13.06-5.62-6.12-10.17-13.03-16.07-18.92-6.41-6.44-11.75-13.64-16.87-21.12-6.4-9.51-14.3-17.79-20.79-27.27-3.27-4.87-6.58-9.73-9.83-14.63.06-4.48 2.69-7.1 4.99-10.63 3.32-4.83 4.93-10.18 7.87-15.18 4.39-6.16 8.65-12.23 12-19.04 4.12-6.67 7.13-13.87 11.5-20.4 4.1-6.2 7.65-12.53 12.16-18.41 4.5 6.05 9.28 11.87 13.36 18.23 2.39 3.87 5.61 7.15 8.05 10.96 2.36 5.56 2.27 12.45 2.18 18.41-.15 7.37-3.75 13.35-3.35 20.71.32 10.37 3.21 20.78 7.37 30.24-.67-10.67-3.89-19.14-2.54-29.21.63-7.19 3.41-13.54 3.62-20.69.53-11.79-2.35-24.36-3.79-36.03-1.84-20.75-5.66-41.27-7.71-62.01-.69-10.82-2.35-21.43-3.81-32.16-.81-8.49-5.04-16.27-7.65-24.66-2.67-6.56-3.15-13.59-6.06-20.02-2.79-6.3-6.3-12.15-9.81-18.06-2.33-4.02-2.84-8.49-5.99-11.6-4.27-4.29-6.55-10.27-9.87-15.56-.9-1.92-3.18-4.64-2.15-6.78 1.57-4.29 4.27-8.23 6.48-12.22.85 2.91 1.67 5.77 2.75 8.58 2.37-12.7.8-26.66 1.33-39.48 1.49-11.35 5.43-22.4 7.17-33.71 7.6-.58 15.44-1.51 23.05-.94"/><path fill="#a2a2a2" d="M692.13 329.51c2.31 4.49 3.74 9.25 5.35 14.01 1.97 5.82 4.83 11.13 7.38 16.68-.45.35-.89.69-1.34 1.05-.78 6.17.88 13.3-1.03 19.19-.94 2.82-4.7 2.67-7.13 3.11-.51.8-1.01 1.59-1.51 2.39-.03-1.33-.05-2.67-.05-4 .72-11.67.14-23.28-.52-34.94-.48-5.84-1.24-11.61-1.15-17.49"/><path fill="#b7b7b7" d="M703.52 361.25c.45-.36.89-.7 1.34-1.05.83 1.86 1.6 3.74 2.38 5.62-.99-1.31-2.04-2.56-3.12-3.8-.04 7.79.38 15.24-1.07 22.97-.97 3.64-1.78 8.48-5.33 10.47-3.09 1.94-5.66 3.78-7.08 7.31 1.84-6.75 2.73-13.85 3.16-20.83 0 1.33.02 2.67.05 4 .5-.8 1-1.59 1.51-2.39 2.43-.44 6.19-.29 7.13-3.11 1.91-5.89.25-13.02 1.03-19.19"/><path fill="#fff" d="M704.12 362.02c1.08 1.24 2.13 2.49 3.12 3.8 3.34 8.36 6.53 16.76 10.17 25 1.09 2.83 2.76 5.96 2.88 9.02-.79 3.92-3.87 7.94-4.09 12.39-.18 2.49.85 4.41 1.82 6.6 2.54 5.31 4.29 10.9 7.1 16.09 3.98 7.41 5.27 14.97 8.07 22.84 3.2 9.01 5.42 18.3 8.88 27.23 2.83 7.27 4.19 14.94 6.86 22.26 5.03 13.43 10.14 26.85 14.51 40.51 3.05 9.41 7.47 18.26 10.4 27.72 3.83 12.1 8.24 24 11.81 36.18 2.29 7.79 5.33 15.29 7.45 23.11 1.33 5.48 3.3 10.8 4.42 16.31 1.35 8.49 2.11 17.08-.69 25.36-1.92 7.32-4.55 14.1-9.43 19.99-1.57 1.89-4.06 1.79-6.31 1.94-6.05.11-12.06.06-18.08.84-3.94.26-8.77 1.14-12.4-.72-11.17-5.27-21.42-11.96-32.26-17.79-4.77-2.64-8.75-6.65-12.33-10.72-3.94-4.48-6.47-9.31-11.14-12.82-2.68-2.18-6.39-4.19-8.21-7.17.22-4.34 1.54-8.63 2.14-12.93 1.77-11.58 3.24-23.29 5.69-34.75 1.29-5.41 2.46-10.84 3.61-16.29.49-1.4 1.02-2.79 1.53-4.18.16 7.61 1.26 13.31 4.02 20.36 1.39 5.32 1.49 11.41 3.77 16.4 1.04 2.27 3.53 3.7 5.98 2.83 2.24-1.17 4-3.49 5.68-5.34.86.97 1.77 1.89 2.67 2.83-.84-8.54-3.93-16.15-6.77-24.14-2.53-6.52-1.25-13.69-1.35-20.78.01-11.99.33-24.1-.91-36.03-.35-5.99.05-11.95-.51-17.99-1.87-17.58-6-34.59-10.94-51.52-1.05-3.44-2.35-6.77-3.63-10.12-2.45-6.32-3.8-12.64-7.34-18.52.27 9.23 3.08 17.27 5.6 26.01-11.23-4.34-21.77-10.09-31.21-17.61 3.98-3.78 8.29-7.5 11.81-11.71 3.49-4.19 5.92-8.85 8.18-13.77 1.97-3.68 4.98-5.16 8.56-6.86 2.7-1.16 3.27-3.89 4.23-6.4 2.47-7.97 4.17-16.26 5.57-24.49 1.45-7.73 1.03-15.18 1.07-22.97"/><path fill="#020202" d="M682.09 370.9c2.26 2.61 1.58 5.98 1.66 9.16-2.44-2.8-4.59-6.11-7.43-8.5-3.85-3.27-9.96-2.95-14.12-.47-4.54 2.64-8.74 5.96-12.68 9.43-5.53 4.88-8.64 11.35-13.91 16.46 2.5-12.03 13.15-21.89 23.01-28.38 7.04-5.08 17.87-4.79 23.47 2.3"/><path fill="#dadada" d="M703.05 384.99c-1.4 8.23-3.1 16.52-5.57 24.49-.96 2.51-1.53 5.24-4.23 6.4-3.58 1.7-6.59 3.18-8.56 6.86 2.57-6.36 4.04-13.37 5.95-19.97 1.42-3.53 3.99-5.37 7.08-7.31 3.55-1.99 4.36-6.83 5.33-10.47"/><path fill="#a1a1a1" d="M544.92 395.59c3 4.55 5.54 9.3 8.88 13.63 2.13 2.72 4.01 5.52 5.2 8.79 2.4 6.35 5.79 12.12 8.7 18.23 1.59 3.32 3.34 6.54 5.35 9.63-1.56.77-3.13 1.56-4.72 2.27.27-1.14.54-2.27.82-3.4-3.49-.87-7.01-1.57-10.5-2.44-.05-5.48-3.04-9.02-5.1-13.87-2.59-5.91-4.47-11.99-7.83-17.56-.97 1.67-1.88 3.38-2.68 5.14 1.65-6.43 3.93-11.93 2.06-18.67-1.12 1.43-2.2 2.87-3.13 4.44.77-2.17 1.78-4.22 2.95-6.19"/><path fill="#020202" d="M545.1 397.34c1.87 6.74-.41 12.24-2.06 18.67-1.42 5.17-3.37 11.22-.09 16.1 3.46 5.9 9.26 8.69 15.7 10.19 3.49.87 7.01 1.57 10.5 2.44-.28 1.13-.55 2.26-.82 3.4-6.11 2.04-12.01.57-17.87-1.5-6.94-2.55-12.42-8.69-14.31-15.81-1.13-4.53.41-9.94.92-14.53-5.38 1.08-10.41 2.75-15.17 5.53-7.03 3.58-11.92 9.4-18.64 13.4-8.32 4.9-16.56 9.45-25.75 12.54-7.15 2.36-14.12 5.08-21.42 6.97-5.18 1.46-10.71 2.83-14.86 6.44-4.04 3.6-7.1 8.5-8.18 13.83-1.61 6.45-1.54 13.4-3.63 19.66-.88 2.7-2.69 4.54-4.49 6.61-2.19 2.54-3.25 5.44-4.44 8.53-4.21 11.48-8.93 22.74-12.65 34.4-4.34 11.4-7.23 23.18-10.25 34.98-3.63 18.81-6.37 37.89-9.68 56.74-3.46 17.96-6.46 36.01-9.95 53.97-1.48 9.22-3.73 17.96-4.38 27.29-.36 5.78-1.21 11.49-2.08 17.2 11.15-.03 22.57-2.33 33.74-3.15 8.32-.81 16.55-.3 24.89-.71 8.72-.59 17.34-.94 26.09-.95-2.23-7.42-5.21-14.4-6.88-21.86-.89-3.88-1.52-7.75-2.54-11.61-1.34-5.2-3.39-10.03-4.61-15.28-.89-3.75-1.31-7.53-2.07-11.29-1.36-6.89-4.57-12.76-5.31-19.84-.54-5.69-.86-11.31-2.47-16.84-.68-2.7-1.43-5.37-1.94-8.1 4 3.99 5.52 9.01 6.72 14.38.72 5.08 1.22 10.07 2.82 14.99 2.06 6.12 4.41 12.04 5.4 18.47 1.55 9.98 5.94 19.01 7.73 28.93 1.77 9.63 4.99 18.75 8.14 27.98 5.65.12 11.18-.35 16.76-1.2 10.08-1.51 19.81-.19 29.81-1.41 7.74-.41 15.48-1.23 23.22-1.19 9.67.01 19.33.12 29-.02 3.8 0 7.88-.15 11.6.72 2.21.25 3.01 2.98 4.2 4.55-8.34 1.44-16.08.55-24.8.79-15.14.39-29.27-.87-44.31 1.67-7.92.34-15.72-.22-23.61.86-6.68.9-14.03.89-20.1 3.61-5.24-1.81-10.52-1.75-15.98-1.62-9.71.01-19.28 1.46-29 1.12-10.91-.38-21.46 1.38-32.26 2.47-4.79.55-9.61.72-14.4 1.25-.66 2.18-1.3 4.37-1.97 6.54-1.2.04-2.39.08-3.58.13-.54-2.19-1.05-4.39-1.59-6.58-7.61.58-15.12 1.84-22.68 2.78-7.35.96-14.64.16-21.98 1.26-14.21 1.94-29.02 4.56-43.52 5.25-12.47.61-24.23 3.73-36.62 5.34-18.82 3.15-37.39 7.59-56.37 9.98-22.38 2.8-44.82 5.23-67.19 8.13-16.91 1.9-33.31 6.67-50.27 8.6-7.69 1-15.44 1.2-23.12 2.22-5.09.69-9.81 2.33-14.72 3.72a30.56 30.56 0 0 1-16.24.2c5.4-1.03 10.32-.81 15.47-2.52 5.15-1.68 10.11-3.61 15.47-4.54 10.05-1.76 20.28-2.34 30.34-4.09 12.81-2.09 25.23-5.67 38.08-7.54 13.63-1.96 27.28-3.75 40.94-5.52 14.49-1.86 29.33-3.29 43.64-5.99 16.22-2.85 32.22-6.64 48.5-9.14 8.13-1.25 16.08-3.15 24.22-4.06 5.92-.73 11.88-.95 17.81-1.59 14.22-1.17 27.67-4.61 42-5.04 12.5.02 25.11-2.41 37.48-4.19.85-4.53 1.66-8.95 1.98-13.55.62-13.2 3.62-26.5 5.9-39.54 4.86-26 9.85-51.95 14.11-78.05 2.41-11.39 3.65-22.75 6.91-33.92 4.6-18.05 11.22-35.65 18.59-52.75 2.39-5.58 4.53-11.02 7.65-16.23 1.93-3.35 4.28-6.42 4.92-10.32.89-5 .9-10.08 1.88-15.08 1.11-7.09 4.78-13.72 10.12-18.51 4.06-3.61 9.1-5.39 14.22-6.95 9.32-2.67 18.45-5.99 27.56-9.29 10.26-4.39 20.6-9.61 29.21-16.8 5.09-4.22 10.93-7.4 17.11-9.7 4.38-1.56 8.77-.86 13.13-1.86 1.54-3.07 2.12-6.87 3.24-10.13.93-1.57 2.01-3.01 3.13-4.44"/><path fill="#a2a2a2" d="M615.88 406.81c3.8 15.16.47 28.57 1.03 43.7 4.85-1.13 9.03-3.46 13.99-1.8l-2.01 1.29c7.08 4.04 13.31 5.23 21.46 4.79 1.99 2.88 4.8 5.85 5.79 9.23.76 3.87.35 8.07.07 11.98-.65 6.69-1.5 13.45-3.2 19.96-4.65 11.15-1.03 22.21-5.76 33.37-1.26 2.96-4.84 4.83-7.39 6.58-1.46-4.28-2.64-8.63-3.76-13-2.98-12.14-7.77-23.65-11.34-35.66-1.57-5.41-3.63-10.48-7.38-14.77.04-3.32.49-6.58.96-9.87.07 3.45.18 6.88.58 10.3 1.44-1.37 3.65-2.79 4.37-4.71.53-2.5.2-5.26.02-7.8-.05-.8-.11-1.6-.15-2.4-.68-1.14-1.32-2.3-1.99-3.44 2.09.16 4.18.16 6.27.25-.1-1.47.13-3.29-.7-4.56-3.45-.2-6.97.27-10.41.51-.16-7.11-.18-14.21.3-21.3.49-7.52-.01-15.17-.75-22.65"/><path fill="#fefefe" d="M545.72 410.87c3.36 5.57 5.24 11.65 7.83 17.56 2.06 4.85 5.05 8.39 5.1 13.87-6.44-1.5-12.24-4.29-15.7-10.19-3.28-4.88-1.33-10.93.09-16.1.8-1.76 1.71-3.47 2.68-5.14"/><path fill="#fff" d="M537.07 416.3c-.51 4.59-2.05 10-.92 14.53 1.89 7.12 7.37 13.26 14.31 15.81 5.86 2.07 11.76 3.54 17.87 1.5 1.59-.71 3.16-1.5 4.72-2.27 1.79 2.71 3.25 5.48 3.86 8.71 1.33 6.32 2.56 12.62 4.71 18.74 2.06 5.79 1.99 11.52 2.64 17.56.48 6.37 1.3 12.7 1.72 19.08.67 13.38 2.79 26.7 4.56 39.97 1.21 10.57 3.17 20.58 3.15 31.3-5.58-8.08-11.78-15.51-18.14-22.97.89-1.38 1.77-2.75 2.65-4.13-3.75-5.91-3.92-12.16-4.72-18.88-1.22-6.86-2.65-14.17-5.82-20.41-.73 4.82-.93 9.56.36 14.3 1.63 5.93 2.5 11.99 3.83 17.98-2-.77-5.1-2.78-7.16-1.61-2.56 3.33-4.1 7.52-5.95 11.29-3.61 8.43-7.89 16.53-12.52 24.44-4.1 6.96-7.61 14.22-11.75 21.16-5.12 9.57-9.63 20.17-15.79 29.2-2.11 3.21-4.79 6.38-6.26 9.93-1.35 2.82.13 6.14 1.21 8.81 1.2 2.55 2.76 5.88 5.38 7.21 2.39-.84 4.46-2.28 6.59-3.61 4.2 5.71 7.73 11.83 12.06 17.44 4.01 5.28 8.31 10.4 12.16 15.78 3.8 5.28 7.1 10.77 11.18 15.85 5.31 6.74 11.48 12.68 16.69 19.49-8.3 4.27-18.36 2.19-27.69 2.65-14.2.49-28.46-.89-42.22 1.75-10 1.22-19.73-.1-29.81 1.41-5.58.85-11.11 1.32-16.76 1.2-3.15-9.23-6.37-18.35-8.14-27.98-1.79-9.92-6.18-18.95-7.73-28.93-.99-6.43-3.34-12.35-5.4-18.47-1.6-4.92-2.1-9.91-2.82-14.99-.56-5.29-1.75-10.27-4.61-14.82-.83.09-1.66.2-2.49.35-3.38 7.18-4.63 14.17-4.42 22.12-.3 8.92-.62 17.81.13 26.72.64 7.49.56 15.01 1.29 22.49 1.34 11.7-.15 23 3.11 34.53-8.34.41-16.57-.1-24.89.71-11.17.82-22.59 3.12-33.74 3.15.87-5.71 1.72-11.42 2.08-17.2.65-9.33 2.9-18.07 4.38-27.29 3.49-17.96 6.49-36.01 9.95-53.97 3.31-18.85 6.05-37.93 9.68-56.74 3.02-11.8 5.91-23.58 10.25-34.98 3.72-11.66 8.44-22.92 12.65-34.4 1.19-3.09 2.25-5.99 4.44-8.53 1.8-2.07 3.61-3.91 4.49-6.61 2.09-6.26 2.02-13.21 3.63-19.66 1.08-5.33 4.14-10.23 8.18-13.83 4.15-3.61 9.68-4.98 14.86-6.44 7.3-1.89 14.27-4.61 21.42-6.97 9.19-3.09 17.43-7.64 25.75-12.54 6.72-4 11.61-9.82 18.64-13.4 4.76-2.78 9.79-4.45 15.17-5.53"/><path fill="#010101" d="M713.3 421.3c-1.82 2.65-4.09 4.76-6.56 6.77 1.36 3.22 2.54 6.47 3.32 9.88-2.19-2.89-4.04-6-5.91-9.11-3.14 1.12-6.31 2.16-9.57 2.89 4.34-5.81 11.53-9.69 18.72-10.43"/><path fill="#9f9f9f" d="M702.46 431.06c2.09 3.32 3.11 6.23 3.7 10.1-2.86-3.37-4.14-5.51-3.7-10.1"/><path fill="#fff" d="M659.9 451.34c10.68 10.04 23.27 18.13 37.69 21.46 3.03 10.62 5.41 21.39 7.4 32.26-.47 1.17-.92 2.35-1.32 3.55-3.13 8.33-3.64 18.1-4.39 26.91-1.11 11.54-2.73 23-3.67 34.55-1.43 10.59-3.45 21.15-5.95 31.53-2.75 12.27-4.1 25.11-6.14 37.5-1.76 10.08-4.51 19.98-6.43 30.03-1.52 7.33-2.62 14.89-4.73 22.06-1.97-8.07-.49-15.65-1.53-23.96-.77-10.37-2.85-20.47-4.98-30.63-2.33-14.67-5.06-29.23-9.26-43.5-2.34-8.08-4.13-16.29-6.64-24.32-3.41-10.96-6.17-22.07-10.09-32.87 2.55-1.75 6.13-3.62 7.39-6.58 4.73-11.16 1.11-22.22 5.76-33.37 5.06-13.55 4.3-29.84 5.63-44.12z"/><path fill="#bcbcbc" d="M658.64 451.84c-1.33 14.28-.57 30.57-5.63 44.12 1.7-6.51 2.55-13.27 3.2-19.96.28-3.91.69-8.11-.07-11.98-.99-3.38-3.8-6.35-5.79-9.23 2.84-.8 5.57-1.84 8.29-2.95"/><path fill="#e0e0e0" d="M621.17 454.56c.67 1.14 1.31 2.3 1.99 3.44.04.8.1 1.6.15 2.4-3.88-1.79-7.17-3.89-10.43-6.63 2.76.26 5.52.61 8.29.79"/><path fill="#6c6c6c" d="M531.31 467.38c5.79 4.77 13.08 9.15 17.13 15.48-7.08-3.8-13.53-8-17.13-15.48"/><path fill="#e6e6e6" d="M704.99 505.06c1.81 8.02 2.59 15.71 2.48 23.93-.14 14.59 1.38 29.06.95 43.65-2.97 1.59-6.99 2.59-7.53 6.48-1.47 7.32 1.37 15.82 2.77 23.08-2.76-7.05-3.86-12.75-4.02-20.36-.51 1.39-1.04 2.78-1.53 4.18.79-7.04 2.32-13.94 2.75-21.02.93-12.45 2.81-24.62 2.84-36.99.32-6.54 1.13-12.87-.03-19.4.4-1.2.85-2.38 1.32-3.55"/><path fill="#c9c9c9" d="M456.98 533.96c2.96 2.78 4.32 7.55 5.9 11.21-2.24-3.54-4.44-7.16-7.09-10.41-.67-.04-1.33-.07-2-.09 1.28 3.76 2.76 7.43 4.54 10.98 5.32 10.67 10.77 21.26 15.99 31.98 2.52 5.32 5.53 9.96 9.33 14.46.07-1.03.12-2.05.15-3.07 1 2.48 2.14 4.87 3.34 7.27-3.08-1.52-6.24-1.98-9.58-2.47-2.67-.23-3.54-2.64-4.78-4.64-5.18-10.32-8.82-21.22-14.54-31.43-2.85-5.49-6.2-11.18-7.74-17.21-.93-2.98.97-5.24 3.4-6.66.86-.46 2.38-.79 3.08.08"/><path fill="#020202" d="M455.79 534.76c2.65 3.25 4.85 6.87 7.09 10.41 7.94 14.05 16.07 28.3 20.92 43.85-.03 1.02-.08 2.04-.15 3.07-3.8-4.5-6.81-9.14-9.33-14.46-5.22-10.72-10.67-21.31-15.99-31.98-1.78-3.55-3.26-7.22-4.54-10.98.67.02 1.33.05 2 .09"/><path fill="#a2a2a2" d="M565.71 552.48c3.03 3.46 5.55 7.22 8.24 10.93-4.51 5.88-8.06 12.21-12.16 18.41-4.37 6.53-7.38 13.73-11.5 20.4-1.14 1.38-2.35 2.73-3.54 4.07-2.14-.28-4.28-.54-6.43-.82-1.91 2.4-3.89 4.79-5.64 7.31 3.15-7.35 7.32-14.13 10.85-21.28 4.91-9.5 10.49-18.27 14.56-28.33 1.51-3.77 3.19-7.42 5.62-10.69"/><path fill="#a0a0a0" d="M708.42 572.64c.11 8.49-1.21 16.15 1.65 24.21 2.28 6.47 4.59 13.92 9.02 19.24-1.68 1.85-3.44 4.17-5.68 5.34-2.45.87-4.94-.56-5.98-2.83-2.28-4.99-2.38-11.08-3.77-16.4-1.4-7.26-4.24-15.76-2.77-23.08.54-3.89 4.56-4.89 7.53-6.48"/><path fill="#010101" d="M706.35 593.46c2.92 6.68 3.76 12.8 2.92 20.05-2.67-6.22-3.9-13.33-2.92-20.05"/><path fill="#b6b6b6" d="M550.29 602.22c-3.35 6.81-7.61 12.88-12 19.04-4.17 5.23-10.69 6.78-14.53 12.53 4.04-6.77 7.24-14.04 10.92-21.01 1.75-2.52 3.73-4.91 5.64-7.31 2.15.28 4.29.54 6.43.82 1.19-1.34 2.4-2.69 3.54-4.07"/><path fill="#d7d7d7" d="M538.29 621.26c-2.94 5-4.55 10.35-7.87 15.18-2.3 3.53-4.93 6.15-4.99 10.63-1.7-2.66-3.35-5.35-4.99-8.05 1.11-1.74 2.2-3.5 3.32-5.23 3.84-5.75 10.36-7.3 14.53-12.53"/><path fill="#c9c9c9" d="M430.02 624.67c.83-.15 1.66-.26 2.49-.35 2.86 4.55 4.05 9.53 4.61 14.82-1.2-5.37-2.72-10.39-6.72-14.38.51 2.73 1.26 5.4 1.94 8.1.04 2.32.29 5.35-1.01 7.39-1.5 2.42-3.73 4.51-5.73 6.54-.21-7.95 1.04-14.94 4.42-22.12"/><path fill="#c8c8c8" d="M590.58 631.44c.55 4.09.56 7.87.06 11.96-.98-4.26-1.07-7.68-.06-11.96"/><path fill="#a2a2a2" d="M432.34 632.86c1.61 5.53 1.93 11.15 2.47 16.84.74 7.08 3.95 12.95 5.31 19.84.76 3.76 1.18 7.54 2.07 11.29 1.22 5.25 3.27 10.08 4.61 15.28 1.02 3.86 1.65 7.73 2.54 11.61 1.67 7.46 4.65 14.44 6.88 21.86-8.75.01-17.37.36-26.09.95-3.26-11.53-1.77-22.83-3.11-34.53-.73-7.48-.65-15-1.29-22.49-.75-8.91-.43-17.8-.13-26.72 2-2.03 4.23-4.12 5.73-6.54 1.3-2.04 1.05-5.07 1.01-7.39"/><path fill="#fff" d="M685.68 653.76c4.51 3.45 8.72 6.9 11.85 11.72 4.22 6.44 9.37 12.76 15.57 17.39 4.36 3.07 9.18 5.49 13.7 8.32 5.66 3.58 11.82 6.23 17.43 9.9-18.46 3.48-37.2 5.32-55.72 8.45-5.13.92-10.14 2.37-15.26 3.34 2.9-13.49 5.16-27.1 8.2-40.55 1.33-6.25 2.22-12.55 4.23-18.57"/><path fill="gray" d="M794.32 694.48c5.27 1.53 10.49 2.37 15.99 1.93-6.09 1.26-12.1 1.59-18.3 1.3.76-1.08 1.53-2.16 2.31-3.23"/><path fill="#a2a2a2" d="M804.27 703.09c-2.42 2.44-4.73 4.74-7.76 6.43-3.8 2.14-8.11 2.97-12.38 3.64-11.5 1.67-23.08 2-34.56 3.54-4.04.53-8.08.93-12.14 1.23l-2.22-3.39c-.9-1.38-1.8-2.76-2.7-4.15-2.54-.34-5.09-.7-7.64-.94 6.46-.76 12.93-1.63 19.35-2.68 3.25-.5 6.43-.99 9.73-.65 3.68.34 7.38 1.52 11.02 1.49 4.11-.09 7.8-2.38 11.88-2.55 3.03-.14 6.03-.11 9.02-.74 6.16-1.25 12.19-.8 18.4-1.23"/><path fill="#c6c6c6" d="M724.87 709.45c2.55.24 5.1.6 7.64.94.9 1.39 1.8 2.77 2.7 4.15-6.51-.4-12.98-.38-19.44-1.48-7.01-1.19-13.92-.12-21.09-.51 10.03-1.24 20.1-2.49 30.19-3.1"/><path fill="#a1a1a1" d="M577.69 722.5c6.68 8.87 14.48 16.76 21.14 25.63 2.04 2.47 3.75 5.36 7.17 5.92 5.42 1.01 11.3.62 16.72-.27-5.17-2.16-10.75-1.91-15.98-3.57-2.92-1.71-4.67-5.57-6.84-8.14 5.19 2.86 10.7 6.02 16.51 7.35 5.62 1.22 10.46-.21 15.95-.87 3.19-.46 5.87 1.32 8.64 2.61-5.48 2.17-11.46 2.55-16.96 4.78 5.47 1.82 10.37 2.07 16.05 1.21-8.5 4.25-18.16 4.82-27.36 2.9-8.18-2.03-15.98-7.62-23.78-10.92-11.49-4.6-22.98-8.62-35.3-10.3-4.58-.57-9.17-.14-13.74-.55-5.02-.38-7.37-6.24-12.83-5.76-6.81.23-13.54 1.14-20.39.9 15.04-2.54 29.17-1.28 44.31-1.67 8.72-.24 16.46.65 24.8-.79-1.19-1.57-1.99-4.3-4.2-4.55-3.72-.87-7.8-.72-11.6-.72-9.67.14-19.33.03-29 .02-7.74-.04-15.48.78-23.22 1.19 13.76-2.64 28.02-1.26 42.22-1.75 9.33-.46 19.39 1.62 27.69-2.65"/></svg>