<svg xmlns="http://www.w3.org/2000/svg" width="416pt" height="742pt" viewBox="0 0 416 742"><path fill="#fff" d="M0 0h416v742H0z"/><path fill="#160703" d="M249.82 36.16c4.62 1.92 7.64 5.82 10.41 9.8l-.21 2.83c-4.4-4.48-8.15-9.8-14.94-10.33-11.45-1.1-24.4 2.92-33.05 10.59-1.45.31-2.92.53-4.38.84 2.4-2.83 4.53-5.59 7.85-7.4 5.67-3.16 11.83-5.57 18.19-6.92 5.43-1.14 10.88-1.56 16.13.59"/><path fill="#290903" d="M274.03 39.12c2.26 1.94 2.92 5.85 3.94 8.55-.52 1.89-1.1 3.78-1.66 5.65-2.85-5.68-2.93-10.93-7.56-14.96 1.73.16 3.64.15 5.28.76"/><path fill="#e98734" d="M245.08 38.46c6.79.53 10.54 5.85 14.94 10.33l.21-2.83c.58.83 1.15 1.67 1.72 2.5l-.36 3.27c3.51-2.12 6.23-4.55 8.87-7.68 1.51 5.92.43 12.4 2.37 18.08 2.77 1.01 6.61 1.54 9.32.13 2.07-1.81 3.47-4.55 4.95-6.85.9 5.21 1.11 11-.53 16.09-1.33 4.26-3.66 8.44-5.72 12.4.35.53.7 1.07 1.06 1.6-.92 1.2-1.83 2.38-2.69 3.63-2.96.79-5.73 2.03-8.49 3.37-1.4-4.93-2.12-11.5-6.22-14.98-3.21-2.91-6.91-5.46-10.95-7.06-4.97-1.91-9.84-1.36-15-.84 1.5.73 2.99 1.45 4.53 2.08-2.54-.34-5.09-.67-7.63-1.05l-.36 1.87c-2.24-1.91-4.58-3.55-7.27-4.79.79 4.88 3.83 7.92 6.88 11.5-4.05-1.09-7.89-2.44-11.69-4.21 1.3 2.55 3.08 5.36 3.46 8.23.14 2.66-.8 5.48-1.4 8.05-1.99-2.11-3.87-4.41-6.07-6.3-1.7-1.61-4.44-1.64-6.65-2.09-1.14 3.63-2.64 7.7-2.6 11.54.14 3.61 1.65 7.31 3.07 10.59 1.01 2.17 2.11 4.69 3.87 6.35 1.62.77 3.58 1 5.34 1.23-1.08.27-2.16.55-3.25.83.07.82.13 1.63.2 2.45-1.39 1.15-2.7 2.39-4.01 3.63l-.21-1.26c-.46-3.22-1.16-6.29-2.94-9.06-4.03-6.36-9.17-11.97-13.12-18.4-1.91-8.89-6.22-17.65-2.63-26.71 1.55-4.46 5.05-6.07 8.75-8.43 2.89-1.71 5.01-4.14 7.2-6.62 8.65-7.67 21.6-11.69 33.05-10.59"/><path fill="#8b4f1b" d="M268.75 38.36c4.63 4.03 4.71 9.28 7.56 14.96.56-1.87 1.14-3.76 1.66-5.65.41 1.04.88 2.05 1.29 3.09-.17 3.26-1 6.62-1.61 9.84 1.51-.93 4.01-1.54 4.39-3.49 1.15-3.94.5-8.63.23-12.67l1.41.35c1.33 3.47 2.51 7.01 3.42 10.62-1.48 2.3-2.88 5.04-4.95 6.85-2.71 1.41-6.55.88-9.32-.13-1.94-5.68-.86-12.16-2.37-18.08-2.64 3.13-5.36 5.56-8.87 7.68l.36-3.27c2.83-3.03 4.91-6.43 6.8-10.1"/><path fill="#1d0301" d="M279.68 43.83c.86.2 1.73.4 2.59.61.27 4.04.92 8.73-.23 12.67-.38 1.95-2.88 2.56-4.39 3.49.61-3.22 1.44-6.58 1.61-9.84.17-2.31.29-4.62.42-6.93"/><path fill="#2d0a03" d="M285.48 45.29c5.82 6.5 5.79 15.54 4.85 23.72-.82 6.61-4.42 11.45-8.42 16.49-.36-.53-.71-1.07-1.06-1.6 2.06-3.96 4.39-8.14 5.72-12.4 1.64-5.09 1.43-10.88.53-16.09-.91-3.61-2.09-7.15-3.42-10.62.6.16 1.2.33 1.8.5"/><path fill="#a77a4d" d="M207.65 49.89c1.46-.31 2.93-.53 4.38-.84-2.19 2.48-4.31 4.91-7.2 6.62-3.7 2.36-7.2 3.97-8.75 8.43-3.59 9.06.72 17.82 2.63 26.71-.14 1.05-.3 2.1-.47 3.14-1.52-2.86-2.92-5.79-4.28-8.74.72.14 1.43.28 2.14.42-1.85-7.89-4.06-15.42-.86-23.35 1.66-4.85 6.92-6.65 10.96-9.06-1.74-.07-3.49-.15-5.23-.17 2.26-.99 4.49-2.03 6.68-3.16"/><path fill="#240e05" d="M200.97 53.05c1.74.02 3.49.1 5.23.17-4.04 2.41-9.3 4.21-10.96 9.06-3.2 7.93-.99 15.46.86 23.35-.71-.14-1.42-.28-2.14-.42-3.65-7.77-5.2-16.59-1.34-24.61 1.76-3.71 4.55-6.08 8.35-7.55"/><path fill="#250c06" d="M227.83 67.73c2.69 1.24 5.03 2.88 7.27 4.79 3.45 2.9 7.3 5.02 11.01 7.52-2.18 1-4.62 2.44-7.04 2.6-3.1.21-6.31-.13-9.41-.36-.93 5.06-2.39 9.95-4.17 14.77-3.25-4.61-5.66-9.27-10.7-12.27-1.78 3.82-3.02 7.62-2.28 11.89.79 4.33 2.68 9.02 5.87 12.12 2.35.54 5.02-.05 7.4-.23-.03 1.05-.07 2.09-.1 3.14-1.21.32-2.42.62-3.64.92-1.76-.23-3.72-.46-5.34-1.23-1.76-1.66-2.86-4.18-3.87-6.35-1.42-3.28-2.93-6.98-3.07-10.59-.04-3.84 1.46-7.91 2.6-11.54 2.21.45 4.95.48 6.65 2.09 2.2 1.89 4.08 4.19 6.07 6.3.6-2.57 1.54-5.39 1.4-8.05-.38-2.87-2.16-5.68-3.46-8.23 3.8 1.77 7.64 3.12 11.69 4.21-3.05-3.58-6.09-6.62-6.88-11.5"/><path fill="#220a05" d="M238.56 69.62c5.16-.52 10.03-1.07 15 .84 4.04 1.6 7.74 4.15 10.95 7.06 4.1 3.48 4.82 10.05 6.22 14.98 2.76-1.34 5.53-2.58 8.49-3.37-1.37 2.21-3.16 4.62-3.42 7.27-.38 3.56-.46 7.1.16 10.64-.65-3.09-1.78-6.02-3.03-8.92l-.52-1.3q-.42-1.065-.87-2.13c-.84 1.76-1.66 3.52-2.49 5.29-4.84-1.74-7.77-4.71-10.58-8.92 2.81.71 5.57 1.56 8.34 2.37-.34-3.56-.5-6.83-2.36-9.98-2.13-3.6-5.88-6.38-9.42-8.5-3.79-2.27-7.68-2.51-11.94-3.25-1.54-.63-3.03-1.35-4.53-2.08"/><path fill="#1e1f1e" d="M234.5 85.69c2.9 1.73 5.29 3.9 7.49 6.46.87-.34 1.75-.67 2.63-1.01-1.34-1.65-2.68-3.29-4-4.94 2.45.27 4.89.53 7.34.8-.43 1.68-.35 4.29-1.5 5.63-3.22 2.37-7.56 3.47-11.26 4.95.44-1.85 1.05-3.75 1.19-5.65-.26-2.13-1.28-4.19-1.89-6.24"/><path fill="#130501" d="M198.71 90.81c3.95 6.43 9.09 12.04 13.12 18.4 1.78 2.77 2.48 5.84 2.94 9.06-2.67-3.12-5.15-6.34-7.3-9.84-3.01-4.87-6.44-9.49-9.23-14.48.17-1.04.33-2.09.47-3.14"/><path fill="#9c9b9b" d="m272.41 96.82.52 1.3c.63 6.39-1.06 13.88 3.24 19.23-1.13.39-2.36.79-3.56.84-2.81-1.02-3.03-4.48-2.41-6.98 1.14-4.85 2.76-9.28 2.21-14.39"/><path fill="#515051" d="M255.56 97.38c2.45.66 4.68 1.73 6.96 2.83-2.31 2.08-4.53 3.44-7.4 4.63.05-2.51.09-4.96.44-7.46"/><path fill="#4c4c4d" d="M272.93 98.12c1.25 2.9 2.38 5.83 3.03 8.92.25 1.26.51 2.51.77 3.77 1.29-.38 2.58-.75 3.87-1.15-1.8 1.64-3.48 3.43-5.17 5.18.47.75.95 1.5 1.42 2.25l-.68.26c-4.3-5.35-2.61-12.84-3.24-19.23"/><path fill="#040404" d="M267.22 101.53c.27 3.4.21 6.81.09 10.22l-3.54.06c-.45-2.59-1.75-5.8-.47-8.26.65-2.18 2.11-1.57 3.92-2.02"/><path fill="#0a090a" d="M280.6 109.66c.88-.27 1.77-.55 2.66-.81-.04 5.17-.55 9.55-3.89 13.7 0-2.44.09-4.87.23-7.31-.91.63-1.83 1.25-2.75 1.85-.47-.75-.95-1.5-1.42-2.25 1.69-1.75 3.37-3.54 5.17-5.18"/><path fill="#989897" d="M218.99 115.9c1.74-.12 3.48-.15 5.22-.18-1.76 3.93-3.96 8.08-4.6 12.37-.5 5.39 2.67 11.33 3.83 16.51.55 2.04-.5 4.36-1.03 6.34-1.35-1.42-2.69-2.84-3.99-4.31.03-5.46-1.94-10.23-4.24-15.07 1.41-2.98 2.53-6.04 3.66-9.13-.89-.29-1.78-.58-2.67-.86-.05-.69-.11-1.36-.19-2.04 1.31-1.24 2.62-2.48 4.01-3.63"/><path fill="#090909" d="M224.21 115.72c1.02-.03 2.04-.04 3.05-.05-1.22 4.38-3.59 8.3-4.89 12.62-.7 4.59 1.38 9.8 3.36 13.88 5.72 11.42 14.04 22.25 25.72 28-.17.65-.35 1.29-.52 1.94-4.37-1.75-8.47-3.88-11.96-7.09-5.12-4.3-8.5-9.71-12.84-14.67-.86.87-1.7 1.74-2.53 2.63 4.02 7.46 9.8 13.25 15.44 19.46-.95.16-1.89.31-2.83.47-3.43-2.61-6.69-5.34-9.39-8.72-3.75-4.67-6.68-9.92-10.46-14.57-3.4-4.17-6.81-8.3-9.7-12.84 4.64-4.08 7.15-9.26 8.51-15.21.89.28 1.78.57 2.67.86-1.13 3.09-2.25 6.15-3.66 9.13-1.05 2.12-2.13 4.23-3.21 6.34 2.43 2.96 4.88 5.9 7.45 8.73 1.3 1.47 2.64 2.89 3.99 4.31.53-1.98 1.58-4.3 1.03-6.34-1.16-5.18-4.33-11.12-3.83-16.51.64-4.29 2.84-8.44 4.6-12.37"/><path fill="#0e0e0e" d="M275.06 125.65c.26 3.09.4 6.18.46 9.27-2.37.4-4.75.77-7.12 1.14.05.91.11 1.83.17 2.74 1.81 1.1 4.72 2.09 5.77 4.01 1.04 2.34-.76 3.73-1.84 5.62-2.76 3.79-4.17 8.4-6.3 12.74 1.23 1.23 2.44 2.48 3.74 3.64-1.43-.44-2.86-.82-4.32-1.09-2.75 1.43-5.13 3.32-7.69 5.13q-1.095.12-2.19.27c3.22-4.41 6.95-8.43 10.06-12.91 1.88-2.93 3.2-6.1 4.38-9.36.49-1.4.93-2.81 1.37-4.23-4.31.06-8.44.6-12.34 2.53-3.23 1.27-7.21 3.84-10.75 3.4-4.74-2.1-6.73-9.31-3.3-13.49 2.04-2.77 5.69-7.13 9.58-6.01 6.14.83 11.55 3.03 17.39 4.89.91-2.79 1.84-5.57 2.93-8.29"/><path fill="#f8f8f8" d="M252.33 131.53c4.76-.31 9.87 1.47 14.45 2.69-.12 1.91-.23 3.82-.34 5.73-6.17 1.28-11.86 3.69-17.57 6.28-1.65-2.38-3.28-4.78-4.88-7.18 2.43-2.53 5.02-6.17 8.34-7.52"/><path fill="#0a0a0a" d="M206.39 131.6c-5.12 4-10.64 6.85-14.75 12.07-1.87-.46-3.39-1.2-5.31-.38-5.61 1.99-11 5.08-16.38 7.61-4.37 2.04-8.78 3.09-13.3 4.74-5.29 1.83-9.99 4.61-15.18 6.74-4.53 1.98-9.76 3.54-13.83 6.31-4.19 2.86-6.99 7.14-9.69 11.33-7.14 10.74-12.15 23.55-17.59 35.29-3.68 8.74-6.86 17.71-10.69 26.39-.87 1.94-2.3 3.28-3.75 4.78.18-6.72 3.16-12.01 5.52-18.1 5.12-13.74 11.2-27.14 17.7-40.28 3.29-6.03 7.21-12.13 11.46-17.52 3.92-4.88 9.15-7.04 14.8-9.28 8.23-3.12 15.65-7.43 24.15-9.83 5.04-1.38 9.61-3.24 14.25-5.62 4.91-2.52 10.2-3.67 15.3-5.65 3.82-1.47 6.4-4.12 9.79-6.2 2.35-1.43 4.85-1.82 7.5-2.4"/><path fill="#f6f6f6" d="M214.18 131.56c2.3 4.84 4.27 9.61 4.24 15.07-2.57-2.83-5.02-5.77-7.45-8.73 1.08-2.11 2.16-4.22 3.21-6.34"/><path fill="#1d1d1d" d="M264.21 135.66c-4.89 2.82-10.22 3.88-15.8 4.08 4.49-4.28 9.69-6.03 15.8-4.08"/><path fill="#aaa" d="M270.18 146.85c-1.18 3.26-2.5 6.43-4.38 9.36-.81-1.82-3.18-4.51-2.27-6.53 1.95-1.32 4.44-2.07 6.65-2.83"/><path fill="#979797" d="M226.13 150.35c4.34 4.96 7.72 10.37 12.84 14.67 3.49 3.21 7.59 5.34 11.96 7.09.17-.65.35-1.29.52-1.94 1.43-.39 2.83-.77 4.29-1.05q1.095-.15 2.19-.27c2.56-1.81 4.94-3.7 7.69-5.13 1.74 2.11 3.49 4.22 5.24 6.33-6.97 6.54-15.14 11.28-22.56 17.29-3.84 3.08-8.36 3.53-12.61 5.61-2.04 2.36-.43 6.33.21 8.98 4.56 15.26 2.82 30.43 7.5 45.65 3.94 12.68 4.98 25.41 6.6 38.5 2.53 21.31 5.49 42.62 9.32 63.74 1.87 9.09 4.04 18.15 6.99 26.96.68-.61 1.36-1.22 2.04-1.82.43 2.45.85 5.24.29 7.69-.58 1.67-2.46 2.92-3.81 3.99-1.74-.28-3.23-.71-4.88.18-5.07 2.37-9.85 5.44-14.3 8.84-4.15 3.44-8.25 5.91-13.46 7.45-2.49-10.61-3.96-21.4-6.34-32.03-1.82-8.02-1.84-16.22-3.74-24.22-1.33-5.65-2.15-11.37-3-17.11-.96-6.46-2.52-12.35-2.53-18.71-.02-4.47.16-8.93-.12-13.39-3.44 7.2-3 14.54-3.51 22.44-.31 4.05 2.71 6.27 3.74 9.99.7 2.92.79 6.02 1.18 8.99.62 5.43 2.07 10.66 2.8 16.07.86 6.24 1.31 12.55 2.29 18.78-2.59-8.6-2.53-17.46-4.48-26.17-1.47-7.03-1.94-14.18-3.6-21.17-.58 4.04-.7 8.62-2.26 12.41-1.8-.24-3.48-.77-5.21-1.29 1.51-10.13.87-20.86 3.39-30.77 2.08-5.83 4.51-11.14 4.54-17.5.54-4.97.53-9.7-.06-14.67-1.47-12.41-.58-24.35-1.54-36.78-.19-3.9-.71-7.96-.26-11.84.7-3.22 3.11-6.11 4.52-9.08 3.56-7.25 6.43-14.98 7.95-22.93-1.05-.53-2.09-1.06-3.14-1.59 4.59-1.85 9.57-2.69 14.05-4.74 3.85-2.16 3.84-8.32 4.24-12.13-1.48 2.36-2.84 4.78-4.29 7.16.86-2.56 1.53-5.2 2.22-7.81-.94-.7-1.88-1.4-2.82-2.11.94-.16 1.88-.31 2.83-.47-5.64-6.21-11.42-12-15.44-19.46.83-.89 1.67-1.76 2.53-2.63"/><path fill="#989898" d="M180.23 160.64c1.76.29 3.48 1.05 5.15 1.65-1.13 1.47-2.24 2.94-3.49 4.31-1.61.04-3.06-.35-4.4.77-3.68 2.92-7.15 6.63-9.38 10.78-.82 1.4-.11 2.87.12 4.35-2.55 3.66-5.01 8.44-8.72 11.02-2.37.77-3.18-.74-4.06-2.62.79-3.11 3-6.01 4.83-8.61 4.49-6 9.01-12.42 14.37-17.65 1.62-1.51 3.48-3.24 5.58-4"/><path fill="#353535" d="M208.4 166.1c-6.96.73-13.8.54-20.33-2.23 6.92-.83 13.84-.55 20.33 2.23"/><path fill="#0a0a0a" d="M269.94 164.81c1.97 1.4 4.12 2.82 5.76 4.6.06 2.14-1.52 2.99-2.92 4.26-7.32 5.79-15.04 11.01-22.39 16.76-3.53 2.8-7.44 4.33-11.81 5.34 2.2 6.78 2.53 14.5 3.31 21.59.47 3.89.49 7.79.53 11.71-.02 7.47 2.89 15.37 4.9 22.54 2.88 9.69 3.63 19.94 5.14 30.18 2.04 14.03 3.68 28.1 5.9 42.1 2.06 17.27 5.62 34.24 9.99 51.07-.68.6-1.36 1.21-2.04 1.82-2.95-8.81-5.12-17.87-6.99-26.96-3.83-21.12-6.79-42.43-9.32-63.74-1.62-13.09-2.66-25.82-6.6-38.5-4.68-15.22-2.94-30.39-7.5-45.65-.64-2.65-2.25-6.62-.21-8.98 4.25-2.08 8.77-2.53 12.61-5.61 7.42-6.01 15.59-10.75 22.56-17.29-1.75-2.11-3.5-4.22-5.24-6.33 1.46.27 2.89.65 4.32 1.09"/><path fill="#424242" d="M181.89 166.6c-4.93 5.02-9.69 10.05-13.66 15.9-.23-1.48-.94-2.95-.12-4.35 2.23-4.15 5.7-7.86 9.38-10.78 1.34-1.12 2.79-.73 4.4-.77"/><path fill="#858585" d="M212.55 170.15c.24 10.12-.28 20.13.43 30.2 2.18-2 4.32-4.01 6.23-6.28-.83 5.78-3.74 10.08-6.97 14.76-.3-12.7.65-25.67-1.01-38.25-2.26 7.91-1.42 15.33-1.59 23.42.05 8.07-.2 16.18.24 24.24-.72-6.39-.89-12.81-.81-19.24.13-9.47-.04-18.84.56-28.29.98-.19 1.95-.37 2.92-.56"/><path fill="#030303" d="M211.23 170.58c1.66 12.58.71 25.55 1.01 38.25 3.23-4.68 6.14-8.98 6.97-14.76 1.03-1.8 2.04-3.93 3.61-5.33 3.5-1.86 7.87-2.03 11.54-3.57 1.19-.42 1.83-1.29 2.45-2.34 1.45-2.38 2.81-4.8 4.29-7.16-.4 3.81-.39 9.97-4.24 12.13-4.48 2.05-9.46 2.89-14.05 4.74 1.05.53 2.09 1.06 3.14 1.59-1.52 7.95-4.39 15.68-7.95 22.93-1.41 2.97-3.82 5.86-4.52 9.08-.45 3.88.07 7.94.26 11.84.96 12.43.07 24.37 1.54 36.78.59 4.97.6 9.7.06 14.67-.59-2.27-1.27-4.47-1.8-6.75-1.28-13.75-2.72-27.96-1.29-41.73-.2-7.58-1.9-15.12-2.37-22.71-.44-8.06-.19-16.17-.24-24.24.17-8.09-.67-15.51 1.59-23.42"/><path fill="#080808" d="M163.63 199.51c1.27 2.25 2.34 4.58 2.95 7.1 2.2 8.72 3.15 17.65 5.61 26.32 2.78 9.73 2.86 19.55 4.64 29.43 1.55 8.66 3 17.79 5.86 26.09-.24 1.68-.51 3.36-.8 5.03-3.78-6.22-4.77-12.75-6.64-19.67-2.14-8.88-3.29-17.9-4.33-26.96-1.05-8.87-3.31-17.44-4.82-26.22-1.2-7.19-3.32-13.7-2.47-21.12"/><path fill="#5a5a5a" d="M212.99 214.14c.44.95.88 1.89 1.32 2.84l-1.29 2.82c-.37-.95-.73-1.89-1.09-2.84.35-.94.71-1.88 1.06-2.82"/><path fill="#111" d="M85.34 247.4c-1.03 8.03-3.9 15.27-5.82 23.07-1.77 7-3.18 14.07-4.99 21.05-2.79 10.52-3.79 21.33-6.14 31.99-2.59 11.53-4.16 23.16-7.23 34.58-.63 2.37-1.87 4.41-3.22 6.43-.27-8 2.62-14.81 3.81-22.56.94-5.96 2.01-11.88 3.33-17.76 2.55-11.31 3.97-22.78 6.97-34 2.16-8.49 3.95-17.19 6.66-25.49 2.03-6.03 3.15-11.86 6.63-17.31"/><path fill="#a5a5a5" d="M175.25 273.81c1.87 6.92 2.86 13.45 6.64 19.67.29-1.67.56-3.35.8-5.03 2.02 3.6 3.83 7.19 4.46 11.33.82 5.23 1.88 10.47 2.3 15.74.39 3.31-2.3 6.02-4 8.61-2.13-6.03-2.51-11.2-1.92-17.55l-2.16.27c-.09-3.39-.81-6.57-1.69-9.83-.63.64-1.25 1.29-1.86 1.94.04-3.78-.06-7.54-.34-11.3-2.1 10.92-2.26 21.91-1.25 32.97.78 8.78.3 17.59.9 26.36-1.02-6.97-1.75-13.93-1.73-20.99-.04-12.56-.92-24.39.89-36.84.75-5.19.09-10.27-1.04-15.35"/><path fill="#ccc" d="M213.54 282.68c.53 2.28 1.21 4.48 1.8 6.75-.03 6.36-2.46 11.67-4.54 17.5-2.52 9.91-1.88 20.64-3.39 30.77-.85-12.49 1.59-23.98 2.98-36.31.68-6.31 1.87-12.5 3.15-18.71"/><path fill="#070707" d="M177.48 287.66c.28 3.76.38 7.52.34 11.3-.14 8.67.58 17.37 1 26.04.55 6.29.47 12.63 1.24 18.89.75 8.73.63 17.37.72 26.11.24 9.16 1.04 18.32 1.92 27.43.75 8.03 2.25 15.73 1.86 23.85-1.63-3.7-2.86-7.51-3.45-11.52-1.39-11.92-2.97-23.73-3.37-35.75-.17-9.11.36-17.89-.61-27.02-.6-8.77-.12-17.58-.9-26.36-1.01-11.06-.85-22.05 1.25-32.97"/><path fill="#eee" d="M179.68 297.02c.88 3.26 1.6 6.44 1.69 9.83-.33 4.04-1.67 8.21-.23 12.14 1.36 4.11 3.11 7.85 3.35 12.26.53 8.6 1.72 17.11 2.63 25.67-1.68 1.62-3.35 3.25-5 4.9-.21-6.08-.96-11.96-2.06-17.93-.77-6.26-.69-12.6-1.24-18.89-.42-8.67-1.14-17.37-1-26.04.61-.65 1.23-1.3 1.86-1.94"/><path fill="#0f0f0f" d="M216.46 297.65c.28 4.46.1 8.92.12 13.39.01 6.36 1.57 12.25 2.53 18.71.85 5.74 1.67 11.46 3 17.11 1.9 8 1.92 16.2 3.74 24.22 2.38 10.63 3.85 21.42 6.34 32.03 5.21-1.54 9.31-4.01 13.46-7.45 4.45-3.4 9.23-6.47 14.3-8.84 1.65-.89 3.14-.46 4.88-.18-3.6 2.75-7.4 5.19-11.31 7.47-.38 9.63 1.39 19.36 2.42 28.93.36 6.43 8.64 8.43 12.21 12.75 2.3 4.44 2.47 10.31 2.49 15.24-4.13.33-8.22 1.01-12.34 1.49-4.23.55-8.37-.34-12.59.1-2.81.29-5.59.75-8.4 1.07-.03-7.01-.2-14.01.14-21.02.68-.19 1.36-.38 2.04-.58 0 5.68-.05 11.37.03 17.04 1.61-.28 3.24-.55 4.84-.89 5.12-.94 9.27-4.23 14.26-6.31-1.18 2.14-2.39 4.27-3.57 6.42 4.4.37 8.5 0 12.8-.94-.35-2.86-.43-6.09-1.55-8.77-2.16-2.73-5.82-4.3-8.47-6.56-2.66-3.59-4.17-7.73-4.89-12.11-1.27-7.66-1.95-15.42-3.04-23.11-4.01 2.15-7.8 4.6-11.48 7.29.94 6.33 1.19 12.2-.33 18.48-.66-5.83-.8-11.69-1.56-17.52-1.35-.21-2.7-.44-4.05-.67.83 9.71 2.93 18.93 1.49 28.36-1.58-3.47-2.19-7-2.32-10.8-.34-9.68-2.98-18.49-4.79-28.02-1.27-6.69-2.41-13.41-3.9-20.06-.98-6.23-1.43-12.54-2.29-18.78-.73-5.41-2.18-10.64-2.8-16.07-.39-2.97-.48-6.07-1.18-8.99-1.03-3.72-4.05-5.94-3.74-9.99.51-7.9.07-15.24 3.51-22.44"/><path fill="#111" d="M183.53 306.58c-.59 6.35-.21 11.52 1.92 17.55 1.93 6.59 2.03 12.99 2.91 19.74 1.28 12.03 3.75 23.7 4.26 35.81 1 10.62 2.05 21.31 4.06 31.8 1.71 8.67.1 16.99 1.52 25.6.38 2.57.93 5.11 1.29 7.69.01 3.06-.45 6.06-1.07 9.05-3.31-9.46-3.25-18.95-3.04-28.83.23-8.37-2.38-15.56-3.52-23.72-2.16-14.73-2.78-29.6-4.74-44.35-.91-8.56-2.1-17.07-2.63-25.67-.24-4.41-1.99-8.15-3.35-12.26-1.44-3.93-.1-8.1.23-12.14z"/><path fill="#979797" d="M180.06 343.89c1.1 5.97 1.85 11.85 2.06 17.93 1.65-1.65 3.32-3.28 5-4.9 1.96 14.75 2.58 29.62 4.74 44.35 1.14 8.16 3.75 15.35 3.52 23.72-.21 9.88-.27 19.37 3.04 28.83.62-2.99 1.08-5.99 1.07-9.05.49 3.29.83 6.63 1.48 9.9.72 3.58 2.41 6.93 3.92 10.24-.1-4.21-.05-8.45-.35-12.65 1.81 6.19 1.38 12.68 3.07 18.94 1.03-6.65.75-13.25.74-19.95 4.9-1.21 9.82-2.24 14.8-3.03.85 7.23.19 14.68 1.83 21.65-2.38-5.24-1.67-11.99-2.07-17.72-4.66 1.13-9.18 2.54-13.68 4.19.03 6.26.45 12.74-1.6 18.75q-1.08-.78-2.16-1.53-.54 1.695-1.02 3.42c-3.06-8.05-8.07-14.49-13.12-21.2-2.32-3-2.87-8.98-6.69-10.21-4.38-1.88-9.09-2.97-13.56-4.62-5.68-2.12-11.53-3.72-17.22-5.77-9.05-3.18-17.42-9.26-24.72-15.38-8.11-7.1-15.66-14.26-24.69-20.28-5.03-3.25-8.9-6.96-15.06-7.89-.95-1.61-1.79-3.27-2.63-4.94 7.73 2.88 13.56 7.87 20.71 11.8 7.9 4.41 15.85 8.68 23.47 13.56 8.13 5.09 15.27 10.8 23.99 14.93-.6-1.03-1.19-2.07-1.83-3.08 5.04 2.99 10.19 5.79 15.25 8.76 4.5 2.66 9.42 3.86 14.53 4.68-.03-9.24-1.19-18.35-1.77-27.58.59 4.01 1.82 7.82 3.45 11.52.39-8.12-1.11-15.82-1.86-23.85-.88-9.11-1.68-18.27-1.92-27.43-.09-8.74.03-17.38-.72-26.11"/><path fill="#0b0b0b" d="M59.56 365.6c4.73 2.09 8.88 4.71 12.85 8.01 3.88 3.23 8.17 5.79 12.44 8.45 5.33 3.23 11.22 5.24 16.52 8.55 6.02 3.71 11.93 7.54 18.15 10.91 11.81 6.52 22.84 14.23 33.58 22.38.64 1.01 1.23 2.05 1.83 3.08-8.72-4.13-15.86-9.84-23.99-14.93-7.62-4.88-15.57-9.15-23.47-13.56-7.15-3.93-12.98-8.92-20.71-11.8.84 1.67 1.68 3.33 2.63 4.94 2.29 3.94 5.07 7.5 7.81 11.13 11.35 14.79 19.84 32.43 29.77 48.28 5.2 7.74 10.51 15.4 16.08 22.87 3.41 4.73 7.13 8.65 9.17 14.24-3.35-2.18-5.83-5-7.99-8.34-3.38-5.21-7.17-10.12-11.02-14.98-14.19-17.5-23.61-39.96-36.94-58.09-3.1-4.29-6.36-8.34-9.05-12.92-2.09-3.42-3.93-7.48-6.64-10.41-6.41-6.58-14.64-11.24-21.02-17.81"/><path fill="#979797" d="M249.9 396.86c1.09 7.69 1.77 15.45 3.04 23.11.72 4.38 2.23 8.52 4.89 12.11-2.43-1.86-4.03-3.93-4.73-6.95-1.65-6.81-2.05-13.92-3.18-20.83a129 129 0 0 0-9.87 5.8c.37 5.98.56 11.84-1.1 17.67-.34-1.7-.67-3.41-.86-5.14 1.52-6.28 1.27-12.15.33-18.48 3.68-2.69 7.47-5.14 11.48-7.29"/><path fill="#dedede" d="M171.08 440.95c4.47 1.65 9.18 2.74 13.56 4.62 3.82 1.23 4.37 7.21 6.69 10.21 5.05 6.71 10.06 13.15 13.12 21.2-.55 2.06-1.13 4.12-1.82 6.15-2.75-8.12-8.12-14.14-12.22-21.5-2.51-4.19-4.48-8.8-7.32-12.77-2.78-3.94-7.69-6.12-12.01-7.91"/><path fill="#060606" d="M231.41 442.04c-1.8 1.89-3.71 3.66-5.66 5.4.34 3.86.59 7.71.57 11.59.11 3.27-.2 6.32 1.41 9.29 2.35 4.49 5.38 8.64 7.94 13.01 2.2 3.68 2.5 7.72 4.11 11.95 2.02 5.28 3.92 10.61 5.84 15.93 2.96 9.24 5.3 18.69 8.42 27.87 4.52 12.37 8.99 24.81 12.66 37.45 1.24 4.54 2.73 9 4 13.53 1.95 8.91 5.79 17.27 7.36 26.23-5.62-7.05-7.86-16.55-10.41-25.1-5.03-17.38-11.47-34.4-17.45-51.47-3.14-10.23-6.54-20.43-9.08-30.83-.94-4.09-2.49-7.94-4.1-11.8-1.54-3.67-2.18-7.71-4.01-11.19-2.56-4.73-5.63-9.21-8.03-14.03-1.64-6.97-.98-14.42-1.83-21.65-4.98.79-9.9 1.82-14.8 3.03.01 6.7.29 13.3-.74 19.95-1.69-6.26-1.26-12.75-3.07-18.94-.25-.94-.53-1.87-.82-2.8 6.05-1.64 12.11-2.84 18.06-4.8 3.17-1.06 6.35-2 9.63-2.62"/><path fill="#0b0b0b" d="M274.6 447.62c2.42 2.28 4.58 4.61 5.67 7.84 2.77 8.15 4.13 16.54 6.72 24.79 3.69 11.87 6.7 23.95 10.09 35.9 1.38 4.74 4.85 7.24 8 10.77 4.9 5.16 8.21 10.75 14 14.97 2.61 2.08 6.43 3.99 7.74 7.17 2.07 4.7 2.88 10.06 4.38 14.97 1.2 4.36 3.14 8.62 3.95 13.06.4 3.49-1.7 7.16-1.65 10.66.45 1.89 1.42 3.69 2.2 5.46 2.78 5.81 3.91 12.04 5.87 18.42.95 3.46 2.4 7.52 1.91 11.11-.72 3.48-3.03 6.81-4.97 9.73-5.81 8.29-11.67 16.4-16.73 25.2-2.06 3.12-3.36 6.5-7.7 6.59-7.01.11-13.95-1.14-21-.63 1.01 2.26 1.9 4.88 3.51 6.79 2.12 1.97 5.42 2.85 8.09 3.83 16.6 5.38 33.39 10.79 49.48 17.56 4.95 2 9.71 5.05 14.88 6.37 6.2.97 13.02-.66 19.34-.72-.1 3.38.37 6.3-1.82 9.15-2.1 3.04-6.15 3.38-9.5 3.81-6.33.42-12.72.18-19.06.16-6.74.02-13.29-1.47-20.01-1.34-5.19.08-9.72 2.92-15.03 3.29-6.98.46-13.97-.35-20.96.38-7.46.8-14.93 1.11-22.41.36-.12-4.63.12-8.87-1.64-13.27-2.45-6.04-6.76-11.54-9.73-17.32-.38-1.24-.72-2.49-1.06-3.74 2.04 1.75 4.01 3.57 5.97 5.4 6.59-4.48 12.35-9.73 19.67-13.09-1.15-2.34-2.25-5.23-4.21-7-7.58-1.1-13.92 2.53-21.21-1.52 3.05-.91 6.14-1.65 9.25-2.32.95-5.41 1.93-10.9 2.36-16.38.69-7.28-1.32-14.32-.65-21.63.97 1.82 1.94 3.6 2.77 5.49.88 5.61.12 11.53.97 17.11.52 3.94 2.8 7.69 5.12 10.85 1.17 1.45 2.19 2.91 4.17 3.2 4.49.62 9.1.3 13.62.69 3.17.13 6.64.83 9.76.2 2.1-1.51 3.51-4.17 4.87-6.33 4.87-8.41 10.55-15.92 16.18-23.78 2.17-3.22 4.41-6.52 3.97-10.61-.79-9.55-3.63-19.01-7.85-27.6-2.44 5.52-4.57 10.94-8.62 15.54.21-1.71.42-3.41.72-5.11a106.2 106.2 0 0 0 7.33-20.61c.9-3.72-.74-7.41-1.81-10.91-1.73-4.89-2.92-9.9-4.19-14.92-.76-2.59-1.4-5.55-3.57-7.36-3.48-2.95-7.26-5.23-10.18-8.83-3.92-4.77-7.37-9.88-11.63-14.38-3.71-3.89-5.56-8.63-7.23-13.64-4.22-12.76-7.74-25.77-11.21-38.76-1.9-8.51-3.49-16.94-6.93-25.02"/><path fill="#fff" d="M222.91 452.15c.4 5.73-.31 12.48 2.07 17.72 2.4 4.82 5.47 9.3 8.03 14.03-1.52 2.26-3.11 4.15-3.07 7.03.03 9.84 1.53 19.34 3 29.02 1.14 6.79-2.71 11.19-3.25 17.74-.72 7.58-1.18 15.17-1.97 22.74-1.17.53-2.33 1.05-3.48 1.64-3.68 2-6.42 4.9-9.31 7.85-2.71 2.81-5.82 5.11-9 7.35-5.6-5.14-10.4-11.05-15.96-16.24-4.2-3.75-6.65-10-4.52-15.45 3.55-11.06 6.14-22.45 10.17-33.33 5.86 4.55 11.13 10.3 17.51 14.06 2.11-.67 4.02-2.06 5.76-3.39 3.57-2.82 7.1-5.61 10.3-8.86-2.59.36-5.12.37-7.37 1.83-2.87 1.85-5.38 4.38-7.93 6.65-5.88-4.36-11.62-8.84-17.27-13.48 4.91-11 6.99-22.71 11.01-33.97 2.05-6.01 1.63-12.49 1.6-18.75 4.5-1.65 9.02-3.06 13.68-4.19"/><path fill="#0b0b0b" d="M269.11 453.52c.92 2.45 1.8 4.77 1.73 7.45-.14 5.1-2.29 9.79-2.18 14.96.1 12.34-1.03 24.6-2.65 36.82-.61 4.36-.37 8.7-.64 13.07-.62 1.44-1.31 2.83-2 4.24-.16-1-.31-1.99-.46-2.98-.89-6.58-.29-12.87.4-19.42.93-11 2.46-21.6 2.29-32.64-7.16 1.3-14.26 2.81-21.5 3.63 2.22 6.66 4.52 13.26 6.27 20.06 1.34 5.16 2.81 10.25 5.04 15.12l-1.5 2.58c-3.5-7.35-5.56-15.06-8.38-22.73-1.46-6.17-3.4-12.16-6.39-17.78-3.52-6.69-4.31-14.27-3.2-21.69 2.66 6.73 2.44 13.89 5.93 20.4 5.95-.32 11.87-1.15 17.72-2.28 1.85-.46 4.21-.81 5.7-2.08 3.18-5.32 3.18-10.79 3.82-16.73"/><path fill="#949494" d="M274.87 471.08c3.11 6.12 3.04 12.34 3.9 18.97 1.06 7.92.55 15.88 1.42 23.82-.13 2.62.73 7.3-1.48 9.15-1.83.25-3.72.24-5.56.29-.37-1.51-.74-3.01-1.05-4.53.55-11.35 1.26-22.56-.25-33.89-.67-5.49-.32-9.28 3.02-13.81"/><path fill="#0b0b0b" d="M205.47 473.56q1.08.75 2.16 1.53c-4.02 11.26-6.1 22.97-11.01 33.97 5.65 4.64 11.39 9.12 17.27 13.48 2.55-2.27 5.06-4.8 7.93-6.65 2.25-1.46 4.78-1.47 7.37-1.83-3.2 3.25-6.73 6.04-10.3 8.86-1.74 1.33-3.65 2.72-5.76 3.39-6.38-3.76-11.65-9.51-17.51-14.06-4.03 10.88-6.62 22.27-10.17 33.33-2.13 5.45.32 11.7 4.52 15.45 5.56 5.19 10.36 11.1 15.96 16.24 3.18-2.24 6.29-4.54 9-7.35 2.89-2.95 5.63-5.85 9.31-7.85.26.61.53 1.23.8 1.85-5.45 5.74-11 11.23-17.37 15.96.75 1.34 1.5 2.68 2.28 3.99-2.73-1.5-5.39-2.95-7.56-5.26-5.26-5.44-9.88-11.45-15.2-16.84-.18 8.65 1.77 16.18-.09 24.67-1.66-7.49-2.69-14.5-2.74-22.21.13-8.35-3.23-14.33-1.18-22.01 1.82-7.34 4.23-14.54 6.21-21.84 1.62-5.75 2.45-11.23 5.47-16.51 2.53-4.37 3.89-8.44 4.64-13.44-3.83 5.33-6.02 11.21-9.12 16.94-1.97 3.72-3.85 7.48-5.67 11.27-3.56 7.13-7.74 13.89-10.98 21.2-4.89 10.43-10.4 20.47-14.46 31.28-5.83 15.01-13.73 27.4-17.55 42.65-.82 1.53-1.73 2.99-2.65 4.46.32-14.77 9.68-29.8 15-43.37 3.97-9.54 7.8-19.08 12.54-28.27 5.76-13.17 13.15-25.4 19.66-38.19 3.16-6.47 7.1-11.49 7.53-18.93 3.67-1.72 7.18-2.12 8.83-6.34.69-2.03 1.27-4.09 1.82-6.15q.48-1.725 1.02-3.42"/><path fill="#262626" d="M274.1 472.74c2.99 4.02 2.71 10.4 3.2 15.21.31 9.95 2.18 19.35 1.4 29.29-3.01-8.73-2.83-17.18-3.77-26.23-.46-5.99-1.46-12.35-.83-18.27"/><path fill="#fefefe" d="M265.6 475.02c.17 11.04-1.36 21.64-2.29 32.64-.69 6.55-1.29 12.84-.4 19.42-.47.56-.93 1.12-1.4 1.68-1.86-5.05-3.86-10.04-6.1-14.93-2.23-4.87-3.7-9.96-5.04-15.12-1.75-6.8-4.05-13.4-6.27-20.06 7.24-.82 14.34-2.33 21.5-3.63"/><path fill="#989898" d="M233.01 483.9c1.83 3.48 2.47 7.52 4.01 11.19 1.61 3.86 3.16 7.71 4.1 11.8-.63-.1-1.27-.2-1.9-.31-.31 17.34 1.58 33.23-2.16 50.45-.69 3.12-2.91 4.86-4.82 7.25-2.58 2.96-3.94 7.11-5.24 10.78 1.7-6.66 4.75-13.29 4.77-20.01.19-7.23.09-14.5-.3-21.72-1.18 7.19-1.8 14.43-2.47 21.69-.37 4.18-1.19 8.11-2.62 12.06-.44-1.06-.89-2.11-1.34-3.16-.27-.62-.54-1.24-.8-1.85 1.15-.59 2.31-1.11 3.48-1.64.79-7.57 1.25-15.16 1.97-22.74.54-6.55 4.39-10.95 3.25-17.74-1.47-9.68-2.97-19.18-3-29.02-.04-2.88 1.55-4.77 3.07-7.03"/><path fill="#0f0f0f" d="M231.46 486.48c2.51 8.24 4.45 18.35 1.56 26.69-1.9-8.44-2.71-18.1-1.56-26.69"/><path fill="#121212" d="M151.13 488.33c-3.78 4.57-7.85 8.79-10.97 13.89-4.69 7.25-10.81 13.16-15.82 20.16-5.31 7.32-10.91 14.44-16.13 21.82-6.56 9.63-12.2 19.92-18.03 30.02-6.24 11.39-13.2 22.41-18.9 34.05-1.85 3.66-3.98 7.13-6.09 10.64 2.59-9.03 6.73-17.36 11.16-25.6 6.98-12.35 13.62-24.88 20.9-37.06 6.91-12.55 15.71-23.38 24.16-34.86 4.02-5.6 8.74-10.59 12.98-16 3.42-4.29 6-9.31 9.67-13.37 1.95-2.16 4.42-2.75 7.07-3.69"/><path fill="#bbb" d="M199.5 490.43c-.75 5-2.11 9.07-4.64 13.44-3.02 5.28-3.85 10.76-5.47 16.51-1.98 7.3-4.39 14.5-6.21 21.84-2.05 7.68 1.31 13.66 1.18 22.01-2.03-7.99-4.91-17.35-3.77-25.62 1.36-6.89 3.98-13.56 6.13-20.24l-2.01.27c1.82-3.79 3.7-7.55 5.67-11.27 3.1-5.73 5.29-11.61 9.12-16.94"/><path fill="#e6e6e6" d="M245.53 493.68c2.82 7.67 4.88 15.38 8.38 22.73l1.5-2.58c2.24 4.89 4.24 9.88 6.1 14.93.47-.56.93-1.12 1.4-1.68.15.99.3 1.98.46 2.98.69-1.41 1.38-2.8 2-4.24-.16 3.06-.84 6.03-1.2 9.06-.47 3.52 1.38 7.13 2.69 10.32.57-6.61.32-13.18.16-19.8 1.66-1.29 3.31-2.58 4.98-3.87.03-.91.07-1.83.1-2.75.31 1.52.68 3.02 1.05 4.53 1.84-.05 3.73-.04 5.56-.29 2.21-1.85 1.35-6.53 1.48-9.15.12 2.81.94 6.41-.19 9.04-1.73 1.21-3.8 2.01-5.71 2.88-.09 13.62 1.51 27.94-.2 41.48.04-4.42-.26-8.84-.25-13.27-.12-9.24.68-17.67-1.77-26.72-1.04-.01-2.07.02-3.1.09-1.62 7.81-.87 15.38-1.21 23.63-.29 6.6-.02 12.93.82 19.48 1.16.57 2.31 1.13 3.47 1.7-1.58.77-3.2 1.46-4.81 2.14l-.54.21c-3.67-12.64-8.14-25.08-12.66-37.45-3.12-9.18-5.46-18.63-8.42-27.87 1.33 2.64 2.91 5.23 4.47 7.75.14-8.26-3.37-15.26-4.56-23.28"/><path fill="#c9c9c9" d="M268.97 527.37c1.03-.07 2.06-.1 3.1-.09 2.45 9.05 1.65 17.48 1.77 26.72-.01 4.43.29 8.85.25 13.27-.3 1.79-1.14 3.36-2.04 4.91-1.16-.57-2.31-1.13-3.47-1.7a112 112 0 0 1-.82-19.48c.34-8.25-.41-15.82 1.21-23.63"/><path fill="#101010" d="M231.47 533.33c.39 7.22.49 14.49.3 21.72-.02 6.72-3.07 13.35-4.77 20.01-1.31 4.13-2.89 8.23-3.96 12.42-.4-1.54-.85-3.07-1.26-4.61 1.34-5.32 2.72-10.62 4.6-15.79 1.43-3.95 2.25-7.88 2.62-12.06.67-7.26 1.29-14.5 2.47-21.69"/><path fill="#3a3a3a" d="M270.96 540.97c1.07 2.92 1.76 5.84 1.74 8.97.06 6.72-.11 13.45-.17 20.18-1.5-9.2-4.16-20.02-1.57-29.15"/><path fill="#dedede" d="M187.19 561.77c5.32 5.39 9.94 11.4 15.2 16.84 2.17 2.31 4.83 3.76 7.56 5.26 1.03.69 2.05 1.39 3.07 2.08-1.84-.03-3.67-.07-5.51-.12.33 2.08.44 4.39 1.29 6.32 1.4 2.4 3.56 4.42 5.3 6.59-1.4-1.04-2.83-2.04-4.3-2.98-3.01 3.74-2.98 7.9-2.86 12.47-.24-4-.42-8-.5-12.01-3.71-.15-7.34.11-11.02.48-2.88.39-5.6-1.03-7.11-3.46-.98-2.01-1-4.6-1.21-6.8 1.86-8.49-.09-16.02.09-24.67"/><path fill="#999" d="m266.7 574.53.54-.21c2.58.49 5.03 1.11 7.69.74 3.32-.23 7.26-1.34 10.51-.45 2.28 1.03 4.13 3.33 5.73 5.2 4.1 5.21 8.48 9.41 10.08 16.1-1.99-.27-4.39-.16-6.22-1.06-4.33-3.28-6.46-10.22-11.24-12.94-3.99-1.15-8.99 1.01-12.79 2.27-.12 1.29-.22 2.58-.3 3.88-1.27-4.53-2.76-8.99-4-13.53"/><path fill="#bbb" d="M154.07 574.86c-5.32 13.57-14.68 28.6-15 43.37.92-1.47 1.83-2.93 2.65-4.46-.97 5.65-.65 11.96-2.56 17.37-1.24.53-2.56.93-3.84 1.35-.21-5.05-.75-9.92-1.84-14.86-.77-3.46-.27-6.78.26-10.23-.67.04-1.35.09-2.02.14 3.02-6.17 7.12-11.25 10.64-17.12 2.79-4.64 5.68-9.23 8.42-13.9-1.7 1.02-3.38 2.04-5 3.2 2.07-2.94 4.95-3.98 8.29-4.86"/><path fill="#090909" d="M150.78 576.52c-2.74 4.67-5.63 9.26-8.42 13.9-3.52 5.87-7.62 10.95-10.64 17.12-2.62 5.47-5 11.32-7.01 17.05-1.6 4.62-.76 8.97.28 13.58 2.41 9.88 5.09 19.65 8.88 29.1 2.47 6.7 5.95 12.25 7.15 19.39-2.53-2.49-4.67-5.23-6.12-8.48-4.22-9.3-8.15-18.49-10.46-28.48-1.37-6.03-3.51-12.49-3.23-18.65.06-5.03 2.38-10.21 3.61-15.15-8.26 6-16.04 12.62-24.4 18.49-4.87 3.39-9.53 7.29-14.72 10.15 3.11-6.28 8.43-8.99 13.66-13.16 10.66-8.45 21.19-15.39 29.95-26.05 5.9-8.25 10.84-17.2 16.47-25.61 1.62-1.16 3.3-2.18 5-3.2"/><path fill="#050505" d="M286.25 577.78c5.89 3.43 10.32 10.09 12.79 16.34-4.34-2.38-7.47-5.85-10.56-9.63-1.56-1.62-3.61-4.34-6.14-3.99-3.9.26-7.78 1.45-11.62 2.14 4.19-3.1 10.19-6.34 15.53-4.86"/><path fill="#bfbfbf" d="M221.78 582.87c.41 1.54.86 3.07 1.26 4.61-.59 3.31-1.74 6.05-3.51 8.88-.06-4.68.81-9.06 2.25-13.49"/><path fill="#0e0e0e" d="M233.5 589.4c.31 4.47-.15 8.87-.92 13.26-1.9 12.64-5.36 24.56-8.79 36.89-1.12 4.12-2.6 7.98-4.57 11.76.05-3.68.24-7.33 1.15-10.92 3.79-14.74 7.59-29.64 10.11-44.65.41-2.77 1.18-4.28 3.02-6.34"/><path fill="#989898" d="M331.92 591.62c4.22 8.59 7.06 18.05 7.85 27.6-1.32-6.11-3.06-12.13-5.44-17.91-3.09 3.63-5.61 8.51-9.52 11.27-1.52 0-2.61-.86-3.61-1.91-.25-3.02 1.57-5.97 2.82-8.62-.3 1.7-.51 3.4-.72 5.11 4.05-4.6 6.18-10.02 8.62-15.54"/><path fill="#c9c9c9" d="M175.6 595.97c4.06 7.33 5.63 15.2 8.51 22.95-2.14-3.86-5.21-6.77-8.34-9.8-1.67-3.51-3.43-6.97-5.48-10.28.12 2.37.31 4.74.7 7.08-.71-1.94-1.93-4.31-1.64-6.4.83-2.17 4.25-2.88 6.25-3.55"/><path fill="#9a9a9a" d="M209.8 595.76c1.47.94 2.9 1.94 4.3 2.98-.01 12.09.13 24.18-.03 36.27-.12 2.74-.07 5.74-.93 8.37-.84 1.38-2.82 2.13-4.11 3.05-1.19-3.06-1.99-6.07-1.81-9.39.31-9.62.49-19.2-.28-28.81-.12-4.57-.15-8.73 2.86-12.47"/><path fill="#0d0d0d" d="M170.29 598.84c2.05 3.31 3.81 6.77 5.48 10.28 3.24 10.83 7.44 21.33 10.87 32.11 2.73 8.45 6.08 16.63 8.37 25.23-.69-.08-1.38-.17-2.06-.25-4.61-10.46-8.37-21.43-12.13-32.23-3.36-9.37-5.62-18.98-9.83-28.06-.39-2.34-.58-4.71-.7-7.08"/><path fill="#393939" d="M208.79 604.18c3.81 8.31 3.13 18.87 1.09 27.57-1.33-6.17-1.27-12.31-1.54-18.58-.13-3.01.05-6 .45-8.99"/><path fill="#979797" d="M175.77 609.12c3.13 3.03 6.2 5.94 8.34 9.8 3.56 8.37 6.42 16.74 8.74 25.53 1.75 6.91 5.07 13.48 4.85 20.43-.05 3.73.08 7.39.59 11.09-1.85-3.25-3.77-6.36-5.34-9.76.68.08 1.37.17 2.06.25-2.29-8.6-5.64-16.78-8.37-25.23-3.43-10.78-7.63-21.28-10.87-32.11m101.37 12.95c1.01.23 2.01.47 3.01.74.39 1.68.69 3.38.96 5.08-.83-1.89-1.8-3.67-2.77-5.49-.67 7.31 1.34 14.35.65 21.63-.43 5.48-1.41 10.97-2.36 16.38-3.11.67-6.2 1.41-9.25 2.32 7.29 4.05 13.63.42 21.21 1.52 1.96 1.77 3.06 4.66 4.21 7-7.32 3.36-13.08 8.61-19.67 13.09-1.96-1.83-3.93-3.65-5.97-5.4.34 1.25.68 2.5 1.06 3.74-.9-.08-1.81-.17-2.72-.26-.32-.52-.64-1.04-.98-1.56-.49-.42-.99-.84-1.5-1.24.77-2.34 1.25-4.94 2.58-7.02 1.51-2.31 3.5-4.37 5.33-6.43-1.72-1.1-3.44-2.21-5.15-3.33 3.2-1.73 6.54-2.71 10.11-3.35 2.7-12.56 1.25-24.77 1.25-37.42"/><path fill="#121212" d="M61.17 629.95c7.25 3.03 13.72 8.06 20.34 12.25-1.26.25-2.51.51-3.77.76-5.12-2.98-10.02-6.27-14.84-9.7a80 80 0 0 1-1.73-3.31"/><path fill="#979797" d="M62.9 633.26c4.82 3.43 9.72 6.72 14.84 9.7-.2.62-.4 1.25-.59 1.87 1.24 1.79 2.09 2.93 1.69 5.2-.13-.98-.29-1.96-.47-2.93-1.25 2.76-2.36 5.58-3.45 8.41-5.55-.71-10.65-1.93-15.93-3.79 1.32-5.06 2.88-9.76 3.46-14.97.18-1.16.33-2.32.45-3.49"/><path fill="#080808" d="M62.45 636.75c-.58 5.21-2.14 9.91-3.46 14.97 5.28 1.86 10.38 3.08 15.93 3.79 1.09-2.83 2.2-5.65 3.45-8.41.18.97.34 1.95.47 2.93-.14 1.77-.41 3.54-.65 5.31 4.75 3.35 5.44 9.06 10 12.47 10.96 8.85 23.23 12.23 36.23 16.82 5.19 1.96 10.43 3.65 15.73 5.28 3.83 1 5.32 5.02 8.84 7.06 3.16 1.72 6.88 2.52 10.23 3.85 3.34 1.21 6.38 2.99 9.62 4.41 2.18 1.06 4.39.22 6.67-.09 6.92-1.38 13.55-.13 20.49-1.33 2.96-.44 5.96-1.4 8.94-1.5 2.61.01 5.33 1.1 7.79 1.87 6.27 2.17 12.71 3.81 19.27 4.76 3.84.47 7.27 1.17 10.52 3.36-10.66 3.74-22.13-1.17-32.34-4.31-6.28-1.98-11.74.42-18.16.5-6.45.1-12.88-.07-19.33.26-3.92.21-6.99-1.41-10.45-2.93-4.44-2.03-9.03-3.59-13.41-5.77-1.88-.87-3.82-1.99-5.85-2.43-2.7.28-5.35 1.44-7.97 2.14-8.28 2.42-17.4 2.74-25.98 3.34-7.16.46-14.12-.9-21.22-.07-4.89.56-9.29-.6-14-1.65-5.52-1.27-10.83-2.08-16.16-4.07-5.22-1.96-10.31-4.25-15.54-6.21 3.01-11.04 8.39-21.36 11.65-32.3 1.88-7.76 4.34-15.28 8.69-22.05"/><path fill="#e8e8e8" d="M280.94 650.91c2.02 2.63 3.43 5.57 4.68 8.62-1.87.04-3.74.07-5.61.1.24-2.93.44-5.82.93-8.72"/><path fill="#c2c2c2" d="M58.67 655.4c5.65.47 11.27 2.65 16.67 4.31 3.64 1.03 4.82 3.84 6.99 6.55-3.1.64-5.9 1.95-8.76 3.26-4.64 2.23-9.79 1.58-14.57 3.59-2.75 1.23-4.69.79-7.48-.06 2.84-5.85 5.22-11.42 7.15-17.65"/><path fill="#fff" d="M82.33 666.26c5.13 6.1 11.93 10.9 19.2 14.11 7.71 3.23 15.55 6.14 23.47 8.79 5.81 2 11.62 3.07 17.23 5.62-17.58 4.45-36.19 5.55-54.27 4.66-6.64-.21-13.34-2.36-19.91-3.55-7.65-1.45-14.76-4.25-21.93-7.18 1.66-5.26 3.34-10.54 5.4-15.66 2.79.85 4.73 1.29 7.48.06 4.78-2.01 9.93-1.36 14.57-3.59 2.86-1.31 5.66-2.62 8.76-3.26"/><path fill="#959595" d="M293.17 673.01q.675.825 1.32 1.68c-5.51 2.99-9.78 7.35-13.85 12.03-1.56 1.79-2.44 3.9-3.2 6.12-.97-2.08-1.73-4.28-2.52-6.42 6.35-4.17 12.33-8.66 18.25-13.41"/><path fill="#bfbfbf" d="M294.49 674.69c1.77 2.43 3.49 4.89 5.31 7.28l2.01-.9c-.46-1.61-.94-3.21-1.4-4.82 1.93.76 3.86 1.52 5.81 2.22-7.96 7-16.32 13.57-24.13 20.73l-.57.5c-1.22-2.42-2.7-4.55-4.08-6.86.76-2.22 1.64-4.33 3.2-6.12 4.07-4.68 8.34-9.04 13.85-12.03"/><path fill="#d4d4d4" d="M306.22 678.47c6.02 2 12 4.13 18.02 6.1-2.74-.35-6.02-.81-8.69.09-4.1 1.62-7.32 5.66-11.44 7.19-3.59 1.13-7.57 1.02-11.26 1.9-4.08.88-7.48 2.96-10.76 5.45 7.81-7.16 16.17-13.73 24.13-20.73"/><path fill="#050505" d="M263.02 679.62c.51.4 1.01.82 1.5 1.24.34.52.66 1.04.98 1.56-4.07 5.71-6.66 11.42-11.72 16.35-4.27 4.07-8.51 8.03-13.98 10.36 1.74-4.28 4.91-7.07 8.33-10 6.5-5.57 10.08-12.46 14.89-19.51"/><path fill="#fff" d="M315.55 684.66c2.67-.9 5.95-.44 8.69-.09 9.5 3.04 18.84 6.63 28.18 10.12 5.21 1.9 10.39 4.56 15.81 5.72 5.49.86 11.29.15 16.84.29-1.21 1.84-2.4 3.91-3.99 5.43-1.28 1.21-3.34 1.2-4.99 1.31-11.98.17-23.93-.32-35.87-1.26-3.61-.38-7.63-1.08-11.22-.48-4.16.78-7.6 2.59-11.92 2.71-6.39.16-12.7-.33-19.08.5-4.82.63-9.66.7-14.52.52-.46-3.31-.91-6.55-1.96-9.73l.57-.5c3.28-2.49 6.68-4.57 10.76-5.45 3.69-.88 7.67-.77 11.26-1.9 4.12-1.53 7.34-5.57 11.44-7.19"/></svg>