<svg xmlns="http://www.w3.org/2000/svg" width="572pt" height="920" viewBox="0 0 572 690"><path fill="#fff" d="M0 0h572v690H0z"/><path fill="#100402" d="M357.48 15.73c-.7 5.06-2.48 9.73-3.9 14.6-.22.73-.44 1.46-.65 2.18 2.42.38 4.91.7 7.29 1.26l.94 1.8c-3.82.14-7.35 1.28-10.81 2.8-.86-6.29.72-11.94 2.37-17.93-3.54.64-7.08 1-10.05 3.2-3.78 2.82-6.74 7-9.89 10.49.48-3.73 1.16-7.38 2-11.03-3.47 2.83-6.81 5.56-9.39 9.28-2.59 3.55-3.98 7.48-5.55 11.53-3.57 7.69-6.86 17.6-4.71 26.08.36 1.9.47 3.69.35 5.61-1.81-2.33-3.38-4.6-3.68-7.62-1.34-9.93 2.06-20.18 5.99-29.18 3.7-8.48 9.91-15.41 17.85-20.13 1.44.47 2.91 1.08 4.41 1.3 2.73-.36 5.35-1.96 7.96-2.84 3.05-1.22 6.22-1.41 9.47-1.4"/><path fill="#be722b" d="M352.72 20.44c-1.65 5.99-3.23 11.64-2.37 17.93 3.46-1.52 6.99-2.66 10.81-2.8l.51.97c-2.45.34-4.88.85-7.31 1.32-1.06 1.29-2.12 2.58-3.19 3.86-1.95-3.73-2.48-7.62-2.75-11.77-2.24 3.6-4.39 7.23-6.42 10.96-1.01-.78-2.03-1.56-3.04-2.34-1.41 1.37-2.82 2.75-4.22 4.13-1.71-.68-3.55-1.27-5.1-2.25-1.62-2.07-2.11-5.15-2.89-7.63-2.19 3.77-4.66 7.36-6.91 11.09 1.57-4.05 2.96-7.98 5.55-11.53 2.58-3.72 5.92-6.45 9.39-9.28-.84 3.65-1.52 7.3-2 11.03 3.15-3.49 6.11-7.67 9.89-10.49 2.97-2.2 6.51-2.56 10.05-3.2"/><path fill="#e98733" d="M348.42 29.95c.27 4.15.8 8.04 2.75 11.77 1.07-1.28 2.13-2.57 3.19-3.86 2.43-.47 4.86-.98 7.31-1.32 1.36.14 2.72.36 4.08.56l2.7-2.19c10.13 1.68 20.95 3.29 28.08 11.58 6.35 7.42 5.98 15.52 10.4 24 .46 1.86.9 3.71 1.54 5.51 1.91 4.78 5.66 8.27 7.03 13.51 1.4 5 .54 10.2-2.72 14.29-3.06 3.81-6.4 7.67-9.71 11.29-4.34 4.57-10.21 5.73-15.81 8.08l-.36-3.24c2.53-2.51 4.85-5.27 5.29-8.95.43-4.23-1.16-9.1-5.16-11.13-3.16-1.38-6.59-2.36-9.89-3.37 1.34-3.31 2.82-6.53 4.96-9.42 1.38-2.08 3.4-4.39 3.84-6.88-3.44-5.54-8.75-6.84-14.83-7.6-5.75-1.33-11.07-3.63-16.24-6.43-6.19-3.14-13.24-6.13-20.13-3.27-4.34 1.57-6.95 4.9-9.14 8.79-.98.29-1.97.58-2.96.85-.26.95-.54 1.89-.83 2.84-2.36-1.26-4.92-1.62-5.43-4.68-1.84-8.75 1.52-18.24 3.46-26.77 2.25-3.73 4.72-7.32 6.91-11.09.78 2.48 1.27 5.56 2.89 7.63 1.55.98 3.39 1.57 5.1 2.25 1.4-1.38 2.81-2.76 4.22-4.13 1.01.78 2.03 1.56 3.04 2.34 2.03-3.73 4.18-7.36 6.42-10.96"/><path fill="#c3a789" d="M353.58 30.33c3.6 1.41 7.22 2.55 11.05 3.12 1.27.48 2.53 1 3.82 1.46l-2.7 2.19c-1.36-.2-2.72-.42-4.08-.56l-.51-.97-.94-1.8c-2.38-.56-4.87-.88-7.29-1.26.21-.72.43-1.45.65-2.18"/><path fill="#0d0301" d="M377.02 32.85c8.77 1.11 17.46 5.07 23.26 11.87 5.64 6.96 7.62 17.02 6.65 25.77-4.42-8.48-4.05-16.58-10.4-24-7.13-8.29-17.95-9.9-28.08-11.58-1.29-.46-2.55-.98-3.82-1.46 4.39-1.22 7.9-1.37 12.39-.6"/><path fill="#f6e2c3" d="M363.27 35.31q.735.69 0 0"/><path fill="#966b3e" d="M319.84 43.91c-1.94 8.53-5.3 18.02-3.46 26.77.51 3.06 3.07 3.42 5.43 4.68l-.26.6c-1.51.61-3.03 1.14-4.53 1.76-.51-.71-1.03-1.41-1.54-2.12.12-1.92.01-3.71-.35-5.61-2.15-8.48 1.14-18.39 4.71-26.08"/><path fill="#0c0302" d="M354.87 66.15c5.17 2.8 10.49 5.1 16.24 6.43 2.75.79 5.56 1.59 8.19 2.75-.07 1.41-.04 2.69-1.25 3.66-2.7 2.04-6.39 2.97-9.52 4.19 4.11.52 8.22.95 12.35 1.28-.13.68-.26 1.35-.39 2.02-2.35 1.55-4.98 3.05-6.95 5.07-2.05 2.23-3.23 5.49-4.46 8.24 6.06-.84 11.92-1.5 17.95.06 4 2.03 5.59 6.9 5.16 11.13-.44 3.68-2.76 6.44-5.29 8.95-5.61 3.96-11.56 6.81-18.36 8.07.03-.68.07-1.36.1-2.04 5.23-2.35 10.23-3.91 14.78-7.6 2.87-2.32 5.25-5.54 5.13-9.4-.02-3.29-2.49-5.88-5.46-6.93-2.83-.94-6.03-.94-8.98-.65-3.19.21-5.67 3.39-7.84 5.46.07-2.83-.02-5.77.44-8.57.65-3.61 2.86-6.65 4.87-9.63-3.31-1.02-7.27-1.99-9.9-4.32-1.74-1.49-2.42-4.1-3.25-6.17 4.59-.35 9.18-.32 13.77-.53-1.85-1.56-3.74-3.56-5.98-4.5-3.2-.79-6.51-.51-9.69-1.7-5.22-1.93-10.76-5.68-16.52-5.83-5.63.11-9.2 4.62-14.41 6.08 2.19-3.89 4.8-7.22 9.14-8.79 6.89-2.86 13.94.13 20.13 3.27"/><path fill="#9b5c23" d="M371.11 72.58c6.08.76 11.39 2.06 14.83 7.6-.44 2.49-2.46 4.8-3.84 6.88-2.14 2.89-3.62 6.11-4.96 9.42 3.3 1.01 6.73 1.99 9.89 3.37-6.03-1.56-11.89-.9-17.95-.06 1.23-2.75 2.41-6.01 4.46-8.24 1.97-2.02 4.6-3.52 6.95-5.07.13-.67.26-1.34.39-2.02-4.13-.33-8.24-.76-12.35-1.28 3.13-1.22 6.82-2.15 9.52-4.19 1.21-.97 1.18-2.25 1.25-3.66-2.63-1.16-5.44-1.96-8.19-2.75"/><path fill="#050505" d="M321.55 75.96c-.71 1.65-1.53 3.24-2.55 4.72-4.38 3.35-7.44 7.39-10.23 12.1-1.94 3.39-5.09 4.17-8.47 5.52-1.65-2.15-3.3-4.29-5.02-6.38-1.55 5.39-2.11 10.9-3.12 16.39-3.03-5.67-2.3-12.25.38-17.88.95-2.19 2.83-2.66 4.79-3.65 1.31 2.51 2.59 5.05 3.87 7.58 2.67-1.52 5.25-2.44 6.77-5.32 2.47-4.37 4.71-8.5 9.05-11.32 1.5-.62 3.02-1.15 4.53-1.76"/><path fill="#120302" d="M408.47 76c9.15 3.1 12.91 15.17 10.39 23.77-2.15 7.35-8.76 11.08-13.8 16.28-3.37 3.52-6.82 6.72-11.38 8.62-9.58 3.96-19.22 9.02-26.83 16.18-6.54 6.15-8.24 13.77-13.39 21.3-.12-1.38-.23-2.77-.32-4.15 1.4-3.44 2.95-6.8 4.81-10.01 6.65-11.08 17.44-19.82 29.31-24.82 5.6-2.35 11.47-3.51 15.81-8.08 3.31-3.62 6.65-7.48 9.71-11.29 3.26-4.09 4.12-9.29 2.72-14.29-1.37-5.24-5.12-8.73-7.03-13.51"/><path fill="#020202" d="M323.44 78.54c2.46.29 5.44.23 7.69 1.38 2.72 1.79 4.21 5.66 5.82 8.41-3.95-1.9-8.16-1.91-12.28-3.09-1.73-1.47-1.01-4.64-1.23-6.7"/><path fill="#c8c8c8" d="M319 80.68c2.02 5.75-.96 9.8-1.19 15.44l-.93 1.2c1.04 1.21 2.07 2.41 3.17 3.56-1.66-1.03-3.32-2.05-4.99-3.06-5.03 2.42-9.55 1.2-14.76.48 3.38-1.35 6.53-2.13 8.47-5.52 2.79-4.71 5.85-8.75 10.23-12.1"/><path fill="#040404" d="M317.81 96.12c3.3 1.76 6.54 3.9 10.3 4.47 3.6.57 7.3.71 10.93 1.04-2.59 1.38-5.02 3.02-8.06 2.98-4.11.12-7.57-1.55-10.93-3.73-1.1-1.15-2.13-2.35-3.17-3.56z"/><path fill="#d5d5d5" d="M301.13 105.84c2.61-.92 5.84 2.13 4.54 4.76-1.72 3.7-5.96 6.48-8.92 9.2 1.82-2.43 3.3-4.95 4.55-7.72-1.75.93-3.45 1.92-5.01 3.15-1.03-1.09-2.06-2.19-3.12-3.25 2.05-2.64 4.64-5.21 7.96-6.14"/><path fill="#272727" d="M293.17 111.98c1.06 1.06 2.09 2.16 3.12 3.25-1.24 1.7-2.35 3.63-3.83 5.12-2.69.47-5.58.05-8.3.08 1.57-.8 3.31-1.48 4.7-2.57 1.67-1.72 2.85-3.97 4.31-5.88"/><path fill="#080808" d="M301.3 112.08a40.5 40.5 0 0 1-4.55 7.72c-5.45 6.14-6.01 13.18-9.06 20.42-1.09-6.15-.04-11.18 2.12-16.9-1.5.01-2.99.01-4.49.01l-1.53 3.48c.98 2.16 1.96 4.28 2.47 6.61-2.62-.06-5.05-.17-6.66-2.55-.69-3.57.77-9.06 4.56-10.44 2.72-.03 5.61.39 8.3-.08 1.48-1.49 2.59-3.42 3.83-5.12 1.56-1.23 3.26-2.22 5.01-3.15"/><path fill="#969696" d="m386.9 119.93.36 3.24c-11.87 5-22.66 13.74-29.31 24.82-1.23-2.83-2.18-5.63-2.16-8.76 3.16-4.59 8.32-10.01 12.85-13.27-.03.68-.07 1.36-.1 2.04 6.8-1.26 12.75-4.11 18.36-8.07"/><path fill="#050505" d="M283.78 138.8c.61-.41 1.23-.81 1.84-1.2.16 7.64-1.23 16.52 2.22 23.56 1.56 3.07 3.62 6.56 6.55 8.5 3.97.64 8.45-.86 12.15-2.22 6.47-2.47 13.29-5.09 19.19-8.71 5.73-3.46 10.73-7.83 15.41-12.59 2.16-2.15 4.39-4.6 6.99-6.2l1.63.24c-3.12 6.74-8.42 10.91-13.69 15.91-4.59 4.33-9.84 7.72-15.61 10.27-8.41 3.56-16.29 6.79-25.66 6.01-3.47-2.1-6.74-3.73-8.8-7.41-4.53-7.45-4.04-17.97-2.22-26.16"/><path fill="#989898" d="M351.73 137.85c.26 2.7.48 5.41.6 8.12-3.74 5.67-8.07 11.7-13.53 15.81-3.01 2.33-6.05 4.58-8.83 7.2l2.06.13c-9.92 5.07-20.81 5.84-31 10-2.11-2.22-4.08-4.57-6.23-6.74 9.37.78 17.25-2.45 25.66-6.01 5.77-2.55 11.02-5.94 15.61-10.27 5.27-5 10.57-9.17 13.69-15.91l-1.63-.24c1.18-.73 2.39-1.41 3.6-2.09"/><path fill="#fdfdfd" d="M355.79 139.23c-.02 3.13.93 5.93 2.16 8.76-1.86 3.21-3.41 6.57-4.81 10.01-1.01 2.09-2.11 4.16-3.36 6.14-6.16.85-11.98 2.68-17.75 4.97l-2.06-.13c2.78-2.62 5.82-4.87 8.83-7.2 5.46-4.11 9.79-10.14 13.53-15.81 1.23-2.22 2.23-4.54 3.46-6.74"/><path fill="#030303" d="M358.13 157.05c3.25.71 6.11 1.97 8.63 4.17 4.15 3.31 6.13 8.14 8.14 12.91 1.54 4.15 3.32 8.17 2.05 12.66-1.51 5.98-3.32 12.02-5.38 17.83-2.9-8.55 3.07-14.41 1.83-22.78-1.21-4.51-3.11-8.87-5.08-13.1-2.36-5.09-6.68-7.27-10.19-11.69m-8.35 7.09c-2.39 2.43-6.09 3.27-9.23 4.42-6.6 2.17-12.64 5.52-19.28 7.61-7.56 2.41-16.02 4.07-23.24 7.88-1.51.79-2.24 1.62-2.85 3.2-1.86 4.81-2.65 10.23-2.99 15.36 3.43 2.38 7.48 4.41 10.38 7.43-2.03 3.06-7.77 3.7-9.27 7.22-2.35 5.32-3.49 11.26-4.96 16.87-3.42 14.4-7.93 28.49-11.38 42.89-4.23 14.33-8.76 28.63-14.41 42.48-6.45 17.64-13.96 34.79-19.58 52.74-2.11 7.16-4.94 14.03-7.63 20.99-3.45 8.85-4.48 18.19-8.19 26.96-3.3 7.62-5.52 15.58-8.54 23.3-.17-3.41-.19-6.74.81-10.06 2.87-10.26 7.22-19.93 9.35-30.43-5.19.27-10.29.21-15.3-1.31-7.73-2.33-15.76-3.24-23.43-5.72-6.46-3.06-12.6-5.06-19.67-6.21-10.34-1.64-19.55-5.91-29.59-8.55-7.64-2-15.28-4.01-22.85-6.27-9.7-2.92-19.34-6.6-29.18-8.99-3.24-1.04-5.5 1.11-8.1 2.67-8.62 6.01-17.45 12.84-23.49 21.54-3.01 4.37-5.73 9.13-7.43 14.17-.19-2.07-.46-4.14-.63-6.22 4.22-10.71 11.82-19.23 21.04-25.95 4.27-2.99 8.88-6.75 13.97-8.12 7.72-1.28 15.29-.72 22.63 2.06 15.04 5.37 30.79 7.93 45.81 13.3 7.02 2.46 13.96 4.37 21.26 5.79 7.08 2.04 14.05 4.53 20.99 6.98 6.21 2.21 12.72 3.08 18.97 5.18 4.94 1.64 10.03 2.66 15.05 3.98 2.93-8.16 6.21-16.2 9.07-24.39a480 480 0 0 1 15.94-44.14c4.2-10.89 9.11-21.36 12.37-32.61 2.59-9.26 6.13-18.22 8.55-27.52 2.15-8.93 4.55-17.76 7.46-26.48 2.77-8.17 4.05-16.82 7.15-24.85 1.45-3.92 3.92-7.47 5.15-11.45-1.03-2.99-4.12-5.77-4.37-8.93.03-4.42 1.51-8.88 2.19-13.25-5.25 3.02-10.06 6.56-15.71 8.89-2.32 1.12-5.18 2.16-6.97 4.06-2.43 4.7-2.17 11.15-2.48 16.32 4.63 1.32 9.46 1.69 14.08 2.98.43.62.8 1.31 1.08 2.06-2.29 5.16-8.82 7.95-11.32 13.02-3.27 6.61-3.04 14.4-7.47 20.52-3.29 4.43-6.83 8.58-9.51 13.44-4.98 8.94-10.08 17.79-15.64 26.39-4.65 7.18-8.77 14.66-12.82 22.2-3.56 6.7-7.65 13.09-11.18 19.81-4.06 7.66-7.8 15.47-11.98 23.07-3.34 6.04-6.27 12.09-10.49 17.61-.03-1.38-.03-2.75-.01-4.12 4.2-9.88 9.48-19.3 14.02-29.02 5.22-11.48 12.05-21.96 17.95-33.06 5.09-10.01 11.43-19.2 17.12-28.84 5.26-9.57 10.74-18.95 17.33-27.67 5.63-7.17 5.6-16.31 10.01-23.99 2.04-3 5.18-5.31 7.73-7.88-3.97-1.2-7.97-2.26-12.02-3.17-1.1-6.9.3-14.28 2.4-20.88.52-2.01 2.88-2.62 4.52-3.51 5.72-2.46 11.24-5.32 16.87-7.98 5.18-2.25 7.5-7.29 13.19-8.85 10.19-4.16 21.08-4.93 31-10 5.77-2.29 11.59-4.12 17.75-4.97"/><path fill="#989898" d="M373.4 181.84c1.24 8.37-4.73 14.23-1.83 22.78 1.65 6.51 3.67 12.93 5.41 19.42-2.84-5.92-4.17-12.27-6.54-18.35q-1.11-.39-2.25-.75c.46-.78.93-1.56 1.41-2.33-5.15-.89-10.21-2.31-15.38-3.02-2.02-.28-3.84-.14-5.56 1.06-6.91 4.69-11.8 10.84-16.68 17.48-1.82 2.67-4.31 1.88-7.11 2.41 3.23-10.49 13.14-19.36 19.08-28.52q-1.44-.075-2.88-.12c3.87-2.44 8.31-2.07 12.64-1.41 5.72 1.1 11.32 2.72 17.09 3.59 1.09-4.07 2.16-8.04 2.6-12.24"/><path fill="#979797" d="M292.33 187.71c-.68 4.37-2.16 8.83-2.19 13.25.25 3.16 3.34 5.94 4.37 8.93-1.23 3.98-3.7 7.53-5.15 11.45-3.1 8.03-4.38 16.68-7.15 24.85-2.91 8.72-5.31 17.55-7.46 26.48-2.42 9.3-5.96 18.26-8.55 27.52-3.26 11.25-8.17 21.72-12.37 32.61a480 480 0 0 0-15.94 44.14c-2.86 8.19-6.14 16.23-9.07 24.39-5.02-1.32-10.11-2.34-15.05-3.98-6.25-2.1-12.76-2.97-18.97-5.18-6.94-2.45-13.91-4.94-20.99-6.98 4.32.82 8.62 1.7 12.9 2.7 1.57-4.71 3.25-9.37 5.2-13.93-.02 1.37-.02 2.74.01 4.12 4.22-5.52 7.15-11.57 10.49-17.61 4.18-7.6 7.92-15.41 11.98-23.07 3.53-6.72 7.62-13.11 11.18-19.81 4.05-7.54 8.17-15.02 12.82-22.2 5.56-8.6 10.66-17.45 15.64-26.39 2.68-4.86 6.22-9.01 9.51-13.44 4.43-6.12 4.2-13.91 7.47-20.52 2.5-5.07 9.03-7.86 11.32-13.02-.28-.75-.65-1.44-1.08-2.06-4.62-1.29-9.45-1.66-14.08-2.98.31-5.17.05-11.62 2.48-16.32 1.79-1.9 4.65-2.94 6.97-4.06 5.65-2.33 10.46-5.87 15.71-8.89"/><path fill="#070707" d="M341.07 191.9q1.44.045 2.88.12c-5.94 9.16-15.85 18.03-19.08 28.52-1.26.32-2.51.71-3.75 1.08 1.6-4.97 3.75-9.47 6.71-13.78 3.86-5.64 8.05-11.45 13.24-15.94"/><path fill="#141414" d="M344.67 192.07c6.71-.87 12.74-.34 18.52 3.39-6.75.5-12.48-.28-18.52-3.39"/><path fill="#020202" d="M368.19 204.94q1.14.36 2.25.75c2.37 6.08 3.7 12.43 6.54 18.35 6.45 16.14 11.56 32.84 16.61 49.46 1.48 4.58 2.5 9.23 2.75 14.04-2.91-3.49-4.66-7.52-5.97-11.83-3.09-10.05-6.95-19.83-10.2-29.83-2.69-8.48-6.12-16.7-8.85-25.15-1.42-4.99-3.44-10.57-3.13-15.79m-37.09 47.14c2.8-.74 4.34 2.19 5.76 4.05 6.17 9.67 11.32 20.15 16.74 30.27 2.24 3.91 3.32 9.24 6.47 12.45 6.08 4.31 12.92 6.41 17.3 13.16-.44 2.83-2.76 3.66-5.34 3.36-3.96-.71-7.84-3.2-11.32-5.16-.51-1.05-1.02-2.1-1.53-3.16 4.27 1.54 8.51 3.18 12.77 4.75-3.85-3.19-8.07-5.81-12.16-8.67-2.22-1.47-2.83-3.62-3.97-5.87-2.22-4.33-5.31-8.12-7.62-12.43-4.58-8.41-9-16.84-14.03-25.03-1.48-2.44-2.84-4.81-3.07-7.72"/><path fill="#040404" d="M399.1 293.71c5.01 3.58 7.15 7.31 7.63 13.48-1.33-.86-3.13-1.43-3.78-2.96-1.6-3.36-2.85-6.94-3.85-10.52"/><path fill="#979797" d="M355.82 297.26c1.14 2.25 1.75 4.4 3.97 5.87 4.09 2.86 8.31 5.48 12.16 8.67-4.26-1.57-8.5-3.21-12.77-4.75.51 1.06 1.02 2.11 1.53 3.16-2.98-1.73-5.89-3.6-8.8-5.47.71-.85 1.38-1.74 2.04-2.63l-2.08-.23c1.08-.6 2.16-1.2 3.24-1.81.23-.94.47-1.87.71-2.81"/><path fill="#020202" d="m351.87 301.88 2.08.23c-.66.89-1.33 1.78-2.04 2.63-6.5 6-13.05 11.57-18.72 18.45-8.45 10.2-17.5 20.82-27.82 29.17-4.09 3.3-7.34 7.17-11.87 9.93 1.49-6.85 6.34-10.17 11.23-14.56 9.95-8.54 18.2-18.39 26.66-28.33 4.01-4.84 8.91-8.32 13.52-12.52 2.13-1.92 4.39-3.68 6.96-5"/><path fill="#030303" d="M407 313.33c.41.39.81.78 1.2 1.19q.405.99.78 1.98c-10.17 6.66-20.38 13.27-30.61 19.86-5 2.9-9.21 6.45-15.3 6.21 3.17-2.82 6.78-4.92 10.36-7.17 11.15-7.37 22.01-15.35 33.57-22.07m-44.95 30.75c-1.7 6.34-7.14 8.74-10.07 14.11-1.06 4.26-.39 8.96-.97 13.33-1.75 16.91-4.63 33.69-6.49 50.6-.36 2.54-.54 5.4-1.63 7.75-2.79 2.61-6.62 4.25-9.91 6.15 3.04 6.8 5.94 13.85 9.89 20.17 1.82 3.12 4.18 5.69 3.9 9.53-.68 10.28-2.48 20.91-6.73 30.37-.74 1.83-1.71 3.84-1.84 5.82.95 3.23 3.23 6.1 4.69 9.13 2.1 4.22 4.19 8.4 6.77 12.36 5.3 8.31 8.95 17.42 14.47 25.6 1.45-5.61 3.35-10.78 5.84-16.01 1.61-3.29 2.76-7.12 4.99-10.04 2.78-2.58 6.28-4.28 9.06-6.92 7.03-6.39 14.68-11.98 21.84-18.21 7.98-6.9 14.08-14.93 22.6-21.36 5.7-4.25 10.78-9.23 15.43-14.6 2.76-3.13 3.21-6.69 4.42-10.54 3.23.64 6.45 1.22 9.7 1.7 2.43.45 4.65.6 6.42 2.53 3.4 3.65 5.85 8.14 9.2 11.87 2.56 2.93 5.58 4.89 8.66 7.23 1.32-1.89 2.65-3.78 3.99-5.66-.73-1.37-1.48-2.73-2.18-4.12-.97-2.95-1.63-5.95-2.26-8.99 1.64 1.66 3.23 3.37 4.8 5.09 2.17-.95 4.34-1.93 6.5-2.91-5.99-6.43-11.37-13.29-16.99-20.01l-1.33-1.34c-2.21 1.29-4.26 2.82-6.31 4.35.87 1.09 1.73 2.17 2.64 3.22 4.15 3.29 9.1 5.51 13.49 8.49-1.29.48-2.57.94-3.86 1.41-3.57-1.77-7.1-3.2-10.18-5.78-3.14-2.61-5.3-5.78-7.56-9.14 5.26-2.17 9.39-5.89 13.11-10.11 2.43-2.56 1.94-6.91 3.06-10.18 2.51-2.12 6.62-2.57 9.76-3.09 3.39-.31 8.05-1.02 10.9 1.28 8.15 6.07 10.2 14.69 16.93 22.02 6.63 7.32 13.21 14.25 18.52 22.76.42 2.33.14 3.43-.93 5.49 2.54 8.23 5.29 16.38 7.59 24.69.98 5.43 3.69 10.52 4.41 15.92-.88 4.17-4.64 7.24-5.67 11.57-3.69-3.52-7.19-7.09-9.83-11.5-4.74-7.8-10.2-15.04-15.69-22.3-3.14-4.25-7.5-7.14-10.78-11.23-2.93-3.57-5.76-7.71-9.45-10.59-1.78-1.57-4.21-1.06-6.4-1.17.02 2.54.28 5.24-.2 7.75-1.65 3.07-4.32 5.62-6.35 8.46-.79.76-1.61 1.49-2.43 2.22-.05-1.57-.09-3.14-.14-4.71-3.04 3.25-4.95 6.87-6.59 10.98-2.71 2.19-5.19 4.42-6.64 7.68-2.42 5.21-4.62 10.5-7.63 15.43-3.83 6.29-6.99 12.93-10.69 19.29-5.37 9.47-12.37 17.81-17.7 27.29-6.05 10.89-11.79 22.09-18.31 32.71-6.39 10.46-10.27 21.93-16.86 32.1-1.6 2.56-3.75 4.56-6.14 6.38 1.1-7.46 5.39-12.41 8.42-19.08 3.75-8.09 7.53-16.13 12.27-23.71 6.17-10.29 11.81-20.9 17.69-31.35 4.69-8.05 10.62-15.43 15.63-23.3 4.51-6.99 8.07-14.51 12.52-21.54 4.54-7.17 7.79-14.84 11.76-22.3 3.05-3.67 5.88-7.34 7.89-11.71-3.84-3.72-7.41-7.63-10.42-12.06-1.67-2.16-3.67-5.53-6.68-5.7-3.8-.56-6.61 2.58-9.06 5-2.75 2.99-5.39 6.11-8.18 9.07-4.71 5.07-10.46 8.73-15.41 13.6-6.32 6.09-11.95 12.69-19 18.02-9.27 7.03-17.72 14.99-27.27 21.62-2.5 1.83-3.57 4.72-4.89 7.42-2.91 6.56-6.71 12.78-7.75 20-.4 4.42.82 8.99.93 13.45-2.73-2.43-4.03-4.76-5.13-8.19-2.36-7.34-6.57-13.07-10.15-19.8-2.65-4.93-5.33-9.82-8.41-14.5-3.01-4.57-4.81-9.7-7.63-14.37-1.35-2.38-3.18-5.16-3.42-7.93.93-4.02 3.54-7.56 4.8-11.52 2.42-7.28 3.83-14.94 4.71-22.55.66-3.43-1.94-6.63-3.45-9.54-3.68-6.4-6.07-13.51-9.28-20.2-12.36 2.59-24.45 6.67-36.38 10.75-5.8 1.98-11.74 2.39-17.68 3.6-6.28 1.29-11.44 4.4-17.45 6.27-5.21 1.62-10.38 1.27-15.61 2.61-2.88.74-5.76 1.4-8.71 1.81 4.55-5.44 10.47-5.89 17.03-6.84 6.53-.74 11.85-3.71 17.91-5.91 7.48-2.77 14.94-3.12 22.68-5.33 9.79-2.78 19.3-6.37 29.21-8.77 7.32-1.76 14.2-3.98 21.16-6.82-.77-14.94 2.71-28.43 4.73-43.08 1.07-8.2 2.52-15.91 2.22-23.98-3.5 2.46-6.7 5.26-9.93 8.06-4.69 4.07-9.68 7.41-13.99 11.95-4.92 5.17-9.51 10.56-14.83 15.43-.41-.55-.83-1.11-1.25-1.67 5.21-7.75 11.87-14.75 18.48-21.33 8.18-7.13 16.78-13.7 24.37-21.61 3.55-3.62 5.03-7.8 10.71-8.29"/><path fill="#050505" d="M292.79 354.67c-1.01 3.59-2.52 6.97-4.14 10.32 5.2 7.71 10.95 14.79 15.19 23.15.41 1.66.74 3.33 1.06 5.01-2.36-2.53-4.5-5.24-6.81-7.82-4.15 3.45-7.34 7.68-11.12 11.48-1.38.61-2.78 1.11-4.19 1.62 3.3-6.91 8.77-10.62 13.82-16.36-3.07-5.14-6.27-10.17-9.63-15.12-5.27 6.83-9.43 15.76-16.35 20.76-.14-2.26-.56-4.14.98-6.05 4.94-6.74 10.01-13.38 14.78-20.25 1.83-2.67 3.82-4.79 6.41-6.74"/><path fill="#979797" d="M298.09 385.33c2.31 2.58 4.45 5.29 6.81 7.82-.32-1.68-.65-3.35-1.06-5.01q2.115 3.72 4.65 7.17c.42.56.84 1.12 1.25 1.67-.44.4-.88.81-1.32 1.21-1.86-1.48-3.7-2.97-5.58-4.42-1.13.4-2.27.81-3.41 1.22.14.64.27 1.28.4 1.92-3.59.31-7.2.88-10.65 1.95-.74-.68-1.47-1.37-2.21-2.05 3.78-3.8 6.97-8.03 11.12-11.48"/><path fill="#080808" d="M271.95 387.87c1.83 6.68 2.49 13.7 3.33 20.57-1.43-1.42-3.27-2.68-3.81-4.72-1.43-5.22-1.55-10.77.48-15.85"/><path fill="#979797" d="M190.04 395.97c7.67 2.48 15.7 3.39 23.43 5.72 5.01 1.52 10.11 1.58 15.3 1.31-2.13 10.5-6.48 20.17-9.35 30.43-1 3.32-.98 6.65-.81 10.06-.2 1.85-.43 3.69-.67 5.53-.83-.9-1.68-1.77-2.56-2.63.6 5.77 4.09 11.28 7.11 16.14 1.05 1.8 2.65 2.51 4.5 3.22.82 1.79 1.74 3.54 2.77 5.22-.86.14-1.73.3-2.59.47 1.3 5.25 3.76 10.12 6.98 14.45 2.61 3.48 5.75 6 8.78 9.11-1.11-.61-2.25-1.16-3.39-1.71-2.18 1.88-4.1 5.08-7.41 4.31-4.76-.61-9.37-2.09-14.11-2.84-4.55-.75-8.87-2.06-13.17-3.71 5.84 1.27 11.7 2.54 17.57 3.7 3.68.63 7.94 1.51 11.53.16l.03-1.58c-4.39-1.36-9.12-1.6-13.61-2.63-9.74-2.23-19.34-4.16-28.37-8.62 2.77.8 5.59 1.46 8.39 2.19-1.6-9.51 1.22-17.69 2.98-26.88 1.41-6.29 2.68-12.56 3.8-18.91 2.24-12.43 9.54-22.21 13.66-34.07-6.27-1.64-12.51-3.35-18.89-4.53-4.21-.78-8.04-2.07-11.9-3.91"/><path fill="#030303" d="M299.83 396.91c.79.81 1.54 1.65 2.29 2.49-5.13 1.86-10.28 3.1-15.22 5.49-2.97 1.46-5.96 2.66-9.22 3.28 1.84-5.37 6.85-6.95 11.5-9.31 3.45-1.07 7.06-1.64 10.65-1.95"/><path fill="#afafaf" d="M49.1 398.11c.17 2.08.44 4.15.63 6.22a32 32 0 0 1-2.37 8c-.54-4.92-.29-9.65 1.74-14.22"/><path fill="#fff" d="M483.87 421.78c3.42-1.35 9.48-1.83 13.06-1.08 4.63 2.15 7.38 8.3 9.9 12.48 5.06 9.09 12.58 14.8 19.18 22.82 2.96 3.55 4.14 8.82 5.85 13.12 3.35 8.49 5.51 17.27 7.98 26.03.79 2.94 1.76 6.02 2.01 9.06.31 3.22-1.4 6.09-2.67 8.92-4.39-6.81-7.79-14-12.86-20.39-4.34-5.48-8.28-11.98-13.59-16.48-4.89-4.18-8.22-9.7-13.1-13.92-3.54-3.07-5.65-6.98-8.08-10.89-3.95-6.33-8.98-11.34-13.59-17.13 1.3-1.74 2.78-3.5 3.76-5.45 1.02-2.22 1.33-4.78 2.15-7.09"/><path fill="#030303" d="M49.24 424.69c1.39 1.38 2.57 2.86 3.27 4.71 3.57 8.96 4.81 19.03 6.81 28.42 6.57 29.25 11.2 57.09 22.69 85.17.5 1.94.9 3.9 1.33 5.85-.81-.25-1.62-.5-2.44-.75-5.06-10.72-9.11-21.93-12.66-33.24-6.67-24.02-11.54-48.86-15.83-73.41-1-5.86-3.02-10.82-3.17-16.75"/><path fill="#cacaca" d="m474.82 436.71 1.33 1.34c-1.71 2.04-3.34 4.15-5 6.23-.91-1.05-1.77-2.13-2.64-3.22 2.05-1.53 4.1-3.06 6.31-4.35"/><path fill="#090909" d="M460.13 438.15c-2.64 4.61-6.68 7.06-10.73 10.26-2.1 1.63-4.36 2.94-6.77 4.06 1.86-5.46 6.17-8.04 10.51-11.39 2.09-1.59 4.48-2.32 6.99-2.93"/><path fill="#979797" d="M476.15 438.05c5.62 6.72 11 13.58 16.99 20.01-2.16.98-4.33 1.96-6.5 2.91-1.57-1.72-3.16-3.43-4.8-5.09.63 3.04 1.29 6.04 2.26 8.99-1.99-3.44-3.24-6.67-3.32-10.69 1.29-.47 2.57-.93 3.86-1.41-4.39-2.98-9.34-5.2-13.49-8.49 1.66-2.08 3.29-4.19 5-6.23"/><path fill="#dcdcdc" d="M216.1 442.43c1.68.22 1.63 2.9-.03 3.11-1.71-.22-1.64-2.89.03-3.11"/><path fill="#020202" d="M118.39 442.09c5.83 5.72 8.89 13.45 12.13 20.78-4.55 8.25-5.3 17.19-6.63 26.45-.57 8.53-1.11 17.06-2.05 25.56-1.71 12.67-3.6 25.41-4.28 38.19-.28 10.64-.5 21.32-.31 31.97.01 3.91.9 7.47 2.36 11.07-.55.61-1.1 1.23-1.65 1.85-5.42-3.24-10.09-6.9-14.41-11.5-4.98-5.22-10.26-10.13-15.27-15.32.04-.92.09-1.84.13-2.76 3.43 1.49 6.66 3.23 9.32 5.89 5.23 5.24 10.52 10.61 16.56 15.09-1.11-11.78-.82-23.55-.83-35.36-.08-9.68 1.24-19.48 2.27-29.1 1.4-11.46 2.26-22.95 2.98-34.47.96-8.04 1.98-16.47 4.71-24.13.52-1.78 1.45-4.01 1-5.87-1.24-4.78-4.55-9.16-6.1-13.79-.55-1.58-.11-2.95.07-4.55"/><path fill="#545454" d="M215.38 446.39c.88.86 1.73 1.73 2.56 2.63 3.11 5.5 6.59 10.92 9.05 16.73-1.85-.71-3.45-1.42-4.5-3.22-3.02-4.86-6.51-10.37-7.11-16.14"/><path fill="#030303" d="M131.87 452.75c4.51 1.7 8.54 4.17 12.66 6.62 8.62 5.01 17.06 9.9 26.19 13.94 7.02 3.1 14.15 5.93 21.28 8.77 9.03 4.46 18.63 6.39 28.37 8.62 4.49 1.03 9.22 1.27 13.61 2.63l-.03 1.58c-3.59 1.35-7.85.47-11.53-.16-5.87-1.16-11.73-2.43-17.57-3.7-11.28-3.66-22.11-8.31-33.03-12.88-7.96-3.33-15.55-7.66-22.97-12.05-5.93-3.78-12.45-7.95-16.98-13.37"/><path fill="#979797" d="M457.97 457.65c3.01.17 5.01 3.54 6.68 5.7 3.01 4.43 6.58 8.34 10.42 12.06-2.01 4.37-4.84 8.04-7.89 11.71.94-2.02 1.81-4.07 2.7-6.11-2.44-3.17-5.16-6.09-7.85-9.05-2.06-2.25-3.73-4.93-5.97-6.99-2-1.38-4.84-1.69-7.15-2.32 2.45-2.42 5.26-5.56 9.06-5"/><path fill="#9b9b9b" d="M535.32 461.94c2.04 3.53 3.81 6.34 2.02 10.4 1.65 6.6 3.69 13.02 4.64 19.78-2.3-8.31-5.05-16.46-7.59-24.69 1.07-2.06 1.35-3.16.93-5.49"/><path fill="#020202" d="M227.17 471.44c.86-.17 1.73-.33 2.59-.47 2.62 3.84 4.81 8 7.58 11.74 3.02 4.11 7.28 6.57 10.26 10.65 1.86 2.56 3.14 5.52 4.9 8.18 2.85 4.33 6.41 8.26 9.5 12.44 8.97 12.37 18.12 24.61 26.85 37.16 7.72 10.82 16.36 20.99 24.6 31.41 8.73 11.28 17.43 22.59 25.91 34.07 2.56 3.36 4.73 7.29 7.79 10.21 4.56 3.63 10.46 5.95 16.32 4.49 4.36-1.26 8.3-4.66 12.54-6.27 2.32-.87 5.11-.85 7.57-1.02.02.87.04 1.75.05 2.62-5.39 2-10.19 5.03-15.33 7.51-6.52 2.93-16.68 2.14-20.73-4.55-3.77-5.59-8.94-9.81-13.01-15.16-5.05-6.57-10.36-12.91-15.58-19.33-10.61-13.47-22-26.11-32.19-39.92-12-16.62-23.71-33.49-36.19-49.75-2.52-3.42-4.67-7.48-7.67-10.45-3.03-3.11-6.17-5.63-8.78-9.11-3.22-4.33-5.68-9.2-6.98-14.45"/><path fill="#878787" d="M479.45 476.54c.05 1.57.09 3.14.14 4.71.82-.73 1.64-1.46 2.43-2.22-1.18 1.77-2.31 3.75-3.75 5.3-1.41 1.55-3.56 2.29-5.41 3.19 1.64-4.11 3.55-7.73 6.59-10.98"/><path fill="#979797" d="M121.84 514.88c-.21 5.01-.46 9.99-1.2 14.95-2.18 19.1-2.23 38.03-2.08 57.22.11 1.78.12 3.82.84 5.48 1.15 1.68 2.84 3.06 4.33 4.45-1.33.26-2.65.51-3.98.77-.32 1.79-.66 3.57-.95 5.36-1.06-1.68-2.27-3.27-3.29-4.98-1.22 1.19-2.45 2.37-3.67 3.55-5.28-5.67-8.67-12.43-16.75-14.26-2.75-4.49-4.48-9.3-6.5-14.14-.65-1.71-1.2-3.19-.18-4.9-.04.92-.09 1.84-.13 2.76 5.01 5.19 10.29 10.1 15.27 15.32 4.32 4.6 8.99 8.26 14.41 11.5.55-.62 1.1-1.24 1.65-1.85-1.46-3.6-2.35-7.16-2.36-11.07-.19-10.65.03-21.33.31-31.97.68-12.78 2.57-25.52 4.28-38.19"/><path fill="#020202" d="M18.81 537.99c5.07 2.48 9.18 6.12 13.2 10.01 9.02 8.67 19.21 16.1 28 24.99 9.63 9.28 17.82 19.25 28.29 27.57 1.85-4.61 4.19-8.91 6.79-13.14 8.08 1.83 11.47 8.59 16.75 14.26 2.8 3.52 7.92 7.52 8.69 12.08-.48 9.21-3.49 18.48-5.17 27.53-.63 3.59.26 6.93.2 10.47-1.13 2.84-3.9 5.4-6.57 6.8-2.14-.24-4.87.73-4.28-2.47 2.11-4.78 6.1-7.64 7.13-13.11 1.94-10.01 3.57-20.04 6.6-29.81-1.09-.73-2.18-1.46-3.25-2.22-7.26-4.85-11.48-12.25-18.29-17.8-3.17 3.92-5.94 7.58-5.99 12.84-5.73-4.43-11.89-8.83-16.96-13.95-10.23-10.2-20.06-20.58-31.46-29.54-6.84-5.21-12.13-11.8-19.34-16.55 2.69 6.95 6.3 13.59 9.6 20.28 9.59 18.98 25.29 34.96 38.95 51.13 3.67 4.4 6.72 9.06 10.94 13 3.46 3.23 6.84 6.48 9.84 10.13 3.75 4.66 7.87 7.94 9.81 13.78-3.66-1.83-6.33-4.58-8.75-7.82-3.02-3.97-6.17-7.78-9.56-11.43-3.35-3.55-5.43-7.7-9.21-10.86-10.33-8.57-18.59-18.49-27.3-28.63-8.6-10.1-15.9-21.34-21.6-33.32-2.42-5.25-5.03-10.42-7.34-15.72-1.11-3.01-2.4-5.83.28-8.5"/><path fill="#a3a3a3" d="M82.01 542.99c2.6 5.48 4.9 10.96 5.92 16.97-2.95-3.65-5.2-7.55-7.03-11.87.82.25 1.63.5 2.44.75-.43-1.95-.83-3.91-1.33-5.85"/></svg>