<svg xmlns="http://www.w3.org/2000/svg" width="896pt" height="842pt" viewBox="0 0 896 842"><path fill="#fff" d="M864.5 0h-896v842h896Z"/><path fill="#030303" d="M299.5 24.18c-5.37.04-10.29-.15-14.94 3-6.78 4.57-11.29 12.6-15.41 19.49-5.84-6.16-12.18-11.25-20.81-12.66-8.46-1.17-17.84.12-25.25 4.54-6.46 3.81-10.51 10.49-14.26 16.76-2 3.27-3.51 7.05-5.99 9.98-2.87 2.89-6.33 4.8-8.79 8.19-3.97 5.39-6.51 12.21-8.54 18.54-2.01 6.32-3.64 13.37-3.15 20.03.22 3.79 3.28 6.78 5.45 9.68-7.73 7.32-10.82 16.49-14.31 26.24-2.56 7.62-3.55 16.93-.69 24.59 1.41 4.01 4.62 5.41 8.08 7.3-.35 2.91-1.01 6.13-.51 9.04.83 3.17 3.88 5.84 6.2 8.02 4.04 3.57 8.42 7.55 13.98 8.26 4.46.52 9.46-1.41 13.75-2.54 1.86 3.41 2.99 6.95 6.68 8.81 7.58 4.01 16.45 1.93 24.48 1.09 2.58 2.15 4.38 5.46 6.31 8.2 1.61 2.51 3.73 4.98 4.8 7.78.89 5.72-.83 10.94 1.85 16.57 3.61 7.6 10.09 14.16 15.16 20.82 3.41 4.44 4.02 9.82 7.94 14.06 6.19 6.83 14.46 9.58 23.38 10.73-1.02 4.28-2.28 8.29-2.64 12.71-.23 2.96-.71 5.85-1.83 8.62-3.35 8.58-9.04 16.01-14.74 23.15-1.45 1.74-2.97 3.75-4.88 5-4.62.79-9.67-.5-14.32.54-2.56.96-4.81 3.1-6.96 4.77 4.83-1.7 9.68-2.68 14.82-1.93 4.7.75 9.45 1.36 14.08 2.46 5.24 1.3 9.3 4.4 13.71 7.35 7.91 5.46 15.95 10.49 23.5 16.47 10.97 8.29 21.84 18.23 28.8 30.22 3.83 6.03 5.82 12.86 9.52 18.95.03-3.66-.51-7.15-1.94-10.53-3.45-8.34-7.97-16.24-13.84-23.13-5.3-6.48-12.46-11.89-18.83-17.38 1.25-5.45 2.11-10.96 2.84-16.5.98-7.26 2.73-14.33 4.5-21.42 10.06 11.59 19.83 22.44 32.78 30.97 8.7 5.53 17.53 10.24 27.98 11.24 9.18.8 19.36-.66 26.71-6.65 7.45-5.95 12.01-15.11 14.48-24.16 3.64-12.63 2.1-27.17 2.33-40.46-.73-12.07-1.14-24.65-3.85-36.38-2.63-12.34-5.93-24.13-11.95-35.29-.75.06-1.49.13-2.24.2l-.57 1.47c2.79 4.93 5.06 10.07 6.61 15.52 3.81 13.14 6.68 26.45 7.29 40.15 1.15 10.48.69 20.82.8 31.34.27 11.99-2.17 24.83-8.31 35.25-4.19 7.15-10.94 12.5-19.22 13.91-7.28 1.06-15.21.86-22.11-1.88-12.85-4.89-24.57-13.3-34.09-23.16-11.34-11.04-21.39-23.09-31.24-35.45 2.33 6.91 7.17 11.77 10.89 17.83 1.77 2.63.8 4.95.05 7.71-2.43 7.18-3.75 14.46-5.32 21.87l-1.02 6.2c-6.84-7.55-11.46-16.34-19.36-23.1-3.42-2.95-7.72-5.13-10.8-8.38 1.98-5.54 5.92-10.18 7.83-15.83 2.24-7.01 4.69-13.83 5.49-21.2.82-1.32 1.76-2.55 2.7-3.79-6.75-.84-12.85-.72-19.08-3.92-4.96-2.3-7.39-6.39-10.37-10.7-1.38-2.15-3.14-4.66-3.21-7.29-.33-6.1 1.92-12.43 5.05-17.6 1.6-2.52 3.77-5.45 6.81-6.24 4.98-1.35 10.62.79 14.26 4.27 3.66 3.48 5.6 8.46 7.25 13.12.71-.81 1.41-1.61 2.14-2.38-2.31-5.32-4.44-10.33-8.99-14.17-4.64-4.4-12.51-6.45-18.3-3.31-7.78 5.44-10.46 14.5-12.48 23.29-4.77-5.31-9.44-10.91-13.15-17.03-3.4-5.55-3.09-12.69-1.83-18.85 1.81-8.17 7.41-14.16 12.79-20.22 2.24-2.45 3.69-4.91 4.51-8.14-4.82 5.05-9.7 9.2-13.86 14.77-2.75 3.66-4.63 7.53-6.9 11.48-4.87-7.36-8.12-15.26-13.81-22.02-3.3-3.82-6.53-7.67-9.41-11.82 5.76-7.75 10.91-15.43 14.05-24.66 1.93-5.62 2.43-11.3 4.09-17 4.76 3.62 8.8 7.9 13.1 12.03 4.88 4.66 9.84 9.35 14.2 14.51 1.35 1.75 3 3.66 3.68 5.79-.3 3.76-2.39 7.41-3.36 11.06l-.23 1.95c2.28-3.86 3.99-7.98 5.4-12.22 3.29-9.82 7.61-19.38 13.08-28.18 9.32-14.71 25.18-24.89 41.32-30.69 15.85-6.08 32.98-8.17 49.7-4.68 10.62 1.96 20.85 7.63 29.73 13.62 5.96 3.92 9.84 10.3 10.72 17.36.41 3.9-1.12 7.69-2.44 11.29 3.38 1.33 6.45 2.62 10.18 2.17 4.92-.44 8.54-3.68 12.38-6.43-1.99 5.93-4.91 11.49-6.83 17.44 6.1-3.42 6.79-12.07 8.16-18.25-1.08-.3-2.16-.6-3.24-.91-2.17 1.68-4.44 3.88-6.99 4.91-3.4 1.32-7.29.76-10.84.49 1.36-6.43 2.45-12.6-.41-18.84-3.02-6.99-8.6-11.21-14.9-15.06-7.53-4.49-15.74-8.97-24.36-10.79-7.9-1.89-15.63-1.77-23.69-1.65-8.67.09-17.72 2.74-26.04 5.08-2.84-2.49-5.63-5.04-8.38-7.61-1.47-1.38-2.92-2.78-4.39-4.16-.47-.42-.94-.85-1.4-1.28-3.08-2.84-6.12-5.72-9.17-8.59 1.63-2.72 3.28-5.35 4.62-8.22.3-1.48.58-2.96.91-4.43-.36-.17-.71-.35-1.07-.52-.32.74-.65 1.49-.98 2.22-2.33 5.9-7.02 10.48-12.29 13.82-6.55 3.92-14.26 3.29-21.03.3-6.22-2.81-11.35-7.04-18-8.99-.17 1.2-.33 2.41-.49 3.62 6.12 3.42 12.29 6.72 18.59 9.79-2.66 6.46-6.52 12.06-11.81 16.65-6.61 6.37-15.09 9.1-24.15 9.33-6.25.68-10.04-3.95-15.74-4.36.1 1.64.09 3.12 1.43 4.28 3.03 2.83 8.12 3.63 11.65 5.76.6 3.92.04 8.2-.52 12.1-.16 1.21-.35 2.41-.59 3.59-1.63 10.74-6.39 20.87-12.54 29.73-2.42 3.56-5.88 5.6-9.76 7.23-.67 1.15-1.35 2.29-2.03 3.43 3.52.81 7.76.84 10.38 3.56 3.56 3.41 6.45 7.64 9.31 11.64-6.5 2.25-12.71 2.39-19.22.07-4.19-2.26-4.41-6-6.58-9.75-5.52-.17-11.25 3.41-16.72 2.69-3.71-.49-7.02-3.29-9.81-5.61-2.23-1.96-4.79-3.99-6.37-6.52-1.39-2.97-.35-6.03.99-8.79.42-1.36 1.68-2.41.61-3.73-3.39-1.46-8.65-.98-9.89-5.27-2.35-7.47-1.27-16.31 1.43-23.57 1.92-5.16 3.94-10.38 6.67-15.17 1.27-2.14 2.64-4.86 4.81-6.21 2-1.22 4.27-2.03 6.41-2.99-2.14-2.35-4.43-4.54-6.7-6.77-1.06-1.15-2.43-2.38-2.61-4.02-.72-5.89.43-11.46 2.31-17.01 2.51-7.36 5.31-15.56 10.2-21.69 2.15-2.84 5.09-3.32 8.31-4.23 2.23-7.8 6.66-14.61 11.31-21.2 4.41-6.08 10.82-9.6 18.3-10.27 5.93-.39 13.24-.87 18.65 1.98 2.74 1.4 5.55 3.15 7.58 5.5 2.58 3.15 4.52 6.75 7.13 9.9 1.17-2.57 2.23-5.18 3.41-7.74 3.24-6.2 7.21-13.22 12.97-17.39 5.56-3.98 11.86-3.33 18.34-3.28 5.21.11 10.16.93 14.34 4.26 6.71 5.35 11.95 12.85 16.07 20.31.97 1.82 1.74 3.94 1.76 6.01-.26 2.19-1.44 4.39-2.36 6.39 3.13.8 6.29 1.45 9.41 2.26 4.52 3.35 8.85 9.33 10.93 14.53 1.07 4.73-1.29 10.44-3.26 14.71-2.64 5.59-7.42 8.85-12.85 11.39-1.7.85-3.37 1.74-5.04 2.65q2.07.045 4.14.03c6.67-2.06 12.69-5.36 15.92-11.85 2.7-5.32 5.52-12.48 4.07-18.48-1.78-4.87-5.21-9.31-8.61-13.17-2.72-3.02-6.13-3.74-9.83-4.94-.24-5.1-1.11-9.93-3.88-14.31-4.39-7.16-9.83-15.38-17.15-19.8-5.82-3.53-12.13-3.07-18.68-3.19"/><path fill="#fff" d="M304.52 27.38c-6.48-.05-12.78-.7-18.34 3.28-5.76 4.17-9.73 11.19-12.97 17.39 2.46 4.11 5.36 7.94 5.69 12.89.2 3.52.08 8.12-3.06 10.42-4.18 3.22-10.5 1.97-13.97-1.72-2.41-2.55-2.95-6.27-2.55-9.63.51-3.89 2.96-7.09 5.12-10.23-.57-1.3-1.14-2.61-1.77-3.89-2.03-2.35-4.84-4.1-7.58-5.5-5.41-2.85-12.72-2.37-18.65-1.98-7.48.67-13.89 4.19-18.3 10.27-4.65 6.59-9.08 13.4-11.31 21.2-3.22.91-6.16 1.39-8.31 4.23-4.89 6.13-7.69 14.33-10.2 21.69-.95 6.01-.88 11.86-.86 17.91 3.38-1.25 7.63-3.73 11.17-1.88 3.8 1.78 7.52 4.69 9.98 8.11 2.29 3.22 1.93 7.56-.61 10.51-2.31 2.75-6.15 3.37-9.53 2.95-3.64-.52-6.98-3.16-9.94-5.2-1.49 1.51-3.01 3.01-4.43 4.6-2.73 4.79-4.75 10.01-6.67 15.17-2.7 7.26-3.78 16.1-1.43 23.57 1.24 4.29 6.5 3.81 9.89 5.27 1.07 1.32-.19 2.37-.61 3.73-1.34 2.76-2.38 5.82-.99 8.79 1.58 2.53 4.14 4.56 6.37 6.52 2.79 2.32 6.1 5.12 9.81 5.61 5.47.72 11.2-2.86 16.72-2.69 2.17 3.75 2.39 7.49 6.58 9.75-1.09-3.83-3.08-7.6-3.58-11.53-.07-3.73 2.45-5.26 5.14-7.17 1.73-3.9 3.22-7.63 6.07-10.91 3.95-4.55 8.31-9.07 11.56-14.43 2.08-3.6 3.45-7.66 4.67-11.62.24-1.18.43-2.38.59-3.59-.22-1.99-.52-3.95-.81-5.93-7.72-2.55-14.6-6.09-19.07-13.16-2.26-3.64-1.41-8.73 1.87-11.46 3.18-2.57 7.7-2.8 11.09-.46 4.06 2.76 7.51 6.47 11.23 9.68.97-.35 1.94-.7 2.91-1.06 6.67-2.59 13.3-2.8 20.11-4.72 5.29-4.59 9.15-10.19 11.81-16.65-6.3-3.07-12.47-6.37-18.59-9.79.16-1.21.32-2.42.49-3.62 6.65 1.95 11.78 6.18 18 8.99 1.7-.72 3.47-1.49 5.25-1.99 4.65-1.32 10.26.43 14.63-1.48 5.34-2.38 10.13-5.75 13.44-10.65.33-.73.66-1.48.98-2.22.36.17.71.35 1.07.52 4.09 2.19 10.26 4.5 10.35 10-.34 4.37-3.11 8.64-4.59 12.75 3.41.13 6.82-.16 10.17-.78 5.43-2.54 10.21-5.8 12.85-11.39 1.97-4.27 4.33-9.98 3.26-14.71-2.08-5.2-6.41-11.18-10.93-14.53-4.05 2.37-8.42 5.41-13.25 5.61-3.82.16-7.62-1.04-9.82-4.33-2.86-4.21-1.25-11.03 3.5-13.14 3.35-1.51 7.16-2.16 10.76-2.8-4.12-7.46-9.36-14.96-16.07-20.31-4.18-3.33-9.13-4.15-14.34-4.26"/><path fill="#e1e1e1" d="M262.67 45.89c.63 1.28 1.2 2.59 1.77 3.89-2.16 3.14-4.61 6.34-5.12 10.23-.4 3.36.14 7.08 2.55 9.63 3.47 3.69 9.79 4.94 13.97 1.72 3.14-2.3 3.26-6.9 3.06-10.42-.33-4.95-3.23-8.78-5.69-12.89-1.18 2.56-2.24 5.17-3.41 7.74-2.61-3.15-4.55-6.75-7.13-9.9"/><path fill="#dfdfdf" d="M334.93 51.95c-3.6.64-7.41 1.29-10.76 2.8-4.75 2.11-6.36 8.93-3.5 13.14 2.2 3.29 6 4.49 9.82 4.33 4.83-.2 9.2-3.24 13.25-5.61-3.12-.81-6.28-1.46-9.41-2.26.92-2 2.1-4.2 2.36-6.39-.02-2.07-.79-4.19-1.76-6.01"/><path fill="#cbcbcb" d="M322.63 85.27c-.33 1.47-.61 2.95-.91 4.43.26 3.6 2.1 6.26 3.74 9.33 1.27 2.2.8 5.03.81 7.48.46.43.93.86 1.4 1.28l.72.23c1.48-4.11 4.25-8.38 4.59-12.75-.09-5.5-6.26-7.81-10.35-10"/><path fill="#a1a1a1" d="M320.58 86.97c-3.31 4.9-8.1 8.27-13.44 10.65-4.37 1.91-9.98.16-14.63 1.48-1.78.5-3.55 1.27-5.25 1.99 6.77 2.99 14.48 3.62 21.03-.3 5.27-3.34 9.96-7.92 12.29-13.82"/><path fill="#a5a5a5" d="M321.72 89.7c-1.34 2.87-2.99 5.5-4.62 8.22 3.05 2.87 6.09 5.75 9.17 8.59-.01-2.45.46-5.28-.81-7.48-1.64-3.07-3.48-5.73-3.74-9.33"/><path fill="#dadada" d="M188.32 95.8c-1.88 5.55-3.03 11.12-2.31 17.01.18 1.64 1.55 2.87 2.61 4.02 2.27 2.23 4.56 4.42 6.7 6.77-2.14.96-4.41 1.77-6.41 2.99-2.17 1.35-3.54 4.07-4.81 6.21 1.42-1.59 2.94-3.09 4.43-4.6 2.96 2.04 6.3 4.68 9.94 5.2 3.38.42 7.22-.2 9.53-2.95 2.54-2.95 2.9-7.29.61-10.51-2.46-3.42-6.18-6.33-9.98-8.11-3.54-1.85-7.79.63-11.17 1.88-.02-6.05-.09-11.9.86-17.91"/><path fill="#a2a2a2" d="M314.45 101.09c-3.9 1.84-7.93 4.81-12.2 5.49-4.07.61-8.4.22-12.51.02-.81 1.96-1.61 3.92-2.5 5.84.72 1.01 1.43 2.03 2.16 3.04 4.28.13 7.39 2.18 10.6 4.77l.12-1.8c4.64-.68 9.41-1.06 13.63-3.26 3.56-1.85 6.85-4.07 10.62-5.52-3.32-2.94-6.29-5.98-9.92-8.58"/><path fill="#949494" d="M338.56 107.24c-3.35.62-6.76.91-10.17.78l-.72-.23c1.47 1.38 2.92 2.78 4.39 4.16 1.86-.69 3.72-1.38 5.6-2.03q-2.07.015-4.14-.03c1.67-.91 3.34-1.8 5.04-2.65"/><path fill="#feffff" d="M324.37 109.67c-3.77 1.45-7.06 3.67-10.62 5.52-4.22 2.2-8.99 2.58-13.63 3.26l-.12 1.8c4.92 3.88 9.49 8.16 13.83 12.67 4.9-2.72 9.4-5.68 14.51-8.01 2.51-1.18 5.17-2.2 7.55-3.63.21-1.4-.88-1.95-1.69-2.9-3.2-2.98-6.54-5.82-9.83-8.71"/><path fill="#bcbcbc" d="M287.24 112.44c-1.23 2.52-2.61 4.99-4.18 7.32 1.89 3.1 4.11 6.71 4.64 10.35.31 2.51-1.48 5.24-2.79 7.27 5.68-3.53 10.09-8.2 14.76-12.89-3.85-2.69-7.64-4.95-10.27-9.01-.73-1.01-1.44-2.03-2.16-3.04"/><path fill="#dfdfdf" d="M230.21 118.72c-3.28 2.73-4.13 7.82-1.87 11.46 4.47 7.07 11.35 10.61 19.07 13.16.29 1.98.59 3.94.81 5.93.56-3.9 1.12-8.18.52-12.1-3.53-2.13-8.62-2.93-11.65-5.76-1.34-1.16-1.33-2.64-1.43-4.28 5.7.41 9.49 5.04 15.74 4.36 1.32-1.57 2.61-3.12 4.04-4.61-.97.36-1.94.71-2.91 1.06-3.72-3.21-7.17-6.92-11.23-9.68-3.39-2.34-7.91-2.11-11.09.46"/><path fill="#eb9337" d="M339.31 123.81c-16.14 5.8-32 15.98-41.32 30.69-5.47 8.8-9.79 18.36-13.08 28.18-1.41 4.24-3.12 8.36-5.4 12.22l.23-1.95c-.64 1.94-1.22 3.9-1.78 5.86-.82 3.23-2.27 5.69-4.51 8.14-5.38 6.06-10.98 12.05-12.79 20.22-1.26 6.16-1.57 13.3 1.83 18.85 3.71 6.12 8.38 11.72 13.15 17.03 2.02-8.79 4.7-17.85 12.48-23.29 5.79-3.14 13.66-1.09 18.3 3.31 4.55 3.84 6.68 8.85 8.99 14.17h1.6c2.32-8.67 3.81-17.3 2.99-26.31-.34-3.68-2.22-6.38-4.07-9.44 1.59.36 3.19.71 4.78 1.07-.92-3.21-1.69-6.46-2.32-9.75-2.41-.84-4.69-1.88-7-2.94 5.01-.94 10.05-1.7 15.11-2.37-6.76-3.29-13.17-6.59-18.08-12.48 2.14.89 4.26 1.83 6.32 2.89.77-1.4 1.56-2.77 2.45-4.09 1.54-.74 3.12-1.37 4.71-2 1.72-1.35 3.41-3.04 5.38-4.02 2.03-.62 4.44-.21 6.54-.22 7.72-2.11 15.04-5.38 22.69-7.63 8.18-2.27 16.85-1.72 24.09 2.96 10.08 6.47 18.43 15.99 28.85 22.14 4.58 2.68 9.3 4.15 14.19 6.12-4.12-.03-8.23-.35-12.34-.7 1.83.94 3.65 1.88 5.48 2.83 3.98-3.45 9.7-.21 14.18.73-1.76 2.02-6.09 4.63-4.44 7.67 1.31 2.22 4.4 3.49 6.68 4.49l-.21-1.76c4.19-.03 9.27.39 12.9-2.04 4.55-3.02 7.66-8.36 9.8-13.27 1.97-4.68 3.72-10.02 3.61-15.15-.05-3.03-.91-5.71-1.66-8.6.52.31 1.04.63 1.55.95-1.3-.91-2.65-1.75-3.98-2.63-.35-4.25-.41-8.6-.5-12.84-1.64 3.96-3.53 7.45-6.75 10.38-.62-3.43-.01-5.11 1.66-8 2.65-4.42 3.16-9.17 4.31-14.07-2-2.14-3.04-3.97-6.26-3.74 1.08.31 2.16.61 3.24.91-1.37 6.18-2.06 14.83-8.16 18.25 1.92-5.95 4.84-11.51 6.83-17.44-3.84 2.75-7.46 5.99-12.38 6.43-3.73.45-6.8-.84-10.18-2.17 1.32-3.6 2.85-7.39 2.44-11.29-.88-7.06-4.76-13.44-10.72-17.36-8.88-5.99-19.11-11.66-29.73-13.62-16.72-3.49-33.85-1.4-49.7 4.68"/><path fill="#a2a2a2" d="M283.06 119.76c-4.35 5.07-9.18 9.62-15.25 12.57-5.25 2.57-11.39 3.09-17.12 3.93.12 1.32.25 2.63.39 3.95.02-1.05.06-2.09.1-3.14 2.86 2.26 6.1 6.57 10.13 5.89 4.78-.35 9.54-1.19 14.28-1.91 3.27-.83 6.45-1.85 9.32-3.67 1.31-2.03 3.1-4.76 2.79-7.27-.53-3.64-2.75-7.25-4.64-10.35"/><path fill="#a1a1a1" d="M275.55 122.16c-6.81 1.92-13.44 2.13-20.11 4.72-1.43 1.49-2.72 3.04-4.04 4.61 9.06-.23 17.54-2.96 24.15-9.33"/><path fill="#fff" d="M299.67 124.49c-4.67 4.69-9.08 9.36-14.76 12.89-2.87 1.82-6.05 2.84-9.32 3.67-3.19.86-6.33 1.82-9.49 2.78.27 4.72.37 9.45.36 14.18 6.64 6.43 13.08 12.76 17.64 20.92 1.45-4.68 2.71-9.23 4.55-13.77 4.93-12.08 12.85-22.49 23.19-30.45-3.77-3.76-7.79-7.18-12.17-10.22"/><path fill="#b5b5b5" d="M251.18 137.07c-.04 1.05-.08 2.09-.1 3.14-.01 3.31 2.2 4.81 4.29 6.96 3.79 3.52 7.47 7.14 11.09 10.84.01-4.73-.09-9.46-.36-14.18 3.16-.96 6.3-1.92 9.49-2.78-4.74.72-9.5 1.56-14.28 1.91-4.03.68-7.27-3.63-10.13-5.89"/><path fill="#a2a2a2" d="M252.12 149.56c-1.66 5.7-2.16 11.38-4.09 17-3.14 9.23-8.29 16.91-14.05 24.66 2.88 4.15 6.11 8 9.41 11.82-1.06-2.24-1.98-4.56-2.91-6.86 4-3.78 7.9-7.6 11.15-12.06 3.02-4.18 6.81-8.28 8.97-12.9 1.53-3.23 2.81-6.53 4.62-9.63-4.3-4.13-8.34-8.41-13.1-12.03"/><path fill="#a1a1a1" d="M247.63 152.86c-1.22 3.96-2.59 8.02-4.67 11.62-3.25 5.36-7.61 9.88-11.56 14.43-2.85 3.28-4.34 7.01-6.07 10.91 3.88-1.63 7.34-3.67 9.76-7.23 6.15-8.86 10.91-18.99 12.54-29.73"/><path fill="#473e38" d="M455.7 157q-.915 1.065-1.77 2.16c-1.15 4.9-1.66 9.65-4.31 14.07-1.67 2.89-2.28 4.57-1.66 8 3.22-2.93 5.11-6.42 6.75-10.38.09 4.24.15 8.59.5 12.84-.25-3.56-.41-7.14-.32-10.71.08-5.39 1.21-10.57.81-15.98"/><path fill="#fff" d="M265.22 161.59c-1.81 3.1-3.09 6.4-4.62 9.63-2.16 4.62-5.95 8.72-8.97 12.9-3.25 4.46-7.15 8.28-11.15 12.06.93 2.3 1.85 4.62 2.91 6.86 5.69 6.76 8.94 14.66 13.81 22.02 2.27-3.95 4.15-7.82 6.9-11.48 4.16-5.57 9.04-9.72 13.86-14.77.56-1.96 1.14-3.92 1.78-5.86.97-3.65 3.06-7.3 3.36-11.06-.68-2.13-2.33-4.04-3.68-5.79-4.36-5.16-9.32-9.85-14.2-14.51"/><path fill="#020101" d="M356.51 179.95c-7.65 2.25-14.97 5.52-22.69 7.63-3.89 2.05-7.56 3.5-11.92 4.24-1.59.63-3.17 1.26-4.71 2 4.24-.11 8.34-.25 12.34-1.84 7.7-2.99 15.68-5.05 23.44-7.86 8.22-2.93 18.81-3.18 26.11 2.25 10.41 7.08 18.49 16.43 29.76 22.47-1.02 2.88-1.55 5.63-1.77 8.68 3.87-.63 6.57-1.95 9.71-4.22-1.83-.95-3.65-1.89-5.48-2.83 4.11.35 8.22.67 12.34.7-4.89-1.97-9.61-3.44-14.19-6.12-10.42-6.15-18.77-15.67-28.85-22.14-7.24-4.68-15.91-5.23-24.09-2.96"/><path fill="#050100" d="M459.19 186.32c-.51-.32-1.03-.64-1.55-.95.75 2.89 1.61 5.57 1.66 8.6.11 5.13-1.64 10.47-3.61 15.15-2.14 4.91-5.25 10.25-9.8 13.27-3.63 2.43-8.71 2.01-12.9 2.04l.21 1.76c3.43 1.16 6.66 2.08 10.26 1.01 6.31-1.84 10.44-7.33 13.15-13.01 3.78-8.08 5.44-16.96 4.15-25.83-.14-.83-.67-1.51-1.57-2.04"/><path fill="#d5b284" d="M327.28 187.8c-1.97.98-3.66 2.67-5.38 4.02 4.36-.74 8.03-2.19 11.92-4.24-2.1.01-4.51-.4-6.54.22"/><path fill="#c4c4c4" d="M225.33 189.82c-2.69 1.91-5.21 3.44-5.14 7.17.5 3.93 2.49 7.7 3.58 11.53 6.51 2.32 12.72 2.18 19.22-.07-2.86-4-5.75-8.23-9.31-11.64-2.62-2.72-6.86-2.75-10.38-3.56.68-1.14 1.36-2.28 2.03-3.43"/><path fill="#020101" d="M308.42 195.02c4.91 5.89 11.32 9.19 18.08 12.48-5.06.67-10.1 1.43-15.11 2.37 2.31 1.06 4.59 2.1 7 2.94 5.18.02 9.97-1.41 14.79-3.13 2.72-1.02 6.34-1.59 8.41-3.7-.41-.94-.91-1.81-1.5-2.6-1.73-.07-3.42.16-5.13.41-5.92 1.5-10.53-.98-15.64-3.58-1.54-.74-3.06-1.53-4.58-2.3-2.06-1.06-4.18-2-6.32-2.89"/><path fill="#dbb17e" d="M319.32 200.21c5.11 2.6 9.72 5.08 15.64 3.58-5.25-2.83-9.72-3.56-15.64-3.58"/><path fill="#ababab" d="M365 204.66c.64.37 1.27.74 1.91 1.1 3.54-.64 7.11-1.08 10.7-1.23-4.22-.4-8.39-.2-12.61.13"/><path d="M377.61 204.53c-3.59.15-7.16.59-10.7 1.23 4 2.51 7.19 3.38 11.91 3.55-.37-1.62-.7-3.2-1.21-4.78"/><path fill="#010101" d="M477.76 218.69c-8.16 3.3-14.95 8.3-21.64 13.92-6.89 5.1-13.33 10.31-18.35 17.37 4.58 11.1 11.61 20.03 17.06 30.68 2.45 4.81 4.86 9.59 7.97 14.01 1.33-1.24 2.61-2.63 4.11-3.68 5.33-.15 10.71 1.16 16.06 1.25-6.28-3.99-13.29-4.89-20.59-4.94-6.6-12.73-14.86-24.34-22.28-36.57 1.84-1.53 3.65-3.09 5.4-4.74 5.63-5.43 12.08-9.85 17.77-15.22 3.87-3.64 7.79-6.4 12.63-8.61 4.98 10.52 10.67 20.64 15.12 31.42 2.33 5.8 6 11.4 7.49 17.46-.35 3.02-1.96 5.91-2.75 8.85-1.07 3.41-.84 6.74-.5 10.25 1.85-4.47 2.82-9.13 4.91-13.51.89-2.16 2.47-4.66 1.82-7.06-1.23-4.63-3.82-8.96-5.71-13.37-3.54-8.04-7.08-16.06-11.21-23.83-2.46-4.52-4.43-9.42-7.31-13.68m-105.82 0c-6.7-.07-12.54 2.8-16.72 7.97-1.68 2.2-1.99 5.54-2.5 8.2 2.73-3.04 5.42-6.51 8.66-9.01 2.85-2.18 6-3.32 9.13-5 .48-.71.96-1.43 1.43-2.16"/><path fill="#080101" d="M315.93 221.49c1.85 3.06 3.73 5.76 4.07 9.44.82 9.01-.67 17.64-2.99 26.31-1.28 4.93-3.77 9.14-6.91 13.1 2.98-1.86 6.27-3.38 8.02-6.59 2.61-4.93 3.78-10.74 4.59-16.21.81-8.48.89-16.85-2-24.98-1.59-.36-3.19-.71-4.78-1.07"/><path fill="#5c5c5c" d="M410.27 227.97c2.8 4.71 6.21 8.33 11.41 10.35-2.31-5.48-5.98-8.24-11.41-10.35"/><path fill="#030303" d="M363.37 228.79c-1.48.41-2.58.33-3.14 1.99-1.53 3.68-1.89 8.29-1.26 12.2.26 2.49 2.2 1.7 4.03 2.32.85-5.12 3.24-11.74.37-16.51"/><path d="M410.95 233.52c-2.05 2.65-3.58 4.95-3.33 8.48.17 2.13-.49 6.83 2.68 6.95 2.64-4.71 1.55-10.4.65-15.43"/><path fill="#0c0c0c" d="M421.5 245.01c-4.34 1.94-7.02 4.65-9.06 8.93 2.45-.83 4.82-1.35 6.61-3.36 1.46-1.59 1.91-3.55 2.45-5.57"/><path fill="#030303" d="M350.4 245c.7 1.7 1.16 4.16 2.75 5.27 4.41 3.2 9.72 4.86 15.15 3.61-6.07-2.77-11.89-6.01-17.9-8.88"/><path fill="#a2a2a2" d="M395.4 249.64c-.03 3.29-.25 6.4.78 9.58 1.03 3.13 2.67 6.13 4.1 9.1 3.77-1.68 6.05-3.4 8.23-6.92-1.86-3.16-3.6-6.63-6.01-9.4-1.63-2.18-4.67-1.84-7.1-2.36"/><path fill="#353535" d="M397.55 254.35c.36 2.02.66 4.22 1.45 6.13.88 2.02 2.93 3.65 4.52 5.12-.87-4.64-2.05-8.3-5.97-11.25"/><path fill="#030303" d="M412.56 256.38c-1.61 1.49-2.81 3.23-4.05 5.02-2.18 3.52-4.46 5.24-8.23 6.92q-.255 1.335-.48 2.67c2.33-.56 5.23-.97 7.13-2.54 2.53-2.07 4.52-4.93 6.61-7.43 1.02 2.73 2.62 5.97 2.3 8.91-.36 3.44-1.41 6.81-2.02 10.22 1.6-.63 4.1-.5 4.67-2.42 1.06-3.4.91-7.29.67-10.82-.48-4.23-2.35-8.85-6.6-10.53"/><path fill="#020202" d="M368.72 280.98c-3.56 1.2-6.44 4.67-8.8 7.47-3.35 3.9-4.29 9.9-2.37 14.63 3.11 5.54 9.91 8.74 16.14 6.75-3.92-2.86-10.23-4.19-12.93-8.24-2.44-5.24.38-9.66 3.83-13.5 3.73 7.3 6.48 14.76 11.7 21.25 5.11 5.65 10.41 11.95 16.87 16.06 3.72 2.44 7.85 2.98 12.2 3.24-4.61-2.71-9.18-3.75-13.27-7.26-9.06-7.98-16.77-17.1-21.91-28.09-1.91-4.15-1.14-7.94-1.46-12.31m158.94 9.97c-1.47 4.54-1.53 9.5-2.79 14.13-2.08 8.16-4.48 16.4-7.22 24.36-2.79-4.77-5.31-9.69-8.11-14.46-3.41-5.87-7.18-11.51-10.66-17.35-1.8-3.06-3.79-5.98-6.16-8.63.14 2.24.26 4.35 1.48 6.31 4.34 7.34 9.19 14.38 13.52 21.74 2.61 4.62 5.58 9.13 7.8 13.96 1.66 3.18-.63 5.87-1.8 8.79-4-6.28-6.95-12.99-10.32-19.6-2.92-5.7-6.57-10.84-9.77-16.37-2.74-4.59-4.87-9.2-8.47-13.23.52 5.9 3.46 10.43 6.46 15.32 6.35 10.19 11.89 20.75 17.87 31.14 1.16 2.13 2.61 4.58 2.73 7.04.32 5.49-1.43 11.34-2.04 16.88-.99 6.42-.23 12.12-4.62 17.48l2.76 2.61c-3.6 5.94-8.61 10.76-12.21 16.69l.02 1.57c2.55-3.93 5.14-7.88 8.04-11.56 1.92-2.53 3.85-4.71 4.91-7.76 3.27-9.41 3.63-18.64 5.22-28.19.69-4.06 3.32-6.59 4.61-10.44 1.28-3.8 1.95-7.82 2.98-11.71 3.12-12.6 7.44-23.75 8.17-36.77 2.23-.18 4.46-.32 6.7-.42.64 8.63.26 17.35-.15 26l1.7-.97c1.91-7.88 3.77-17.22 1.81-25.19-2.06-5.34-8.82-4.34-12.46-1.37"/><path fill="#fbfbfb" d="M364.59 288.09c-3.45 3.84-6.27 8.26-3.83 13.5 2.7 4.05 9.01 5.38 12.93 8.24.86-.18 1.73-.34 2.6-.49-5.22-6.49-7.97-13.95-11.7-21.25"/><path fill="#a1a1a1" d="M309.86 291.77c-.8 7.37-3.25 14.19-5.49 21.2 1.3-3.03 2.67-6.03 4.16-8.97l.91 1.1c8.26 8.93 14.21 19.22 23.6 27.11.75-2.76 1.72-5.08-.05-7.71-3.72-6.06-8.56-10.92-10.89-17.83-2.8-6.18-6.05-11.6-12.24-14.9"/><path fill="#040404" d="M558.88 303.6c-2.6-1.03-7.29-.59-8.06 2.71-1.18 3.31-1.82 6.8-2.94 10.14-2.3 6.95-5.51 13.68-8.99 20.11-1.57 2.86-3.25 5.63-4.94 8.41l2.17-.24c4.04-4.85 6.91-10.81 9.7-16.45 3.61-7.3 5.5-15 8.06-22.68 4.61 1.19 6.17 2.73 8.08 7.03 1.93 3.7.07 7.03-1.18 10.59-2.71 6.35-5.6 12.71-9.23 18.6q.195 1.245.36 2.49c5.06-6.28 8.74-13.77 11.63-21.27 1.21-3.44 2.65-7.75 1.29-11.32-1.16-3.06-3.13-6.35-5.95-8.12"/><path fill="#fff" d="M308.53 304c-1.49 2.94-2.86 5.94-4.16 8.97-1.91 5.65-5.85 10.29-7.83 15.83 3.08 3.25 7.38 5.43 10.8 8.38 7.9 6.76 12.52 15.55 19.36 23.1l1.02-6.2c.47-3.82 1.1-7.65 1.34-11.49.32-3.34-1.74-6.04-3.33-8.78-5.72-9.43-11.58-18.71-16.29-28.71z"/><path fill="#bebebe" d="M309.44 305.1c4.71 10 10.57 19.28 16.29 28.71 1.59 2.74 3.65 5.44 3.33 8.78-.24 3.84-.87 7.67-1.34 11.49 1.57-7.41 2.89-14.69 5.32-21.87-9.39-7.89-15.34-18.18-23.6-27.11"/><path fill="#d9d9d9" d="M376.29 309.34c-.87.15-1.74.31-2.6.49-2.47.51-4.93 1.05-7.38 1.6 2.91 3.37 6.05 6.49 9.65 9.14 3.6 2.66 7.46 5.84 11.94 6.7 5.74 1.12 11.62 1.67 17.46 1.37-4.35-.26-8.48-.8-12.2-3.24-6.46-4.11-11.76-10.41-16.87-16.06"/><path fill="#a1a1a1" d="M507.72 317.05c-.49 1.54-.94 3.1-1.39 4.65-.98-.5-1.96-1-2.93-1.5 3.37 6.61 6.32 13.32 10.32 19.6 1.17-2.92 3.46-5.61 1.8-8.79-2.22-4.83-5.19-9.34-7.8-13.96"/><path fill="#b2b2b2" d="m538.31 317.51-1.7.97c-2.49 5.73-3.01 11.66-3.88 17.86-.5 3.64-.15 7.22.26 10.84 1.06-.8 2.11-1.59 3.13-2.45l-2.17.24c1.69-2.78 3.37-5.55 4.94-8.41-.7.03-1.39.05-2.08.08 1.02-6.38 1.44-12.68 1.5-19.13"/><path fill="#e1e1e1" d="M294.72 330.52c-.87.82-1.71 1.66-2.55 2.51 5.88 2.72 10.43 6.88 15.6 10.64l-.16-1.78c-3.72-4.34-8.32-7.96-12.89-11.37"/><path fill="#a2a2a2" d="M292.17 333.03c-1.45 1.47-2.83 3.02-4.21 4.55 1.18 1.33 2.35 2.66 3.52 4-1.01.51-2.02 1.02-3.03 1.54 13.62 4.47 22.91 13.69 35.07 20.33-4.6-7.57-10.27-14.74-15.91-21.56l.16 1.78c-5.17-3.76-9.72-7.92-15.6-10.64"/><path fill="#f9f9f9" d="M287.96 337.58c-1.15 1.29-2.3 2.59-3.44 3.89 1.31.56 2.61 1.12 3.93 1.65 1.01-.52 2.02-1.03 3.03-1.54-1.17-1.34-2.34-2.67-3.52-4"/><path fill="#979797" d="M551.55 341.82c-3.53 5.03-7.01 10.06-9.91 15.49 3.88-1.89 7.69-3.92 11.57-5.81-.53-.93-1.02-1.87-1.42-2.86l.03-1.18c.04-1.05.09-2.09.09-3.15q-.165-1.245-.36-2.49"/><path fill="#020202" d="M249.12 345.07c-2.98-.87-6.61.01-9.67.2-10.58.9-21.04 2.63-31.57 3.88-5.89.78-12.47-.67-17.56 2.7-5.26 3.46-9.6 8.53-13.27 13.61-4.37 5.97-6.66 12.96-10.87 19.03-9.91 15.28-16.65 31.72-23.38 48.55-6.87 18.78-12.71 37.91-16.83 57.49-4.05 18.21-7.35 36.57-11.14 54.83-2.62 14.7-5.71 29.23-7.68 44.02-.56 4.43-1.59 8.82-2 13.27-.3 1.99 1.31 3.75 2.25 5.38 2.25 3.16 3.64 7 6.23 9.86 12.02 7.67 24.65 11.95 37.76 17.23 6.32 2.6 12.42 3.15 17.34 8.41-3.15-9.28-8.58-17.42-15.08-24.68-5.52-6.12-12.8-9.8-18.39-15.83a58 58 0 0 1 9.94 5.24c5.41 3.56 10.91 6.95 15.46 11.59 3.47 3.56 6.63 7.46 9.49 11.53 1.49 2.29 3.04 4.5 2.84 7.37-.26 4.15-1.24 8.26-1.76 12.39 1.25.26 2.49.51 3.74.76.93-5.55 1.65-11.12 1.92-16.74 5.99-.07 11.44 1.44 17.07 3.26-1.54-1.88-2.69-3.72-5.14-4.51-5.29-1.8-11.17-2.3-16.73-2.68-2.47-4.49-4.78-8.77-8.17-12.67-5.07-5.87-11.36-10.31-18.25-13.81-7.98-3.97-14.51-9.63-22.99-12.64 2.3-6.09 4.83-11.78 9.34-16.6 2.17-2.31 5.12-4.88 8.4-5.13 1.16.73 2.17 1.64 3.13 2.61 11.54 12.52 20.35 26.39 29.07 40.93 2.7 4.51 4.91 9.07 8 13.33-.94-7.63-5.27-12.93-8.94-19.43-8.11-13.98-17.12-26.99-28.2-38.79-2.91-3.17-7.84-.89-10.67 1.23-7.31 5.69-12.54 14.79-14.22 23.87 4.94 2.17 8.99 5.21 12.93 8.83 12.14 10.36 23.78 19.21 31.08 33.88-13.17-6.36-26.8-11.58-40.02-17.83-2.57-1.27-5.36-2.54-7.17-4.84-1.93-2.47-3.54-5.19-5.31-7.77-1.26-2.04-2.71-3.69-2.51-6.24.27-5.69 1.6-11.41 2.67-17 2.58-12.92 4.66-25.9 7.6-38.76 3.52-16.35 7.04-32.7 10.31-49.11 4.26-18.55 9.1-37.16 15.74-55.02 6.99-19.02 15.01-38.75 25.86-55.93 4.58-7.28 10.45-13.55 14.98-20.85 2.24-3.52 4.8-6.69 8.52-8.73 2.7-1.52 6.18-1.08 9.19-1.15 7.95.22 15.17-1.58 23.01-2.46 8.73-1.21 17.51-1.92 26.27-2.92-.83-1.07-1.67-2.2-2.62-3.16"/><path fill="#040404" d="m551.82 347.46-.03 1.18c.4.99.89 1.93 1.42 2.86 2.88 4.39 4.79 8.72 9.29 11.76-1.13-6.69-5.33-11.88-10.68-15.8m8.68 17.52c-3.77 3.84-6.57 8.92-9.63 13.36-3.75 5.77-8.21 11.65-10.7 18.01 4.33-3.59 7.31-8.13 10.27-12.84 1.03-1.63 2.07-3.27 3.17-4.87 3.37 3.76 6.33 8.01 9.68 11.8 3.67 3.78 7 7.67 10.19 11.86 14.94 19.05 29.84 38.21 43.64 58.12 1.67 2.48 3.79 4.99 4.82 7.81.4 2.45-1.56 5.34-3.16 7.06-2.49 2.65-5.62 3.21-8.95 4.17-2.84-6.05-5.63-12.11-8.79-18.01-5.72-10.67-10.88-21.28-17.57-31.42-4.54-6.87-8.94-13.83-13.47-20.7-2.26-3.43-4.69-6.76-6.79-10.28-2.55-4.28-5.37-8.37-8.72-12.07.01.98.04 1.96.08 2.94 3.34 6.62 7.83 12.88 11.81 19.2 5.79 9.17 12 18.06 17.8 27.21 5.03 7.95 9.07 16.25 13.66 24.44 2.77 5.04 5.68 9.64 7.78 15.01.78 1.9 1.43 4.01 2.52 5.74 8.09 1.95 14.96-5.04 16.08-12.52-.5-3.51-3.07-6.87-4.92-9.83-12.41-18.32-26.24-35.72-39.72-53.26-5.24-6.93-11.18-13.43-17.06-19.93-2.49-2.78-5.5-5.69-7.07-9.11 1.33-4.11 3.94-7.65 5.05-11.89"/><path fill="#a2a2a2" d="M553.61 378.64c-1.1 1.6-2.14 3.24-3.17 4.87 1.44 2.1 2.85 4.2 4.13 6.41-.04-.98-.07-1.96-.08-2.94 3.35 3.7 6.17 7.79 8.72 12.07-.5-2.9-.55-5.73.08-8.61-3.35-3.79-6.31-8.04-9.68-11.8"/><path fill="#ddd" d="M563.29 390.44c-.63 2.88-.58 5.71-.08 8.61 2.1 3.52 4.53 6.85 6.79 10.28.99-2.45 2-4.85 3.48-7.03-3.19-4.19-6.52-8.08-10.19-11.86"/><path fill="#838383" d="M522.47 398.33c-.32 1.59-.63 3.18-.99 4.76.72-1.13 1.48-2.23 2.24-3.33-.64 6.2-1.98 12.21-3.4 18.27 1.66-2.71 3.45-5.36 5.4-7.86-.03-1.84-.03-3.68-.01-5.51-.43-1.86-.86-3.71-1.28-5.57-.65-.26-1.31-.51-1.96-.76"/><path fill="#020202" d="M496.11 397.76c-15.53 19.91-27.24 44.39-39.31 66.52-4.1 7.13-8.3 15.08-14.03 20.99-2.49 2.69-5.63 5.19-7.64 8.24-1.71 2.41-1.06 5.6-.83 8.35 1.57 8.86.13 17.36.76 26.21l1.74-.69c.76-8.17 2.22-15.73.94-23.94-.21-2.1-.85-4.55-.34-6.64 1.06-2.51 3.58-4.56 5.52-6.42 3.56-3.19 6.7-6.76 9.48-10.64 7.36-12.83 14.27-25.8 20.75-39.1 6.89-14.19 15.5-27.47 22.98-41.31z"/><path fill="#010101" d="M538.13 399.2c-2.25.89-4.44 1.92-6.64 2.95-1.91.88-3.84 1.69-5.78 2.51-.02 1.83-.02 3.67.01 5.51 3.9-4.54 9.42-5.53 12.41-10.97"/><path fill="#b4b4b4" d="M524.43 399.09c.42 1.86.85 3.71 1.28 5.57 1.94-.82 3.87-1.63 5.78-2.51-2.33-1.08-4.67-2.13-7.06-3.06"/><path fill="#010101" d="M523.72 399.76c-.76 1.1-1.52 2.2-2.24 3.33-4.37 16.61-10.44 32.57-15.57 48.95-5.88 18.96-12.29 37.77-18.92 56.49-5.52 13.97-11.16 27.9-16.85 41.8-2.64 6.83-5.76 13.22-9.42 19.55 4.01-5.87 8.1-11.91 11.46-18.16 4.99-9.17 8.85-18.6 12.88-28.19 6.96-15.89 12.21-32.59 17.73-49.02 6.11-18.75 11.65-37.67 17.53-56.48 1.42-6.06 2.76-12.07 3.4-18.27"/><path fill="#fff" d="M573.48 402.3c-1.48 2.18-2.49 4.58-3.48 7.03 4.53 6.87 8.93 13.83 13.47 20.7 6.69 10.14 11.85 20.75 17.57 31.42 3.16 5.9 5.95 11.96 8.79 18.01 3.33-.96 6.46-1.52 8.95-4.17 1.6-1.72 3.56-4.61 3.16-7.06-1.03-2.82-3.15-5.33-4.82-7.81-13.8-19.91-28.7-39.07-43.64-58.12"/><path fill="#060606" d="M369.36 426.06c2.37 6.42 6.04 11.62 9.23 17.85 4.02 7.81 8.44 15.36 13.53 22.52 2.01 3.16 4.58 6.38 3.5 10.36-2.15 9.45-8.6 18.59-13.28 27.02-8.87 15.72-17.62 31.54-26.19 47.42-.14.66-.27 1.32-.39 1.99 10.94-14.01 18.35-29.38 27.04-44.91 3.53-6.44 7.37-12.8 10.44-19.47 2.17-4.68 3.54-9.56 4.99-14.48 4.04 3.7 7.48 7.53 12.64 9.73-2.3-4.91-6.28-7.78-10.08-11.4-6.2-5.83-10.7-13.59-15.25-20.77-5.72-8.99-9.11-17.87-16.18-25.86"/><path fill="#dcdcdc" d="M213.89 450.61c-3.1 6.28-4.32 12.73-6.09 19.44-2.32 9.03-3.79 18.27-5.76 27.42-1.9 9.61-4.53 18.94-5.42 28.73 1.32-5.45 3.05-10.81 4.63-16.2-.23 4.69-.38 9.44-.92 14.11 4.72-19.29 6.86-38.95 10.7-58.4.99-5.04 2.19-10 2.86-15.1"/><path fill="#c6c6c6" d="M452.4 479.74c-2.78 3.88-5.92 7.45-9.48 10.64-1.94 1.86-4.46 3.91-5.52 6.42-.51 2.09.13 4.54.34 6.64 1.28 8.21-.18 15.77-.94 23.94l.89-.37c4.46-11.12 7.72-22.71 11.94-33.93 1.72-4.31 2.34-8.76 2.77-13.34"/><path d="M413.5 487.47c-4.55 3.85-6.39 9.92-9.41 15.14-6.33 11.41-13.08 22.66-20.7 33.25-4.08 5.97-7.93 12.07-12.1 17.97 2.01-.77 4.02-1.56 6.04-2.31-.21 5.55-.6 10.91-.03 16.46.57 5.37 1.68 10.55 1.8 15.97.58 21.68 3.59 43.17 6.1 64.57 1.09 8.35.61 16.97.74 25.48.11 5.92-1.15 11.55-2.5 17.26-9.18.27-18.4.36-27.58-.07-1.31-5.68-3.22-11.16-5.06-16.68-2.1-6.23-2.74-12.28-5.76-18.19.77 12.41 4.97 23.51 9.43 34.94-24.65.3-49.32-.08-73.97.03-6.35.12-12.65-.63-19-.58-43-.05-86 .02-129-.35-11.33-.01-22.66-.02-34-.01-6.34.06-12.59-.73-18.94-.15-25.12.4-50.29-.34-75.41.3.43 1.17.83 2.37 1.36 3.5 3.52.82 7.4.43 11 .5 41.67.03 83.32.37 124.99.35 12.33.51 24.66.27 37 .33 60.33 0 120.67.13 181 .28 67.94.14 136.04.16 204 .29 11.67-.01 23.34-.01 35 .41 33.99.05 68 .03 102 .05 7.92.07 15.8-.65 23.72-.63-.01-.69-.01-1.38-.02-2.07-18.56-.24-37.16.17-55.7-.77-51.33-.24-102.67-.29-154-.43-6.35.08-12.65-.68-19-.61-36.27-.01-72.55-.27-108.82-.14 1.62-6.51 3.39-12.76 3.36-19.55.03-8.39.3-17.06-.85-25.37-2-15.33-4.08-30.66-5.81-46.02-.67-8.95-1.01-17.74-2.62-26.62-1.22-6.65-2.14-13.27-1.69-20.06 5.63 3.57 9.9 8.27 14.92 12.56 3.7 3.27 7.73 6.3 11.15 9.86 2.81 2.92 4.55 6.77 7.4 9.57 2.81 2.64 6.6 3.86 10.22 4.92-1.2-3.29-2.28-4.93-5.12-6.99-4.64-3.25-6.48-8.59-11.11-11.85-7.09-5.33-13.7-11.21-20.53-16.84-2.76-2.19-5.7-4.11-8.66-6.01 1.26-1.46 2.51-2.91 3.74-4.4 6-7.21 10.78-15.23 16.17-23.02 4.03-7.31 7.68-14.82 11.83-22.06 1.89-3.96 3.76-7.81 4.42-12.21"/><path fill="#c6c6c6" d="M409.08 499.68c-4.15 7.24-7.8 14.75-11.83 22.06-1.24 2.71-2.35 5.49-3.51 8.24 2.06 2.15 4.75 4.46 5.88 7.25 1.37 5.72-4.01 12.56-10.07 11.89-3.06-.31-6-2.67-8.47-4.36-1.23 1.49-2.48 2.94-3.74 4.4 2.96 1.9 5.9 3.82 8.66 6.01 4.25-1.92 9.35-3.57 12.42-7.21 3.09-3.64 5.44-7.93 8.19-11.84 3.87-5.51 6.77-11.54 10.94-16.85-3.76-3.57-7.56-7.01-10.71-11.16 2.28.31 4.47.77 6.54 1.84-1.93-1.71-3.86-3.41-5.82-5.08.49-1.74.97-3.48 1.52-5.19"/><path fill="#cfcfcf" d="M434.3 501.86c-3.13 5.49-6.53 10.79-10.05 16.04-3.28-2.29-6.64-4.51-9.77-6.99 4.42 5.07 9.87 8.84 14.71 13.43 2.1 1.85 2.72 4.22 3.36 6.84-6.26-1.89-8.99-6.64-13.8-10.75.97 3.17 1.56 6.56 2.8 9.63 1.7 4.6 7.96 6.69 12.1 4.13 2.12-1.55 3.03-4.86 4.04-7.18l-.89.37-1.74.69c-.63-8.85.81-17.35-.76-26.21"/><path fill="#2b2b2b" d="M294.72 506.72c2.1 5.67 5.39 10.63 7.83 16.14 2.95 5.01 5.95 9.87 9.8 14.25-1.34-4.64-3.22-9.01-5.94-13.01-2.72-4.04-5.43-7.95-7-12.62 4.81 3.35 6.8 8.32 10.68 12.49-.92-2.83-2.11-5.51-3.81-7.96-3.25-3.98-6.58-7.54-11.56-9.29"/><path fill="#030303" d="M406.84 508.11c3.15 4.15 6.95 7.59 10.71 11.16l1.2 1.16c4.81 4.11 7.54 8.86 13.8 10.75-.64-2.62-1.26-4.99-3.36-6.84-4.84-4.59-10.29-8.36-14.71-13.43l-1.1-.96c-2.07-1.07-4.26-1.53-6.54-1.84"/><path fill="#a1a1a1" d="M201.25 510c-1.58 5.39-3.31 10.75-4.63 16.2-1.82 12.57-1.49 24.67-4.88 37.05-1.64 5.8-2.56 11.46-2.23 17.51l3.26.18c-.29-6.6.76-12.84 2.52-19.18 3.37-12.45 2.57-24.99 5.04-37.65.54-4.67.69-9.42.92-14.11"/><path fill="#a2a2a2" d="M299.41 511.48c1.57 4.67 4.28 8.58 7 12.62 2.72 4 4.6 8.37 5.94 13.01-3.85-4.38-6.85-9.24-9.8-14.25.81 3.13 1.34 6.11 3.32 8.77 7.14 9.41 13.02 19.89 18.82 30.17 2.09 3.87 5.19 6.71 8.18 9.85 2.63 2.4 1.85 6.25 1.89 9.43.47-6.09.48-12.19.65-18.29.92.15 1.84.31 2.76.46.02 3 .05 6-.01 9 2.37-1.38 6-2.88 7.01-5.64 1.4-3.69-.06-6.99-1.76-10.24-6.28-4.41-10.25-10.44-14.83-16.42-3.57-4.85-6.58-10.07-10-15.04-1.78-2.55-2.97-5.07-3.47-8.16 3.02 2.37 5.28 5.21 7.19 8.51 5.62 9.55 11.6 18.72 19.05 26.97-.04-1.05-.08-2.11-.13-3.16-1.23-3.21-2.88-6.07-4.97-8.8-4.61-6.07-9.4-11.99-14-18.07-1.94-2.43-4.36-5.64-7.43-6.6-2.67-.69-5.85.04-8.54.41 1.7 2.45 2.89 5.13 3.81 7.96-3.88-4.17-5.87-9.14-10.68-12.49"/><path fill="#030303" d="M315.11 516.75c.5 3.09 1.69 5.61 3.47 8.16 3.42 4.97 6.43 10.19 10 15.04 4.58 5.98 8.55 12.01 14.83 16.42-.7-1.38-1.38-2.76-2.06-4.14-7.45-8.25-13.43-17.42-19.05-26.97-1.91-3.3-4.17-6.14-7.19-8.51"/><path fill="#a2a2a2" d="M397.25 521.74c-5.39 7.79-10.17 15.81-16.17 23.02 2.47 1.69 5.41 4.05 8.47 4.36 6.06.67 11.44-6.17 10.07-11.89-1.13-2.79-3.82-5.1-5.88-7.25 1.16-2.75 2.27-5.53 3.51-8.24"/><path fill="#d1d1d1" d="M341.22 549.07c.05 1.05.09 2.11.13 3.16.68 1.38 1.36 2.76 2.06 4.14 1.7 3.25 3.16 6.55 1.76 10.24-1.01 2.76-4.64 4.26-7.01 5.64-.09 2.83-.22 5.66-.32 8.49.19 3.11.54 6.22.85 9.32.55-2.96.96-6.09 2.01-8.93 1.27-3.18 5.03-5.26 6.63-8.25 1.13-2.71 1.54-5.73 2.54-8.5.48-.64.97-1.26 1.48-1.88l.08 1.09c.33 3.09.49 6.29 1.22 9.32 1.02 3.9 3.47 6.98 4.01 11.01.48 4 .19 8.15-.14 12.16.67-9.73 3.14-19.43 3.03-29.16.06-5.36-5.05-8.79-3.79-13.7.12-.67.25-1.33.39-1.99-2.97 3.11-6.57 5.24-10.41 7.11-1.54-3.07-3.11-6.14-4.52-9.27"/><path fill="#010101" d="M351.35 562.5c-.51.62-1 1.24-1.48 1.88-1.34 9.65-2.17 19.41-3.23 29.11-1.43 11.88.42 23-2.52 34.75-2.75-7.08-4.2-14.82-5.92-22.22-1.87-8.43-1.39-16.79-.36-25.28.1-2.83.23-5.66.32-8.49.06-3 .03-6 .01-9-.92-.15-1.84-.31-2.76-.46-.17 6.1-.18 12.2-.65 18.29-.63 9.06-1.53 19.02.56 27.92 1.68 7.14 2.61 14.12 5.27 21.01.7 2.25 2.19 5.48 1.18 7.75-2.77 2.18-6.23 3.63-9.44 5.05-7.91 3.33-16.12 5.91-24.79 5.87-7.05.03-14.24.17-21.25-.57-10.1-1.15-20.69-.41-30.86-.75-8.5-.23-15.4-5.26-24.09-4.96 1.84 1.88 3.8 3.53 6.23 4.57 5.32 2.37 11.03 4.21 16.89 4.36 6.35.17 12.7-.28 19.05-.11 7.36.07 14.62 1.23 21.99 1.23 5.72.02 11.47.15 17.18-.18 8.99-1.83 17.45-4.8 25.42-9.37 1.49-.75 2.99-1.49 4.51-2.17 2.45 3.55 4.9 6.42 2.13 10.74-7.37 2.85-14.63 5.97-22.05 8.69-7.79 2.77-15.87 4.82-24.03 6.16-14.48 2.84-29.44 3.69-44.16 4.01-8.72.37-16.87-1.97-25.58-.57 6.33 2.16 12.81 3.63 19.52 3.71 8.66.12 17.35.21 26-.22 14.48-1.26 28.62-3.41 42.53-7.74 10.93-3.49 20.68-8.48 30.96-13.37-1.7-6.31-2.81-12.46-1.51-18.98 1.03-4.45 2.36-8.62 2.59-13.23.34-6.98-.16-13.97.31-20.96.32-4.64.62-9.28.82-13.94.32-7.15 1.46-14.38 1.29-21.44z"/><path fill="#a2a2a2" d="M351.43 563.59c.17 7.06-.97 14.29-1.29 21.44-.2 4.66-.5 9.3-.82 13.94-.47 6.99.03 13.98-.31 20.96-.23 4.61-1.56 8.78-2.59 13.23 2.57-1.72 6.49-3.72 7.54-6.81 1.21-3.87.93-8.38 1.06-12.4-.01-6.02.85-11.9 1.5-17.87.33-4.01.62-8.16.14-12.16-.54-4.03-2.99-7.11-4.01-11.01-.73-3.03-.89-6.23-1.22-9.32m-1.56.79c-1 2.77-1.41 5.79-2.54 8.5-1.6 2.99-5.36 5.07-6.63 8.25-1.05 2.84-1.46 5.97-2.01 8.93-.31-3.1-.66-6.21-.85-9.32-1.03 8.49-1.51 16.85.36 25.28 1.72 7.4 3.17 15.14 5.92 22.22 2.94-11.75 1.09-22.87 2.52-34.75 1.06-9.7 1.89-19.46 3.23-29.11"/><path fill="#020202" d="M239.55 574.62c-3.48 1.3-5.8 5.66-7.85 8.58-4.95 7.67-10.42 14.96-15.42 22.59-6.32 9.62-13.79 18.28-21.81 26.5 3.14-1.12 6.07-2.42 8.35-4.95 6.41-7.05 12.29-14.55 17.46-22.56 6.52-9.32 12.76-18.84 19.39-28.07 6.21 3.92 10.44 9.27 14.15 15.5-5.28 5.44-11.07 10.33-16.24 15.89-7.82 8.18-16.22 15.76-24.06 23.92-5.39 5.64-11.75 9.91-17.51 15.16-.17-2.52-.36-5.04-.66-7.55-2.53 5.84-3.44 11.91-4.66 18.1-6.42-.49-12.58-2.04-18.85-3.36 1.02 1.9 1.27 4.04 3.6 4.71 5.66 1.78 11.98 1.85 17.87 2.31.32-3.54.39-7.51 1.6-10.88.51-1.57 1.76-2.23 3.11-2.99 2.64-1.39 5.46-2.46 8.17-3.71 5.92-2.7 11.24-5.71 17.63-7.34 6.85-1.81 13.68-1.94 20.7-2.27 3.6-.36 8.32-.45 11.01-3.18 4.63-4.38 7.64-10.55 7.54-17 .24-11.17-5.54-22.64-12.43-31.16-2.76-3.24-6.66-7.64-11.09-8.24"/><path fill="#717171" d="M441.94 581.95c-3.85.42-6.05 1.34-9 3.8 2.13-.02 4.66.29 6.69-.49.9-.98 1.62-2.17 2.31-3.31"/><path fill="#a2a2a2" d="M254.77 594.46c-5.15 5.79-10.33 11.55-15.45 17.37-6.82 7.87-14.61 14.65-22.01 21.93 8.69-2.45 17.43-3.16 26.42-3.35-3.88.04-7.73-.31-11.56-.92 3.94-1.97 7.78-1.3 11.98-1.7 5.86-5.42 8-16.86 15.46-20.56-.96-4.43-2.75-8.76-4.84-12.77"/><path fill="#a3a3a3" d="M135.26 603.02c5.59 6.03 12.87 9.71 18.39 15.83 6.5 7.26 11.93 15.4 15.08 24.68-4.92-5.26-11.02-5.81-17.34-8.41-13.11-5.28-25.74-9.56-37.76-17.23 1.21 1.33 2.47 2.62 3.72 3.91-3.12 2.56-5.49 3.31-9.52 3.71.48.3.95.61 1.42.92 2.66-.13 5.18-.08 7.61 1.14 9.29 4.42 17.46 10.91 27.15 14.94 8.04 3.56 16.43 5.28 24.7 8.13.84.16 1.68.33 2.52.5.52-4.13 1.5-8.24 1.76-12.39.2-2.87-1.35-5.08-2.84-7.37-2.86-4.07-6.02-7.97-9.49-11.53-4.55-4.64-10.05-8.03-15.46-11.59a58 58 0 0 0-9.94-5.24"/><path fill="#fefefe" d="M244.15 627.79c-4.2.4-8.04-.27-11.98 1.7 3.83.61 7.68.96 11.56.92 3-.21 7 .01 9.59-1.66 6.2-5.53 7.64-13.58 6.29-21.52-7.46 3.7-9.6 15.14-15.46 20.56"/><path fill="#010101" d="M109.25 626.43c3.73 2.59 7.47 5.14 11.45 7.33 7.96 4.39 14.87 9.45 23.55 12.54 8.09 2.78 15.77 5.26 24.46 4.34-8.27-2.85-16.66-4.57-24.7-8.13-9.69-4.03-17.86-10.52-27.15-14.94-2.43-1.22-4.95-1.27-7.61-1.14m-3.52 1.68c-5.36 1.81-8.99 5.35-13.26 8.87-1.86 1.68-3.8 3.07-4.31 5.68-1.15 5.59-.81 11.67-1 17.36-.01 9.75-2.28 18.61-1.03 28.42 4.14-9.07 3.63-17.78 4.58-27.44.34-4.71.07-9.39.14-14.1.13-1.94-.07-3.68 1.44-5.16 4.46-4.58 9.67-8.12 13.44-13.63"/><path fill="#fafafa" d="M342.61 640.73c-1.52.68-3.02 1.42-4.51 2.17-.25.78-.52 1.56-.78 2.34 2.45 2.1 4.91 4.2 7.42 6.23 2.77-4.32.32-7.19-2.13-10.74"/><path fill="#a2a2a2" d="M217.9 641.16c-4.08 1.16-7.97 3.15-11.86 4.83l.15-2.18c-2.71 1.25-5.53 2.32-8.17 3.71-1.35.76-2.6 1.42-3.11 2.99-1.21 3.37-1.28 7.34-1.6 10.88.64-2.12 1.25-4.24 1.87-6.36 6.47 4.72 13.56 7.22 21.35 8.77 3.5.73 7.03 1.36 10.53 2.09l-1.38 2.76c1.06.42 2.15.78 3.24 1.11 8.71-1.4 16.86.94 25.58.57 14.72-.32 29.68-1.17 44.16-4.01-1.14.13-2.28.24-3.42.34.77-1.92 2.7-4.4 2.42-6.48-1.29-2.7-4.83-4.49-7.13-6.28 7.41-1.28 14.81-.06 22.15-1.63-5.71.33-11.46.2-17.18.18-7.37 0-14.63-1.16-21.99-1.23-6.35-.17-12.7.28-19.05.11-5.86-.15-11.57-1.99-16.89-4.36-2.43-1.04-4.39-2.69-6.23-4.57-4.33-.49-9.23-2.54-13.44-1.24"/><path fill="#b4b4b4" d="M338.1 642.9c-7.97 4.57-16.43 7.54-25.42 9.37-7.34 1.57-14.74.35-22.15 1.63 2.3 1.79 5.84 3.58 7.13 6.28.28 2.08-1.65 4.56-2.42 6.48 1.14-.1 2.28-.21 3.42-.34 8.16-1.34 16.24-3.39 24.03-6.16 7.42-2.72 14.68-5.84 22.05-8.69-2.51-2.03-4.97-4.13-7.42-6.23.26-.78.53-1.56.78-2.34"/><path fill="#d0d0d0" d="M216.53 663.8c3.21 1.36 6.08 3.23 9.15 4.85l1.38-2.76c-3.5-.73-7.03-1.36-10.53-2.09"/><path fill="#010101" d="m-3.65 782.32-.03 4.39c61.39.13 122.79.02 184.18.09 7.35.32 14.65.54 22 .42 70.33.06 140.67-.09 211 .15 137.33.13 274.67.18 412 0 7.38-.08 14.78.11 22.15-.28-3.67-1.14-7.3-1.83-11.16-1.79-5.68.03-11.32-.62-16.99-.65-47-.14-94-.4-141-.35-7 .1-13.95-.77-20.95-.64-114.69-.11-229.37-.31-344.05-.42-4.34-.02-8.66-.45-13-.48-101.4-.16-202.74-.08-304.15-.44"/></svg>