<svg xmlns="http://www.w3.org/2000/svg" width="31" height="31" fill="none"><path stroke="#fff" stroke-width="2.5" d="M24.541 3.875H6.458c-.714 0-1.292.578-1.292 1.292v14.208c0 .713.578 1.292 1.292 1.292H24.54c.713 0 1.292-.579 1.292-1.292V5.167c0-.714-.579-1.292-1.292-1.292Z"/><path fill="#fff" d="M9.042 18.73a1.292 1.292 0 1 0 0-2.584 1.292 1.292 0 0 0 0 2.583M21.958 18.73a1.292 1.292 0 1 0 0-2.584 1.292 1.292 0 0 0 0 2.583"/><path stroke="#fff" stroke-linecap="round" stroke-linejoin="round" stroke-width="2.5" d="M21.958 7.75H9.04v6.458h12.917zM20.666 20.667l5.167 5.813M10.979 20.667 5.166 26.48"/></svg>