<svg width="161" height="31" viewBox="0 0 161 31" fill="none" xmlns="http://www.w3.org/2000/svg">
<path d="M14.3348 28.564L13.3055 27.5385C12.8977 27.1322 12.5459 26.6733 12.2594 26.174L11.6941 25.1891C9.5759 21.4978 11.5328 16.8017 15.6454 15.7069L16.6418 15.4417C18.7287 14.8861 20.9553 15.4073 22.5788 16.8315L24.476 18.4957C27.9838 21.5727 27.1851 27.2373 22.9633 29.2244L21.6643 29.8359C19.197 30.9973 16.2665 30.4887 14.3348 28.564Z" fill="#84BA6D" fill-opacity="0.35"/>
<path d="M138.691 25.1171L134.579 21.0203C134.171 20.614 133.82 20.1551 133.533 19.6558L129.675 12.9333C127.557 9.24207 129.514 4.54594 133.627 3.45114L142.537 1.07916C144.624 0.523607 146.851 1.04482 148.474 2.46896L157.932 10.7655C161.44 13.8425 160.641 19.5071 156.419 21.4942L146.021 26.389C143.553 27.5503 140.623 27.0418 138.691 25.1171Z" fill="#84BA6D" fill-opacity="0.35"/>
<path d="M1.6499 14.5093L1.36915 14.2296C1.16652 14.0277 0.991711 13.7997 0.849342 13.5516L0.783583 13.437C-0.235783 11.6607 0.705946 9.40074 2.68507 8.87389C3.68937 8.60654 4.76086 8.85737 5.54214 9.5427L5.95505 9.90491C7.66294 11.4031 7.27408 14.1611 5.21855 15.1286C4.01725 15.694 2.59046 15.4464 1.6499 14.5093Z" fill="#84BA6D" fill-opacity="0.35"/>
</svg>
