<svg width="212" height="30" viewBox="0 0 212 30" fill="none" xmlns="http://www.w3.org/2000/svg">
<path d="M9.07438 27.9909L5.35726 24.2874C4.94947 23.8811 4.59767 23.4222 4.31115 22.9229L0.875018 16.9351C-1.24323 13.2438 0.713692 8.54772 4.82633 7.45292L12.7233 5.3507C14.8103 4.79514 17.0368 5.31636 18.6603 6.7405L27.1503 14.1878C30.658 17.2648 29.8594 22.9294 25.6376 24.9165L16.4039 29.2628C13.9366 30.4242 11.0062 29.9157 9.07438 27.9909Z" fill="#8588DD" fill-opacity="0.35"/>
<path d="M200.351 11.6928L199.785 11.129C199.377 10.7227 199.025 10.2638 198.739 9.76454L198.606 9.53317C196.553 5.95557 198.449 1.40404 202.435 0.342945C204.458 -0.195501 206.616 0.309666 208.19 1.68995L209.021 2.41945C212.461 5.43676 211.678 10.9914 207.538 12.94C205.118 14.0789 202.245 13.5802 200.351 11.6928Z" fill="#8588DD" fill-opacity="0.35"/>
</svg>
