<svg width="97" height="28" viewBox="0 0 97 28" fill="none" xmlns="http://www.w3.org/2000/svg">
<path d="M76.4152 23.1082L72.6981 19.4047C72.2903 18.9984 71.9385 18.5395 71.652 18.0402L68.2158 12.0524C66.0976 8.36115 68.0545 3.66503 72.1671 2.57023L80.0642 0.468006C82.1511 -0.0875461 84.3777 0.433671 86.0012 1.85781L94.4911 9.30513C97.9988 12.3821 97.2002 18.0467 92.9784 20.0339L83.7447 24.3801C81.2774 25.5415 78.347 25.033 76.4152 23.1082Z" fill="#FF7779" fill-opacity="0.35"/>
<path d="M8.30909 25.9179L7.62769 25.239C7.2199 24.8327 6.8681 24.3738 6.58158 23.8745L6.38798 23.5372C4.26974 19.8459 6.29979 15.1303 10.4124 14.0355C12.4994 13.48 14.7559 13.9932 16.3794 15.4173L17.4233 16.333C20.9311 19.41 20.1324 25.0746 15.9106 27.0618L15.6386 27.1898C13.1713 28.3511 10.2409 27.8426 8.30909 25.9179Z" fill="#FF7779" fill-opacity="0.35"/>
<path d="M1.6499 13.214L1.36915 12.9343C1.16652 12.7324 0.991711 12.5044 0.849342 12.2563L0.783583 12.1417C-0.235783 10.3654 0.705946 8.10545 2.68507 7.5786C3.68937 7.31125 4.76086 7.56208 5.54214 8.24742L5.95505 8.60962C7.66294 10.1078 7.27408 12.8658 5.21855 13.8333C4.01725 14.3988 2.59046 14.1512 1.6499 13.214Z" fill="#FF7779" fill-opacity="0.35"/>
</svg>
