<svg width="84" height="29" viewBox="0 0 84 29" fill="none" xmlns="http://www.w3.org/2000/svg">
<path d="M9.14177 26.8188L5.42464 23.1152C5.01685 22.7089 4.66505 22.2501 4.37854 21.7508L0.9424 15.763C-1.17584 12.0717 0.781075 7.3756 4.89371 6.2808L12.7907 4.17858C14.8777 3.62303 17.1042 4.14424 18.7277 5.56838L27.2176 13.0157C30.7254 16.0927 29.9267 21.7572 25.705 23.7444L16.4713 28.0907C14.004 29.2521 11.0735 28.7435 9.14177 26.8188Z" fill="#F8B018" fill-opacity="0.35"/>
<path d="M77.6616 5.79875L77.3809 5.51902C77.1782 5.31713 77.0034 5.08913 76.8611 4.84103L76.7953 4.72644C75.7759 2.95009 76.7177 0.690169 78.6968 0.163317C79.7011 -0.104032 80.7726 0.146794 81.5539 0.832133L81.9668 1.19434C83.6747 2.69249 83.2858 5.45048 81.2303 6.41802C80.029 6.98347 78.6022 6.73588 77.6616 5.79875Z" fill="#F8B018" fill-opacity="0.35"/>
</svg>
