<svg width="138" height="26" viewBox="0 0 138 26" fill="none" xmlns="http://www.w3.org/2000/svg">
<path d="M9.07438 23.1085L5.35726 19.4049C4.94947 18.9986 4.59767 18.5398 4.31115 18.0405L0.875018 12.0527C-1.24323 8.3614 0.713692 3.66527 4.82633 2.57047L12.7234 0.46825C14.8103 -0.087302 17.0368 0.433915 18.6603 1.85805L27.1503 9.30537C30.658 12.3824 29.8594 18.0469 25.6376 20.0341L16.4039 24.3804C13.9366 25.5417 11.0062 25.0332 9.07438 23.1085Z" fill="#4FAAFF" fill-opacity="0.35"/>
<path d="M131.906 24.7988L131.625 24.519C131.422 24.3171 131.248 24.0891 131.105 23.841L131.039 23.7264C130.02 21.9501 130.962 19.6902 132.941 19.1633C133.945 18.896 135.017 19.1468 135.798 19.8321L136.211 20.1943C137.919 21.6925 137.53 24.4505 135.474 25.418C134.273 25.9835 132.846 25.7359 131.906 24.7988Z" fill="#4FAAFF" fill-opacity="0.35"/>
</svg>
